<svg width="804" height="318" viewBox="0 0 804 318" fill="none" xmlns="http://www.w3.org/2000/svg">
<path d="M606.726 0.274481C607.049 3.18985 608.281 7.62736 611.116 11.2501C613.941 14.8597 618.368 17.6769 625.129 17.3655C631.901 17.0536 636.144 14.1023 638.733 10.5864C641.33 7.0589 642.277 2.94151 642.412 0.29583L642.427 0H785.625L785.644 0.29034C785.835 3.26472 786.968 7.76024 789.739 11.5441C792.502 15.3161 796.901 18.3936 803.664 18.5494L803.947 18.5561L803.513 299.765L803.24 299.782C800.219 299.977 795.446 301.073 791.556 303.711C787.679 306.341 784.698 310.484 785.155 316.811L785.18 317.148H641.981L641.93 316.906C641.411 314.447 639.852 310.152 637.04 306.478C634.231 302.809 630.193 299.783 624.705 299.783C618.826 299.783 614.579 302.625 611.612 306.191C608.639 309.764 606.956 314.057 606.229 316.918L606.171 317.148H17.5082L17.5086 316.836C17.5126 314.27 16.6611 310.436 14.0855 307.131C11.517 303.835 7.21449 301.04 0.271935 300.572L0.000888088 300.553L0.437428 17.7602H0.726574C3.606 17.7602 7.93024 16.8824 11.5281 14.2614C15.1105 11.6517 17.9864 7.3057 17.9973 0.312299L17.9977 0H606.696L606.726 0.274481ZM621.306 263.79L621.293 292.135L626.498 292.129L626.511 263.785L621.306 263.79ZM621.333 207.102L621.32 235.446L626.524 235.441L626.538 207.097L621.333 207.102ZM621.359 150.414L621.346 178.758L626.551 178.753L626.564 150.408L621.359 150.414ZM621.386 93.7256L621.373 122.07L626.577 122.064L626.591 93.7201L621.386 93.7256ZM621.406 51.2097L621.4 65.3814L626.604 65.3759L626.611 51.2042L621.406 51.2097Z" fill="#FFF0E4"/>
</svg>
