<svg width="69" height="41" viewBox="0 0 69 41" fill="none" xmlns="http://www.w3.org/2000/svg">
<path d="M54.3251 0C63.2794 0 67.9164 4.0374 68.2362 12.1122C68.1962 14.3508 67.6565 16.3095 66.6172 17.9884C65.5779 19.6274 64.2587 20.8866 62.6598 21.766C61.0608 22.6054 59.4418 23.225 57.8029 23.6248C56.2039 23.9846 54.585 24.1644 52.946 24.1644C51.8667 24.1644 50.9673 24.1245 50.2478 24.0445V30.0407C50.2478 32.599 50.2877 34.8776 50.3677 36.8763L58.5224 37.1761C58.5624 38.0155 58.5624 38.9349 58.5224 39.9343C52.0066 39.8943 47.9692 39.8743 46.4102 39.8743C45.9705 39.8743 44.5514 39.8943 42.153 39.9343C39.7945 39.9343 38.2355 39.9343 37.476 39.9343C37.396 38.9349 37.396 38.0155 37.476 37.1761L42.7526 36.9962C42.8725 34.198 42.9325 28.4017 42.9325 19.6074C42.9325 10.6132 42.9125 5.07673 42.8725 2.99807L37.5959 2.81819C37.516 1.93875 37.516 0.999356 37.5959 0C38.2355 0 39.7145 0.0199869 42.033 0.0599606C44.3516 0.0599606 45.7507 0.0599606 46.2303 0.0599606C46.8699 0.0599606 48.0692 0.0599606 49.828 0.0599606C51.5869 0.0199869 53.0859 0 54.3251 0ZM50.2478 14.9904V20.9865C51.1272 21.1064 51.9666 21.1664 52.7661 21.1664C54.6449 21.1264 56.2039 20.6467 57.4431 19.7273C58.6823 18.8079 59.5218 17.7486 59.9615 16.5493C60.4012 15.3501 60.6211 14.031 60.6211 12.5919C60.6211 9.75372 59.9815 7.49518 58.7023 5.81626C57.4231 4.13734 55.5443 3.27789 53.0659 3.23791H50.3077C50.2677 4.99678 50.2478 8.91426 50.2478 14.9904Z" fill="#E74155"/>
<path d="M9.29402 0.0599606H17.8085C21.8859 0.0599606 25.1238 0.839458 27.5223 2.39845C29.9607 3.95745 31.1799 6.29595 31.1799 9.41394C31.1799 11.6925 30.3605 13.6112 28.7215 15.1702C27.1225 16.7292 25.4436 17.7885 23.6848 18.3482C24.6841 18.5081 25.6835 18.8079 26.6828 19.2476C27.7222 19.6474 28.8015 20.227 29.9207 20.9865C31.08 21.706 31.9994 22.7254 32.679 24.0445C33.3985 25.3237 33.7583 26.7628 33.7583 28.3617C33.7583 32.0793 32.3592 34.9575 29.561 36.9962C26.8027 39.0349 22.8453 40.0542 17.6886 40.0542C17.2889 40.0542 16.1496 40.0342 14.2708 39.9943C12.432 39.9543 10.6731 39.9143 8.99421 39.8743C8.55449 39.8743 7.15539 39.8943 4.79691 39.9343C2.43843 39.9343 0.859447 39.9343 0.0599614 39.9343C-0.0199871 38.9349 -0.0199871 38.0155 0.0599614 37.1761L5.33657 36.9962C5.45649 34.198 5.51645 28.4017 5.51645 19.6074V11.2727C5.51645 6.79562 5.49646 4.0374 5.45649 2.99807C5.21664 2.99807 4.31722 2.97808 2.75822 2.93811C1.19923 2.89813 0.339781 2.85816 0.179884 2.81819C0.0999356 1.93875 0.0999356 0.999356 0.179884 0C1.13927 0 2.7982 0.0199869 5.15668 0.0599606C7.51516 0.0599606 8.89428 0.0599606 9.29402 0.0599606ZM16.9691 36.8163C19.9671 36.8163 22.2057 36.1367 23.6848 34.7776C25.2038 33.3785 25.9633 31.4997 25.9633 29.1412C25.9633 23.5448 22.7853 20.7466 16.4294 20.7466H14.4507C14.4107 20.7466 14.1309 20.7666 13.6112 20.8066C13.1315 20.8066 12.8717 20.8066 12.8317 20.8066C12.8317 29.0013 12.8717 34.2979 12.9517 36.6964C13.8311 36.7763 15.1702 36.8163 16.9691 36.8163ZM15.9497 3.23791H13.0116C12.8917 5.75629 12.8317 10.5932 12.8317 17.7486C12.9117 17.7486 13.1715 17.7686 13.6112 17.8085C14.051 17.8085 14.3108 17.8085 14.3907 17.8085H16.1896C18.3082 17.8085 20.0471 17.2089 21.4062 16.0097C22.8053 14.7705 23.5049 12.9716 23.5049 10.6132C23.5049 5.69633 20.9865 3.23791 15.9497 3.23791Z" fill="#E74155"/>
</svg>
