<svg width="500" height="404" viewBox="0 0 500 404" fill="none" xmlns="http://www.w3.org/2000/svg">
<path d="M320.133 254.611L296.535 254.611C294.398 248.215 293.33 242.207 293.33 236.587C293.33 224.959 298.963 215.462 310.228 208.098C321.493 200.733 335.089 197.051 351.015 197.051C360.727 197.051 369.079 198.504 376.071 201.412C383.257 204.319 388.695 208.195 392.386 213.04C396.076 217.885 398.698 222.924 400.252 228.157C402 233.196 402.874 238.525 402.874 244.145C402.68 259.65 402.583 284.069 402.583 317.404L402.583 335.137L422.977 335.718C423.171 339.982 423.171 343.664 422.977 346.765C421.423 347.153 412.294 348.8 395.591 351.707C378.887 354.42 369.273 355.971 366.748 356.358C364.417 344.73 363.252 337.656 363.252 335.137C358.785 341.339 353.152 346.474 346.354 350.544C339.556 354.42 332.952 356.358 326.543 356.358C314.695 356.358 304.887 352.773 297.118 345.602C289.543 338.432 285.755 328.935 285.755 317.113C285.755 287.461 311.005 272.441 361.504 272.053L361.504 248.506C361.31 226.994 354.512 216.238 341.11 216.238C333.924 216.238 328.097 218.273 323.629 222.342C319.356 226.219 317.22 231.257 317.22 237.459C317.22 241.529 318.191 247.246 320.133 254.611ZM360.921 324.671L360.921 284.263C350.433 284.263 341.984 286.298 335.574 290.368C329.359 294.438 326.252 300.446 326.252 308.392C326.252 323.509 332.661 331.067 345.48 331.067C351.695 331.067 356.842 328.935 360.921 324.671Z" fill="#273A5F"/>
<path d="M129.056 207.839L113.39 254.993L147.542 259.677C147.96 264.882 147.96 270.399 147.542 276.228C125.401 276.02 110.466 275.915 102.737 275.915C101.484 275.915 97.3062 276.02 90.2042 276.228C83.1023 276.228 76.2092 276.228 69.5251 276.228C69.1073 270.19 69.1073 264.569 69.5251 259.365L89.8909 255.93L157.882 67.3154L187.96 67.3154L254.698 258.74L272.244 259.365C272.453 264.569 272.453 270.19 272.244 276.228C254.071 276.02 241.12 275.915 233.392 275.915C232.139 275.915 225.559 276.02 213.653 276.228C201.955 276.228 192.451 276.228 185.14 276.228C184.932 270.399 184.932 264.882 185.14 259.677L208.013 258.428L192.034 207.839L160.388 207.839L129.056 207.839ZM161.328 112.908L133.756 192.85C136.054 192.85 139.918 192.954 145.349 193.162C150.989 193.162 155.375 193.162 158.508 193.162C168.952 193.162 178.77 192.954 187.96 192.538L161.328 112.908Z" fill="#273A5F"/>
</svg>
