<svg width="1278" height="629" viewBox="0 0 1278 629" fill="none" xmlns="http://www.w3.org/2000/svg">
<path d="M769.69 386.546C786.694 379.391 822.782 361.439 831.098 346.866C841.493 328.649 894.431 187.423 1039.96 206.903V200.409C1013.21 198.546 954.838 198.822 935.434 214.839C931.071 216.462 921.574 218.734 918.494 214.839C918.815 207.744 927.157 190.814 957.957 179.848C977.015 178.886 1019.71 173.246 1038.04 158.384C1060.95 139.807 1083.08 106.259 1117.73 109.325L1123.51 93.2727H1099.83V62.4303H1093.09L1111.19 16.4373L1151.04 52.1495C1166.13 46.955 1165.67 59.8451 1163.55 66.9395C1161.82 68.8634 1158.27 73.7572 1157.97 77.9417C1157.66 82.1262 1169.39 101.69 1175.29 110.948L1225.54 116.179C1250.95 129.225 1301.03 164.336 1298.11 200.409C1297.46 202.59 1296.78 204.585 1296.07 206.416C1282.85 217.628 1230.86 236.991 1222.07 232.875C1213.45 228.835 1205.51 241.653 1202.63 248.567C1198.16 262.419 1183.31 261.313 1176.45 259.028V248.567L1172.98 261.012C1167.59 265.052 1164.45 262.695 1163.55 261.012C1157.24 217.724 1219.95 194.878 1252.1 188.866L1210.13 161.451C1208.47 160.91 1204.36 160.982 1201.28 165.599C1197.43 171.371 1165.86 225.841 1126.59 261.012C1118.05 280.551 1089.94 320.857 1045.74 325.763C1030.27 333.519 996.919 351.303 987.217 360.393C975.09 371.756 946.022 398.27 910.794 389.432L875.566 372.297C870.818 381.796 842.995 397.945 769.69 386.546Z" fill="#FFECC2"/>
<path d="M1111.19 16.4373C1111.45 13.311 1113.58 6.08438 1120.04 2.1885C1128.13 -2.68135 1186.46 -1.59917 1197.43 28.5217C1198.97 40.5461 1201.13 66.218 1197.43 72.7111C1209.81 77.5209 1232.77 92.9481 1225.54 116.179L1175.29 110.948C1169.39 101.69 1157.66 82.1262 1157.97 77.9417C1158.27 73.7572 1161.82 68.8634 1163.55 66.9395C1165.67 59.8451 1166.13 46.955 1151.04 52.1495L1111.19 16.4373Z" fill="#283859"/>
<path fill-rule="evenodd" clip-rule="evenodd" d="M1272.51 231.071L1261.34 284.82C1285.72 298.227 1328.29 344.521 1303.5 422.438L1277.51 629H769.69H259.891H73.0276H-8V387.087H56.5221H259.891L769.69 386.546C842.995 397.945 870.818 381.796 875.566 372.297L910.794 389.432C946.022 398.27 975.09 371.756 987.217 360.393C996.919 351.303 1030.27 333.519 1045.74 325.763C1089.94 320.857 1118.05 280.551 1126.59 261.012C1165.86 225.841 1197.43 171.371 1201.28 165.599C1204.36 160.982 1208.47 160.91 1210.13 161.451L1252.1 188.866C1219.95 194.878 1157.24 217.724 1163.55 261.012C1164.45 262.695 1167.59 265.052 1172.98 261.012L1176.45 248.567V259.028C1183.31 261.313 1198.16 262.419 1202.63 248.567C1205.51 241.653 1213.45 228.835 1222.07 232.875C1230.86 236.991 1282.85 217.628 1296.07 206.416C1289.18 224.132 1279.55 226.399 1272.51 231.071ZM1201.28 279.59C1287.83 282.475 1301.89 361.355 1298.11 400.434C1293.75 428.533 1261.63 487.239 1191.08 481.779C1109.03 475.429 1094.63 422.438 1090.78 400.434C1086.93 378.429 1093.09 275.982 1201.28 279.59Z" fill="#283859"/>
<path fill-rule="evenodd" clip-rule="evenodd" d="M1298.11 400.434C1301.89 361.355 1287.83 282.475 1201.28 279.59C1093.09 275.982 1086.93 378.429 1090.78 400.434C1094.63 422.438 1109.03 475.429 1191.08 481.779C1261.63 487.239 1293.75 428.533 1298.11 400.434ZM1277.51 381.676C1286.29 321.939 1228.17 300.873 1198.01 297.806C1163.74 297.806 1111 321.073 1108.88 381.676C1106.76 442.278 1163.16 465.185 1193.96 462.479L1194.27 462.453C1225.04 459.751 1266.57 456.103 1277.51 381.676Z" fill="#FFECC2"/>
<path fill-rule="evenodd" clip-rule="evenodd" d="M1163.55 392.318L1170.29 400.434L1142.57 438.13L1152.77 448.772L1185.88 409.452H1203.78L1229.58 448.772L1244.21 438.13L1217.26 400.434L1223.8 392.318H1270.58V375.544L1222.07 375.183L1217.26 366.345L1247.1 329.37L1232.85 319.45L1201.86 357.868H1191.08L1165.47 319.45L1150.46 329.37L1178.18 366.345L1170.29 375.544H1116.58V392.318H1163.55ZM1193.96 371.034C1205.82 370.746 1209.43 381.616 1209.75 387.087C1209.75 394.662 1203.05 399.857 1193.96 400.434C1184.88 401.011 1179.66 391.776 1178.18 387.087C1178.5 381.856 1182.11 371.323 1193.96 371.034Z" fill="#FFECC2"/>
<path d="M1209.75 387.087C1209.43 381.616 1205.82 370.746 1193.96 371.034C1182.11 371.323 1178.5 381.856 1178.18 387.087C1179.66 391.776 1184.88 401.011 1193.96 400.434C1203.05 399.857 1209.75 394.662 1209.75 387.087Z" fill="#283859"/>
<path fill-rule="evenodd" clip-rule="evenodd" d="M1198.01 297.806C1228.17 300.873 1286.29 321.939 1277.51 381.676C1266.57 456.103 1225.04 459.751 1194.27 462.453L1193.96 462.479C1163.16 465.185 1106.76 442.278 1108.88 381.676C1111 321.073 1163.74 297.806 1198.01 297.806ZM1170.29 400.434L1163.55 392.318H1116.58V375.544H1170.29L1178.18 366.345L1150.46 329.37L1165.47 319.45L1191.08 357.868H1201.86L1232.85 319.45L1247.1 329.37L1217.26 366.345L1222.07 375.183L1270.58 375.544V392.318H1223.8L1217.26 400.434L1244.21 438.13L1229.58 448.772L1203.78 409.452H1185.88L1152.77 448.772L1142.57 438.13L1170.29 400.434Z" fill="#FF8096"/>
<path d="M769.69 629H1277.51V722.5H-8V629H73.0276H259.891H769.69Z" fill="#283859"/>
<path d="M1327 230.754L1271 222.183L1256.65 277.566L1290.95 306.906L1327 230.754Z" fill="#283859"/>
<path d="M1085.37 179.801C1074.6 184.739 1050.73 190.238 1040.14 195.882C1040.01 198.115 1040.66 208.581 1045.49 209.427C1051.52 210.485 1085.37 208.722 1085.37 179.801Z" fill="#273A5F"/>
<path d="M1084.08 177.601C1078.92 179.968 1070.51 182.505 1061.76 185.24C1053.2 187.911 1044.29 190.78 1038.7 193.759L1037.42 194.439L1037.35 195.754C1037.27 197.082 1037.42 200.48 1038.22 203.709C1038.63 205.323 1039.23 207.056 1040.17 208.502C1041.09 209.92 1042.6 211.445 1044.94 211.857C1046.87 212.195 1050.45 212.255 1054.63 211.768C1058.87 211.274 1063.97 210.19 1068.9 208.088C1073.85 205.983 1078.69 202.83 1082.29 198.181C1085.91 193.514 1088.17 187.482 1088.17 179.801V175.726L1084.08 177.601ZM1082.32 183.784C1081.71 188.606 1079.99 192.392 1077.67 195.379C1074.74 199.162 1070.75 201.805 1066.47 203.624C1062.19 205.446 1057.7 206.412 1053.9 206.855C1050.03 207.305 1047.13 207.189 1046.03 206.997C1045.97 206.986 1045.58 206.885 1045.03 206.033C1044.49 205.209 1044.04 204.028 1043.69 202.64C1043.21 200.698 1043.01 198.669 1042.95 197.316C1048.02 194.875 1055.65 192.403 1063.62 189.913C1070.18 187.863 1076.98 185.799 1082.32 183.784Z" fill="#273A5F"/>
<path d="M1115.81 41.6655H1113.5V40.0796L1115.81 41.6655Z" fill="#273A5F"/>
<path d="M832.098 334.821L832.218 339.156C833.36 339.131 834.931 339.442 836.943 340.193C838.925 340.932 841.172 342.036 843.615 343.439C848.5 346.245 853.967 350.132 859.356 354.334C870.124 362.73 880.354 372.205 884.621 376.316L888.23 373.383C883.901 369.212 873.541 359.616 862.596 351.081C857.128 346.817 851.457 342.774 846.284 339.802C843.697 338.316 841.184 337.069 838.846 336.197C836.537 335.336 834.228 334.775 832.098 334.821ZM884.76 318.138L932.868 357.609L936.2 354.43L888.092 314.959L884.76 318.138ZM935.498 284.765C947.697 298.433 970.046 307.459 992.252 313.095C1014.56 318.755 1037.26 321.131 1050.74 321.191L1050.77 316.855C1037.75 316.797 1015.49 314.482 993.604 308.927C971.617 303.347 950.546 294.63 939.344 282.078L935.498 284.765ZM979.181 257.193C1017.97 262.626 1055.29 280.396 1069.03 288.569L1071.76 284.971C1057.66 276.58 1019.67 258.474 979.948 252.911L979.181 257.193ZM1038.13 200.662C1039.1 207.843 1043.65 214.648 1050.02 220.807C1056.4 226.984 1064.78 232.674 1073.74 237.636C1091.64 247.547 1112.28 254.763 1125.12 257.173L1126.13 252.932C1113.95 250.643 1093.83 243.645 1076.34 233.961C1067.61 229.126 1059.62 223.674 1053.64 217.881C1047.63 212.069 1043.79 206.076 1042.99 200.147L1038.13 200.662ZM1183.02 253.731L1187.92 253.907L1188.69 237.168L1183.79 236.991L1183.02 253.731ZM1114.65 173.122C1116.86 178.76 1119.77 182.778 1123.17 185.468C1126.59 188.179 1130.39 189.451 1134.18 189.73C1141.61 190.278 1148.72 186.998 1152.95 183.964L1149.87 180.594C1146.15 183.257 1140.27 185.828 1134.58 185.409C1131.81 185.205 1129.02 184.29 1126.43 182.239C1123.82 180.166 1121.3 176.847 1119.28 171.7L1114.65 173.122ZM1086.76 146.28C1082.06 148.994 1076.52 153.502 1074.99 159.386C1073.37 165.597 1076.42 172.387 1086.64 179.09L1089.56 175.607C1080.22 169.481 1078.75 164.259 1079.76 160.357C1080.86 156.128 1085.09 152.423 1089.44 149.91L1086.76 146.28ZM1179.8 105.371C1177.58 110.545 1172.6 119.023 1165.79 126.433C1158.92 133.91 1150.57 139.879 1141.69 140.833C1133.21 141.742 1125.41 136.635 1118.98 128.935C1112.63 121.337 1108.21 111.864 1106.45 105.617L1101.69 106.665C1103.59 113.398 1108.27 123.404 1115.04 131.512C1121.72 139.518 1131.04 146.343 1142.28 145.137C1153.1 143.976 1162.49 136.897 1169.6 129.168C1176.76 121.373 1181.99 112.485 1184.38 106.911L1179.8 105.371ZM1099.12 71.3219H1104.07L1105.13 67.1979L1099.12 64.6592V71.3219ZM1100.22 58.184L1102.92 61.7987L1107.73 58.9794L1105.03 55.3646L1100.22 58.184ZM1111.05 43.8338H1122.96L1111.05 35.6528V43.8338Z" fill="#273A5F"/>
</svg>
