<svg width="480" height="273" viewBox="0 0 480 273" fill="none" xmlns="http://www.w3.org/2000/svg">
<path d="M232.343 169.433V74.9366L231.095 72.9379C229.021 75.1519 224.832 75.1929 222.997 74.9366L199.598 59.4383C188.894 59.8811 184.34 55.4407 183.401 53.1652C180.943 51.2464 181.608 49.5161 182.249 48.8909H194.476C191.915 47.1996 187.831 43.8539 191.979 44.0015C196.128 44.1491 202.948 49.8441 205.839 52.6732L225.013 59.7151L238.777 42.3102C240.964 39.2352 246.651 33.1957 251.901 33.6386C257.151 34.0814 261.024 33.0645 262.304 32.5008V29.4565L261.408 28.9952C255.467 24.3211 257.204 11.0779 258.815 5.04048C259.103 1.44266 271.427 -3.75419 278.373 4.11796C283.93 10.4157 279.92 19.3908 277.22 23.0911L277.797 31.5475C282.096 32.921 291.637 36.9227 295.402 41.9412C300.107 48.2143 302.508 67.6795 304.941 74.9366C306.887 80.7424 305.026 97.3436 303.852 104.918C303.991 108.117 303.743 115.786 301.644 120.878C299.544 125.97 295.861 126.772 294.281 126.536C294.004 126.013 293.616 124.894 294.281 124.599C294.947 124.304 295.861 122.549 296.234 121.708V115.589H295.53C295.338 118.92 294.589 124.642 293.129 120.878C291.669 117.114 293.289 111.745 294.281 109.531C295.402 108.896 297.361 107.003 296.234 104.519C295.107 102.034 293.695 86.4681 293.129 78.9957C291.712 75.8367 289.153 70.0862 288.645 68.7805C288.635 68.6699 288.615 68.5883 288.584 68.5405C288.53 68.4601 288.557 68.5525 288.645 68.7805C288.747 69.9225 287.762 74.1617 287.207 76.3204L289.512 85.4841C293.123 87.6243 291.571 92.608 290.344 94.8323C292.111 98.9406 291.081 107.676 290.344 111.53C291.65 118.197 289.331 135.628 288.008 143.511C291.618 153.498 288.744 168.993 286.855 175.491C287.165 175.86 287.387 178 285.799 183.609C285.297 185.384 284.149 186.575 282.694 187.349C279.549 189.021 274.967 188.745 272.355 188.191C268.391 187.304 262.526 185.94 257.183 184.594C252.883 183.512 248.92 182.442 246.555 181.641C245.444 181.265 244.686 180.949 244.411 180.719C242.823 179.39 242.021 176.68 241.818 175.491C239.565 175.762 234.563 171.565 232.343 169.433Z" fill="#FFECC2"/>
<path d="M257.183 184.594C257.236 187.69 257.451 194.169 257.887 195.325C258.431 196.771 258.399 200.737 257.791 201.568C257.742 201.634 257.532 201.692 257.183 201.742C254.012 202.204 239.444 202.075 231.831 201.937C233.41 199.661 238.566 194.575 246.555 192.435C246.555 191.758 248.124 184.563 246.555 181.641C248.92 182.442 252.883 183.512 257.183 184.594Z" fill="#FFECC2"/>
<path d="M272.355 197.724C273.892 194.698 272.995 190.108 272.355 188.191C274.967 188.745 279.549 189.021 282.694 187.349C282.054 189.833 281.375 195.135 283.782 196.463C286.189 197.792 287.431 200.666 287.751 201.937H272.355C271.715 201.793 270.819 200.75 272.355 197.724Z" fill="#FFECC2"/>
<path d="M283.738 186.49C283.533 186.011 282.981 185.79 282.505 185.997C280.855 186.713 276.531 187.931 272.629 187.079C272.123 186.968 271.623 187.291 271.513 187.801C271.403 188.311 271.724 188.814 272.231 188.925C276.661 189.893 281.405 188.532 283.248 187.731C283.724 187.525 283.943 186.969 283.738 186.49ZM245.63 177.709C245.112 177.709 244.692 178.132 244.692 178.654C244.692 179.176 245.112 179.599 245.63 179.599C246.346 179.599 247.321 179.786 248.475 180.131C249.615 180.472 250.872 180.949 252.134 181.485C254.659 182.558 257.151 183.847 258.666 184.705C259.118 184.96 259.689 184.799 259.943 184.344C260.197 183.889 260.036 183.313 259.585 183.058C258.02 182.172 255.466 180.849 252.864 179.744C251.563 179.191 250.237 178.687 249.009 178.32C247.794 177.957 246.616 177.709 245.63 177.709ZM252.862 161.065C252.643 160.592 252.084 160.389 251.614 160.61C251.145 160.832 250.943 161.394 251.163 161.867C256.803 173.986 263.662 179.582 270.085 181.519C276.486 183.448 282.276 181.689 285.677 179.444C286.11 179.158 286.232 178.572 285.948 178.136C285.664 177.7 285.082 177.578 284.648 177.864C281.635 179.853 276.413 181.454 270.624 179.709C264.858 177.97 258.349 172.856 252.862 161.065ZM256.204 134.809C256.103 134.297 255.61 133.964 255.102 134.064C254.593 134.165 254.262 134.662 254.363 135.174C259.397 160.891 274.207 173.522 281.192 176.658C281.666 176.87 282.221 176.656 282.432 176.179C282.643 175.703 282.43 175.144 281.956 174.932C275.563 172.062 261.127 159.962 256.204 134.809ZM242.788 105.605C242.271 105.579 241.83 105.98 241.804 106.501C241.348 115.476 240.858 129.611 240.87 142.855C240.877 149.477 241.008 155.886 241.333 161.321C241.657 166.73 242.176 171.254 242.983 174.059C243.127 174.56 243.647 174.848 244.145 174.703C244.643 174.558 244.929 174.034 244.785 173.533C244.042 170.951 243.53 166.615 243.206 161.207C242.884 155.825 242.753 149.456 242.747 142.854C242.735 129.65 243.223 115.549 243.678 106.597C243.704 106.076 243.306 105.632 242.788 105.605ZM288.255 141.175C287.784 140.956 287.227 141.164 287.01 141.637C286.734 142.24 286.161 143.207 285.377 144.067C284.584 144.936 283.664 145.598 282.705 145.778C282.195 145.873 281.859 146.367 281.954 146.88C282.049 147.393 282.539 147.731 283.049 147.635C284.578 147.348 285.839 146.354 286.759 145.345C287.69 144.325 288.365 143.188 288.713 142.428C288.93 141.955 288.725 141.393 288.255 141.175ZM247.494 90.8969C247.035 90.7367 246.536 90.9565 246.336 91.3908L246.3 91.4806L246.275 91.566C246.226 91.7622 246.246 91.9311 246.25 91.9732C246.26 92.0655 246.277 92.1578 246.295 92.2383C246.332 92.4023 246.388 92.6032 246.457 92.8281C246.597 93.2825 246.812 93.9079 247.092 94.6842C247.654 96.2409 248.495 98.4528 249.567 101.223C251.711 106.763 254.793 114.572 258.443 123.899C264.347 138.989 272.661 145.946 276.304 147.57C276.778 147.782 277.333 147.566 277.543 147.089C277.752 146.612 277.538 146.054 277.065 145.843C273.997 144.475 265.969 137.98 260.189 123.207C256.535 113.87 253.458 106.073 251.315 100.537C250.244 97.7682 249.41 95.5736 248.856 94.0391C248.578 93.2702 248.376 92.6788 248.249 92.2684C248.186 92.0611 248.146 91.9171 248.127 91.8274C248.126 91.8231 248.125 91.8189 248.124 91.8151C248.135 91.4144 247.89 91.0352 247.494 90.8969ZM241.478 46.6057C240.964 46.6722 240.601 47.146 240.667 47.6635C241.808 56.5912 242.473 78.4518 263.065 101.402C268.2 107.124 272.612 110.709 276.38 112.715C280.154 114.725 283.337 115.177 285.952 114.531C288.569 113.884 290.464 112.174 291.73 110.161C292.99 108.157 293.657 105.812 293.827 103.767C293.87 103.247 293.486 102.791 292.97 102.747C292.453 102.704 292 103.09 291.956 103.61C291.808 105.393 291.222 107.436 290.144 109.15C289.072 110.855 287.544 112.192 285.504 112.697C283.462 113.201 280.755 112.907 277.257 111.045C273.752 109.178 269.509 105.765 264.457 100.135C244.305 77.6761 243.674 56.3906 242.528 47.4224C242.462 46.905 241.992 46.5392 241.478 46.6057ZM231.873 68.6249C231.873 68.1032 231.453 67.6802 230.935 67.6802C230.417 67.6803 229.997 68.1032 229.997 68.6249C229.997 69.1895 230.176 70.0012 230.426 70.8974C230.687 71.8277 231.056 72.9563 231.499 74.2032C232.385 76.6988 233.58 79.7131 234.82 82.6555C236.06 85.5984 237.351 88.482 238.432 90.7161C238.972 91.8315 239.465 92.7954 239.876 93.5274C240.081 93.8926 240.273 94.2117 240.444 94.4671C240.599 94.698 240.791 94.9578 241.001 95.1326C241.401 95.4642 241.992 95.4065 242.322 95.004C242.651 94.6015 242.594 94.0062 242.195 93.6744C242.211 93.6875 242.148 93.6305 241.999 93.4087C241.866 93.2111 241.702 92.9402 241.509 92.5974C241.125 91.9134 240.651 90.988 240.119 89.8882C239.055 87.6914 237.778 84.8389 236.547 81.9175C235.316 78.9957 234.136 76.0169 233.266 73.5666C232.831 72.3407 232.477 71.2578 232.233 70.3857C231.979 69.48 231.874 68.8982 231.873 68.6249ZM252.29 57.4867C252.111 56.9971 251.572 56.7458 251.085 56.9258C250.599 57.1059 250.35 57.649 250.529 58.1387C251.865 61.796 254.463 67.7177 257.937 73.654C261.401 79.5746 265.786 85.5985 270.719 89.3747C280.494 96.8571 287.951 95.7538 290.702 93.8964C291.133 93.6058 291.247 93.019 290.959 92.5858C290.67 92.1525 290.088 92.0369 289.657 92.3274C287.793 93.5859 281.233 95.0488 271.854 87.8703C267.211 84.3161 262.975 78.5429 259.553 72.6951C256.141 66.8631 253.59 61.045 252.29 57.4867ZM258.921 37.8261C258.921 37.3045 258.5 36.8815 257.982 36.8815C257.464 36.8815 257.044 37.3044 257.044 37.8261C257.044 39.9489 257.81 43.2368 259.032 47.0073C260.264 50.812 261.995 55.2123 263.996 59.6055C265.997 63.9987 268.275 68.4003 270.607 72.205C272.929 75.9949 275.339 79.25 277.615 81.3012C281.137 84.476 283.752 86.0125 285.645 86.5868C287.49 87.1465 288.992 86.8516 289.649 85.7602C289.917 85.314 289.775 84.7334 289.332 84.4631C288.889 84.1928 288.312 84.3354 288.043 84.7817C288.042 84.7841 287.979 84.886 287.707 84.9434C287.425 85.003 286.937 85.0058 286.186 84.778C284.675 84.3196 282.304 82.9913 278.866 79.8934C276.792 78.0243 274.495 74.9525 272.203 71.2129C269.921 67.4881 267.678 63.1576 265.702 58.8183C263.725 54.479 262.023 50.1465 260.816 46.4218C259.598 42.6628 258.921 39.6237 258.921 37.8261ZM232.382 57.3496C232.128 56.8949 231.555 56.7335 231.104 56.9892C230.652 57.245 230.492 57.8211 230.746 58.2758L243.479 81.0608C243.733 81.5154 244.305 81.6763 244.757 81.4205C245.208 81.1647 245.369 80.5886 245.115 80.1339L232.382 57.3496ZM287.207 51.2448C286.69 51.2913 286.309 51.7504 286.356 52.2701C286.482 53.6907 286.335 55.6796 285.601 57.448C285.09 58.6773 284.311 59.7666 283.174 60.5133C282.044 61.2553 280.483 61.711 278.312 61.5447C277.795 61.5052 277.344 61.8948 277.305 62.415C277.266 62.9351 277.653 63.3889 278.169 63.4285C280.683 63.6211 282.67 63.1 284.199 62.0958C284.958 61.5971 285.586 60.9921 286.1 60.3257L287.882 67.8044L286.122 75.5212C286.006 76.0297 286.321 76.5366 286.826 76.6535C287.331 76.7703 287.835 76.4528 287.951 75.9443L288.812 72.1674L289.262 74.2905C289.37 74.8008 289.869 75.1263 290.376 75.0175C290.882 74.9086 291.205 74.4065 291.097 73.8963L289.764 67.6027L289.759 67.5793L287.448 57.8822C288.223 55.8506 288.365 53.6771 288.225 52.1015C288.179 51.5819 287.723 51.1984 287.207 51.2448ZM275.086 39.8428C274.961 39.3366 274.452 39.028 273.95 39.154C273.17 39.3494 271.931 39.7359 270.698 40.2703C269.491 40.7929 268.169 41.5086 267.332 42.4075C266.977 42.7881 266.997 43.3859 267.375 43.7427C267.753 44.0994 268.346 44.0802 268.701 43.6997C269.261 43.0981 270.282 42.5071 271.439 42.0059C272.569 41.5164 273.711 41.161 274.403 40.9874C274.906 40.8613 275.211 40.349 275.086 39.8428ZM270.041 26.8344C269.864 26.344 269.326 26.0905 268.839 26.2685C267.878 26.6196 265.091 27.3922 261.972 27.5349C261.455 27.5586 261.054 28.0003 261.077 28.5214C261.101 29.0425 261.54 29.446 262.057 29.4224C265.39 29.2699 268.365 28.4521 269.48 28.0447C269.967 27.8667 270.218 27.3247 270.041 26.8344ZM259.729 21.1693C259.211 21.1693 258.791 21.5923 258.791 22.114C258.791 22.6356 259.211 23.0587 259.729 23.0587H262.999C263.517 23.0587 263.937 22.6356 263.937 22.114C263.937 21.5923 263.517 21.1693 262.999 21.1693H259.729ZM275.648 13.5485C274.901 13.3555 273.99 13.5071 273.417 14.3019C273.113 14.7242 273.206 15.3153 273.625 15.6218C274.045 15.9281 274.631 15.8342 274.936 15.4121C274.95 15.3924 274.988 15.3288 275.181 15.3788C275.39 15.433 275.645 15.6098 275.799 15.8955C275.938 16.1543 276.01 16.5313 275.814 17.0345C275.611 17.5596 275.095 18.2682 273.959 19.0622C273.533 19.3597 273.428 19.9486 273.723 20.3772C274.018 20.8057 274.603 20.912 275.029 20.6146C276.357 19.6867 277.18 18.7078 277.562 17.7215C277.953 16.7133 277.858 15.7548 277.448 14.9951C277.054 14.2623 276.378 13.7375 275.648 13.5485ZM259.967 11.883C259.466 11.7507 258.953 12.0525 258.821 12.5571L256.766 20.4448H260.872C261.39 20.4448 261.81 20.0219 261.81 19.5001C261.81 18.9784 261.39 18.5555 260.872 18.5555H259.198L260.636 13.0368C260.767 12.5322 260.468 12.0155 259.967 11.883ZM267.604 12.0485C266.766 11.3999 264.614 10.529 262.467 12.0189C262.04 12.315 261.933 12.9037 262.226 13.3333C262.52 13.7627 263.105 13.8707 263.531 13.575C264.787 12.7036 266.027 13.2101 266.46 13.5454C266.87 13.8636 267.459 13.7866 267.775 13.3732C268.091 12.9597 268.014 12.3666 267.604 12.0485Z" fill="#273A5F"/>
<path d="M15.1716 15.2892C6.65823 22.1891 14.0887 28.6186 17.9578 27.2073L21.5178 30.3436L20.1248 34.8913C19.5057 36.5221 18.835 37.4526 18.577 37.714C16.4617 38.7071 11.1167 41.4776 6.6591 44.6139C2.20148 47.7502 0.983891 62.6478 0.932298 69.7046V83.8181C2.68645 90.718 6.28763 104.926 6.6591 106.557C7.03057 108.187 7.22662 110.895 7.27821 112.045C7.27821 117.377 9.29033 123.859 10.6833 126.629C9.9404 129.515 10.3738 135.568 10.6833 138.234L7.27821 147.799C4.95654 150.465 5.88521 178.849 6.50432 180.731C6.99961 182.236 6.71069 183.972 6.50432 184.651L2.94419 199.392C0.467732 199.894 -0.0481961 202.528 0.00339673 203.783H54.7949C54.7949 200.898 51.493 199.653 49.842 199.392L50.3064 179.633C53.4019 179.759 55.0013 178.117 55.4141 177.281C57.6429 157.208 54.8981 108.909 53.2472 87.2681L55.1045 88.9931C55.7236 89.934 59.5415 93.593 61.6052 95.2657C63.4625 96.4157 67.1153 99.0921 66.8677 100.598C66.62 102.103 67.8995 103.838 68.5702 104.518C69.3441 104.832 71.9753 108.595 73.2136 110.791C74.5756 110.916 74.5034 109.379 74.297 108.595C72.5635 105.459 72.8524 104.047 73.2136 103.734C74.3486 104.727 76.7116 107.372 77.083 110.007C77.4545 112.641 78.3729 113.509 78.7856 113.613C80.5191 113.111 80.6429 110.477 80.4882 109.222C81.4787 105.333 77.083 100.179 74.7614 98.0884C72.904 96.2589 68.6631 91.5021 66.5581 87.1113C64.4531 82.7204 58.0453 74.6182 55.1045 71.1159C55.5998 62.836 52.4217 51.8797 50.7707 47.4366C49.6357 45.1889 46.0654 40.6935 40.8649 40.6935C35.6643 40.6935 33.6419 39.1253 33.2807 38.3412L34.6738 35.8322H37.1502C37.4598 35.8322 39.6267 33.4799 39.4719 31.9117C39.3171 30.3436 40.8649 28.7754 41.7936 27.9913C42.5365 27.364 42.1031 25.7436 41.7936 25.0118C40.9165 23.4436 39.5028 19.7741 40.8649 17.6414C42.2269 15.5087 42.0515 12.9892 41.7936 11.996C39.9362 9.90512 34.3642 5.692 26.9348 5.56654C19.5055 5.44109 16.6162 11.1597 16.1003 14.0347L15.1716 15.2892Z" fill="#FFECC2"/>
<path d="M42.7868 181.669L40.0282 200.423L38.0742 200.14L40.8329 181.385L42.7868 181.669ZM48.1531 181.527V198.827H46.1786V181.527H48.1531Z" fill="#283859"/>
<path d="M35.4187 22.2275C35.9876 21.7068 37.4667 20.8529 38.8321 21.6027H37.4357C37.7977 21.7589 38.3046 22.2587 37.4357 23.0085C37.0737 23.0606 36.3496 22.9772 36.3496 22.2275C36.1945 22.1754 35.7911 22.1025 35.4187 22.2275Z" fill="#283859"/>
<path d="M45.6822 47.308C46.7056 49.7076 47.9245 53.681 48.281 57.874C48.6167 61.8223 48.1992 66.1227 45.9595 69.4601C46.4315 70.2608 46.86 71.34 47.2509 72.6314C47.7572 74.3044 48.228 76.4243 48.6444 78.9493C49.4777 84.0013 50.1031 90.7356 50.3444 98.8809C50.8269 115.169 49.7747 137.153 45.7503 162.72L45.7509 162.721L43.3971 181.138C44.0265 181.051 44.7775 180.891 45.5515 180.62C46.8549 180.163 48.1524 179.423 49.0691 178.289L49.5143 177.738L50.1711 178.007C50.9921 178.343 53.3668 178.599 55.3119 176.109C55.2911 176.136 55.3332 176.086 55.4017 175.865C55.4635 175.665 55.5284 175.388 55.5924 175.028C55.7201 174.308 55.8329 173.328 55.9292 172.109C56.1213 169.676 56.2408 166.368 56.2956 162.453C56.4053 154.627 56.2541 144.432 55.9124 134.078C55.5708 123.724 55.039 113.224 54.3883 104.789C54.0628 100.571 53.7087 96.8787 53.3346 93.9832C52.9676 91.1428 52.5914 89.1674 52.2394 88.1976C51.7727 87.5233 51.192 86.4313 50.8044 85.1257C50.3926 83.7384 50.178 82.0451 50.6063 80.3293L52.4518 80.7881C52.1298 82.0782 52.2794 83.4122 52.6282 84.5873C52.9341 85.6176 53.3786 86.4752 53.7221 87.0003L53.862 87.2047L53.9345 87.3041L53.9791 87.4184C54.4376 88.5995 54.8461 90.8395 55.2209 93.7405C55.6009 96.6814 55.9578 100.41 56.2845 104.644C56.938 113.114 57.4714 123.644 57.8136 134.016C58.1558 144.387 58.3076 154.614 58.1975 162.479C58.1424 166.41 58.0216 169.765 57.8248 172.258C57.7265 173.503 57.6076 174.552 57.4645 175.358C57.393 175.761 57.3128 176.121 57.2193 176.424C57.1325 176.704 57.0088 177.023 56.812 177.275C54.5903 180.118 51.7805 180.353 50.1166 179.97C48.964 181.177 47.5212 181.94 46.1818 182.409C44.6695 182.939 43.2182 183.121 42.3063 183.121H41.2266L41.8092 178.559C41.0317 178.98 40.3218 179.269 39.6449 179.463C38.4919 179.793 37.4895 179.833 36.5229 179.833C36.4731 179.833 36.3013 179.853 35.9626 179.935C35.787 179.978 35.5854 180.033 35.3602 180.098L32.7774 201.543L30.8893 201.317L33.3668 180.747C32.4139 181.079 31.3354 181.477 30.2145 181.904L28.0892 201.532L26.1985 201.328L28.2185 182.675C26.9486 183.174 25.6957 183.679 24.5796 184.135L22.4605 201.078L20.5729 200.843L22.5595 184.962L22.5404 184.968C20.6553 185.464 18.9371 185.701 17.3772 185.737L15.8983 201.518L14.0045 201.342L15.4729 185.676C9.64372 185.155 6.55935 181.636 5.62402 179.227L7.39706 178.542C8.12193 180.409 10.8535 183.682 16.5378 183.84C18.1116 183.884 19.9236 183.689 21.9943 183.15C22.4048 182.978 22.8579 182.79 23.3427 182.591C24.9986 181.91 27.0276 181.095 28.9905 180.34C30.9188 179.599 32.7997 178.91 34.2038 178.467C34.6945 178.312 35.1384 178.183 35.5119 178.093C35.8623 178.007 36.2264 177.936 36.5229 177.936C37.4319 177.936 38.2238 177.897 39.1199 177.64C39.9428 177.404 40.898 176.97 42.1169 176.151L43.8639 162.481L43.8658 162.467L43.8683 162.454C47.879 136.985 48.9223 115.107 48.4432 98.9365C48.2037 90.8498 47.5838 84.2039 46.768 79.2574C46.3599 76.7832 45.9052 74.7491 45.4302 73.1797C44.9474 71.5847 44.4687 70.5567 44.0546 70.022L43.6101 69.4477L44.049 68.8698C46.2177 66.0132 46.7248 62.0183 46.386 58.034C46.0492 54.0725 44.8903 50.2956 43.9326 48.0502L45.6822 47.308ZM45.7428 109.381C41.72 131.291 31.3024 156.761 26.5978 166.762L26.5613 166.84L26.5105 166.911C21.0332 174.541 16.3044 176.637 12.4376 175.307C10.5759 174.666 9.10508 173.274 7.99756 171.699C6.88593 170.117 6.09005 168.283 5.59863 166.628L7.42244 166.089C7.8689 167.592 8.5853 169.231 9.55455 170.61C10.5279 171.994 11.7069 173.049 13.0573 173.514C15.6072 174.391 19.5367 173.338 24.9133 165.875C29.6052 155.883 39.9022 130.661 43.872 109.04L45.7428 109.381ZM45.7181 91.9481C39.7648 111.72 33.7919 126.138 28.7342 136.137C23.693 146.104 19.5259 151.752 17.1519 153.908L15.871 152.506C17.9792 150.591 22.02 145.2 27.0361 135.283C32.0359 125.398 37.9702 111.086 43.8967 91.4022L45.7181 91.9481ZM39.6387 42.9055C36.7159 47.004 31.7822 50.8283 26.8875 53.9248C22.252 56.8573 17.565 59.1901 14.4527 60.5341C14.2675 63.4769 13.9819 67.6706 13.6801 71.3705C13.519 73.3459 13.3529 75.187 13.1954 76.6239C13.1167 77.3414 13.0392 77.966 12.9644 78.4596C12.8945 78.9215 12.8152 79.3545 12.7156 79.6291C12.6526 79.8025 12.6326 80.1072 12.7639 80.8671C12.8265 81.2298 12.914 81.6529 13.022 82.1749C13.1289 82.6914 13.2534 83.2917 13.3823 83.9871C13.8994 86.7759 14.489 91.0481 14.4917 97.8911C14.6731 99.9486 15.0882 103.03 15.7416 105.63C16.0716 106.943 16.4507 108.085 16.8671 108.901C17.0754 109.309 17.2738 109.598 17.4503 109.782C17.5827 109.919 17.6739 109.969 17.7214 109.987L17.7543 109.996L18.1975 110.066L18.4253 110.452C19.156 111.691 20.0226 113.75 20.2776 115.977C20.5334 118.209 20.1827 120.739 18.2916 122.706L17.2237 121.684C17.2124 122.088 17.2029 122.489 17.1965 122.879C17.1783 123.986 17.1824 124.995 17.2206 125.766C17.2398 126.154 17.2669 126.462 17.2998 126.685C17.3156 126.79 17.3304 126.862 17.3419 126.906L17.8211 127.626L17.0497 128.155C16.6163 128.452 16.0274 128.626 15.3807 128.476C15.1209 128.416 14.8751 128.309 14.6434 128.16C13.7168 128.132 12.4628 127.772 11.4254 126.752C10.2111 125.558 9.42216 123.59 9.62265 120.577L11.5201 120.703C11.3455 123.327 12.0431 124.695 12.7608 125.401C12.7903 125.43 12.8212 125.457 12.8511 125.484C12.3802 124.15 12.0146 122.297 11.8117 119.777L13.708 119.625C14.0176 123.471 14.6938 125.34 15.2736 126.154C15.2975 126.187 15.3221 126.218 15.3448 126.247C15.3359 126.122 15.3279 125.993 15.3213 125.86C15.28 125.027 15.2763 123.97 15.2947 122.848C15.3314 120.601 15.4573 118.033 15.5621 116.354L17.4602 116.472C17.3848 117.679 17.2989 119.35 17.2435 121.021C18.3304 119.657 18.588 117.936 18.3882 116.192C18.1891 114.455 17.5437 112.804 16.9594 111.723C16.6138 111.575 16.3198 111.347 16.0772 111.094C15.7251 110.728 15.4277 110.262 15.1721 109.761C14.6607 108.758 14.2402 107.458 13.8968 106.091C13.207 103.346 12.7787 100.138 12.5936 98.0202L12.5905 97.9788V97.9381C12.5905 91.187 12.0099 87.0171 11.5121 84.3323C11.387 83.6578 11.2666 83.0741 11.1598 82.5583C11.0542 82.0479 10.9585 81.5899 10.8893 81.1894C10.7569 80.4231 10.678 79.6709 10.9277 78.9832C10.953 78.9133 11.0103 78.6654 11.0843 78.1768C11.1535 77.7199 11.2272 77.1239 11.3047 76.4177C11.4594 75.0066 11.6239 73.1857 11.7845 71.2168C12.1045 67.2936 12.4082 62.8076 12.5905 59.8623V53.3153H14.4923V58.4427C17.4969 57.0968 21.7056 54.957 25.8691 52.3231C30.705 49.2638 35.3846 45.5984 38.0891 41.8058L39.6387 42.9055ZM45.5509 84.7509C33.3992 99.9653 21.2125 102.294 16.3347 101.375L16.6882 99.5113C20.6706 100.262 32.2062 98.4154 44.0639 83.5691L45.5509 84.7509ZM41.4681 82.7281C29.1484 91.8876 18.6102 91.9607 14.6613 90.6995L15.2414 88.8929C18.483 89.9281 28.3912 90.0846 40.3315 81.2073L41.4681 82.7281ZM29.2208 31.8227C29.9772 32.5803 32.2339 34.3667 34.9213 35.186L34.3654 37.0001C31.3006 36.0658 28.7847 34.0732 27.8737 33.1608L29.2208 31.8227ZM39.9581 29.8209V31.7177H38.239V29.8209H39.9581ZM41.3276 26.917C41.4511 26.916 41.6044 26.9241 41.7634 26.9621C41.9149 26.9982 42.1494 27.0795 42.3515 27.2819L41.0038 28.6206C41.1432 28.7602 41.2851 28.7979 41.3207 28.8064C41.3636 28.8166 41.3769 28.8135 41.343 28.8138C41.2753 28.8144 41.152 28.828 40.9753 28.8645C40.6296 28.9357 40.2306 29.061 39.9718 29.1553L39.3193 27.3739C39.6335 27.2594 40.1257 27.1029 40.5902 27.0071C40.8185 26.9601 41.0804 26.919 41.3276 26.917ZM42.068 17.7674C41.3753 18.253 39.5269 19.0587 36.8795 19.1913C36.4752 19.2116 35.9076 19.4063 35.1919 19.8149C34.4932 20.2138 33.7342 20.7692 32.9663 21.4074C31.4312 22.683 29.9401 24.2209 28.933 25.3073L28.6507 25.6117H24.6397V23.7148H27.8211C28.8379 22.6313 30.2626 21.185 31.7485 19.9502C32.5632 19.2732 33.4169 18.6428 34.2471 18.1688C35.0601 17.7047 35.938 17.3393 36.7841 17.2969C39.1385 17.179 40.6251 16.4609 40.9747 16.2158L42.068 17.7674ZM37.605 10.0282C36.0882 12.1419 33.1213 14.8727 30.1105 17.3828C27.0748 19.9135 23.9052 22.2922 21.9089 23.713L20.8045 22.1693C22.768 20.7719 25.8982 18.4224 28.8909 15.9274C31.9085 13.4117 34.6992 10.8185 36.0586 8.92415L37.605 10.0282ZM36.5693 19.9897C37.3547 19.7536 38.3493 19.6996 39.3211 20.2305L38.8642 22.0106H38.8568C38.7567 22.4645 38.4545 22.8662 38.0774 23.19L37.8669 23.3709L37.592 23.4104C37.2934 23.4531 36.8151 23.4517 36.3644 23.2375C36.1242 23.1234 35.8745 22.9393 35.6877 22.6553C35.5845 22.4983 35.5126 22.3277 35.468 22.1489L34.7839 20.9881C35.1602 20.6454 35.7984 20.2215 36.5693 19.9897Z" fill="#283859"/>
<path d="M459.348 24.7606C464.122 20.5443 470.307 10.0192 456.857 1.64912C452.861 -0.64121 443.375 -2.31731 437.397 9.30088C437.034 11.0186 436.681 14.9538 438.176 16.9527C437.553 18.9307 436.308 23.4489 436.308 25.6975C435.685 26.8948 434.626 30.0075 435.374 32.8808C435.062 34.078 434.813 36.6286 436.308 37.2533C432.987 38.0861 425.535 40.8761 422.297 45.3735C419.059 49.8709 415.24 64.6331 413.735 71.452C413.424 74.1587 413.61 80.3218 416.849 83.32C417.153 83.32 417.856 84.2513 419.909 84.8114L418.455 116.129C418.309 120.65 422.409 124.576 424.477 125.973L426.815 182.123C432.049 185.04 434.569 181.88 435.175 179.936L436.084 191.239C435.902 193.001 434.957 196.635 432.631 197.073C430.304 197.51 425.361 201.752 423.18 203.818H451.168C450.441 200.901 450.259 190.813 450.259 186.134C453.749 188.759 460.194 190.631 462.981 191.239C463.163 192.879 463.417 196.343 462.981 197.073C462.545 197.802 460.013 201.873 458.801 203.818H478.792C479.519 202.542 476.612 195.249 475.885 192.515C475.303 190.327 476.127 188.565 476.612 187.957C480.065 175.56 476.793 150.22 475.885 147.668C474.612 145.845 474.491 141.226 474.612 138.735C478.066 125.244 471.705 101.544 472.613 100.997C473.34 100.56 473.828 97.2545 473.981 95.6566C474.085 94.7196 474.105 92.4397 473.358 90.8156C472.424 88.7856 474.759 86.7555 471.49 80.0407C473.929 74.2628 478.962 61.0518 479.585 54.4307C480.363 46.1543 477.095 42.875 473.981 41.3134C471.49 40.0641 464.952 37.2533 461.994 36.004C461.008 35.4835 458.974 34.1301 458.725 32.8808C458.476 31.6316 458.621 29.7577 458.725 28.9769C459.14 28.8207 459.846 27.7588 459.348 24.7606Z" fill="#FFECC2"/>
<path d="M449.655 15.4792C449.457 14.4894 447.797 14.4749 447.502 15.4792C447.044 17.0367 449.967 17.0367 449.655 15.4792Z" fill="#283859"/>
<path d="M440.737 15.4792C440.737 14.3897 439.045 14.3864 439.045 15.4792C439.045 16.572 440.737 16.5688 440.737 15.4792Z" fill="#283859"/>
<path d="M429.701 144.793L432.494 180.93L433.315 180.983C434.578 181.065 436.378 181.567 438.598 182.386C440.796 183.196 443.321 184.283 446.003 185.477C451.34 187.852 457.313 190.656 462.369 192.403C466.474 193.822 469.441 193.974 471.518 193.491C473.591 193.008 474.813 191.869 475.221 190.737L473.435 190.099C473.297 190.484 472.699 191.276 471.086 191.651C469.477 192.026 466.893 191.967 462.99 190.618C458.036 188.906 452.178 186.156 446.777 183.752C444.09 182.557 441.518 181.448 439.257 180.614C437.394 179.928 435.682 179.404 434.262 179.19L431.592 144.649L429.701 144.793ZM427.883 110.414C431.349 141.983 438.612 162.289 447.192 174.086C455.794 185.914 465.826 189.29 474.608 186.587L474.048 184.782C466.267 187.177 457.007 184.362 448.728 172.978C440.426 161.563 433.219 141.633 429.769 110.209L427.883 110.414ZM437.262 17.0487C436.937 17.4795 436.686 18.1647 436.483 18.8393C436.268 19.5567 436.065 20.4141 435.882 21.2959C435.532 22.9817 435.246 24.814 435.078 26.0534C434.476 27.2204 434.237 28.7175 434.158 30.043C434.078 31.3849 434.155 32.6727 434.258 33.5129C434.112 34.5301 434.083 35.3542 434.159 36.0168C434.238 36.7008 434.435 37.2861 434.798 37.7189C435.186 38.1802 435.694 38.3861 436.194 38.4008C436.216 38.4015 436.238 38.3997 436.26 38.3996C436.486 38.8724 436.812 39.2868 437.103 39.6067C437.652 40.2104 438.299 40.7195 438.739 41.013L438.763 41.0284L438.788 41.0431C439.092 41.2209 439.387 41.3667 439.67 41.4828C440.282 45.2398 441.3 50.867 442.485 55.7831C443.107 58.3628 443.781 60.7749 444.473 62.6253C444.818 63.5479 445.179 64.3623 445.556 64.997C445.584 65.0438 445.614 65.0903 445.643 65.1372L436.698 67.8582C436.252 66.783 435.845 65.2117 435.488 63.2949C435.095 61.1793 434.774 58.7141 434.516 56.1724C434.001 51.0895 433.745 45.7499 433.667 42.3898L431.771 42.4328C431.85 45.8303 432.108 51.2199 432.629 56.3618C432.89 58.9324 433.217 61.454 433.623 63.6392C433.968 65.4916 434.38 67.1553 434.877 68.4122L430.256 69.8179C430.252 69.808 430.246 69.7982 430.242 69.7877C430.093 69.4235 429.934 68.8802 429.772 68.1718C429.451 66.7641 429.152 64.8428 428.89 62.7132C428.366 58.4597 428.002 53.4762 427.899 50.3338L426.003 50.3953C426.108 53.5947 426.476 58.6348 427.007 62.9438C427.272 65.0953 427.581 67.0901 427.923 68.5905C427.961 68.7555 428 68.9162 428.04 69.072C426.935 68.7017 425.905 68.5109 424.998 68.4589C424.24 68.4155 423.551 68.4674 422.968 68.6022C422.403 68.7328 421.857 68.9599 421.467 69.3278L422.769 70.7003C422.82 70.6523 423.002 70.5337 423.396 70.4426C423.773 70.3556 424.277 70.3098 424.889 70.3449C425.543 70.3823 426.302 70.5115 427.137 70.7667L423.867 71.7616L424.421 73.5682L454.766 64.3372L454.856 64.2867C455.702 63.8106 457.039 63.0194 458.31 62.1868C459.374 61.4893 460.474 60.7101 461.178 60.042H462.233C461.698 61.5461 461.077 63.4268 460.588 65.1987C460.269 66.3573 460 67.4913 459.852 68.4528C459.792 68.8411 459.751 69.2139 459.734 69.5572C459.244 69.5493 458.69 69.589 458.082 69.6801C456.824 69.8685 455.263 70.2849 453.41 71.0237C449.712 72.4974 444.802 75.271 438.722 80.1551C437.557 80.8912 435.595 81.9576 433.293 82.902C430.402 84.0883 427.076 85.0407 424.166 84.976L423.733 84.9668L423.442 85.2866C423.182 85.5723 423.048 85.9666 422.965 86.268C422.871 86.6115 422.795 87.03 422.73 87.499C422.601 88.4402 422.509 89.6776 422.447 91.1245C422.322 94.0239 422.31 97.8471 422.367 102C422.481 110.31 422.872 119.996 423.198 126.381L425.092 126.285C424.767 119.914 424.377 110.253 424.263 101.974C424.206 97.8326 424.219 94.0514 424.342 91.2057C424.403 89.7803 424.492 88.6099 424.609 87.7542C424.66 87.3822 424.716 87.0871 424.771 86.8644C427.21 86.8127 429.786 86.1848 432.129 85.3653C431.957 85.7137 431.762 86.1389 431.591 86.6609C431.028 88.3723 430.7 91.0634 431.34 96.2996L431.452 97.4655C432.662 109.706 435.719 127.883 441.126 144.119C443.917 152.498 447.345 160.399 451.494 166.708C455.635 173.005 460.557 177.812 466.37 179.84L466.997 178.057C461.744 176.225 457.113 171.805 453.081 165.673C449.055 159.552 445.689 151.819 442.926 143.524C437.402 126.937 434.346 108.258 433.228 96.1268L433.227 96.1127L433.225 96.0986C432.596 90.9738 432.952 88.5896 433.393 87.2488C433.617 86.5668 433.864 86.1399 434.112 85.6358C434.288 85.2801 434.455 84.8949 434.541 84.4282C436.28 83.6861 437.813 82.8894 438.954 82.2237C439.61 83.0151 440.612 83.6163 441.689 84.085C443.051 84.6778 444.733 85.1455 446.537 85.5159C447.002 88.2987 448.342 93.7223 453.764 96.9404C455.142 98.6103 457.586 100.815 460.652 102.235C463.82 103.703 467.719 104.36 471.759 102.622L471.007 100.888C467.596 102.355 464.277 101.832 461.451 100.523C458.608 99.2059 456.334 97.1202 455.13 95.6226L455.019 95.4849L454.865 95.3963C450.454 92.8469 449.072 88.6056 448.533 85.8806C451.423 86.3498 454.524 86.6199 457.201 86.755C459.947 89.9424 463.202 91.1534 466.178 91.3293C469.217 91.5089 471.945 90.612 473.562 89.7072L472.633 88.0598C471.288 88.8123 468.919 89.5993 466.291 89.444C464.236 89.3225 462.012 88.6251 459.963 86.8534C460.232 86.8585 460.492 86.8623 460.742 86.8644C468.025 87.5155 471.477 82.4751 472.291 79.801L470.476 79.2531C469.836 81.3555 467.024 85.5502 460.87 84.9804L460.83 84.9767L460.789 84.976C459.882 84.9688 458.837 84.9419 457.708 84.89C454.577 84.746 450.824 84.412 447.548 83.7905C445.559 83.4131 443.788 82.9372 442.448 82.3541C441.513 81.947 440.892 81.5314 440.522 81.1408C446.208 76.6485 450.751 74.1184 454.115 72.7781C455.861 72.0822 457.278 71.7108 458.363 71.5482C459.468 71.3829 460.168 71.4426 460.514 71.5439L462.353 72.082L461.667 70.3C461.653 70.2623 461.619 70.1197 461.622 69.8166C461.625 69.5311 461.66 69.1697 461.726 68.7399C461.859 67.8811 462.107 66.8258 462.417 65.6986C463.038 63.4482 463.885 60.9969 464.476 59.4296L464.494 59.3816L464.507 59.3318L465.91 53.8738L464.073 53.4053L462.852 58.153H460.358L460.076 58.4672C459.609 58.986 458.53 59.7819 457.267 60.609C456.082 61.3855 454.831 62.1274 454.011 62.5914L447.555 64.5555C447.45 64.436 447.326 64.2663 447.189 64.0353C446.893 63.5377 446.577 62.8404 446.25 61.9661C445.598 60.222 444.944 57.896 444.329 55.3423C443.219 50.7356 442.253 45.4768 441.638 41.7626C441.72 41.7473 441.801 41.727 441.881 41.7035C444.152 42.4887 445.969 42.3171 447.326 41.5572L447.322 41.639C450.032 41.778 451.801 40.8077 452.828 39.3933C453.197 38.8856 453.457 38.3387 453.633 37.7958C455.319 37.3959 456.339 36.1449 456.913 34.8565C457.408 33.7446 457.616 32.5237 457.666 31.5501C457.753 31.4944 457.84 31.4344 457.922 31.3687C458.352 31.028 458.88 30.4543 459.528 29.5473C459.962 28.9386 460.183 28.1761 460.292 27.4265C460.404 26.665 460.412 25.8371 460.364 25.0333C460.332 24.4994 460.274 23.9646 460.202 23.4511C461.347 22.9399 462.05 22.2026 462.397 21.3752C462.778 20.466 462.677 19.5682 462.442 18.9813L460.68 19.6805C460.757 19.8734 460.811 20.2549 460.647 20.6477C460.542 20.8973 460.322 21.2146 459.846 21.508C459.787 21.2496 459.728 21.0119 459.671 20.8009L457.839 21.2916C458.086 22.2051 458.384 23.6926 458.471 25.1452C458.514 25.8709 458.502 26.5618 458.416 27.1547C458.327 27.7593 458.171 28.1877 457.982 28.4522C457.459 29.1847 457.082 29.5934 456.84 29.8081L455.73 29.0689L455.78 30.8971C455.803 31.734 455.659 33.0128 455.18 34.0903C454.881 34.7608 454.482 35.2994 453.948 35.6387C453.945 35.527 453.94 35.4193 453.932 35.3164L452.038 35.3933V36.1527C451.983 36.8358 451.769 37.6295 451.291 38.2865C450.894 38.834 450.273 39.3415 449.281 39.5944C449.786 38.7116 450.017 37.7569 450.037 36.9767L448.141 36.9294C448.121 37.748 447.715 38.9004 446.827 39.6196C446.165 40.1555 445.116 40.5432 443.484 40.1964C443.757 39.5496 443.821 38.844 443.801 38.3203L441.905 38.3928C441.923 38.8658 441.828 39.3692 441.634 39.662C441.55 39.7883 441.465 39.851 441.376 39.8834C441.284 39.9168 441.097 39.9508 440.757 39.8613C440.503 39.7944 440.177 39.6608 439.769 39.4247C439.429 39.1949 438.922 38.7932 438.508 38.3381C438.041 37.8249 437.877 37.4464 437.877 37.2651V35.6657C437.907 35.7318 437.94 35.7974 437.976 35.8606L439.624 34.9266C439.517 34.7391 439.447 34.3364 439.482 33.7564C439.513 33.2167 439.624 32.6851 439.712 32.3772L437.888 31.8606C437.768 32.2805 437.63 32.9492 437.589 33.6463C437.554 34.2381 437.579 35.003 437.87 35.6503L436.462 36.4423C436.367 36.4957 436.292 36.5106 436.258 36.5118C436.256 36.5103 436.254 36.5089 436.253 36.5069C436.213 36.4601 436.098 36.2791 436.043 35.8022C435.99 35.3323 436.003 34.6434 436.152 33.6629L436.171 33.5307L436.153 33.3979C436.057 32.6718 435.974 31.4382 436.051 30.1555C436.129 28.8469 436.366 27.618 436.82 26.8104L436.91 26.6517L436.933 26.4722C437.092 25.2667 437.384 23.3875 437.739 21.6783C437.916 20.8227 438.107 20.0246 438.3 19.381C438.506 18.6947 438.68 18.3131 438.778 18.1826L437.262 17.0487ZM442.492 104.981C445.296 112.937 450.226 124.279 455.914 132.395C458.748 136.437 461.844 139.789 465.046 141.465C466.663 142.311 468.347 142.75 470.052 142.597C471.766 142.443 473.411 141.698 474.958 140.33L473.698 138.917C472.405 140.061 471.129 140.604 469.881 140.716C468.625 140.829 467.308 140.515 465.928 139.793C463.137 138.332 460.253 135.286 457.469 131.313C451.921 123.399 447.059 112.238 444.281 104.355L442.492 104.981ZM445.596 30.3154C444.401 30.8276 442.84 32.764 442.84 36.4854H444.736C444.736 33.2206 446.086 32.1624 446.346 32.0507L445.596 30.3154ZM448.624 32.3052C448.701 32.6883 448.739 33.7609 448.259 34.6247L449.919 35.539C450.687 34.1573 450.616 32.5887 450.483 31.932L448.624 32.3052ZM453.755 28.9484C453.714 29.7017 453.208 31.2892 451.712 31.8606L452.391 33.6242C454.891 32.6695 455.588 30.1571 455.649 29.0511L453.755 28.9484ZM444.794 25.3727C442.966 24.9585 440.727 25.3303 438.239 27.1461L439.361 28.6699C441.488 27.1174 443.173 26.9431 444.373 27.215C445.615 27.4962 446.489 28.288 446.896 28.898L448.476 27.8539C447.844 26.9045 446.582 25.7777 444.794 25.3727ZM455.427 10.4248C455.716 10.955 456.105 11.8009 456.33 12.593C456.443 12.991 456.502 13.3324 456.505 13.5916C456.507 13.7996 456.473 13.8785 456.467 13.8911L456.474 13.8837C456.116 14.3019 455.968 14.8446 455.899 15.306C455.826 15.7904 455.823 16.3212 455.852 16.8285C455.911 17.8446 456.11 18.8944 456.276 19.5593L458.116 19.1025C457.971 18.5204 457.796 17.5902 457.745 16.7197C457.72 16.2836 457.728 15.8938 457.774 15.5846C457.824 15.2531 457.901 15.1285 457.918 15.1092C458.32 14.6388 458.406 14.0455 458.402 13.572C458.396 13.0799 458.292 12.5594 458.155 12.079C457.881 11.1144 457.428 10.1364 457.094 9.52338L455.427 10.4248ZM462.03 14.6579C462.059 14.8246 462.04 15.1889 461.792 15.552C461.56 15.8909 461.063 16.3218 459.976 16.5328L460.339 18.3867C461.823 18.0987 462.797 17.4379 463.36 16.6152C463.906 15.8164 464.005 14.9481 463.898 14.3351L462.03 14.6579ZM452.645 13.7601C451.625 12.944 448.897 11.8339 445.148 12.6373L445.547 14.4845C446.158 14.3536 446.729 14.283 447.258 14.2582C446.905 14.4869 446.608 14.832 446.462 15.3208C446.254 16.019 446.418 16.6911 446.91 17.1532C447.343 17.5594 447.921 17.7029 448.407 17.7029C448.897 17.7029 449.462 17.5578 449.901 17.1803C450.387 16.7613 450.629 16.1239 450.483 15.4025L450.46 15.3023C450.387 15.0167 450.257 14.7812 450.093 14.5896C450.778 14.8006 451.244 15.0617 451.458 15.2328L452.645 13.7601ZM448.495 15.7863C448.521 15.7863 448.544 15.7885 448.564 15.7918C448.518 15.8043 448.464 15.8139 448.406 15.8139C448.388 15.8139 448.371 15.811 448.354 15.8096C448.391 15.7964 448.439 15.7861 448.495 15.7863ZM439.683 15.4849C439.703 15.5022 439.723 15.5271 439.736 15.5563C439.75 15.5856 439.748 15.6008 439.748 15.5895C439.748 15.5783 439.75 15.594 439.736 15.6233C439.723 15.6523 439.703 15.6768 439.683 15.694C439.673 15.7026 439.663 15.7067 439.657 15.71C439.651 15.7068 439.641 15.7029 439.632 15.6946C439.612 15.6777 439.592 15.6535 439.578 15.6245C439.565 15.5952 439.567 15.5792 439.567 15.5895C439.567 15.6 439.565 15.5844 439.578 15.555C439.592 15.526 439.612 15.5013 439.632 15.4843C439.641 15.4761 439.65 15.4716 439.656 15.4683C439.662 15.4716 439.672 15.4759 439.683 15.4849ZM462.022 8.05436C462.083 8.5807 462.011 9.4101 461.617 10.1155C461.253 10.7691 460.582 11.3795 459.27 11.5311L459.487 13.4072C461.417 13.1844 462.619 12.2098 463.275 11.0336C463.902 9.90939 464.002 8.66432 463.906 7.83914L462.022 8.05436ZM437.852 15.5895C437.852 16.1329 438.076 16.6031 438.453 16.9232C438.81 17.2259 439.252 17.3534 439.658 17.353C439.851 17.3529 440.051 17.3222 440.246 17.2596C440.244 17.273 440.241 17.2863 440.238 17.2995C440.138 17.7996 440.04 18.1437 439.959 18.3246C439.642 19.0396 439.528 19.8621 439.497 20.5481C439.466 21.2444 439.517 21.8833 439.578 22.2809L439.701 23.0828H440.443C439.777 23.2981 439.085 23.583 438.368 23.948L439.231 25.6304C442.424 24.0048 444.79 24.2716 446.456 25.1194C448.178 25.996 449.29 27.5665 449.771 28.7344L451.525 28.0174C450.915 26.5343 449.533 24.5648 447.319 23.4376C446.525 23.0336 445.641 22.746 444.67 22.6228L445.662 21.7558L444.41 20.3366L443.162 21.4287L444.174 22.5749C443.749 22.5465 443.309 22.5497 442.853 22.5872V21.1938H441.389C441.384 21.0181 441.383 20.8284 441.392 20.6324C441.418 20.0527 441.512 19.4973 441.693 19.0896C441.863 18.7089 441.993 18.1937 442.098 17.671C442.207 17.1304 442.302 16.5134 442.382 15.8926C442.531 14.7507 442.636 13.5603 442.693 12.7375L442.849 12.4547C442.443 12.2335 441.428 11.8786 440.318 11.6707C439.227 11.4663 437.784 11.3504 436.637 11.8422L437.387 13.5775C437.986 13.3209 438.947 13.3359 439.967 13.5271C440.233 13.5768 440.484 13.6348 440.714 13.6949C440.701 13.8331 440.688 13.9749 440.674 14.1192C440.357 13.9161 439.995 13.8269 439.658 13.8265C439.252 13.8262 438.81 13.9537 438.453 14.2564C438.076 14.5764 437.852 15.0461 437.852 15.5895Z" fill="#283859"/>
</svg>
