<svg width="332" height="379" viewBox="0 0 332 379" fill="none" xmlns="http://www.w3.org/2000/svg">
<path d="M313.7 366.491L313.806 359.241L312.162 359.217C309.795 359.182 308.594 360.385 308.558 362.827C308.539 364.147 308.824 365.098 309.413 365.68C310.028 366.262 310.958 366.563 312.203 366.581C312.602 366.587 313.101 366.557 313.7 366.491ZM313.673 368.322C313.474 368.319 313.187 368.327 312.813 368.347C312.439 368.341 312.177 368.35 312.028 368.372C311.29 369.383 310.499 370.642 309.655 372.15C308.81 373.658 308.11 374.694 307.553 375.259C306.744 376.094 305.801 376.629 304.726 376.862C303.676 377.121 302.355 377.164 300.762 376.991C300.695 376.491 300.692 375.843 300.754 375.047C301.128 375.003 301.492 374.833 301.845 374.54C302.223 374.246 302.501 373.989 302.679 373.767C302.857 373.52 303.238 373.028 303.822 372.289C305.395 370.343 306.674 368.979 307.657 368.196C306.439 368.004 305.388 367.465 304.504 366.58C303.645 365.67 303.225 364.53 303.246 363.16C303.27 361.466 303.902 360.067 305.139 358.964C306.376 357.836 308.203 357.29 310.62 357.325L316.487 357.411C316.911 357.418 317.845 357.431 319.29 357.453C320.735 357.449 321.582 357.449 321.831 357.453C321.846 358.126 321.837 358.761 321.803 359.358L319.261 359.433C319.136 361.151 319.05 363.592 319.004 366.755C318.95 370.418 318.935 373.134 318.959 374.903L321.61 375.054C321.651 375.678 321.642 376.313 321.582 376.96C319.041 376.898 317.285 376.86 316.314 376.845C315.89 376.839 314.981 376.838 313.585 376.843C312.215 376.823 311.405 376.811 311.156 376.807C311.141 376.134 311.15 375.499 311.184 374.901L313.428 374.822C313.555 372.955 313.637 370.788 313.673 368.322Z" fill="#283859"/>
<path d="M274.568 376.643C271.977 376.605 269.846 375.751 268.176 374.082C266.506 372.413 265.631 370.095 265.55 367.128L264.092 367.107C263.918 367.104 263.582 367.112 263.083 367.13C262.61 367.123 262.273 367.118 262.074 367.115C262.017 371.001 261.995 373.318 262.009 374.066L264.25 374.211C264.29 374.835 264.281 375.47 264.222 376.117C261.955 376.059 260.336 376.023 259.364 376.008C258.941 376.002 257.994 376.001 256.524 376.004C255.054 375.982 254.194 375.97 253.945 375.966C253.93 375.293 253.939 374.658 253.973 374.06L256.479 373.985C256.603 372.267 256.691 369.69 256.742 366.252C256.791 362.863 256.804 360.284 256.781 358.515L254.129 358.364C254.088 357.74 254.098 357.105 254.157 356.458C256.797 356.522 258.603 356.561 259.575 356.575C259.999 356.581 260.858 356.594 262.153 356.613C263.474 356.607 264.259 356.606 264.508 356.61C264.548 357.283 264.539 357.919 264.48 358.516L262.274 358.596C262.204 359.99 262.147 362.145 262.104 365.059C262.303 365.062 262.64 365.08 263.113 365.112C263.611 365.119 263.96 365.124 264.159 365.127L265.691 365.15C266.03 362.463 267.071 360.298 268.814 358.654C270.558 357.01 272.737 356.208 275.353 356.246C278.243 356.288 280.535 357.194 282.228 358.963C283.922 360.733 284.746 363.1 284.703 366.064C284.655 369.353 283.719 371.955 281.897 373.872C280.1 375.765 277.657 376.688 274.568 376.643ZM274.935 374.555C277.7 374.596 279.122 371.975 279.199 366.694C279.237 364.127 278.893 362.116 278.166 360.661C277.441 359.18 276.43 358.43 275.135 358.411C272.369 358.37 270.949 360.928 270.873 366.085C270.835 368.676 271.178 370.737 271.903 372.268C272.629 373.774 273.639 374.536 274.935 374.555Z" fill="#283859"/>
<path d="M226.483 373.469C227.804 373.489 228.907 372.982 229.795 371.948C230.682 370.915 231.169 369.177 231.254 366.737C231.005 366.733 230.482 366.725 229.685 366.714C228.888 366.677 228.29 366.656 227.892 366.65C226.048 366.623 224.727 366.641 223.929 366.704C223.891 365.906 223.902 365.121 223.963 364.349C225.158 364.417 226.478 364.461 227.923 364.482L231.249 364.531C231.166 360.045 229.679 357.78 226.789 357.738C226.091 357.727 225.443 357.793 224.842 357.933C224.417 358.027 224.116 358.172 223.939 358.369C223.787 358.541 223.67 358.863 223.588 359.335L223.097 362.244C222.773 362.289 222.324 362.307 221.751 362.299C221.203 362.291 220.779 362.259 220.481 362.205C220.5 360.91 220.52 359.552 220.541 358.132C220.587 356.712 220.61 355.977 220.611 355.928L222.067 356.024C224.614 355.687 226.336 355.526 227.232 355.539C230.297 355.584 232.664 356.429 234.334 358.073C236.005 359.692 236.819 361.972 236.776 364.911C236.723 368.474 235.661 371.224 233.589 373.162C231.518 375.076 228.987 376.01 225.998 375.966C223.083 375.924 220.805 374.956 219.163 373.063C219.975 372.103 220.872 371.231 221.855 370.448C222.947 372.433 224.49 373.44 226.483 373.469Z" fill="#283859"/>
<path d="M193.404 373.171C195.896 373.208 197.161 371.906 197.2 369.265C197.218 368.019 196.933 367.08 196.344 366.449C195.78 365.818 194.838 365.492 193.517 365.473L193.218 365.469C192.895 365.464 192.471 365.495 191.946 365.562C191.89 369.374 191.866 371.878 191.873 373.074C192.271 373.129 192.782 373.162 193.404 373.171ZM191.975 363.619C193.074 363.46 194.146 363.389 195.192 363.404L195.865 363.414C198.132 363.448 199.832 363.958 200.963 364.947C202.095 365.935 202.65 367.189 202.627 368.709C202.598 370.702 201.815 372.298 200.277 373.496C198.74 374.67 196.8 375.239 194.458 375.205C194.184 375.201 193.5 375.166 192.404 375.1C191.308 375.059 190.387 375.033 189.639 375.022L183.922 374.938C183.857 374.264 183.866 373.629 183.95 373.032L186.418 372.956C186.543 371.239 186.628 368.81 186.674 365.671C186.729 361.984 186.744 359.256 186.72 357.486L184.068 357.335C184.028 356.712 184.037 356.076 184.096 355.429C186.911 355.496 188.804 355.536 189.776 355.55C190.199 355.556 191.171 355.571 192.691 355.593C194.236 355.591 195.133 355.592 195.382 355.595C195.447 356.269 195.437 356.904 195.354 357.501L192.176 357.566C192.08 359.035 192.012 361.053 191.975 363.619Z" fill="#283859"/>
<path d="M146.992 372.489C149.334 372.524 150.524 371.221 150.563 368.58C150.582 367.309 150.321 366.371 149.782 365.765C149.268 365.134 148.376 364.81 147.105 364.791L146.843 364.787C146.52 364.783 146.096 364.814 145.571 364.881C145.515 368.693 145.491 371.196 145.498 372.393C145.896 372.448 146.394 372.481 146.992 372.489ZM145.6 362.938C146.699 362.779 147.759 362.708 148.78 362.723L149.453 362.733C151.67 362.765 153.295 363.275 154.327 364.262C155.384 365.224 155.901 366.478 155.879 368.022C155.849 370.015 155.116 371.612 153.678 372.812C152.24 373.987 150.363 374.557 148.046 374.523C147.772 374.519 147.075 374.484 145.954 374.418C144.859 374.377 143.962 374.351 143.264 374.341L137.547 374.257C137.482 373.583 137.491 372.948 137.575 372.351L140.043 372.275C140.168 370.558 140.253 368.129 140.299 364.99C140.354 361.303 140.369 358.575 140.345 356.805L137.693 356.654C137.653 356.031 137.662 355.395 137.721 354.748C140.561 354.815 142.467 354.855 143.438 354.87C143.862 354.876 144.833 354.89 146.353 354.912C147.873 354.91 148.758 354.91 149.007 354.914C149.072 355.588 149.062 356.223 148.979 356.82L145.801 356.885C145.704 358.354 145.637 360.372 145.6 362.938ZM164.185 364.893C164.134 368.356 164.121 370.934 164.146 372.629L166.761 372.78C166.801 373.403 166.792 374.039 166.733 374.686C164.242 374.624 162.51 374.586 161.539 374.572C161.115 374.566 160.206 374.565 158.81 374.569C157.415 374.549 156.593 374.537 156.344 374.533C156.329 373.86 156.338 373.225 156.372 372.627L158.616 372.548C158.712 371.079 158.787 368.501 158.841 364.814C158.895 361.177 158.92 358.598 158.918 357.078L156.004 356.923C155.964 356.3 155.973 355.664 156.032 355.017C158.772 355.082 160.628 355.122 161.6 355.136C162.023 355.143 162.958 355.156 164.403 355.178C165.873 355.174 166.733 355.174 166.982 355.178C167.022 355.851 167.012 356.487 166.954 357.084L164.448 357.159C164.324 358.802 164.237 361.38 164.185 364.893Z" fill="#283859"/>
<path d="M111.502 371.967C113.994 372.004 115.258 370.727 115.296 368.136C115.315 366.84 115.03 365.877 114.442 365.245C113.878 364.614 112.936 364.288 111.615 364.269L111.316 364.265C110.992 364.26 110.568 364.291 110.044 364.358C109.988 368.17 109.964 370.674 109.971 371.87C110.394 371.926 110.904 371.958 111.502 371.967ZM104.818 356.245L101.978 356.241C101.454 356.233 101.152 356.465 101.07 356.938L100.522 361.153C100.348 361.176 99.9116 361.182 99.214 361.171C98.5413 361.162 98.1056 361.143 97.9066 361.115L98.012 353.94L100.961 354.207L107.65 354.343C108.073 354.349 109.082 354.364 110.676 354.388C112.296 354.386 113.231 354.388 113.48 354.391C113.545 355.065 113.535 355.7 113.452 356.297L110.274 356.363C110.177 357.831 110.11 359.849 110.073 362.415C111.171 362.257 112.244 362.185 113.29 362.2L113.963 362.21C116.23 362.244 117.929 362.755 119.061 363.743C120.193 364.731 120.748 365.986 120.725 367.505C120.696 369.498 119.913 371.094 118.375 372.292C116.863 373.466 114.935 374.036 112.594 374.002C112.32 373.998 111.622 373.962 110.502 373.896C109.406 373.855 108.485 373.829 107.737 373.818L102.02 373.734C101.955 373.06 101.964 372.425 102.048 371.828L104.516 371.752C104.641 370.035 104.728 367.457 104.779 364.019C104.829 360.606 104.842 358.015 104.818 356.245Z" fill="#283859"/>
<path d="M75.7228 373.311L55.2816 373.011C54.8581 373.005 53.9237 373.003 52.4783 373.007C51.0334 372.986 50.1863 372.973 49.9372 372.97C49.9222 372.297 49.9315 371.661 49.9652 371.064L52.4706 370.989C52.5955 369.271 52.6852 366.556 52.7397 362.844C52.7855 359.73 52.7964 357.288 52.7726 355.519L50.121 355.368C50.0803 354.744 50.0896 354.109 50.149 353.462C52.7147 353.524 54.4833 353.563 55.4549 353.577C55.8785 353.583 56.6881 353.595 57.884 353.613C59.0802 353.605 59.8028 353.603 60.052 353.607C60.0919 354.28 60.0826 354.916 60.024 355.513L58.3407 355.6C58.2099 357.717 58.124 360.17 58.0831 362.96C58.0267 366.797 57.9995 369.5 58.0013 371.07C58.1508 371.072 58.8108 371.094 59.9814 371.136C61.1523 371.153 62.099 371.167 62.8215 371.178C62.9203 367.84 62.9835 365.237 63.0109 363.369C63.0358 361.675 63.0486 359.108 63.0493 355.67L61.3693 355.533C61.3286 354.909 61.3379 354.274 61.3973 353.627C63.365 353.681 64.8347 353.715 65.8063 353.729C66.2299 353.735 67.0146 353.747 68.1606 353.764C69.307 353.756 70.0047 353.753 70.2539 353.757C70.2689 354.43 70.2596 355.065 70.2259 355.663L68.6173 355.751C68.4924 357.469 68.4049 360.034 68.3548 363.447C68.2907 367.807 68.2649 370.411 68.2774 371.258C69.5484 371.252 71.1554 371.263 73.0987 371.292C73.2118 368.677 73.2873 366.086 73.3249 363.52C73.3498 361.826 73.3626 359.26 73.3633 355.821L71.5712 355.683C71.5305 355.059 71.5398 354.424 71.5992 353.777C73.6168 353.831 75.1114 353.866 76.083 353.88C76.5065 353.886 77.4408 353.9 78.8857 353.921C80.356 353.918 81.2156 353.918 81.4648 353.922C81.4798 354.595 81.4705 355.23 81.4368 355.828L78.9314 355.903C78.8065 357.62 78.7189 360.186 78.6688 363.599C78.6187 367.012 78.6055 369.603 78.6294 371.373L81.6547 371.529L81.5635 377.733C81.3639 377.755 80.8903 377.76 80.1429 377.749C79.3956 377.738 78.9348 377.719 78.7608 377.692L78.1788 374.057C78.133 373.783 78.0485 373.594 77.9254 373.493C77.8023 373.391 77.5788 373.338 77.255 373.334L75.7228 373.311Z" fill="#283859"/>
<path d="M30.5446 355.192C30.4197 356.91 30.3322 359.475 30.2821 362.888C30.232 366.301 30.2188 368.893 30.2427 370.662L32.8569 370.813C32.8976 371.436 32.8882 372.071 32.8289 372.718C30.2134 372.655 28.4198 372.616 27.4482 372.602L6.89488 372.3C6.47136 372.294 5.53693 372.293 4.0916 372.296C2.64664 372.275 1.7996 372.263 1.55047 372.259C1.53543 371.586 1.54477 370.951 1.57846 370.353L4.08388 370.278C4.20878 368.56 4.2985 365.845 4.35302 362.133C4.39877 359.019 4.40972 356.577 4.38588 354.808L1.73427 354.657C1.6936 354.033 1.70293 353.398 1.76227 352.751C4.32796 352.814 6.0966 352.852 7.06822 352.866C7.49174 352.872 8.30142 352.884 9.49724 352.902C10.6934 352.895 11.4161 352.893 11.6652 352.896C11.7052 353.57 11.6958 354.205 11.6372 354.802L9.95396 354.89C9.8232 357.006 9.73733 359.459 9.69634 362.249C9.63998 366.086 9.61273 368.789 9.61459 370.359C9.76407 370.361 10.4241 370.383 11.5946 370.426C12.7655 370.443 13.7122 370.457 14.4347 370.467C14.5336 367.13 14.5967 364.527 14.6242 362.658C14.6491 360.964 14.6619 358.398 14.6625 354.959L12.9825 354.822C12.9419 354.198 12.9512 353.563 13.0105 352.916C14.9783 352.97 16.448 353.004 17.4196 353.018C17.8431 353.025 18.6279 353.036 19.7739 353.053C20.9203 353.045 21.618 353.043 21.8672 353.046C21.8822 353.719 21.8729 354.355 21.8392 354.952L20.2306 355.041C20.1057 356.758 20.0182 359.323 19.9681 362.737C19.904 367.096 19.8782 369.7 19.8907 370.547C21.1616 370.541 22.7687 370.552 24.7119 370.581C24.8251 367.966 24.9005 365.376 24.9382 362.81C24.9631 361.115 24.9759 358.549 24.9766 355.11L23.1845 354.972C23.1438 354.348 23.1531 353.713 23.2125 353.066C25.2301 353.121 26.7247 353.155 27.6963 353.169C28.1198 353.175 29.054 353.189 30.499 353.21C31.9692 353.207 32.8289 353.207 33.0781 353.211C33.0931 353.884 33.0838 354.519 33.0501 355.117L30.5446 355.192Z" fill="#283859"/>
<path d="M305.185 314.914C305.205 313.519 305.204 311.937 305.18 310.167L302.939 310.022C302.899 309.399 302.908 308.763 302.967 308.116C305.334 308.176 307.003 308.213 307.974 308.227C308.398 308.234 309.245 308.246 310.515 308.265C311.811 308.259 312.584 308.258 312.833 308.261C312.873 308.935 312.864 309.57 312.805 310.167L310.711 310.249C310.605 312.34 310.543 314.021 310.524 315.292C310.511 316.214 310.676 316.876 311.018 317.28C311.387 317.659 312.082 317.856 313.103 317.871C314.174 317.887 315.286 317.679 316.439 317.248C316.485 314.109 316.506 311.804 316.503 310.334L314.3 310.189C314.259 309.566 314.268 308.93 314.328 308.283C316.594 308.342 318.214 308.378 319.185 308.392C319.609 308.398 320.543 308.412 321.988 308.433C323.458 308.43 324.318 308.43 324.567 308.434C324.607 309.107 324.598 309.742 324.539 310.34L322.034 310.415C321.909 312.132 321.821 314.698 321.771 318.111C321.721 321.524 321.708 324.115 321.732 325.885L324.346 326.035C324.387 326.659 324.377 327.294 324.318 327.941C321.852 327.88 320.133 327.842 319.161 327.828C318.738 327.822 317.579 327.817 315.685 327.814C313.817 327.787 312.758 327.771 312.509 327.768C312.494 327.095 312.503 326.459 312.537 325.862L316.201 325.804C316.296 324.41 316.366 322.205 316.41 319.191C314.757 319.789 312.971 320.075 311.053 320.047C308.81 320.014 307.259 319.592 306.399 318.782C305.564 317.972 305.159 316.683 305.185 314.914Z" fill="#283859"/>
<path d="M282.435 327.289L280.903 327.267L269.618 327.101C269.194 327.095 268.26 327.093 266.814 327.097C265.369 327.076 264.522 327.063 264.273 327.06C264.258 326.387 264.267 325.752 264.301 325.154L266.807 325.079C266.931 323.361 267.021 320.646 267.076 316.934C267.121 313.82 267.132 311.378 267.109 309.609L264.457 309.458C264.416 308.834 264.426 308.199 264.485 307.552C267.051 307.614 268.819 307.653 269.791 307.667C270.214 307.673 271.074 307.686 272.369 307.705C273.69 307.699 274.475 307.698 274.724 307.702C274.739 308.375 274.73 309.01 274.696 309.608L272.677 309.69C272.546 311.807 272.46 314.26 272.419 317.05C272.363 320.887 272.335 323.59 272.337 325.16C272.636 325.164 273.047 325.183 273.57 325.215C274.093 325.223 274.666 325.231 275.289 325.241C275.887 325.249 276.46 325.258 277.008 325.266C277.581 325.249 278.005 325.243 278.279 325.247C278.392 322.632 278.468 320.042 278.505 317.476C278.53 315.782 278.543 313.215 278.544 309.777L276.378 309.633C276.337 309.009 276.347 308.374 276.406 307.727C278.673 307.785 280.292 307.821 281.263 307.836C281.687 307.842 282.621 307.856 284.066 307.877C285.536 307.873 286.396 307.874 286.645 307.877C286.685 308.551 286.676 309.186 286.617 309.783L284.112 309.858C283.987 311.576 283.899 314.141 283.849 317.554C283.799 320.967 283.786 323.559 283.81 325.328L286.835 325.485C286.83 325.859 286.814 326.93 286.788 328.699C286.786 330.493 286.784 331.49 286.781 331.689C286.582 331.711 286.096 331.716 285.323 331.705C284.576 331.694 284.115 331.675 283.941 331.647L283.359 328.013C283.313 327.738 283.229 327.55 283.106 327.449C283.008 327.347 282.784 327.294 282.435 327.289Z" fill="#283859"/>
<path d="M226.371 324.597L229.218 324.19L234.629 317.131L229.291 309.016L226.976 308.87C226.96 308.271 226.969 307.649 227.003 307.001C227.851 307.014 228.834 307.041 229.955 307.082C231.101 307.099 231.736 307.108 231.861 307.11L236.309 307.138C236.349 307.786 236.339 308.422 236.281 309.044L234.673 309.095L237.738 314.149L241.057 309.563L238.86 309.044C238.843 308.446 238.853 307.823 238.887 307.176C239.56 307.186 240.307 307.209 241.129 307.246C241.951 307.258 242.449 307.266 242.623 307.268L247.072 307.259C247.087 307.907 247.078 308.542 247.044 309.165L244.009 309.606L238.984 315.849L245.02 324.796L247.971 324.914C247.986 325.562 247.977 326.21 247.942 326.857C245.701 326.775 244.094 326.726 243.123 326.712C242.973 326.71 242.238 326.711 240.917 326.717C239.597 326.697 238.538 326.682 237.741 326.67C237.726 325.997 237.735 325.362 237.769 324.764L239.451 324.752L235.949 318.907L232.319 324.273L235.19 324.726C235.231 325.35 235.222 325.998 235.162 326.67C233.718 326.599 232.51 326.556 231.538 326.542C231.364 326.539 230.616 326.541 229.295 326.546C228 326.527 227.016 326.513 226.343 326.503C226.328 325.83 226.338 325.194 226.371 324.597Z" fill="#283859"/>
<path d="M198.466 317.608C198.455 318.38 198.427 319.439 198.382 320.784C198.362 322.129 198.35 322.926 198.347 323.176C199.035 323.809 199.84 324.132 200.762 324.146C203.228 324.182 204.499 321.684 204.573 316.651C204.611 314.035 204.403 312.089 203.948 310.811C203.493 309.534 202.606 308.885 201.286 308.866C200.414 308.853 199.513 309.101 198.583 309.611L198.466 317.608ZM193.353 306.918C193.385 304.7 193.376 302.769 193.326 301.124L190.455 300.633C190.414 299.985 190.424 299.324 190.484 298.652C191.382 298.566 194.15 298.432 198.788 298.251L198.573 307.742C199.882 306.839 201.396 306.4 203.115 306.426C205.308 306.458 207.015 307.305 208.236 308.968C209.458 310.63 210.049 312.77 210.011 315.385C209.958 318.998 209.132 321.764 207.534 323.684C205.936 325.605 203.966 326.547 201.624 326.513C200.13 326.491 199.037 326.251 198.346 325.792C198.292 329.454 198.282 331.846 198.315 332.968L201.339 333.199C201.356 333.773 201.347 334.383 201.312 335.031C198.547 334.965 196.679 334.925 195.707 334.911C195.284 334.905 194.262 334.89 192.643 334.866C191.023 334.867 190.089 334.866 189.84 334.862C189.824 334.214 189.833 333.604 189.867 333.031L192.746 332.961C192.843 331.442 192.944 328.79 193.05 325.004C191.741 325.907 190.202 326.345 188.433 326.319C186.265 326.287 184.583 325.44 183.387 323.778C182.19 322.116 181.611 319.964 181.65 317.324C181.703 313.736 182.528 310.982 184.126 309.062C185.724 307.142 187.707 306.199 190.073 306.234C191.543 306.256 192.636 306.484 193.353 306.918ZM193.195 315.101C193.206 314.329 193.222 313.282 193.241 311.962C193.286 310.617 193.31 309.82 193.314 309.571C192.625 308.938 191.82 308.615 190.898 308.601C188.407 308.564 187.125 311.05 187.051 316.057C187.013 318.673 187.221 320.632 187.675 321.935C188.155 323.213 189.055 323.861 190.375 323.881C191.247 323.894 192.148 323.645 193.077 323.136L193.195 315.101Z" fill="#283859"/>
<path d="M149.33 334.94C148.159 334.923 146.831 334.617 145.344 334.022C145.559 332.978 145.973 331.913 146.587 330.826C147.599 331.538 148.503 331.9 149.3 331.912C150.321 331.927 151.11 331.652 151.667 331.087C152.223 330.547 152.773 329.608 153.315 328.271L153.858 326.97L146.701 307.84L144.759 307.699C144.721 306.926 144.73 306.291 144.787 305.793C145.236 305.8 146.057 305.825 147.253 305.867C148.474 305.885 149.184 305.895 149.383 305.898L154.204 305.932C154.217 306.779 154.207 307.414 154.176 307.838L152.045 307.881C152.823 310.908 154.278 315.327 156.41 321.14L160.709 308.419L157.577 307.888C157.564 307.04 157.574 306.405 157.605 305.982C158.203 305.99 158.925 306.014 159.772 306.051C160.619 306.063 161.13 306.071 161.304 306.073L165.49 306.06C165.529 306.833 165.52 307.468 165.462 307.966L163.363 308.384L155.891 328.533C155.087 330.689 154.191 332.295 153.203 333.352C152.241 334.435 150.95 334.964 149.33 334.94Z" fill="#283859"/>
<path d="M124.981 307.521L122.179 307.48C122.078 309.222 122.003 311.8 121.953 315.214C121.928 316.933 121.915 319.511 121.914 322.95L124.977 323.107C125.042 323.731 125.033 324.367 124.949 325.013C122.134 324.947 120.241 324.907 119.269 324.892C118.845 324.886 117.824 324.884 116.204 324.885C114.585 324.861 113.65 324.847 113.401 324.844C113.361 324.17 113.371 323.535 113.429 322.938L116.346 322.868C116.471 321.151 116.558 318.573 116.609 315.135C116.659 311.722 116.672 309.131 116.648 307.361L113.808 307.357C113.284 307.374 112.982 307.606 112.9 308.054L112.315 312.269C112.14 312.291 111.717 312.297 111.044 312.287C110.371 312.277 109.936 312.259 109.737 312.231L109.842 305.056L112.791 305.323L126.095 305.519L129.05 305.338L128.945 312.513C128.745 312.535 128.309 312.541 127.636 312.531C126.964 312.521 126.54 312.503 126.366 312.475L125.905 308.245C125.859 307.995 125.774 307.819 125.651 307.718C125.553 307.592 125.33 307.526 124.981 307.521Z" fill="#283859"/>
<path d="M86.2959 306.952C85.0253 306.934 84.0447 307.53 83.3541 308.741C82.6636 309.952 82.3051 311.454 82.2787 313.248C82.2429 315.689 82.7481 317.765 83.7945 319.475C84.8662 321.16 86.411 322.017 88.4289 322.047C89.55 322.064 90.8757 321.722 92.4061 321.022L92.9067 322.561C92.6799 322.732 92.3652 322.952 91.9626 323.22C91.5603 323.464 90.7331 323.8 89.4808 324.23C88.2535 324.661 87.0295 324.867 85.8087 324.849C83.0683 324.809 80.8636 323.917 79.1948 322.173C77.5512 320.405 76.7509 318.063 76.7937 315.148C76.8442 311.71 77.8549 309.059 79.826 307.194C81.8223 305.304 84.2779 304.381 87.1927 304.424C88.7373 304.447 90.0909 304.753 91.2534 305.343C92.4162 305.909 93.2664 306.557 93.8039 307.287C93.1419 308.249 92.2188 309.17 91.0347 310.05C90.986 309.974 90.9003 309.873 90.7775 309.747C90.6801 309.596 90.472 309.344 90.1532 308.99C89.8345 308.637 89.4901 308.333 89.12 308.078C88.7753 307.799 88.343 307.543 87.8231 307.311C87.3032 307.079 86.7941 306.96 86.2959 306.952Z" fill="#283859"/>
<path d="M51.3379 332.828C47.6511 332.749 45.3219 332.702 44.3503 332.688C44.2756 332.687 43.6776 332.678 42.5566 332.661C41.4351 332.67 40.2515 332.665 39.0059 332.647C38.9905 331.999 38.9995 331.388 39.0328 330.816L41.3519 330.7C41.4134 329.904 41.5229 325.843 41.6803 318.52C41.6895 317.897 41.7036 316.938 41.7226 315.642C41.7665 314.347 41.7931 313.388 41.8022 312.765C41.8359 310.473 41.8392 308.555 41.812 307.009L39.3198 306.188C39.278 305.639 39.2862 305.078 39.3445 304.506C39.4943 304.483 40.8164 304.391 43.3106 304.228C45.8052 304.04 47.1273 303.948 47.2767 303.95L47.0905 306.451C48.6856 304.731 50.3801 303.883 52.1738 303.91C54.4409 303.943 56.2085 304.903 57.4765 306.791C58.7698 308.654 59.3975 310.881 59.3594 313.472C59.31 316.835 58.2369 319.486 56.1402 321.423C54.0685 323.361 51.5253 324.308 48.5108 324.264C47.9378 324.256 47.4027 324.21 46.9056 324.128C46.8565 327.467 46.837 329.647 46.8469 330.669L51.3659 330.922C51.4087 331.396 51.3994 332.031 51.3379 332.828ZM47.0604 316.132C47.0542 316.555 47.0302 317.34 46.9885 318.486C46.9716 319.632 46.9583 320.541 46.9484 321.214C47.4877 321.82 48.1809 322.129 49.0279 322.141C50.4729 322.162 51.6165 321.494 52.4588 320.136C53.3259 318.778 53.7753 317.028 53.8067 314.885C53.8397 312.643 53.5051 310.819 52.8031 309.413C52.1015 307.983 50.9909 307.256 49.4712 307.234C48.7238 307.223 47.9612 307.399 47.1834 307.761L47.0604 316.132Z" fill="#283859"/>
<path d="M3.0091 313.466C3.05886 310.078 3.07183 307.499 3.04798 305.729L0.396384 305.578C0.355707 304.955 0.365039 304.319 0.42438 303.672C3.03989 303.736 4.83345 303.774 5.80506 303.789L17.2776 303.957C17.7011 303.963 18.6353 303.977 20.0803 303.998C21.5256 303.995 22.3728 303.995 22.622 303.998C22.637 304.671 22.6277 305.307 22.594 305.904L20.0886 305.98C19.9637 307.697 19.8739 310.412 19.8194 314.124C19.7737 317.238 19.7627 319.68 19.7866 321.45L22.4008 321.6C22.4415 322.224 22.4321 322.859 22.3728 323.506C19.8071 323.443 18.0385 323.405 17.0668 323.391C16.6433 323.384 15.7712 323.384 14.4504 323.39C13.1549 323.371 12.3826 323.359 12.1335 323.356C12.0936 322.682 12.1029 322.047 12.1615 321.45L14.2185 321.368C14.3492 319.252 14.4351 316.798 14.4761 314.008C14.5325 310.171 14.5597 307.468 14.5578 305.898C14.2589 305.894 13.8478 305.888 13.3246 305.88C12.8018 305.848 12.229 305.827 11.6062 305.818C11.0083 305.809 10.4102 305.812 9.8119 305.829C9.23889 305.82 8.81537 305.814 8.54133 305.81C8.44027 309.297 8.37748 311.875 8.35296 313.544C8.32771 315.263 8.31474 317.842 8.31407 321.281L10.4799 321.425C10.5205 322.049 10.5112 322.684 10.4519 323.331C8.13531 323.272 6.49123 323.235 5.51962 323.221C5.0961 323.215 4.16167 323.213 2.71634 323.217C1.2963 323.196 0.461708 323.184 0.212577 323.18C0.197544 322.507 0.206876 321.872 0.240572 321.275L2.74599 321.199C2.87089 319.482 2.95859 316.904 3.0091 313.466Z" fill="#283859"/>
<path d="M303.203 278.947C300.363 278.905 298.109 277.975 296.441 276.156C294.774 274.313 293.962 271.934 294.005 269.019C294.05 265.955 295.009 263.439 296.881 261.473C298.779 259.483 301.149 258.509 303.989 258.55C306.928 258.593 309.245 259.525 310.937 261.344C312.63 263.138 313.455 265.492 313.413 268.407C313.367 271.496 312.433 274.037 310.609 276.028C308.811 278.02 306.342 278.993 303.203 278.947ZM303.421 276.857C306.36 276.9 307.869 274.293 307.946 269.037C307.982 266.62 307.637 264.634 306.912 263.079C306.213 261.523 305.165 260.735 303.77 260.715C300.98 260.674 299.547 263.244 299.47 268.426C299.451 269.747 299.557 271.019 299.788 272.244C300.044 273.468 300.489 274.546 301.124 275.478C301.758 276.384 302.524 276.844 303.421 276.857Z" fill="#283859"/>
<path d="M256.884 268.137C256.934 264.749 256.947 262.17 256.923 260.401L254.271 260.25C254.231 259.626 254.24 258.991 254.299 258.344C256.94 258.407 258.746 258.446 259.717 258.461C260.141 258.467 261.013 258.48 262.333 258.499C263.654 258.494 264.439 258.493 264.688 258.496C264.703 259.169 264.694 259.805 264.66 260.402L262.416 260.481C262.346 261.876 262.289 264.03 262.247 266.945C262.421 266.948 262.857 266.967 263.554 267.002C264.252 267.012 264.849 267.021 265.348 267.028C266.992 267.052 268.101 267.056 268.674 267.04C268.716 264.2 268.735 262.044 268.732 260.574L266.379 260.427C266.338 259.804 266.348 259.169 266.407 258.522C268.774 258.581 270.443 258.618 271.414 258.632C271.838 258.639 272.772 258.652 274.217 258.674C275.687 258.67 276.547 258.671 276.796 258.674C276.811 259.347 276.802 259.982 276.768 260.58L274.263 260.655C274.138 262.373 274.05 264.938 274 268.351C273.95 271.764 273.937 274.356 273.961 276.125L276.575 276.276C276.615 276.899 276.606 277.535 276.547 278.182C274.081 278.121 272.362 278.083 271.39 278.069C270.967 278.062 270.045 278.061 268.624 278.065C267.229 278.045 266.407 278.033 266.158 278.029C266.118 277.356 266.127 276.72 266.186 276.123L268.43 276.044C268.525 274.65 268.596 272.334 268.644 269.095C268.445 269.092 267.959 269.085 267.187 269.074C266.44 269.038 265.804 269.016 265.281 269.008C264.783 269.001 264.185 269.005 263.487 269.019C262.814 269.009 262.391 269.003 262.216 269.001C262.159 272.887 262.138 275.204 262.152 275.952L264.467 276.098C264.508 276.722 264.498 277.357 264.439 278.004C262.122 277.945 260.478 277.908 259.507 277.894C259.083 277.888 258.136 277.886 256.666 277.89C255.196 277.868 254.337 277.855 254.088 277.852C254.073 277.179 254.082 276.543 254.116 275.946L256.621 275.871C256.746 274.153 256.834 271.575 256.884 268.137Z" fill="#283859"/>
<path d="M237.16 259.998L234.505 260.071C234.374 262.212 234.287 264.753 234.243 267.692C234.232 268.49 234.211 269.872 234.182 271.84C234.178 273.809 234.173 275.042 234.165 275.541L236.817 275.692C236.858 276.315 236.848 276.951 236.789 277.598C234.024 277.532 232.28 277.494 231.558 277.483L226.177 277.404C226.136 276.756 226.145 276.133 226.204 275.536L228.747 275.461L229.07 261.075L222.51 277.649L220.492 277.62L214.531 261.011C214.486 262.431 214.441 264.586 214.399 267.476L214.285 275.249L217.086 275.402C217.127 276.025 217.117 276.661 217.058 277.308C214.941 277.252 213.521 277.218 212.798 277.208C212.674 277.206 212.101 277.21 211.079 277.22C210.082 277.205 209.36 277.195 208.911 277.188C208.871 276.54 208.88 275.904 208.939 275.282L211.594 275.209L212.232 259.744L209.319 259.589C209.304 258.966 209.313 258.331 209.347 257.683L218.988 257.862L223.33 270.149L228.032 257.995L237.188 258.092C237.228 258.741 237.219 259.376 237.16 259.998Z" fill="#283859"/>
<path d="M176.986 259.226L173.512 259.063C173.472 258.44 173.481 257.804 173.54 257.157C175.832 257.216 177.464 257.252 178.435 257.267L186.843 257.39C187.267 257.396 188.201 257.41 189.646 257.431C191.091 257.428 191.939 257.428 192.188 257.431C192.228 258.105 192.218 258.74 192.16 259.337L189.654 259.412C189.529 261.13 189.44 263.845 189.385 267.557C189.339 270.671 189.328 273.113 189.352 274.882L191.967 275.033C192.007 275.656 191.998 276.292 191.939 276.939C189.373 276.876 187.604 276.838 186.633 276.823C186.209 276.817 185.3 276.816 183.904 276.821C182.509 276.8 181.687 276.788 181.438 276.784C181.398 276.111 181.407 275.476 181.466 274.879L183.784 274.801C183.915 272.684 184.001 270.231 184.042 267.441C184.098 263.604 184.125 260.901 184.124 259.331C183.974 259.329 183.625 259.324 183.077 259.316C182.53 259.283 182.094 259.264 181.77 259.259C181.396 259.254 180.96 259.26 180.461 259.277C179.988 259.27 179.702 259.266 179.602 259.265C179.629 265.869 179.188 270.509 178.276 273.187C177.365 275.865 175.8 277.188 173.583 277.155C172.312 277.136 171.319 276.922 170.602 276.513C170.634 276.065 170.793 275.42 171.079 274.577C171.341 273.708 171.599 273.102 171.853 272.756C172.298 273.037 172.869 273.182 173.566 273.193C174.887 273.212 175.813 272.079 176.345 269.795C176.902 267.51 177.115 263.988 176.986 259.226Z" fill="#283859"/>
<path d="M146.109 274.359L147.792 274.347L142.412 266.53L148.841 258.888L145.967 258.621C145.924 258.122 145.933 257.499 145.994 256.753C146.517 256.76 147.339 256.785 148.46 256.826C149.581 256.843 150.241 256.852 150.441 256.855L155.038 256.885C155.08 257.384 155.071 258.02 155.01 258.791L151.904 259.045L146.701 264.65L154.108 274.402L156.087 274.506C156.106 274.93 156.096 275.577 156.059 276.449C153.767 276.365 152.136 276.317 151.164 276.302C150.367 276.291 149.358 276.288 148.137 276.295C146.941 276.278 146.256 276.268 146.081 276.265C146.041 275.617 146.05 274.981 146.109 274.359ZM141.926 266.523C141.873 270.111 141.848 272.664 141.851 274.184L143.867 274.326C143.908 274.95 143.899 275.585 143.839 276.232C141.722 276.176 140.178 276.141 139.206 276.127C138.782 276.12 137.836 276.119 136.365 276.122C134.895 276.101 134.036 276.088 133.787 276.084C133.772 275.411 133.781 274.776 133.815 274.179L136.32 274.103C136.445 272.386 136.533 269.808 136.583 266.37C136.633 262.982 136.646 260.403 136.622 258.633L133.971 258.482C133.93 257.859 133.939 257.223 133.999 256.576C136.639 256.64 138.445 256.679 139.417 256.693C139.84 256.7 140.662 256.712 141.883 256.73C143.129 256.723 143.877 256.721 144.126 256.725C144.166 257.399 144.156 258.034 144.098 258.631L142.116 258.714C142.045 260.108 141.982 262.711 141.926 266.523Z" fill="#283859"/>
<path d="M96.5947 265.671C96.6434 262.357 96.6558 259.816 96.632 258.046L93.9804 257.895C93.9397 257.272 93.949 256.636 94.0084 255.989C96.4744 256.051 98.1932 256.088 99.1648 256.103C99.5884 256.109 100.485 256.122 101.855 256.142C103.226 256.137 104.036 256.137 104.285 256.14C104.325 256.814 104.316 257.449 104.257 258.046L102.2 258.128C102.073 259.995 101.972 263.445 101.899 268.477L108.822 260.244L108.852 258.226L106.611 258.081C106.571 257.457 106.58 256.822 106.639 256.175C108.757 256.231 110.301 256.266 111.273 256.28C111.696 256.287 112.668 256.301 114.187 256.323C115.732 256.321 116.629 256.322 116.879 256.325C116.894 256.998 116.884 257.634 116.851 258.231L114.345 258.307C114.22 260.024 114.133 262.552 114.084 265.89C114.033 269.378 114.019 272.007 114.043 273.777L116.657 273.927C116.698 274.551 116.689 275.186 116.629 275.833C114.163 275.772 112.445 275.734 111.473 275.72C111.049 275.714 110.152 275.713 108.782 275.718C107.412 275.698 106.602 275.686 106.353 275.682C106.338 275.009 106.347 274.374 106.381 273.776L108.475 273.695C108.602 271.828 108.703 268.328 108.779 263.196L101.855 271.43L101.823 273.597L104.026 273.742C104.067 274.365 104.058 275 103.998 275.647C101.881 275.591 100.337 275.556 99.3652 275.542C98.9417 275.536 97.9699 275.534 96.4498 275.536C94.9301 275.514 94.0457 275.501 93.7966 275.498C93.7815 274.824 93.7909 274.189 93.8246 273.592L96.33 273.516C96.4549 271.799 96.5431 269.184 96.5947 265.671Z" fill="#283859"/>
<path d="M67.6909 275.525C64.2031 275.474 61.663 274.514 60.0707 272.647C60.858 271.637 61.7686 270.716 62.8025 269.884C63.8683 271.968 65.3853 273.024 67.3534 273.053C69.9444 273.091 71.2587 271.827 71.2964 269.261C71.3275 267.143 70.1348 266.067 67.7182 266.031C66.8712 266.019 66.0481 266.069 65.2491 266.182C65.2102 265.434 65.2212 264.686 65.282 263.94C66.3276 264.005 67.1245 264.042 67.6726 264.05C69.6158 264.078 70.6044 262.934 70.6384 260.617C70.6706 258.425 69.7276 257.314 67.8093 257.286C67.1117 257.276 66.438 257.341 65.788 257.481C65.363 257.574 65.0619 257.719 64.8846 257.916C64.7325 258.088 64.6281 258.411 64.5713 258.883L64.1548 261.793C63.8302 261.838 63.3939 261.856 62.8458 261.848C62.3475 261.841 61.9368 261.81 61.6137 261.755C61.6327 260.46 61.6527 259.102 61.6735 257.682C61.7193 256.262 61.7425 255.528 61.7433 255.478C61.8429 255.479 62.067 255.495 62.4154 255.525C62.7887 255.555 63.0377 255.572 63.1622 255.573C65.7338 255.237 67.5427 255.077 68.5891 255.092C73.5468 255.165 76.0007 256.896 75.951 260.284C75.9323 261.554 75.5062 262.57 74.6728 263.33C73.8646 264.066 72.8979 264.562 71.7728 264.82C75.0818 265.168 76.7164 266.699 76.6765 269.415C76.6513 271.134 75.7702 272.591 74.0333 273.786C72.3212 274.982 70.2071 275.562 67.6909 275.525Z" fill="#283859"/>
<path d="M34.9094 272.726L36.5916 272.713L31.2162 264.598L37.3431 257.175L34.6547 256.986C34.6356 256.587 34.6448 255.964 34.6821 255.118C35.2053 255.125 36.0023 255.149 37.0732 255.19C38.1694 255.206 38.8172 255.216 39.0165 255.219L43.6882 255.25C43.7307 255.749 43.7214 256.384 43.6602 257.156L40.8168 257.338L35.3895 262.94L42.5339 272.763L44.2892 272.864C44.3298 273.487 44.3203 274.135 44.2606 274.807C42.2185 274.727 40.7116 274.68 39.74 274.666C38.9428 274.654 37.971 274.652 36.8246 274.66C35.7035 274.644 35.0558 274.634 34.8814 274.632C34.8389 274.133 34.8482 273.497 34.9094 272.726ZM30.5766 264.888C30.5239 268.475 30.4988 271.029 30.5014 272.549L32.5551 272.691C32.5958 273.315 32.5864 273.95 32.5271 274.597C30.4348 274.541 28.9028 274.506 27.9312 274.492C27.5077 274.486 26.6355 274.486 25.3147 274.491C24.0193 274.472 23.247 274.461 22.9978 274.457C22.9828 273.784 22.9921 273.149 23.0258 272.551L25.1202 272.47C25.2451 270.752 25.3328 268.175 25.3833 264.737C25.433 261.348 25.446 258.77 25.4222 257L23.3685 256.858C23.3278 256.234 23.3371 255.599 23.3965 254.952C25.5885 255.009 27.1703 255.045 28.1419 255.059C28.5654 255.065 29.3875 255.077 30.6083 255.095C31.8294 255.088 32.5645 255.086 32.8136 255.09C32.8536 255.764 32.8442 256.399 32.7856 256.996L30.8034 257.079C30.7082 258.473 30.6326 261.076 30.5766 264.888ZM19.0652 272.456L20.821 272.519C20.8595 273.292 20.8502 273.927 20.793 274.425C20.6186 274.422 19.9584 274.412 18.8124 274.396C17.6917 274.354 16.7327 274.328 15.9355 274.316L11.4127 274.324C11.3727 273.651 11.3822 273.003 11.4412 272.381L13.1987 272.332L20.5884 262.909L15.3307 256.964L12.5313 256.698C12.4928 255.925 12.5021 255.29 12.5593 254.793C14.7014 254.849 16.2583 254.884 17.2299 254.899C17.4292 254.902 18.0645 254.911 19.1358 254.927C20.2323 254.918 21.0422 254.917 21.5654 254.925C21.5778 255.772 21.5687 256.395 21.5379 256.793L18.9572 256.905L24.7513 264.503L19.0652 272.456Z" fill="#283859"/>
<path d="M317.628 211.748C316.582 211.732 315.725 212.355 315.059 213.616C314.393 214.852 314.046 216.43 314.018 218.348L320.523 218.219C320.636 213.935 319.671 211.778 317.628 211.748ZM320.464 227.339C321.884 227.359 323.385 226.983 324.966 226.209L325.539 227.936C325.262 228.107 324.873 228.325 324.37 228.592C323.893 228.834 322.979 229.157 321.627 229.561C320.301 229.965 319.077 230.159 317.956 230.142C314.991 230.099 312.649 229.23 310.93 227.535C309.236 225.816 308.409 223.548 308.451 220.733C308.501 217.32 309.413 214.617 311.186 212.625C312.985 210.633 315.316 209.658 318.181 209.7C319.751 209.723 321.092 210.054 322.204 210.694C323.34 211.333 324.175 212.168 324.708 213.197C325.266 214.227 325.662 215.267 325.896 216.317C326.13 217.342 326.239 218.403 326.223 219.499L326.213 220.209L314.03 220.03C314.149 222.125 314.734 223.865 315.785 225.251C316.837 226.612 318.396 227.308 320.464 227.339ZM312.468 206.813C312 206.382 311.773 205.769 311.785 204.971C311.796 204.174 312.042 203.567 312.521 203.151C313.026 202.734 313.652 202.532 314.399 202.543C315.147 202.554 315.754 202.775 316.221 203.205C316.688 203.635 316.916 204.249 316.904 205.047C316.892 205.844 316.647 206.451 316.167 206.867C315.688 207.284 315.074 207.487 314.327 207.476C313.579 207.465 312.96 207.244 312.468 206.813ZM319.53 206.917C319.063 206.486 318.836 205.872 318.847 205.075C318.859 204.278 319.105 203.671 319.584 203.254C320.064 202.838 320.677 202.635 321.425 202.646C322.172 202.657 322.779 202.878 323.247 203.308C323.739 203.739 323.979 204.353 323.967 205.15C323.955 205.947 323.697 206.554 323.193 206.97C322.713 207.387 322.1 207.59 321.352 207.579C320.605 207.568 319.998 207.347 319.53 206.917Z" fill="#283859"/>
<path d="M282.346 211.23C281.299 211.215 280.443 211.838 279.776 213.099C279.11 214.335 278.763 215.912 278.735 217.83L285.241 217.702C285.354 213.417 284.388 211.26 282.346 211.23ZM285.182 226.821C286.602 226.842 288.102 226.465 289.683 225.691L290.256 227.419C289.98 227.589 289.59 227.808 289.088 228.074C288.611 228.317 287.697 228.639 286.345 229.043C285.018 229.447 283.795 229.641 282.673 229.625C279.709 229.581 277.367 228.712 275.647 227.017C273.953 225.298 273.127 223.031 273.168 220.215C273.218 216.802 274.13 214.1 275.904 212.107C277.702 210.115 280.034 209.14 282.899 209.182C284.468 209.205 285.809 209.537 286.921 210.176C288.058 210.816 288.893 211.65 289.426 212.68C289.984 213.71 290.38 214.749 290.614 215.799C290.848 216.825 290.957 217.885 290.941 218.981L290.93 219.691L278.748 219.512C278.867 221.607 279.451 223.348 280.503 224.734C281.554 226.095 283.114 226.79 285.182 226.821Z" fill="#283859"/>
<path d="M240.11 226.607L243.809 226.662C244.208 226.668 244.794 226.676 245.566 226.688C246.339 226.674 246.887 226.67 247.211 226.674C247.341 224.558 247.432 221.818 247.481 218.455C247.529 215.192 247.552 212.775 247.55 211.205C247.401 211.203 247.064 211.198 246.541 211.19C246.018 211.158 245.62 211.139 245.346 211.135C245.047 211.131 244.623 211.137 244.075 211.154C243.551 211.146 243.215 211.141 243.066 211.139C243.095 219.338 242.109 224.494 240.11 226.607ZM234.84 226.605L236.224 226.513C237.721 226.41 238.863 224.957 239.652 222.153C240.441 219.349 240.757 215.665 240.599 211.103L236.976 210.937C236.935 210.314 236.945 209.679 237.004 209.032C239.37 209.091 241.039 209.128 242.011 209.143L249.784 209.257C250.207 209.263 251.241 209.278 252.886 209.302C254.555 209.302 255.515 209.304 255.764 209.307C255.779 209.98 255.769 210.615 255.736 211.213L253.081 211.286C252.956 213.004 252.87 215.432 252.824 218.571C252.77 222.258 252.755 224.987 252.779 226.756L256.215 226.919C256.21 227.292 256.193 228.401 256.166 230.245C256.164 232.113 256.161 233.148 256.158 233.347C255.958 233.369 255.485 233.374 254.737 233.363C253.99 233.352 253.529 233.333 253.355 233.306L252.926 229.487C252.908 229.013 252.6 228.772 252.002 228.763L249.461 228.688L240.978 228.564L238.997 228.572C238.399 228.563 238.084 228.795 238.052 229.268L237.473 233.072C237.298 233.095 236.85 233.101 236.127 233.09C235.38 233.079 234.907 233.06 234.708 233.032C234.711 232.832 234.726 231.799 234.753 229.93C234.805 228.087 234.834 226.978 234.84 226.605Z" fill="#283859"/>
<path d="M209.116 208.659L216.553 208.731L219.509 208.55C219.503 208.924 219.497 210.182 219.491 212.325C219.509 214.443 219.517 215.602 219.514 215.801C219.315 215.823 218.866 215.829 218.169 215.819C217.521 215.809 217.11 215.791 216.936 215.763L216.325 211.531C216.258 211.056 215.95 210.815 215.401 210.807L211.89 210.681C211.756 212.996 211.668 215.574 211.627 218.414C211.601 220.133 211.589 222.712 211.588 226.151L215.174 226.315C215.239 226.939 215.23 227.575 215.146 228.221C211.982 228.15 209.914 228.107 208.943 228.093C208.519 228.087 207.56 228.085 206.065 228.088C204.595 228.066 203.735 228.054 203.486 228.05C203.471 227.377 203.481 226.742 203.514 226.144L206.057 226.069C206.182 224.352 206.27 221.774 206.32 218.336C206.37 214.948 206.383 212.369 206.359 210.599L203.708 210.448C203.67 209.601 203.679 208.965 203.736 208.543C206.351 208.606 208.145 208.645 209.116 208.659Z" fill="#283859"/>
<path d="M173.679 227.612L167.438 227.521C167.422 226.897 167.432 226.262 167.466 225.615L170.009 225.54C170.134 223.822 170.221 221.294 170.27 217.956C170.321 214.468 170.335 211.84 170.311 210.07L167.659 209.919C167.594 209.295 167.603 208.66 167.687 208.013C170.801 208.084 172.844 208.126 173.815 208.14L178.636 208.174C180.929 208.183 182.654 208.619 183.813 209.483C184.997 210.323 185.577 211.503 185.555 213.022C185.536 214.293 185.123 215.284 184.315 215.994C183.532 216.706 182.578 217.19 181.453 217.448C182.1 217.532 182.659 217.64 183.13 217.771C183.627 217.903 184.147 218.123 184.691 218.43C185.259 218.737 185.689 219.192 185.979 219.794C186.294 220.397 186.445 221.122 186.433 221.969C186.407 223.713 185.664 225.134 184.202 226.234C182.741 227.309 180.777 227.829 178.311 227.792C177.887 227.786 177.103 227.75 175.958 227.683C174.837 227.642 174.077 227.618 173.679 227.612ZM177.182 225.757C178.403 225.775 179.341 225.503 179.997 224.939C180.679 224.351 181.03 223.322 181.052 221.852C181.066 220.881 180.741 220.091 180.078 219.483C179.414 218.875 178.434 218.562 177.139 218.543L176.503 218.534C176.204 218.529 175.88 218.549 175.531 218.594C175.479 222.107 175.457 224.461 175.464 225.657C176.061 225.716 176.634 225.749 177.182 225.757ZM176.85 210.166L175.729 210.15C175.661 211.394 175.605 213.562 175.559 216.651C175.733 216.678 176.019 216.695 176.418 216.701L177.091 216.711C178.062 216.725 178.827 216.437 179.383 215.847C179.965 215.258 180.263 214.527 180.275 213.655C180.295 212.335 180.046 211.434 179.53 210.953C179.039 210.447 178.146 210.185 176.85 210.166Z" fill="#283859"/>
<path d="M147.856 206.077L144.044 206.021C141.005 205.976 138.716 206.553 137.179 207.752C135.641 208.925 134.808 210.52 134.679 212.537C135.664 211.604 136.834 210.849 138.188 210.271C139.542 209.693 140.917 209.414 142.312 209.434C144.654 209.469 146.575 210.182 148.074 211.575C149.574 212.942 150.303 215.059 150.261 217.924C150.243 219.12 150.014 220.287 149.574 221.427C149.159 222.542 148.546 223.568 147.735 224.503C146.949 225.413 145.892 226.145 144.563 226.699C143.259 227.253 141.785 227.517 140.141 227.493C137.3 227.452 135.072 226.46 133.456 224.517C131.841 222.55 131.061 219.66 131.117 215.848C131.26 206.083 136.078 201.269 145.57 201.409L146.762 199.146C147.51 199.107 148.156 199.204 148.701 199.436C148.693 199.984 148.589 201.104 148.39 202.796C148.191 204.462 148.013 205.556 147.856 206.077ZM140.358 225.403C141.928 225.426 143.045 224.857 143.71 223.696C144.375 222.51 144.724 220.795 144.757 218.553C144.821 214.218 143.458 212.03 140.667 211.989C139.073 211.966 137.782 212.458 136.796 213.465C136.654 214.659 136.571 216.028 136.548 217.573C136.514 219.94 136.81 221.838 137.437 223.267C138.064 224.672 139.038 225.384 140.358 225.403Z" fill="#283859"/>
<path d="M101.393 213.917L98.3661 213.873C98.1041 213.047 97.9784 212.272 97.989 211.55C98.011 210.055 98.7514 208.845 100.21 207.919C101.669 206.994 103.42 206.546 105.463 206.576C106.709 206.595 107.777 206.797 108.668 207.184C109.585 207.571 110.275 208.08 110.739 208.71C111.203 209.339 111.53 209.992 111.72 210.668C111.934 211.319 112.036 212.005 112.026 212.728C111.972 214.721 111.913 217.859 111.85 222.144L111.817 224.424L114.431 224.537C114.448 225.086 114.441 225.559 114.411 225.957C114.21 226.004 113.036 226.199 110.888 226.541C108.741 226.858 107.505 227.039 107.18 227.084C106.903 225.585 106.767 224.674 106.772 224.35C106.187 225.139 105.455 225.788 104.575 226.299C103.696 226.784 102.845 227.021 102.023 227.009C100.503 226.986 99.252 226.507 98.269 225.571C97.3109 224.635 96.8431 223.407 96.8654 221.887C96.9214 218.075 100.188 216.192 106.667 216.237L106.711 213.21C106.727 210.445 105.875 209.049 104.156 209.024C103.234 209.01 102.483 209.261 101.902 209.776C101.347 210.266 101.063 210.91 101.052 211.707C101.044 212.23 101.158 212.967 101.393 213.917ZM106.492 223L106.569 217.806C105.223 217.786 104.136 218.032 103.306 218.543C102.501 219.054 102.091 219.821 102.076 220.842C102.048 222.785 102.856 223.769 104.5 223.793C105.297 223.805 105.961 223.541 106.492 223Z" fill="#283859"/>
<path d="M67.5951 224.073L70.849 223.934C70.8845 223.212 70.9378 220.434 71.0088 215.601C70.335 215.666 69.5497 215.692 68.6528 215.679C67.9901 216.691 67.2879 217.839 66.5464 219.124C65.8049 220.409 65.1792 221.446 64.6692 222.236C64.1592 223.026 63.6132 223.728 63.031 224.343C62.1704 225.252 61.1651 225.835 60.0151 226.092C58.8896 226.375 57.5059 226.429 55.8638 226.256C55.722 225.73 55.6815 225.094 55.7423 224.348C56.4168 224.233 57.0574 223.881 57.6641 223.292C58.296 222.678 59.0819 221.768 60.0216 220.561C62.2319 217.678 63.6665 215.855 64.3256 215.092C62.8092 214.845 61.5606 214.179 60.5798 213.093C59.599 212.007 59.1229 210.493 59.1515 208.55C59.1815 206.507 59.9173 204.761 61.3589 203.312C62.8255 201.863 64.9913 201.16 67.8563 201.202L74.6576 201.302C75.0811 201.308 76.0029 201.322 77.4229 201.342C78.8433 201.338 79.6781 201.338 79.9272 201.342C79.9664 202.065 79.9564 202.75 79.897 203.397L76.6448 203.424C76.61 204.096 76.5481 207.46 76.4592 213.513C76.3747 219.268 76.3602 222.794 76.416 224.091L79.6655 224.251C79.7065 224.849 79.6968 225.509 79.6364 226.231C79.3873 226.227 78.2911 226.211 76.3479 226.183C74.405 226.129 73.2218 226.1 72.7983 226.093L67.566 226.054C67.5264 225.356 67.5361 224.695 67.5951 224.073ZM71.0422 213.322L71.1866 203.493L69.1687 203.464C67.7237 203.443 66.6334 203.875 65.8977 204.761C65.1621 205.648 64.7825 206.888 64.7591 208.482C64.7372 209.977 65.081 211.166 65.7907 212.048C66.5256 212.907 67.6156 213.346 69.0606 213.367C69.783 213.378 70.4436 213.363 71.0422 213.322Z" fill="#283859"/>
<path d="M27.3164 200.12C29.6084 200.153 31.7069 200.633 33.6121 201.558C35.5172 202.483 37.0785 203.914 38.296 205.85C39.5135 207.787 40.103 210.063 40.0646 212.679C40.0038 216.815 38.7227 220.06 36.2211 222.416C33.7196 224.771 30.5755 225.921 26.7887 225.865C25.1942 225.842 23.6657 225.57 22.2032 225.05C20.7655 224.531 19.4435 223.776 18.237 222.787C17.0554 221.798 16.1025 220.513 15.3782 218.932C14.6791 217.327 14.307 215.515 14.2619 213.496C12.4433 213.469 11.0853 213.462 10.1881 213.474C10.1145 218.481 10.0798 221.695 10.0838 223.116L13.296 223.275C13.3363 223.923 13.3266 224.584 13.2669 225.256C10.1531 225.185 8.12287 225.143 7.17617 225.129C6.4786 225.118 5.38224 225.115 3.88709 225.118C2.3923 225.096 1.50789 225.083 1.23384 225.079C1.1917 224.555 1.2014 223.895 1.26294 223.098L4.51575 223.034C4.61683 221.241 4.70617 217.704 4.78375 212.422C4.86353 206.991 4.90048 203.628 4.89459 202.332L1.64453 202.21C1.60239 201.686 1.61227 201.013 1.67417 200.192C2.14752 200.199 3.2186 200.227 4.88742 200.276C6.58151 200.301 7.52821 200.315 7.72751 200.318L13.7072 200.368C13.7472 201.042 13.7373 201.714 13.6776 202.386L10.4248 202.451C10.3533 203.92 10.2854 206.847 10.221 211.232C12.1635 211.31 13.5832 211.356 14.4801 211.369C14.9797 207.888 16.4032 205.13 18.7505 203.096C21.0978 201.063 23.9531 200.07 27.3164 200.12ZM27.1958 223.591C29.2885 223.622 30.9956 222.762 32.3171 221.013C33.6638 219.238 34.3625 216.632 34.413 213.194C34.4605 209.955 33.8008 207.367 32.4339 205.428C31.0922 203.465 29.3003 202.466 27.0581 202.433C24.9654 202.403 23.2332 203.274 21.8616 205.048C20.5152 206.798 19.8173 209.354 19.7679 212.717C19.7178 216.13 20.3764 218.794 21.7437 220.708C23.1114 222.597 24.9288 223.558 27.1958 223.591Z" fill="#283859"/>
<path d="M301.229 159.085L300.724 162.965C300 163.029 299.402 163.058 298.928 163.051C298.48 163.044 297.92 162.998 297.248 162.914C297.249 162.864 297.266 161.681 297.301 159.364C297.359 157.047 297.39 155.839 297.391 155.739L299.072 155.801C299.546 155.784 300.681 155.676 302.478 155.478C304.301 155.255 305.822 155.153 307.043 155.171C311.054 155.23 314.153 156.285 316.341 158.335C318.554 160.361 319.631 163.355 319.573 167.316C319.515 171.277 318.233 174.548 315.728 177.127C313.249 179.707 309.978 180.967 305.917 180.908C304.896 180.893 303.477 180.76 301.662 180.509C299.872 180.258 298.865 180.119 298.641 180.091L296.921 180.103C296.923 180.003 296.893 178.657 296.831 176.065C296.77 173.447 296.739 172.114 296.74 172.064C297.239 172.046 297.824 172.042 298.497 172.052C299.22 172.063 299.792 172.084 300.216 172.115L300.711 176.57C300.777 177.119 300.909 177.495 301.105 177.697C301.327 177.875 301.711 178.018 302.258 178.125C303.177 178.338 304.446 178.457 306.065 178.48C308.108 178.51 309.863 177.764 311.331 176.24C312.823 174.717 313.669 172.275 313.868 168.914C313.544 168.909 312.934 168.9 312.037 168.887C311.14 168.849 310.48 168.827 310.057 168.821C308.562 168.799 307.416 168.794 306.618 168.808L306.189 172.614C305.54 172.654 304.606 172.64 303.386 172.573L303.455 167.901C303.485 165.809 303.496 164.239 303.486 163.192C304.658 163.135 305.605 163.149 306.326 163.234L306.652 166.528C307.449 166.565 308.595 166.594 310.089 166.616L313.864 166.671C313.653 160.688 311.093 157.66 306.185 157.588C304.79 157.567 303.617 157.662 302.667 157.873C302.168 157.94 301.818 158.047 301.616 158.194C301.415 158.34 301.286 158.637 301.229 159.085Z" fill="#283859"/>
<path d="M263.575 155.019C267.611 155.078 269.716 155.096 269.891 155.074C269.933 155.623 269.923 156.296 269.861 157.092L266.273 157.114C266.197 158.882 266.13 161.734 266.072 165.671C267.62 165.494 269.166 165.417 270.71 165.44C273.351 165.479 275.361 166.081 276.739 167.248C278.117 168.414 278.79 170.106 278.758 172.323C278.722 174.74 277.797 176.645 275.982 178.039C274.193 179.433 271.641 180.105 268.328 180.057C268.054 180.053 267.307 180.017 266.087 179.949C264.892 179.882 263.87 179.842 263.023 179.829C262.874 179.827 262.014 179.827 260.444 179.829C258.9 179.806 257.779 179.79 257.081 179.779C257.063 179.331 257.072 178.67 257.11 177.799L260.363 177.735C260.464 175.942 260.553 172.405 260.631 167.123C260.716 161.318 260.753 157.955 260.742 157.033L257.492 156.91C257.473 156.486 257.483 155.814 257.521 154.892C259.14 154.941 261.158 154.983 263.575 155.019ZM268.024 177.81C269.743 177.835 271.033 177.393 271.894 176.484C272.779 175.575 273.234 174.298 273.258 172.654C273.279 171.209 272.898 170.057 272.113 169.198C271.328 168.314 270.102 167.86 268.432 167.836L267.536 167.823C266.913 167.814 266.414 167.844 266.039 167.913C265.965 172.97 265.93 176.222 265.933 177.667C266.083 177.669 266.294 177.685 266.568 177.714C266.867 177.743 267.128 177.772 267.352 177.8C267.601 177.803 267.825 177.807 268.024 177.81Z" fill="#283859"/>
<path d="M212.235 154.265C216.271 154.324 218.376 154.342 218.551 154.32C218.594 154.769 218.584 155.442 218.521 156.338L214.933 156.36C214.855 158.253 214.788 161.092 214.733 164.879C217.077 164.739 218.262 164.669 218.287 164.67L219.184 164.683C224.465 164.76 227.073 167.054 227.007 171.563C226.971 174.005 226.083 175.923 224.343 177.318C222.629 178.688 220.114 179.349 216.801 179.3C216.527 179.296 215.83 179.261 214.709 179.194C213.589 179.128 212.58 179.088 211.684 179.075C211.534 179.073 210.674 179.073 209.105 179.075C207.56 179.052 206.439 179.036 205.741 179.025C205.723 178.577 205.733 177.916 205.77 177.045L209.023 176.98C209.124 175.188 209.214 171.651 209.291 166.369C209.376 160.564 209.413 157.201 209.402 156.279L206.152 156.156C206.133 155.732 206.143 155.06 206.182 154.138C207.801 154.187 209.818 154.229 212.235 154.265ZM216.647 177.055C219.836 177.102 221.456 175.356 221.508 171.819C221.554 168.705 220.007 167.125 216.868 167.078L216.158 167.068C215.56 167.059 215.074 167.089 214.699 167.159C214.625 172.216 214.59 175.467 214.593 176.913C215.315 176.998 215.999 177.045 216.647 177.055ZM240.196 156.656L236.981 156.684C236.903 158.576 236.829 161.939 236.758 166.773C236.679 172.129 236.64 175.667 236.639 177.386L239.889 177.546C239.929 178.194 239.92 178.855 239.86 179.527C236.945 179.459 234.903 179.416 233.732 179.399C233.582 179.397 232.747 179.397 231.227 179.4C229.708 179.377 228.612 179.361 227.939 179.351C227.897 178.827 227.906 178.167 227.968 177.371L231.071 177.304C231.197 175.512 231.299 171.975 231.377 166.693C231.456 161.287 231.48 157.936 231.45 156.64L228.2 156.48C228.158 155.956 228.168 155.284 228.23 154.462C228.678 154.469 229.749 154.497 231.443 154.547C233.137 154.572 234.084 154.585 234.283 154.588L240.225 154.638C240.244 155.087 240.234 155.76 240.196 156.656Z" fill="#283859"/>
<path d="M177.988 176.487C179.707 176.512 180.997 176.07 181.857 175.161C182.743 174.227 183.199 172.925 183.223 171.256C183.242 169.936 182.848 168.821 182.039 167.912C181.255 167.003 180.041 166.537 178.396 166.513L177.574 166.501C176.951 166.492 176.428 166.521 176.003 166.59C175.929 171.647 175.893 174.898 175.897 176.344C176.395 176.376 177.092 176.424 177.988 176.487ZM166.588 153.556L173.539 153.696C177.574 153.755 179.692 153.774 179.892 153.752C179.91 154.2 179.9 154.873 179.862 155.77L176.236 155.791C176.16 157.559 176.094 160.399 176.036 164.31C178.406 164.171 179.653 164.102 179.777 164.104L180.711 164.117C183.352 164.156 185.349 164.758 186.703 165.925C188.081 167.091 188.754 168.783 188.721 171C188.686 173.417 187.761 175.322 185.946 176.716C184.156 178.11 181.605 178.782 178.291 178.734C178.017 178.73 177.283 178.694 176.088 178.627C174.893 178.559 173.859 178.519 172.987 178.506C172.838 178.504 171.99 178.504 170.445 178.506C168.901 178.484 167.78 178.467 167.082 178.457C167.04 177.933 167.05 177.273 167.111 176.476L170.327 176.411C170.428 174.619 170.517 171.082 170.595 165.8C170.673 160.494 170.709 157.143 170.705 155.747L167.528 155.775C166.755 155.764 166.325 156.243 166.236 157.214L165.84 161.208C165.217 161.273 164.718 161.303 164.344 161.298C163.995 161.293 163.448 161.247 162.701 161.161C162.702 161.112 162.721 159.816 162.759 157.275C162.821 154.734 162.853 153.414 162.854 153.314L166.588 153.556Z" fill="#283859"/>
<path d="M142.531 178.097L107.403 177.581C107.364 176.882 107.373 176.222 107.432 175.6L110.722 175.574C110.798 173.756 110.873 170.393 110.945 165.485C111.023 160.153 111.063 156.616 111.063 154.871L107.776 154.748C107.735 154.125 107.745 153.452 107.805 152.73C107.83 152.731 108.241 152.749 109.038 152.786C109.86 152.798 110.745 152.811 111.691 152.825C112.663 152.839 113.361 152.849 113.784 152.855C114.233 152.862 115.229 152.877 116.774 152.899C118.319 152.897 119.178 152.897 119.353 152.9C119.392 153.598 119.383 154.258 119.324 154.88L116.631 154.953C116.528 156.87 116.439 160.42 116.363 165.602C116.291 170.46 116.28 173.774 116.329 175.544C118.371 175.624 119.629 175.667 120.102 175.674C120.6 175.681 121.871 175.675 123.915 175.655C123.986 174.236 124.059 170.91 124.136 165.679C124.208 160.796 124.235 157.258 124.217 155.064L121.565 154.951C121.5 154.327 121.51 153.654 121.595 152.933C121.62 152.933 121.993 152.951 122.715 152.987C123.438 152.997 124.235 153.009 125.107 153.022C125.979 153.035 126.614 153.044 127.013 153.05C127.486 153.057 128.495 153.072 130.04 153.094C131.585 153.092 132.432 153.092 132.582 153.094C132.621 153.792 132.611 154.453 132.552 155.075L129.785 155.146C129.67 157.911 129.581 161.435 129.518 165.72C129.44 171.052 129.416 174.39 129.446 175.736C131.438 175.816 132.721 175.859 133.294 175.868C133.742 175.874 135.013 175.868 137.106 175.849C137.198 173.01 137.272 169.684 137.328 165.872C137.399 160.989 137.427 157.451 137.409 155.258L134.757 155.145C134.691 154.521 134.701 153.848 134.786 153.127C134.811 153.127 135.172 153.145 135.87 153.18C136.592 153.19 137.389 153.202 138.261 153.215C139.133 153.228 139.781 153.237 140.204 153.244C140.678 153.25 141.762 153.266 143.456 153.291C145.15 153.291 146.085 153.293 146.259 153.295C146.323 153.994 146.314 154.654 146.23 155.276L142.977 155.34C142.877 157.058 142.788 160.583 142.71 165.914C142.625 171.644 142.601 175.008 142.636 176.005L146.931 176.218C146.925 176.641 146.92 177.812 146.917 179.731C146.914 181.649 146.91 182.733 146.907 182.983C146.682 183.004 146.196 183.009 145.449 182.998C144.726 182.988 144.266 182.969 144.067 182.941L143.602 178.972C143.535 178.398 143.178 178.106 142.531 178.097Z" fill="#283859"/>
<path d="M90.1358 177.327L51.6824 176.762C51.6428 176.064 51.6525 175.403 51.7115 174.781L55.0011 174.755C55.0777 172.937 55.152 169.574 55.2241 164.666C55.3024 159.335 55.3419 155.797 55.3426 154.053L52.0552 153.93C52.0145 153.306 52.0244 152.633 52.0848 151.912C52.1097 151.912 52.5206 151.93 53.3174 151.967C54.1396 151.979 55.024 151.992 55.9707 152.006C56.9423 152.02 57.6399 152.031 58.0634 152.037C58.5118 152.043 59.5084 152.058 61.053 152.081C62.5979 152.079 63.4576 152.079 63.632 152.081C63.6716 152.78 63.6619 153.44 63.6029 154.062L60.9107 154.134C60.8078 156.052 60.7182 159.601 60.6421 164.783C60.5708 169.641 60.5595 172.955 60.6082 174.725C61.6289 174.79 62.8867 174.833 64.3814 174.855C65.9011 174.878 67.1721 174.871 68.1942 174.837C68.2649 173.417 68.3387 170.092 68.4156 164.86C68.4873 159.977 68.5143 156.439 68.4967 154.246L65.8446 154.132C65.779 153.508 65.7889 152.836 65.8742 152.114C65.8991 152.115 66.2726 152.133 66.9947 152.168C67.7172 152.179 68.5144 152.19 69.3864 152.203C70.2584 152.216 70.8937 152.225 71.2923 152.231C71.7656 152.238 72.7746 152.253 74.3192 152.276C75.8642 152.273 76.7114 152.273 76.8609 152.276C76.9005 152.974 76.8908 153.634 76.8318 154.256L74.0648 154.328C73.9494 157.092 73.8603 160.617 73.7973 164.902C73.7187 170.258 73.6943 173.609 73.7244 174.955C74.7206 174.995 76.0034 175.026 77.5729 175.049C79.0677 175.071 80.3387 175.065 81.3857 175.03C81.4773 172.191 81.5511 168.865 81.607 165.054C81.6788 160.171 81.7058 156.633 81.6882 154.44L79.0361 154.326C78.9705 153.702 78.9803 153.029 79.0657 152.308C79.0906 152.308 79.4517 152.326 80.1489 152.361C80.8714 152.372 81.6686 152.384 82.5405 152.396C83.4125 152.409 84.0602 152.419 84.4838 152.425C84.9571 152.432 86.0408 152.448 87.7349 152.473C89.4294 152.473 90.3638 152.474 90.5382 152.476C90.5778 153.175 90.5681 153.835 90.5091 154.457L87.2563 154.521C87.1563 156.239 87.0671 159.764 86.9888 165.095C86.9043 170.85 86.8798 174.214 86.9154 175.186L90.1649 175.346C90.2305 175.97 90.2208 176.63 90.1358 177.327Z" fill="#283859"/>
<path d="M34.8079 153.639L31.5182 153.666C31.4406 155.558 31.3663 158.921 31.2953 163.754C31.2162 169.136 31.1767 172.674 31.1768 174.368L34.4263 174.528C34.4919 175.152 34.4822 175.812 34.3972 176.508C31.2585 176.437 29.2283 176.395 28.3065 176.382C28.1321 176.379 27.1354 176.377 25.3164 176.375C23.4977 176.348 22.2645 176.33 21.6168 176.321C21.5739 175.847 21.5836 175.186 21.6458 174.34L25.6087 174.286C25.7164 172.045 25.7986 168.994 25.8553 165.132C23.6032 165.772 21.3686 166.076 19.1513 166.043C16.4108 166.003 14.4372 165.5 13.2304 164.536C12.0239 163.546 11.4373 161.918 11.4706 159.651C11.5131 156.761 11.5313 154.668 11.5255 153.372L8.42488 153.252C8.41021 152.554 8.4201 151.881 8.45452 151.234C8.92787 151.241 9.97404 151.269 11.593 151.317C13.2373 151.341 14.1591 151.355 14.3584 151.358L20.1512 151.406C20.1937 151.905 20.1839 152.577 20.1216 153.424L17.0556 153.491C16.9593 154.959 16.8883 157.251 16.8425 160.365C16.8268 161.436 17.1137 162.263 17.7032 162.845C18.293 163.401 19.4101 163.692 21.0544 163.716C22.5242 163.738 24.1351 163.487 25.8871 162.965C25.9636 157.758 25.9971 154.631 25.9875 153.585L22.7748 153.463C22.7591 152.839 22.7689 152.167 22.8045 151.445C23.5768 151.456 24.7351 151.485 26.2793 151.533C27.8488 151.556 28.7083 151.569 28.8578 151.571L34.8375 151.621C34.8815 152.021 34.8716 152.693 34.8079 153.639Z" fill="#283859"/>
<path d="M308.562 131.477L291.223 131.222L285.132 131.133C285.092 130.434 285.102 129.774 285.161 129.152L288.451 129.088C288.527 127.27 288.602 123.92 288.673 119.037C288.752 113.705 288.791 110.168 288.792 108.423L285.504 108.3C285.464 107.677 285.474 107.004 285.534 106.282C285.559 106.283 285.97 106.301 286.767 106.338C287.589 106.35 288.473 106.363 289.42 106.377C290.392 106.391 291.089 106.401 291.513 106.407C291.986 106.414 293.082 106.43 294.801 106.456C296.545 106.456 297.492 106.458 297.642 106.46C297.706 107.159 297.697 107.819 297.613 108.441L294.323 108.504C294.245 110.422 294.167 113.972 294.091 119.154C294.003 125.183 293.967 128.496 293.983 129.095C295.128 129.161 296.672 129.209 298.615 129.237C300.559 129.266 302.104 129.264 303.25 129.231C303.342 126.391 303.416 123.066 303.472 119.254C303.543 114.371 303.57 110.833 303.553 108.64L300.34 108.518C300.275 107.894 300.284 107.222 300.37 106.5C300.395 106.501 300.806 106.519 301.602 106.556C302.425 106.568 303.309 106.581 304.256 106.595C305.227 106.609 305.925 106.619 306.348 106.625C306.822 106.632 307.918 106.648 309.637 106.674C311.356 106.674 312.291 106.675 312.44 106.677C312.48 107.376 312.47 108.036 312.411 108.658L309.121 108.722C309.021 110.44 308.932 113.964 308.853 119.296C308.777 124.528 308.752 127.891 308.78 129.387L313.075 129.599C313.069 130.023 313.064 131.194 313.061 133.113C313.058 135.031 313.054 136.115 313.051 136.364C312.826 136.386 312.328 136.391 311.555 136.38C310.783 136.368 310.297 136.349 310.098 136.321L309.633 132.352C309.567 131.778 309.21 131.486 308.562 131.477Z" fill="#283859"/>
<path d="M255.296 107.745L253.127 107.825C254.582 110.587 255.796 112.773 256.769 114.382L260.745 108.311L257.949 107.821C257.928 107.547 257.92 107.223 257.926 106.849C257.931 106.475 257.949 106.127 257.979 105.803C260.519 105.865 262.263 105.903 263.21 105.917C263.384 105.92 264.007 105.929 265.078 105.945C266.175 105.936 267.059 105.936 267.732 105.946C267.772 106.645 267.762 107.305 267.703 107.927L264.07 108.397L258.38 116.648L266.051 128.797L268.517 128.87C268.537 129.17 268.545 129.494 268.54 129.843C268.534 130.241 268.516 130.602 268.486 130.926C267.316 130.909 266.282 130.881 265.385 130.843C264.488 130.83 264.003 130.823 263.928 130.821L257.126 130.759C257.086 130.11 257.066 129.749 257.067 129.674C257.068 129.624 257.098 129.301 257.156 128.704L259.773 128.705L254.921 120.56L249.95 128.187L253.344 128.685C253.365 128.959 253.373 129.283 253.367 129.657C253.361 130.056 253.344 130.404 253.314 130.703C251.969 130.683 250.749 130.653 249.653 130.612C248.581 130.596 248.021 130.588 247.971 130.587L243.225 130.555C243.21 129.857 243.22 129.184 243.254 128.537L246.549 128.137L253.383 118.369L246.998 107.772L244.571 107.625C244.529 107.076 244.509 106.751 244.51 106.652C244.511 106.602 244.541 106.254 244.6 105.607C246.842 105.664 248.424 105.7 249.346 105.714C249.47 105.715 250.292 105.728 251.812 105.75C253.332 105.747 254.503 105.752 255.325 105.764C255.365 106.462 255.355 107.123 255.296 107.745Z" fill="#283859"/>
<path d="M220.208 106.22L217.03 106.286L216.92 108.639C220.36 108.565 223.179 109.204 225.377 110.557C227.575 111.91 228.652 114.069 228.608 117.034C228.56 120.322 227.467 122.673 225.328 124.087C223.214 125.501 220.326 126.157 216.665 126.053C216.643 127.523 216.642 128.457 216.661 128.856L219.873 129.016C219.889 129.589 219.881 130.187 219.847 130.809C216.857 130.74 214.877 130.699 213.905 130.685C213.482 130.678 212.485 130.664 210.916 130.641C209.371 130.643 208.474 130.642 208.225 130.639C208.209 130.015 208.218 129.417 208.251 128.845L211.429 128.779C211.457 128.58 211.476 128.145 211.486 127.472C211.521 126.775 211.54 126.289 211.544 126.015C209.949 126.042 208.481 125.908 207.14 125.614C205.824 125.296 204.597 124.817 203.46 124.177C202.349 123.513 201.478 122.59 200.847 121.41C200.217 120.23 199.913 118.83 199.937 117.21C199.98 114.296 201.096 112.119 203.285 110.681C205.474 109.218 208.325 108.512 211.838 108.564C211.842 108.29 211.836 107.866 211.819 107.293C211.828 106.695 211.833 106.334 211.835 106.209L208.586 106.049C208.569 105.476 208.578 104.878 208.612 104.256C208.861 104.259 209.795 104.285 211.414 104.334C213.034 104.358 214.055 104.373 214.479 104.379L220.234 104.426C220.25 105.05 220.241 105.647 220.208 106.22ZM223.072 117.326C223.103 115.258 222.553 113.643 221.424 112.48C220.295 111.317 218.771 110.747 216.852 110.768C216.802 112.437 216.759 114.53 216.722 117.046L216.657 123.997C218.7 124.052 220.265 123.514 221.353 122.384C222.466 121.254 223.039 119.568 223.072 117.326ZM205.435 116.992C205.404 119.11 205.927 120.787 207.006 122.024C208.109 123.236 209.645 123.857 211.613 123.886L211.751 117.01L211.807 110.694C209.939 110.617 208.412 111.105 207.225 112.159C206.063 113.214 205.467 114.825 205.435 116.992Z" fill="#283859"/>
<path d="M183.469 106.913L176.086 123.55C174.876 126.223 173.626 128.161 172.338 129.363C171.074 130.541 169.421 131.139 167.377 131.159C167.134 130.757 166.92 130.093 166.734 129.169C166.548 128.219 166.484 127.483 166.542 126.961C169.057 127.047 170.622 126.547 171.236 125.46L171.581 124.867L163.104 106.539L161.087 106.435C161.022 105.811 161.032 105.138 161.117 104.417C163.234 104.473 164.779 104.508 165.75 104.522C166.174 104.529 167.32 104.545 169.188 104.573C171.057 104.575 172.116 104.579 172.365 104.582C172.429 105.306 172.419 105.978 172.336 106.6L169.007 106.701L174.817 120.878L180.33 106.904L176.82 106.666C176.754 106.042 176.764 105.369 176.85 104.648C179.141 104.707 180.773 104.743 181.744 104.757C183.638 104.785 184.859 104.791 185.407 104.774C185.471 105.497 185.461 106.17 185.378 106.792L183.469 106.913Z" fill="#283859"/>
<path d="M141.622 129.025C137.686 128.942 135.245 128.894 134.298 128.88C134.149 128.878 133.152 128.876 131.308 128.873C129.489 128.847 128.219 128.828 127.496 128.817C127.457 128.119 127.466 127.459 127.525 126.837L131.676 126.711C131.777 124.943 131.866 121.431 131.943 116.174C132.021 110.893 132.057 107.567 132.052 106.196L128.726 106.185C128.477 106.181 128.263 106.277 128.086 106.474C127.909 106.646 127.806 106.881 127.777 107.18L127.488 111.549C126.864 111.614 126.341 111.644 125.917 111.638C125.494 111.632 124.909 111.586 124.162 111.5C124.163 111.45 124.182 110.155 124.219 107.613C124.282 105.073 124.314 103.752 124.315 103.653L128.011 103.931L134.775 104.068L141.838 104.134L145.504 103.964C145.502 104.064 145.483 105.384 145.445 107.925C145.433 110.467 145.426 111.762 145.426 111.812C144.727 111.877 144.178 111.906 143.78 111.9C143.356 111.894 142.809 111.849 142.137 111.764L141.941 107.276C141.95 106.678 141.606 106.374 140.908 106.363L137.546 106.277C137.468 108.194 137.394 111.507 137.325 116.216C137.246 121.547 137.207 125.073 137.207 126.792L141.651 127.044C141.69 127.792 141.68 128.453 141.622 129.025Z" fill="#283859"/>
<path d="M102.735 110.998L102.523 107.668C102.483 106.97 102.366 106.483 102.17 106.206C101.975 105.929 101.604 105.749 101.057 105.666C100.211 105.554 99.4896 105.493 98.8917 105.485C96.2758 105.446 94.0834 106.261 92.3146 107.93C90.5462 109.573 89.6367 112.114 89.5862 115.552C89.5599 117.346 89.8103 118.957 90.3375 120.385C90.8901 121.788 91.621 122.92 92.5303 123.781C93.44 124.617 94.4272 125.267 95.4919 125.731C96.5819 126.17 97.6998 126.399 98.8458 126.415C99.668 126.428 100.379 126.388 100.978 126.297C101.428 126.229 101.754 126.097 101.956 125.9C102.183 125.704 102.313 125.358 102.345 124.86L103.012 120.16C103.236 120.163 103.548 120.168 103.946 120.174C104.345 120.154 104.644 120.146 104.844 120.149C105.018 120.152 105.304 120.169 105.703 120.199C106.126 120.206 106.462 120.211 106.712 120.214C106.711 120.264 106.617 121.558 106.43 124.097C106.268 126.637 106.187 127.956 106.185 128.056L104.504 127.994C103.905 128.035 102.794 128.18 101.171 128.431C99.5726 128.681 98.3249 128.8 97.428 128.787C93.2675 128.726 89.9702 127.581 87.536 125.352C85.1022 123.099 83.9136 120.041 83.9703 116.18C84.0296 112.144 85.3476 108.936 87.9242 106.557C90.5012 104.153 93.9073 102.982 98.1426 103.044C99.0644 103.058 100.258 103.212 101.724 103.508C103.215 103.779 104.259 103.931 104.857 103.965C104.957 103.966 105.243 103.971 105.717 103.978C106.215 103.96 106.489 103.952 106.539 103.952C106.538 104.052 106.52 105.248 106.487 107.54C106.478 109.832 106.473 111.003 106.472 111.053C105.799 111.118 105.2 111.147 104.677 111.139C104.129 111.131 103.482 111.084 102.735 110.998Z" fill="#283859"/>
<path d="M57.9924 102.865C63.7971 102.951 66.7618 105.536 66.8865 110.621C66.7766 113.012 65.7904 114.841 63.9278 116.109C62.0905 117.353 59.7642 117.955 56.949 117.913C56.4757 117.906 56.0899 117.876 55.7917 117.821L55.7373 121.521C55.7066 123.614 55.6991 124.972 55.7149 125.595L60.6823 125.855C60.723 126.478 60.7133 127.139 60.6532 127.835C56.3685 127.747 53.7528 127.697 52.8061 127.683C52.6317 127.68 51.7596 127.68 50.1897 127.682C48.6451 127.659 47.5364 127.643 46.8638 127.633C46.8491 126.935 46.8588 126.275 46.8929 125.652L50.183 125.588C50.2589 123.82 50.3357 120.283 50.4137 114.976C50.4938 109.521 50.531 106.145 50.5251 104.849L47.275 104.726C47.2772 104.577 47.2673 104.402 47.2453 104.203C47.2486 103.978 47.2508 103.829 47.2519 103.754C47.253 103.679 47.2552 103.53 47.2585 103.306C47.2867 103.082 47.3021 102.883 47.3047 102.708C47.8777 102.717 48.8865 102.744 50.331 102.79C51.776 102.811 52.5981 102.823 52.7974 102.826C53.0217 102.83 53.6943 102.84 54.8154 102.856C55.9369 102.848 56.9959 102.851 57.9924 102.865ZM56.0157 105.116C55.979 105.913 55.9324 108.242 55.8757 112.104L55.823 115.691C56.3205 115.749 56.6689 115.779 56.8682 115.781C58.3392 115.728 59.443 115.221 60.1798 114.26C60.9165 113.299 61.295 112.134 61.3151 110.763C61.3404 109.044 60.9989 107.694 60.2907 106.712C59.6077 105.705 58.5814 105.179 57.2115 105.134L56.0157 105.116Z" fill="#283859"/>
<path d="M29.9887 104.547L26.699 104.574C26.5954 106.541 26.5088 109.891 26.4393 114.624C26.3613 119.931 26.3343 123.469 26.3581 125.239L29.6076 125.398C29.6483 126.022 29.6386 126.682 29.5785 127.379C26.5395 127.309 24.5342 127.268 23.5626 127.253C23.139 127.247 22.08 127.244 20.3856 127.244C18.6915 127.219 17.7199 127.205 17.4708 127.201C17.4312 126.503 17.4409 125.843 17.4998 125.221L20.79 125.157C20.8911 123.364 20.9806 119.815 21.0586 114.508C21.1274 109.824 21.151 106.523 21.1293 104.604C18.838 104.521 17.2938 104.473 16.4966 104.461C15.6744 104.449 14.1419 104.452 11.899 104.468C11.8118 107.009 11.7381 110.334 11.6777 114.445C11.6082 119.179 11.5688 122.704 11.5597 125.021L14.7719 125.18C14.8374 125.804 14.8278 126.465 14.7428 127.161C11.7037 127.092 9.69841 127.05 8.7268 127.035C8.30327 127.029 7.25674 127.026 5.5872 127.027C3.91802 127.002 2.95886 126.988 2.70973 126.984C2.67015 126.286 2.67985 125.626 2.73882 125.004L5.99163 124.939C6.09162 123.221 6.18078 119.697 6.25909 114.365C6.33777 109.009 6.36208 105.658 6.33201 104.312L3.11987 104.153C3.05428 103.529 3.06416 102.856 3.14951 102.135L9.01655 102.221L23.927 102.44L30.0183 102.529C30.0575 103.252 30.0476 103.925 29.9887 104.547Z" fill="#283859"/>
<path d="M318.202 57.2315C321.789 57.2842 324.825 58.4252 327.309 60.6545C329.818 62.8593 331.044 65.9049 330.987 69.7914C330.926 73.9518 329.632 77.2096 327.106 79.5647C324.605 81.8952 321.461 83.0326 317.674 82.977C316.005 82.9525 314.414 82.6799 312.902 82.1594C311.414 81.6391 310.042 80.8839 308.786 79.8936C307.554 78.9037 306.577 77.5936 305.853 75.9633C305.13 74.308 304.784 72.434 304.815 70.3413C304.871 66.4798 306.164 63.3217 308.692 60.867C311.245 58.3877 314.415 57.1759 318.202 57.2315ZM318.081 80.703C320.199 80.7341 321.918 79.8872 323.239 78.1623C324.586 76.4129 325.284 73.7942 325.336 70.3064C325.38 67.2919 324.782 64.7539 323.541 62.6923C322.301 60.6308 320.435 59.5817 317.943 59.5451C315.651 59.5115 313.844 60.4318 312.52 62.3062C311.197 64.1806 310.512 66.6873 310.466 69.8263C310.416 73.2145 311.1 75.8659 312.517 77.7805C313.959 79.6955 315.814 80.6697 318.081 80.703Z" fill="#283859"/>
<path d="M287.507 59.2475L284.218 59.2739C284.14 61.1666 284.066 64.5295 283.995 69.3626C283.916 74.7438 283.876 78.2817 283.876 79.9762C284.1 79.9794 284.648 79.9999 285.52 80.0377C286.392 80.0754 286.927 80.1082 287.126 80.136C287.166 80.7596 287.157 81.4198 287.097 82.1166C283.958 82.0456 281.928 82.0033 281.006 81.9898C280.832 81.9872 279.947 81.9867 278.352 81.9882C276.783 81.9651 275.674 81.9488 275.026 81.9393C274.987 81.241 274.996 80.5808 275.055 79.9587L278.346 79.8949C278.453 77.6538 278.538 74.4157 278.6 70.1804L273.854 70.1107L269.146 70.0416C269.072 75.074 269.037 78.3129 269.04 79.7582C269.29 79.7619 269.838 79.7824 270.684 79.8197C271.531 79.8571 272.066 79.8899 272.29 79.9181C272.331 80.5417 272.321 81.2018 272.261 81.8987C269.122 81.8277 267.08 81.7852 266.133 81.7713C265.435 81.761 264.339 81.7574 262.844 81.7604C261.349 81.7384 260.465 81.7254 260.19 81.7214C260.176 81.0234 260.186 80.3632 260.22 79.7408L263.472 79.6764C263.573 77.9087 263.662 74.3716 263.74 69.0651C263.82 63.634 263.857 60.2706 263.851 58.9747L260.601 58.8522C260.559 58.3034 260.539 57.9667 260.541 57.8422C260.542 57.8172 260.571 57.4813 260.631 56.8343C261.104 56.8412 262.175 56.8694 263.844 56.9189C265.538 56.9437 266.485 56.9576 266.684 56.9606L272.701 57.0116C272.741 57.7099 272.731 58.3701 272.672 58.9922L269.382 59.056C269.31 60.5749 269.242 63.5019 269.178 67.8368C271.469 67.9202 273.101 67.9691 274.073 67.9834C275.069 67.998 276.589 67.9954 278.633 67.9756C278.703 63.1923 278.734 60.2648 278.724 59.1932L275.437 59.0702C275.395 58.5213 275.375 58.1847 275.377 58.0601C275.377 58.0352 275.407 57.6992 275.467 57.0522C276.239 57.0635 277.41 57.0932 278.979 57.1412C280.548 57.1642 281.408 57.1769 281.557 57.179L287.537 57.2295C287.557 57.5537 287.565 57.8903 287.56 58.239C287.554 58.6376 287.536 58.9738 287.507 59.2475Z" fill="#283859"/>
<path d="M243.523 58.7137L240.157 58.8138C240.1 61.0058 240.036 64.5433 239.964 69.4262C239.898 73.9355 239.862 77.2367 239.856 79.3298C240.08 79.333 240.616 79.3534 241.462 79.3907C242.334 79.4284 242.882 79.4614 243.106 79.4896C243.146 80.1132 243.137 80.7734 243.077 81.4702C240.262 81.4039 238.393 81.364 237.472 81.3505C237.347 81.3487 236.562 81.3496 235.117 81.3533C233.672 81.3321 232.551 81.3156 231.754 81.3039C231.714 80.6056 231.724 79.9454 231.783 79.3233L234.4 79.2496L234.928 63.6708L227.189 81.6106L224.648 81.5733L216.579 63.4013C216.576 63.6505 216.557 64.9584 216.522 67.3251C216.512 69.6673 216.506 70.963 216.502 71.2121L216.394 78.574L220.609 79.1592C220.625 79.7824 220.615 80.4426 220.58 81.1398C218.338 81.0819 216.756 81.0462 215.835 81.0327C215.685 81.0305 214.913 81.0316 213.517 81.036C212.147 81.0159 211.038 80.9996 210.191 80.9872C210.177 80.2892 210.186 79.629 210.22 79.0066L213.367 78.5295L214.032 58.7291L210.339 58.2263C210.295 57.8269 210.275 57.4653 210.28 57.1415C210.284 56.8425 210.314 56.4941 210.37 56.0962C211.441 56.1369 213.048 56.1729 215.19 56.2044C217.034 56.2315 218.404 56.2391 219.301 56.2274L227.399 74.9605L235.183 56.4607C236.279 56.5017 237.786 56.5363 239.705 56.5645C241.349 56.5886 242.632 56.595 243.554 56.5837C243.576 56.7833 243.584 57.1323 243.576 57.6306C243.569 58.1537 243.551 58.5148 243.523 58.7137Z" fill="#283859"/>
<path d="M193.506 57.9043L190.217 57.8933C190.114 59.8604 190.027 63.2231 189.957 67.9815C189.879 73.288 189.852 76.826 189.876 78.5956L193.125 78.7554C193.241 79.3801 193.231 80.0403 193.096 80.736C190.057 80.6665 188.052 80.6246 187.08 80.6103C186.657 80.6041 185.598 80.601 183.903 80.601C182.234 80.5765 181.275 80.5624 181.026 80.5587C180.961 79.8601 180.971 79.1999 181.055 78.5781L184.308 78.5138C184.409 76.7211 184.498 73.1716 184.576 67.8651C184.664 61.8859 184.7 58.5723 184.685 57.9242C183.49 57.8568 182.432 57.8163 181.51 57.8028C180.513 57.7882 179.466 57.7977 178.37 57.8314C178.293 66.4521 177.706 72.4862 176.609 75.9338C175.511 79.3813 173.58 81.0848 170.815 81.0442C169.245 81.0211 168.04 80.7667 167.2 80.2809C167.257 79.8083 167.505 79.0394 167.944 77.9744C168.359 76.8841 168.707 76.1292 168.987 75.7097C169.654 76.1182 170.323 76.3274 170.996 76.3372C172.84 76.3643 174.094 74.9126 174.76 71.982C175.426 69.0514 175.77 64.3094 175.792 57.7562L171.159 57.576C171.144 56.9528 171.154 56.2677 171.19 55.5207C171.439 55.5243 172.398 55.5509 174.067 55.6003C175.736 55.6248 176.782 55.6402 177.206 55.6464L187.445 55.7968L193.536 55.8863C193.575 56.6095 193.565 57.2822 193.506 57.9043Z" fill="#283859"/>
<path d="M127.782 79.7641C127.768 79.0662 127.777 78.406 127.811 77.7835L131.102 77.7197C131.202 75.952 131.292 72.4149 131.37 67.1084C131.449 61.6773 131.486 58.3139 131.48 57.018L128.193 56.895C128.195 56.7455 128.185 56.5709 128.163 56.3712C128.167 56.147 128.169 55.9851 128.17 55.8854C128.172 55.8107 128.174 55.6737 128.176 55.4744C128.205 55.2505 128.22 55.0514 128.223 54.877C129.07 54.8894 130.253 54.9193 131.772 54.9665C133.317 54.9892 134.164 55.0017 134.313 55.0038L139.321 55.04C139.336 55.738 139.326 56.3982 139.292 57.0206L136.973 57.1361C136.896 59.0038 136.822 62.3667 136.75 67.2248C136.672 72.5313 136.633 76.0567 136.632 77.8009L139.62 77.957C139.661 78.5805 139.651 79.2407 139.591 79.9376C136.627 79.8691 134.684 79.8281 133.762 79.8146C133.637 79.8127 132.828 79.8133 131.332 79.8163C129.863 79.7947 128.679 79.7773 127.782 79.7641ZM142.319 79.9776C142.28 79.2544 142.29 78.5818 142.349 77.9597L144.966 77.9234L137.344 67.5325L145.938 57.5668L142.356 57.103C142.314 56.5542 142.294 56.2175 142.296 56.0929C142.297 56.068 142.326 55.7321 142.386 55.085C143.158 55.0964 144.154 55.1235 145.375 55.1663C146.595 55.1843 147.268 55.1941 147.393 55.196L153.186 55.2437C153.2 55.9416 153.191 56.6018 153.156 57.2243L149.375 57.6546L141.969 65.6568C142.165 65.8591 143.717 67.9127 146.625 71.8178C149.533 75.7229 151.098 77.7892 151.319 78.0167L154.232 78.1716C154.272 78.7952 154.263 79.4554 154.203 80.1522C151.064 80.0812 149.021 80.0387 148.075 80.0248C147.9 80.0222 147.028 80.0219 145.458 80.0237C143.914 80.0011 142.867 79.9857 142.319 79.9776Z" fill="#283859"/>
<path d="M110.921 56.6401L107.631 56.6665C107.529 58.5588 107.442 61.9091 107.371 66.7173C107.292 72.1235 107.265 75.6739 107.29 77.3688L110.539 77.5286C110.581 78.0525 110.572 78.7127 110.51 79.5092C107.346 79.4378 105.291 79.3952 104.345 79.3813C104.195 79.3791 103.323 79.3787 101.728 79.3802C100.159 79.3572 99.05 79.3409 98.4023 79.3314C98.384 78.8826 98.3937 78.2224 98.4314 77.3508L101.722 77.287C101.822 75.5442 101.911 72.007 101.99 66.6756L102.052 62.4155L92.0164 73.8552C91.9974 75.1507 92.0062 76.2472 92.0428 77.1448L95.255 77.3041C95.2971 77.828 95.2874 78.4882 95.2259 79.2847C92.0872 79.2137 90.057 79.1714 89.1352 79.1579C88.4376 79.1476 87.3288 79.1438 85.8087 79.1464C84.3139 79.1244 83.4295 79.1114 83.1555 79.1074C83.1372 78.6586 83.1468 77.9984 83.1846 77.1268L86.4747 77.063C86.5758 75.2704 86.6653 71.7208 86.7433 66.4143C86.8227 61.0082 86.8595 57.6572 86.8536 56.3613L83.5662 56.2383C83.5475 55.8144 83.5573 55.1417 83.5958 54.2203C84.0692 54.2273 85.1527 54.2556 86.8464 54.3054C88.5405 54.3303 89.4872 54.3442 89.6865 54.3472L95.6662 54.3976C95.708 54.9464 95.6981 55.6191 95.6366 56.4156L92.3838 56.4799C92.2911 57.6996 92.2043 61.0623 92.1234 66.5681L92.0614 70.7909L102.097 59.3885C102.115 58.118 102.117 57.1836 102.1 56.5853L98.813 56.4622C98.7943 56.0383 98.8042 55.3657 98.8426 54.4443C99.6149 54.4556 100.773 54.4851 102.317 54.5327C103.887 54.5557 104.746 54.5684 104.896 54.5706L110.95 54.6221C110.992 55.1709 110.982 55.8436 110.921 56.6401ZM95.5177 49.2373C95.8079 49.8396 96.389 50.1472 97.2609 50.16C98.1329 50.1728 98.7227 49.8824 99.0305 49.2889C99.3386 48.6705 99.4245 47.9117 99.2882 47.0126L103.025 47.0675C103.101 48.6884 102.634 49.9399 101.624 50.8221C100.615 51.6794 99.1513 52.094 97.2329 52.0658C95.3146 52.0376 93.8636 51.5803 92.8799 50.6937C91.8966 49.7822 91.4666 48.5175 91.59 46.8996L95.327 46.9545C95.1644 47.8491 95.2279 48.6101 95.5177 49.2373Z" fill="#283859"/>
<path d="M66.2956 55.9855L63.006 56.0119C62.9034 57.9042 62.8169 61.2545 62.7462 66.0627C62.6668 71.4689 62.6396 75.0194 62.6645 76.7142L65.914 76.874C65.9562 77.398 65.9465 78.0582 65.8849 78.8546C62.7213 78.7833 60.6662 78.7406 59.7195 78.7267C59.57 78.7245 58.6979 78.7241 57.1031 78.7256C55.5335 78.7026 54.4249 78.6863 53.7772 78.6768C53.7588 78.228 53.7685 77.5678 53.8063 76.6962L57.0964 76.6324C57.1968 74.8896 57.2861 71.3525 57.3644 66.0211L57.427 61.7609L47.3913 73.2006C47.3722 74.4961 47.381 75.5926 47.4177 76.4902L50.6298 76.6495C50.672 77.1734 50.6623 77.8336 50.6007 78.6301C47.4621 78.5591 45.4318 78.5168 44.51 78.5033C43.8125 78.493 42.7037 78.4892 41.1836 78.4918C39.6888 78.4698 38.8044 78.4568 38.5303 78.4528C38.512 78.004 38.5217 77.3438 38.5594 76.4722L41.8496 76.4084C41.9507 74.6158 42.0402 71.0662 42.1182 65.7597C42.1976 60.3536 42.2343 57.0026 42.2285 55.7067L38.941 55.5837C38.9223 55.1598 38.9322 54.4871 38.9707 53.5657C39.444 53.5727 40.5276 53.6011 42.2213 53.6509C43.9154 53.6757 44.8621 53.6896 45.0614 53.6926L51.0411 53.743C51.0828 54.2918 51.073 54.9645 51.0114 55.761L47.7586 55.8253C47.666 57.045 47.5792 60.4077 47.4983 65.9135L47.4363 70.1363L57.4715 58.734C57.4901 57.4634 57.4914 56.529 57.4753 55.9307L54.1879 55.8076C54.1692 55.3838 54.179 54.7111 54.2175 53.7897C54.9898 53.801 56.1481 53.8305 57.6923 53.8781C59.2618 53.9012 60.1214 53.9138 60.2708 53.916L66.3253 53.9675C66.367 54.5164 66.3572 55.189 66.2956 55.9855Z" fill="#283859"/>
<path d="M11.2143 66.4272C10.6662 66.4191 9.74369 66.4554 8.44675 66.536C8.31081 65.6121 8.32417 64.7027 8.48682 63.808C9.35768 63.8956 10.1419 63.9445 10.8395 63.9547C12.0602 63.9727 13.0619 63.6385 13.8444 62.9523C14.6273 62.2412 15.029 61.188 15.0495 59.7929C15.074 58.1237 14.7425 56.9477 14.0548 56.2648C13.3675 55.557 12.3262 55.1928 10.9311 55.1723C9.66052 55.1537 8.66272 55.2262 7.93768 55.39C7.56251 55.4842 7.29965 55.5675 7.14907 55.64C6.99886 55.6877 6.86019 55.7978 6.73306 55.9703C6.6063 56.118 6.52827 56.3411 6.49896 56.6397L5.99344 60.5196C5.29477 60.5841 4.70877 60.6128 4.23542 60.6059C3.76207 60.5989 3.18961 60.5531 2.51806 60.4685C2.51879 60.4187 2.53617 59.2353 2.57021 56.9184C2.62915 54.6018 2.65936 53.3937 2.66082 53.2941C2.71065 53.2948 2.97205 53.3111 3.44504 53.343C3.9433 53.3503 4.24226 53.3547 4.34191 53.3562C4.84054 53.3386 5.91363 53.2297 7.56119 53.0297C9.20912 52.8047 10.631 52.701 11.8268 52.7185C14.642 52.7599 16.814 53.3276 18.3429 54.4215C19.8971 55.4909 20.6595 57.0221 20.6302 59.0152C20.6086 60.4851 20.1045 61.7236 19.1179 62.7307C18.1313 63.7379 17.0003 64.3941 15.725 64.6993C17.4407 64.9488 18.8267 65.5921 19.883 66.6293C20.9641 67.6668 21.4917 69.07 21.4657 70.8388C21.4306 73.2305 20.4686 75.1102 18.5796 76.4778C16.7155 77.8459 14.0396 78.5043 10.5517 78.4531C9.5303 78.4381 8.18682 78.2937 6.5213 78.0201C4.88069 77.7468 3.87373 77.595 3.5004 77.5646L1.78084 77.5767C1.78231 77.477 1.76451 76.1436 1.72747 73.5765C1.7157 70.9848 1.71018 69.664 1.71092 69.6142C2.20954 69.5966 2.80764 69.5929 3.50521 69.6032C4.20278 69.6134 4.76314 69.6341 5.1863 69.6652L5.60623 74.1567C5.67328 74.681 5.81746 75.0445 6.03875 75.2471C6.2604 75.4247 6.65682 75.5801 7.22799 75.7131C7.99773 75.8988 9.13 76.0026 10.6248 76.0246C12.3936 76.0506 13.6827 75.6584 14.492 74.8479C15.3266 74.013 15.7568 72.7111 15.7828 70.9422C15.8264 67.9776 14.3035 66.4726 11.2143 66.4272Z" fill="#283859"/>
<path d="M288.916 33.085C288.874 32.5611 288.883 31.9009 288.945 31.1044L291.151 31.0247C291.252 29.2321 291.342 25.6949 291.419 20.4134C291.499 15.0072 291.535 11.6562 291.53 10.3604L289.438 10.2549C289.398 9.60643 289.408 8.92132 289.468 8.19957C290.315 8.21201 291.287 8.23874 292.382 8.27976C293.479 8.29586 294.101 8.30501 294.251 8.3072L299.072 8.34065C299.114 8.88947 299.104 9.56212 299.043 10.3586L296.873 10.4762C296.821 12.3444 296.759 15.6825 296.688 20.4908C296.611 25.7723 296.584 29.3104 296.607 31.1049L298.773 31.2488C298.815 31.7727 298.806 32.4329 298.744 33.2294C296.303 33.1686 294.621 33.1315 293.7 33.1179C293.575 33.1161 292.965 33.1196 291.868 33.1284C290.772 33.1123 289.788 33.0978 288.916 33.085ZM311.032 31.3167L313.646 31.4673C313.688 31.9912 313.679 32.6514 313.617 33.4479C310.752 33.3809 308.859 33.3406 307.937 33.3271C307.763 33.3245 306.928 33.3247 305.433 33.3277C303.938 33.3057 302.904 33.2905 302.331 33.2821C302.313 32.8333 302.323 32.1731 302.361 31.3015L304.716 31.2613L297.661 20.4677L305.877 10.758L302.106 10.441C302.088 10.0171 302.098 9.33199 302.137 8.38566C302.934 8.39737 303.955 8.42483 305.2 8.46804C306.446 8.48634 307.144 8.49659 307.293 8.49878L312.974 8.54485C312.989 9.19295 312.979 9.86561 312.944 10.5628L309.801 10.8157L302.165 19.1509C302.629 19.7806 303.509 21.0021 304.803 22.8152C306.097 24.6284 307.269 26.2653 308.319 27.726C309.394 29.1622 310.298 30.3591 311.032 31.3167ZM274.146 30.8871L276.839 30.8145C278.437 28.8694 281.472 24.9644 285.944 19.0995L278.597 10.3573L275.462 10.0122C275.448 9.3143 275.458 8.64164 275.492 7.99427C278.357 8.06127 280.25 8.10154 281.172 8.11508C281.321 8.11727 282.019 8.12752 283.264 8.14582C284.51 8.1392 285.532 8.14175 286.329 8.15346C286.368 8.87667 286.358 9.56178 286.299 10.2088L282.745 10.4182L290.448 20.3617L283.004 30.9424L285.432 31.0528C285.472 31.7013 285.463 32.3615 285.403 33.0334C284.855 33.0254 283.833 33.0104 282.339 32.9884C280.844 32.9415 279.997 32.9166 279.798 32.9137L274.117 32.8676C274.079 32.0697 274.089 31.4095 274.146 30.8871Z" fill="#283859"/>
<path d="M242.298 4.74102C241.831 4.31054 241.603 3.69669 241.615 2.89947C241.627 2.10225 241.872 1.50782 242.352 1.11616C242.831 0.724502 243.432 0.53398 244.154 0.544593C244.902 0.555571 245.509 0.763842 245.976 1.16941C246.444 1.57497 246.672 2.17636 246.66 2.97358C246.648 3.7708 246.403 4.37769 245.923 4.79426C245.444 5.18592 244.831 5.37626 244.083 5.36528C243.361 5.35467 242.766 5.14658 242.298 4.74102ZM249.772 4.8508C249.33 4.42069 249.115 3.80703 249.127 3.00981C249.138 2.21259 249.371 1.61797 249.826 1.22595C250.305 0.834289 250.918 0.643949 251.665 0.654928C252.413 0.665907 253.02 0.874178 253.488 1.27974C253.955 1.6853 254.183 2.28669 254.171 3.08391C254.16 3.88113 253.914 4.48803 253.435 4.9046C252.955 5.29626 252.342 5.48659 251.595 5.47562C250.847 5.46464 250.24 5.25637 249.772 4.8508ZM257.472 32.8477L253.626 32.5669L247.722 32.4802C245.231 32.4187 243.524 32.3812 242.603 32.3676C242.528 32.3665 241.793 32.3682 240.397 32.3726C239.027 32.3525 237.769 32.334 236.623 32.3172C236.608 31.6192 236.618 30.959 236.652 30.3366L239.942 30.2728C240.043 28.505 240.132 24.9679 240.21 19.6614C240.285 14.5792 240.322 11.2033 240.322 9.53371L237.034 9.41066C237.018 8.78747 237.028 8.11482 237.064 7.3927C237.687 7.40185 238.808 7.43078 240.427 7.47948C242.071 7.50363 242.993 7.51717 243.192 7.5201L253.244 7.66776L257.096 7.53745C257.095 7.6371 257.078 8.78311 257.046 10.9755C257.039 13.1433 257.035 14.2521 257.034 14.3019C256.311 14.366 255.712 14.3946 255.239 14.3877C254.79 14.3811 254.243 14.3357 253.596 14.2514L253.419 11.0343C253.401 10.6104 253.318 10.3227 253.17 10.171C253.023 10.0193 252.787 9.94109 252.464 9.93633C251.99 9.92938 250.869 9.90045 249.101 9.84956C247.357 9.79903 246.261 9.77047 245.813 9.76388C245.74 11.3576 245.672 14.2471 245.611 18.4325L247.591 18.4616C247.816 18.4649 248.152 18.4699 248.6 18.4765C249.049 18.4581 249.361 18.4503 249.535 18.4528L249.92 15.1692C250.194 15.1483 250.556 15.1412 251.004 15.1478C251.652 15.1573 252.15 15.1771 252.498 15.2071C252.458 16.278 252.422 17.8723 252.391 19.9899L252.322 24.6611C251.699 24.6768 250.852 24.6395 249.782 24.549L249.502 20.695C249.029 20.6631 248.357 20.6408 247.485 20.628L245.579 20.6C245.507 25.483 245.485 28.6598 245.514 30.1304L252.689 30.2358C253.436 30.2467 253.827 29.8912 253.863 29.169L254.182 25.2491C254.631 25.2307 255.217 25.2269 255.939 25.2375C256.263 25.2173 256.812 25.2129 257.584 25.2243L257.472 32.8477Z" fill="#283859"/>
<path d="M219.271 32.2862L215.425 32.0054L209.521 31.9187C207.03 31.8572 205.324 31.8196 204.402 31.8061C204.327 31.805 203.592 31.8067 202.196 31.8111C200.826 31.791 199.568 31.7725 198.422 31.7556C198.407 31.0577 198.417 30.3975 198.451 29.7751L201.741 29.7112C201.842 27.9435 201.931 24.4064 202.009 19.0999C202.084 14.0176 202.121 10.6417 202.121 8.97217L198.833 8.84913C198.818 8.22593 198.827 7.55328 198.863 6.83117C199.486 6.84031 200.607 6.86924 202.226 6.91794C203.87 6.94209 204.792 6.95563 204.991 6.95856L215.044 7.10622L218.895 6.97592C218.894 7.07557 218.877 8.22157 218.845 10.4139C218.838 12.5817 218.834 13.6905 218.833 13.7404C218.11 13.8045 217.511 13.8331 217.038 13.8261C216.59 13.8195 216.042 13.7741 215.395 13.6899L215.218 10.4728C215.2 10.0489 215.117 9.76112 214.969 9.60944C214.822 9.45777 214.587 9.37955 214.263 9.3748C213.789 9.36784 212.668 9.33892 210.9 9.28802C209.156 9.23749 208.06 9.20893 207.612 9.20234C207.539 10.7961 207.471 13.6856 207.41 17.871L209.39 17.9001C209.615 17.9034 209.951 17.9083 210.399 17.9149C210.848 17.8966 211.16 17.8887 211.334 17.8913L211.719 14.6077C211.993 14.5868 212.355 14.5797 212.803 14.5862C213.451 14.5958 213.949 14.6155 214.297 14.6456C214.257 15.7165 214.221 17.3107 214.19 19.4283L214.121 24.0995C213.498 24.1153 212.651 24.078 211.581 23.9875L211.301 20.1335C210.828 20.1016 210.156 20.0793 209.284 20.0664L207.378 20.0385C207.306 24.9214 207.285 28.0982 207.313 29.5688L214.488 29.6742C215.235 29.6852 215.627 29.3296 215.662 28.6075L215.981 24.6875C216.43 24.6692 217.016 24.6654 217.738 24.676C218.063 24.6558 218.611 24.6514 219.383 24.6628L219.271 32.2862Z" fill="#283859"/>
<path d="M160.736 31.202C160.088 31.1924 159.723 31.4736 159.64 32.0455L158.984 35.9979C158.784 36.0199 158.335 36.0258 157.638 36.0155C156.915 36.0049 156.442 35.9855 156.218 35.9573C156.222 35.7082 156.25 34.6246 156.303 32.7067C156.356 30.7888 156.386 29.618 156.392 29.1945L157.776 29.1401C159.846 29.0459 161.381 27.1248 162.383 23.3768C163.41 19.6292 163.87 14.6523 163.761 8.44598L159.578 8.27239C159.537 7.64883 159.547 6.98863 159.607 6.2918C159.856 6.29546 160.728 6.32072 162.222 6.36759C163.717 6.38955 164.676 6.40364 165.1 6.40986L175.787 6.56685L181.431 6.61237C181.47 7.31067 181.461 7.97087 181.402 8.59296L178.112 8.6194C178.008 10.5864 177.921 13.9616 177.851 18.7449C177.768 24.3753 177.741 27.9133 177.77 29.359L182.065 29.5716C182.059 29.9951 182.042 31.1661 182.014 33.0844C182.01 35.003 182.007 36.0869 182.003 36.3361C181.779 36.3577 181.305 36.3632 180.583 36.3526C179.91 36.3427 179.474 36.3238 179.275 36.296L178.736 32.326C178.669 31.7519 178.312 31.4601 177.664 31.4506L160.736 31.202ZM172.164 29.314C172.299 26.9238 172.401 23.362 172.47 18.6285C172.54 13.9199 172.563 10.6061 172.542 8.68708C171.347 8.61969 170.263 8.57886 169.292 8.56459C168.245 8.54922 167.223 8.55913 166.226 8.59432C166.267 19.3846 164.895 26.2544 162.111 29.2037C163.232 29.2451 165 29.2836 167.417 29.3191C168.239 29.3311 169.821 29.3295 172.164 29.314Z" fill="#283859"/>
<path d="M128.703 5.86301L138.045 6.00024L141.897 5.86994C141.896 5.89485 141.883 6.77926 141.858 8.52318C141.857 10.2675 141.847 11.8372 141.826 13.2323C141.202 13.2979 140.654 13.3272 140.18 13.3203C139.707 13.3133 139.172 13.2681 138.575 13.1846L138.408 9.29481C138.368 8.62143 137.937 8.2787 137.115 8.26662L131.398 8.14526C131.324 9.76388 131.251 13.0645 131.177 18.0471C131.086 24.2754 131.047 27.7883 131.06 28.5859L136.027 28.8458C136.068 29.4943 136.058 30.1545 135.998 30.8264C131.714 30.7385 129.11 30.6878 128.189 30.6743C127.989 30.6714 127.092 30.6706 125.497 30.6721C123.903 30.6487 122.807 30.6326 122.209 30.6238C122.169 29.9753 122.178 29.3151 122.238 28.6432L125.528 28.5794C125.604 26.8113 125.681 23.274 125.759 17.9675C125.833 12.8853 125.858 9.53408 125.832 7.91399L122.619 7.79205C122.6 7.36816 122.61 6.68305 122.649 5.73672C123.496 5.74916 124.679 5.779 126.199 5.82623C127.743 5.84892 128.578 5.86118 128.703 5.86301Z" fill="#283859"/>
<path d="M95.1511 5.33228C97.8168 5.37144 99.8897 5.90026 101.37 6.91874C102.875 7.93759 103.613 9.456 103.583 11.474C103.564 12.7694 103.074 13.896 102.113 14.8537C101.152 15.7865 100.096 16.4314 98.9448 16.7882C99.889 16.9765 100.794 17.3013 101.659 17.7625C102.524 18.2238 103.299 18.9329 103.983 19.8898C104.692 20.8222 105.037 21.8988 105.019 23.1195C104.984 25.4863 104.073 27.2919 102.286 28.5365C100.523 29.7815 97.9603 30.3793 94.597 30.3299C94.3229 30.3258 93.5884 30.2901 92.3933 30.2227C91.2231 30.1557 90.1771 30.1154 89.2553 30.1019C89.1058 30.0997 88.2462 30.0995 86.6763 30.1014C85.1316 30.0787 84.0106 30.0622 83.313 30.052C83.2983 29.354 83.308 28.6938 83.3421 28.0714L86.5949 28.007C86.6956 26.2393 86.785 22.7022 86.8629 17.3957L86.937 12.3508C86.9769 9.63524 86.9893 7.94097 86.9743 7.26795C85.5542 7.24709 84.4709 7.20626 83.7242 7.14545C83.7264 6.99597 83.7165 6.8214 83.6945 6.62173C83.6978 6.39751 83.7 6.24803 83.7011 6.17329C83.7022 6.09855 83.7044 5.94907 83.7077 5.72486C83.7359 5.501 83.7513 5.30188 83.7539 5.12749C84.6757 5.14103 85.8838 5.17124 87.3782 5.21811C88.873 5.24006 89.6826 5.25196 89.8072 5.25379L95.1511 5.33228ZM94.1447 28.0432C95.8886 28.0688 97.1778 27.6641 98.0124 26.8291C98.8473 25.9693 99.2747 24.8667 99.2945 23.5214C99.3442 20.1332 97.5629 18.4125 93.9505 18.3595L93.1657 18.348C92.6924 18.341 92.3933 18.3491 92.2683 18.3722C92.1959 23.3049 92.1615 26.494 92.1652 27.9393C92.6129 27.9957 93.2727 28.0304 94.1447 28.0432ZM93.8102 7.55525L92.5023 7.53604C92.4308 9.00518 92.3633 11.9072 92.2996 16.2421C92.4238 16.2688 92.7101 16.2855 93.1586 16.2921L93.8312 16.302C95.0021 16.3192 95.9791 15.9722 96.762 15.261C97.5453 14.525 97.947 13.4719 97.9671 12.1016C98.011 9.11207 96.6254 7.59661 93.8102 7.55525Z" fill="#283859"/>
<path d="M51.0199 4.72162L60.5118 4.86105L64.4009 4.73129C64.4006 4.75621 64.3878 5.62817 64.3625 7.34717C64.3626 9.04163 64.3525 10.574 64.3324 11.9442C63.7084 12.0098 63.1224 12.0385 62.5744 12.0305C62.0512 12.0228 61.4912 11.9772 60.8944 11.8937L60.6882 8.11551C60.6479 7.46704 60.2416 7.13713 59.4693 7.12578L53.7149 7.00388C53.6417 8.59758 53.5758 11.3875 53.5172 15.3736C54.6907 15.2164 55.9252 15.1473 57.2207 15.1663L58.1923 15.1806C60.833 15.2194 62.8301 15.8219 64.1835 16.988C65.5622 18.1296 66.2352 19.809 66.2027 22.0263C66.1672 24.4428 65.2421 26.348 63.4275 27.7417C61.6378 29.1357 59.0863 29.8084 55.7728 29.7598C55.4988 29.7557 54.7517 29.7199 53.5317 29.6521C52.3366 29.5847 51.3156 29.5448 50.4685 29.5323C50.319 29.5302 49.4594 29.53 47.8895 29.5318C46.3449 29.5092 45.2238 29.4927 44.5262 29.4824C44.5075 29.0585 44.5172 28.3984 44.5553 27.5018L47.8081 27.4375C47.9088 25.6698 47.9982 22.1326 48.0761 16.8261C48.1475 11.9681 48.1718 8.61691 48.149 6.77261L44.9363 6.65066C44.9176 6.22677 44.9277 5.54166 44.9665 4.59533C46.5855 4.64403 48.6033 4.68613 51.0199 4.72162ZM55.4694 27.5127C57.1635 27.5375 58.4537 27.0706 59.3399 26.1118C60.2265 25.1281 60.6813 23.8514 60.7044 22.2819C60.7252 20.8619 60.3433 19.7225 59.5585 18.8637C58.7737 18.0049 57.5468 17.5633 55.8776 17.5388L55.1302 17.5278C54.3828 17.5168 53.8343 17.5337 53.4848 17.5784C53.4102 22.6607 53.3747 25.9245 53.3784 27.3698C53.6275 27.3735 53.9761 27.391 54.4242 27.4225C54.8972 27.4544 55.2456 27.4844 55.4694 27.5127Z" fill="#283859"/>
<path d="M11.26 20.8076L9.30865 26.4229L13.3737 27.0433C13.4144 27.6669 13.4047 28.3271 13.3446 29.0239C10.7042 28.9602 8.92309 28.9216 8.0013 28.9081C7.85182 28.9059 7.35338 28.911 6.50596 28.9235C5.65892 28.911 4.83679 28.8989 4.03957 28.8872C4.00035 28.164 4.01023 27.4914 4.06921 26.8693L6.50428 26.4939L14.945 4.04172L18.5325 4.09442L26.1558 27.119L28.2474 27.2244C28.2632 27.8476 28.2533 28.5203 28.2177 29.2424C26.0507 29.1856 24.5062 29.1505 23.5845 29.137C23.435 29.1348 22.65 29.1357 21.2296 29.1397C19.8345 29.1192 18.7009 29.1026 17.829 29.0898C17.8143 28.3919 17.824 27.7317 17.8581 27.1092L20.5882 26.9998L18.7713 20.9179L14.997 20.8625L11.26 20.8076ZM15.276 9.50373L11.8469 19.0221C12.121 19.0261 12.5817 19.0453 13.229 19.0797C13.9017 19.0896 14.4249 19.0973 14.7986 19.1028C16.0442 19.1211 17.2155 19.1134 18.3124 19.0797L15.276 9.50373Z" fill="#283859"/>
</svg>
