<svg width="358" height="204" viewBox="0 0 358 204" fill="none" xmlns="http://www.w3.org/2000/svg">
<path d="M332.053 163.244L331.237 164.527L322.869 159.798L324.852 156.752L332.053 163.244Z" fill="#283859"/>
<path d="M282.414 192.419L282.382 190.076L302.237 189.798L302.27 192.141L282.414 192.419Z" fill="#283859"/>
<path d="M255.475 165.588L249.24 174.136L247.199 173.052L254.68 162.7L256.507 162.674L264.275 172.813L262.265 173.953L255.475 165.588Z" fill="#283859"/>
<path d="M225.045 161.208L225.555 197.584L216.501 197.711L216.472 195.686L221.595 195.614L221.142 163.289L216.019 163.361L215.991 161.335L225.045 161.208Z" fill="#283859"/>
<path d="M200.07 190.871L198.017 191.734L185.642 161.8L187.699 161.176L200.07 190.871Z" fill="#283859"/>
<path d="M158.924 198.518L158.415 162.142L167.469 162.015L167.497 164.041L162.375 164.113L162.828 196.438L167.95 196.366L167.979 198.391L158.924 198.518Z" fill="#283859"/>
<path d="M136.617 179.725L123.666 190.909L122.051 189.025L132.681 179.463L121.827 170.201L123.349 168.273L136.609 179.13L136.617 179.725Z" fill="#283859"/>
<path d="M101.861 185.177L85.937 185.4L85.9002 182.779L101.825 182.556L101.861 185.177ZM101.753 177.473L85.829 177.696L85.7917 175.036L101.716 174.813L101.753 177.473Z" fill="#283859"/>
<path d="M64.2567 191.742L50.9977 180.925L50.9894 180.329L63.9396 169.106L65.515 170.99L54.9247 180.552L65.8185 189.813L64.2567 191.742Z" fill="#283859"/>
<path d="M23.8049 200.332L23.0237 198.436C24.1047 198.103 25.2196 197.36 26.3686 196.205C27.5179 195.077 28.1231 193.863 28.1844 192.565L26.7945 192.584C26.0528 192.568 25.4661 192.272 25.0344 191.696C24.6287 191.092 24.4201 190.38 24.4086 189.559C24.396 188.659 24.6903 187.927 25.2914 187.363C25.8925 186.798 26.6696 186.509 27.6227 186.496C28.6552 186.481 29.521 186.853 30.2201 187.611C30.9453 188.343 31.3189 189.489 31.3407 191.051C31.3726 193.328 30.5667 195.338 28.9229 197.083C27.2791 198.827 25.5731 199.91 23.8049 200.332ZM24.4577 176.054C24.4433 175.022 24.7763 174.223 25.4568 173.657C26.1635 173.065 26.9934 172.762 27.9464 172.748C28.8731 172.735 29.6052 173.016 30.1428 173.591C30.707 174.166 30.995 174.877 31.0068 175.724C31.0213 176.757 30.675 177.556 29.968 178.122C29.2874 178.687 28.4442 178.977 27.4381 178.991C26.5909 179.003 25.8857 178.748 25.3223 178.227C24.7585 177.678 24.4703 176.954 24.4577 176.054Z" fill="#283859"/>
<path d="M348.606 132.964C348.591 131.932 348.924 131.133 349.605 130.567C350.312 129.975 351.141 129.672 352.094 129.659C353.021 129.646 353.753 129.927 354.291 130.502C354.855 131.076 355.143 131.787 355.155 132.634C355.169 133.667 354.823 134.466 354.116 135.032C353.435 135.598 352.592 135.888 351.586 135.902C350.739 135.914 350.034 135.659 349.47 135.137C348.907 134.589 348.618 133.865 348.606 132.964ZM348.415 119.383C348.401 118.351 348.734 117.552 349.415 116.986C350.121 116.393 350.951 116.091 351.904 116.077C352.831 116.064 353.563 116.345 354.101 116.92C354.665 117.495 354.953 118.206 354.965 119.053C354.979 120.085 354.633 120.885 353.926 121.451C353.245 122.016 352.402 122.306 351.396 122.32C350.549 122.332 349.843 122.077 349.28 121.556C348.716 121.007 348.428 120.283 348.415 119.383Z" fill="#283859"/>
<path d="M314.739 122.595C314.766 124.554 315.2 126.19 316.039 127.502C316.878 128.788 318.012 129.421 319.442 129.401C320.13 129.391 320.791 129.302 321.424 129.135C322.057 128.94 322.518 128.762 322.807 128.599C323.122 128.436 323.28 128.341 323.279 128.314C323.263 127.176 323.154 125.986 322.951 124.744C322.775 123.502 322.493 122.248 322.104 120.983C321.742 119.69 321.184 118.639 320.431 117.828C319.705 116.991 318.865 116.579 317.912 116.593C316.826 116.608 316.014 117.189 315.474 118.335C314.96 119.481 314.715 120.901 314.739 122.595ZM309.196 123.864C309.162 121.429 309.953 119.299 311.569 117.476C313.185 115.653 315.529 114.72 318.6 114.677C320.374 114.652 321.941 115.014 323.302 115.763C324.663 116.485 325.723 117.489 326.482 118.776C327.268 120.063 327.857 121.484 328.25 123.041C328.642 124.572 328.85 126.224 328.875 127.997C328.897 129.533 328.706 131.032 328.303 132.494C327.899 133.929 327.23 135.329 326.296 136.692C325.362 138.056 324.214 139.25 322.851 140.276C321.489 141.301 319.779 142.119 317.722 142.731C315.692 143.368 313.433 143.704 310.944 143.739C310.856 143.105 310.847 142.483 310.918 141.873C314.492 141.823 317.442 140.736 319.769 138.611C322.123 136.486 323.327 133.583 323.381 129.902C322.832 130.412 321.952 130.915 320.741 131.408C319.529 131.875 318.301 132.118 317.057 132.135C314.569 132.17 312.638 131.403 311.266 129.833C309.919 128.237 309.229 126.247 309.196 123.864Z" fill="#283859"/>
<path d="M278.97 137.077C276.455 137.113 274.262 136.548 272.392 135.382C270.549 134.216 269.613 132.628 269.585 130.616C269.573 129.768 269.748 128.998 270.109 128.304C270.469 127.584 271.043 126.941 271.829 126.374C272.616 125.807 273.219 125.401 273.639 125.157C274.086 124.912 274.783 124.572 275.73 124.135C272.335 121.799 270.621 119.506 270.589 117.256C270.562 115.297 271.333 113.631 272.903 112.258C274.472 110.859 276.474 110.143 278.91 110.109C281.345 110.075 283.312 110.603 284.81 111.694C286.308 112.759 287.07 114.191 287.095 115.992C287.129 118.427 285.196 120.335 281.297 121.713C282.713 122.62 283.688 123.268 284.223 123.658C284.758 124.021 285.454 124.581 286.312 125.337C287.196 126.066 287.802 126.759 288.129 127.416C288.456 128.074 288.625 128.8 288.636 129.594C288.664 131.58 287.695 133.314 285.73 134.798C283.791 136.282 281.538 137.041 278.97 137.077ZM279.184 135.327C280.481 135.282 281.468 134.858 282.145 134.054C282.822 133.224 283.153 132.279 283.138 131.22C283.129 130.585 282.975 129.978 282.675 129.399C282.376 128.821 281.878 128.259 281.182 127.712C280.512 127.139 279.91 126.684 279.376 126.348C278.867 125.984 278.106 125.491 277.091 124.87C274.912 126.251 273.838 128.001 273.868 130.119C273.89 131.707 274.385 132.984 275.351 133.951C276.318 134.89 277.595 135.349 279.184 135.327ZM280.215 121.053C281.131 120.272 281.821 119.481 282.287 118.681C282.752 117.853 282.976 116.844 282.959 115.652C282.943 114.514 282.56 113.606 281.809 112.928C281.084 112.223 280.153 111.879 279.014 111.895C278.008 111.909 277.206 112.291 276.607 113.041C276.009 113.764 275.716 114.602 275.729 115.555C275.743 116.561 276.114 117.483 276.84 118.32C277.567 119.157 278.692 120.068 280.215 121.053Z" fill="#283859"/>
<path d="M230.926 116.342L249.512 116.081C246.429 124.783 242.365 134.28 237.32 144.572C236.551 144.503 235.659 144.172 234.645 143.577C238.935 136.076 242.611 128.187 245.673 119.908L229.793 120.488C230.058 118.631 230.436 117.249 230.926 116.342Z" fill="#283859"/>
<path d="M205.999 129.878C205.975 128.104 205.571 126.706 204.789 125.684C204.006 124.636 202.98 124.121 201.709 124.139C201.1 124.147 200.492 124.262 199.886 124.482C199.307 124.675 198.873 124.88 198.584 125.096C198.296 125.285 198.152 125.393 198.152 125.42C198.2 126.928 198.284 128.251 198.406 129.388C198.554 130.498 198.795 131.62 199.129 132.754C199.462 133.862 199.964 134.715 200.634 135.315C201.304 135.915 202.129 136.208 203.109 136.194C205.095 136.166 206.058 134.061 205.999 129.878ZM211.553 129.363C211.585 131.64 210.818 133.636 209.254 135.353C207.715 137.043 205.476 137.908 202.538 137.949C200.287 137.981 198.386 137.425 196.835 136.282C195.282 135.112 194.163 133.645 193.476 131.88C192.816 130.089 192.47 128.081 192.438 125.857C192.419 124.454 192.611 123.075 193.016 121.718C193.42 120.336 194.077 119.029 194.987 117.798C195.896 116.541 197.006 115.44 198.317 114.495C199.653 113.523 201.298 112.745 203.249 112.162C205.2 111.578 207.341 111.27 209.671 111.237C209.783 111.739 209.792 112.321 209.695 112.985C206.492 113.03 203.765 114.061 201.516 116.078C199.267 118.096 198.099 120.694 198.011 123.873C199.844 122.391 201.78 121.635 203.818 121.607C205.989 121.576 207.813 122.266 209.289 123.675C210.765 125.084 211.52 126.98 211.553 129.363Z" fill="#283859"/>
<path d="M157.492 120.787L157.139 126.79C166.982 128.161 171.942 131.587 172.019 137.067C172.034 138.126 171.849 139.135 171.465 140.094C171.082 141.079 170.486 142.001 169.677 142.859C168.895 143.718 167.779 144.409 166.33 144.932C164.881 145.482 163.191 145.77 161.258 145.797C159.511 145.822 157.797 145.435 156.118 144.638C154.439 143.841 153.41 143.193 153.032 142.695L154.272 140.454C154.943 141.106 155.905 141.702 157.157 142.24C158.409 142.779 159.684 143.039 160.981 143.021C162.596 142.998 163.913 142.556 164.934 141.694C165.955 140.833 166.454 139.595 166.431 137.98C166.419 137.079 166.169 136.275 165.682 135.567C165.222 134.832 164.644 134.245 163.95 133.804C163.281 133.337 162.375 132.913 161.231 132.531C160.113 132.123 159.089 131.82 158.16 131.621C157.256 131.396 156.128 131.16 154.774 130.914L155.616 117.318L171.331 116.343C171.42 116.977 171.338 117.747 171.086 118.65C170.833 119.554 170.538 120.181 170.198 120.53L157.492 120.787Z" fill="#283859"/>
<path d="M128.691 132.828L135.001 132.422C135.012 133.243 134.786 134.133 134.323 135.093C133.86 136.026 133.403 136.496 132.953 136.502L128.743 136.561L128.878 146.211C127.979 146.303 127.146 146.354 126.378 146.365C125.637 146.375 124.802 146.347 123.875 146.281L123.74 136.631L112.223 136.792C111.812 135.818 111.602 134.974 111.592 134.259L123.444 118.364C124.202 117.665 125.877 117.231 128.47 117.062L128.691 132.828ZM114.758 133.42L123.688 132.978L123.529 121.58L114.758 133.42Z" fill="#283859"/>
<path d="M75.5936 123.325L74.6244 122.186C76.7571 119.429 79.3457 118.029 82.3903 117.986C84.8524 117.952 86.7934 118.52 88.2132 119.692C89.6327 120.837 90.3547 122.284 90.3792 124.031C90.3999 125.513 89.8621 126.819 88.7658 127.946C87.6955 129.047 86.2241 129.862 84.3515 130.391C86.664 131.021 88.5183 132.014 89.9142 133.372C91.3098 134.702 92.0212 136.334 92.0482 138.267C92.0794 140.491 91.2069 142.476 89.4308 144.222C87.6814 145.994 85.0198 146.905 81.4457 146.955C79.7513 146.979 78.1045 146.618 76.5053 145.872C74.9061 145.127 73.9044 144.505 73.5002 144.008L74.9814 142.001C75.6257 142.628 76.5074 143.185 77.6263 143.672C78.7718 144.159 79.9005 144.395 81.0124 144.379C82.6274 144.357 83.9317 143.902 84.9255 143.014C85.9462 142.152 86.4446 140.874 86.4209 139.18C86.3975 137.512 85.6226 136.066 84.0961 134.843C82.5957 133.593 80.4398 132.803 77.6283 132.471L77.686 130.921C79.8823 130.811 81.6339 130.151 82.941 128.941C84.2476 127.705 84.8917 126.425 84.8731 125.101C84.8561 123.883 84.4719 122.922 83.7206 122.218C82.9689 121.487 81.9709 121.13 80.7266 121.147C79.0058 121.172 77.2948 121.897 75.5936 123.325Z" fill="#283859"/>
<path d="M43.7701 121.466C42.0757 121.49 40.4173 122.188 38.7948 123.562L37.7456 122.385C40.2254 119.834 42.7494 118.541 45.3174 118.505C47.7266 118.472 49.5212 118.989 50.7013 120.058C51.9075 121.101 52.5217 122.416 52.5439 124.004C52.5603 125.169 52.1935 126.393 51.4435 127.674C50.6935 128.956 49.704 130.148 48.4749 131.251C47.2723 132.353 46.0548 133.337 44.8224 134.201C43.6164 135.066 42.422 135.811 41.2392 136.436C42.4302 136.393 45.023 136.238 49.0177 135.97C53.0385 135.675 55.168 135.526 55.4063 135.523C55.4178 136.343 55.1921 137.247 54.7293 138.233C54.2665 139.219 53.8233 139.715 53.3997 139.721L36.8796 139.953L36.8484 137.729C38.0272 136.812 39.1526 135.87 40.2247 134.901C41.3229 133.906 42.4066 132.819 43.4757 131.639C44.5445 130.432 45.4014 129.228 46.0466 128.028C46.6918 126.827 47.0075 125.737 46.9938 124.757C46.9804 123.804 46.6781 123.014 46.0867 122.387C45.5219 121.759 44.7496 121.452 43.7701 121.466Z" fill="#283859"/>
<path d="M3.2727 121.637L13.1634 118.837C13.136 120.665 13.1596 124.239 13.2342 129.561C13.2894 133.505 13.3429 136.378 13.3946 138.178L17.6057 138.238C17.6407 138.846 17.65 139.508 17.6336 140.223C13.9797 140.248 11.663 140.267 10.6834 140.281L8.57928 140.35C7.14965 140.37 5.65385 140.391 4.09185 140.413C4.05536 139.699 4.04609 139.037 4.06403 138.427L7.83497 138.255C7.91713 136.56 7.93002 133.7 7.87364 129.676C7.8677 129.252 7.85787 128.55 7.84415 127.571C7.83005 126.565 7.81744 125.665 7.80631 124.87C7.79481 124.05 7.78479 123.335 7.77626 122.726L3.30108 123.663C3.26347 122.869 3.25401 122.194 3.2727 121.637Z" fill="#283859"/>
<path d="M331.453 62.3652C334.763 62.3188 337.384 63.2486 339.317 65.1545C341.277 67.0601 342.279 69.6146 342.324 72.818C342.373 76.3126 341.392 79.0405 339.38 81.0017C337.369 82.9629 334.828 83.965 331.757 84.0081C328.447 84.0544 325.8 83.1648 323.815 81.339C321.83 79.4867 320.812 76.7736 320.762 73.1995C320.718 70.0756 321.728 67.5061 323.792 65.4912C325.855 63.4499 328.409 62.4078 331.453 62.3652ZM331.728 81.9828C335.223 81.9338 336.928 78.9045 336.844 72.8948C336.807 70.2473 336.314 68.1756 335.367 66.6795C334.419 65.1834 333.124 64.4469 331.483 64.4699C329.788 64.4936 328.476 65.28 327.544 66.8288C326.638 68.3509 326.204 70.4224 326.241 73.0433C326.279 75.7702 326.733 77.9484 327.603 79.578C328.5 81.2071 329.875 82.0088 331.728 81.9828Z" fill="#283859"/>
<path d="M294.673 81.5879C294.659 80.5554 294.992 79.7563 295.672 79.1907C296.379 78.5983 297.209 78.2954 298.162 78.282C299.089 78.269 299.821 78.5501 300.358 79.1251C300.923 79.6997 301.211 80.4106 301.222 81.2578C301.237 82.2903 300.891 83.0896 300.184 83.6556C299.503 84.2212 298.66 84.511 297.654 84.5251C296.807 84.537 296.101 84.2821 295.538 83.7604C294.974 83.2122 294.686 82.488 294.673 81.5879Z" fill="#283859"/>
<path d="M274.815 73.8824L264.768 74.0231C264.754 73.0171 264.911 71.9557 265.24 70.839L275.247 70.6987C275.263 71.8371 275.119 72.8984 274.815 73.8824Z" fill="#283859"/>
<path d="M237.894 93.0685L237.112 91.1729C238.193 90.84 239.308 90.0962 240.457 88.9414C241.607 87.8132 242.212 86.5999 242.273 85.3015L240.883 85.321C240.142 85.3049 239.555 85.0086 239.123 84.4321C238.717 83.8288 238.509 83.1167 238.497 82.296C238.485 81.3959 238.779 80.6636 239.38 80.0991C239.981 79.5346 240.758 79.2457 241.711 79.2323C242.744 79.2178 243.61 79.5897 244.309 80.3478C245.034 81.079 245.408 82.2257 245.429 83.7877C245.461 86.0645 244.655 88.075 243.012 89.8192C241.368 91.5634 239.662 92.6465 237.894 93.0685Z" fill="#283859"/>
<path d="M209.033 82.9075L208.928 75.4814L201.463 75.586L201.43 73.243L208.896 73.1384L208.797 66.0697L211.497 66.0319L211.596 73.1006L218.863 72.9987L218.896 75.3417L211.629 75.4436L211.733 82.8696L209.033 82.9075Z" fill="#283859"/>
<path d="M172.629 72.6533L173.706 67.3555L169.509 71.1082L167.843 68.4703L173.052 66.0142L167.781 64.0226L169.371 61.2994L173.83 64.8514L173.241 59.6961L176.537 59.6499L175.536 64.7083L179.736 61.1542L181.44 63.7121L175.993 66.1318L181.505 68.3583L179.874 70.963L175.254 67.294L175.925 72.6071L172.629 72.6533Z" fill="#283859"/>
<path d="M136.971 58.4171C140.08 61.0215 142.503 63.9003 144.242 67.0535C146.007 70.2063 146.913 73.4639 146.961 76.8261C147.007 80.109 146.204 83.2713 144.551 86.3131C142.899 89.3285 140.528 92.0759 137.438 94.5553L136.514 93.8136C138.546 91.4549 140.124 88.7716 141.247 85.7636C142.396 82.7553 142.95 79.7421 142.908 76.724C142.864 73.5736 142.238 70.471 141.03 67.4163C139.848 64.3612 138.182 61.6571 136.031 59.3041L136.971 58.4171Z" fill="#283859"/>
<path d="M117.482 58.6898L118.447 59.5502C116.363 61.9625 114.76 64.7124 113.638 67.7998C112.542 70.8868 112.017 74.0055 112.061 77.156C112.103 80.174 112.728 83.1707 113.935 86.146C115.168 89.121 116.833 91.7588 118.931 94.0597L118.028 94.827C114.87 92.4351 112.423 89.7552 110.686 86.7873C108.95 83.793 108.059 80.6544 108.013 77.3716C107.965 74.0093 108.767 70.7278 110.417 67.5271C112.093 64.3261 114.448 61.3803 117.482 58.6898Z" fill="#283859"/>
<path d="M81.9937 87.8644C80.9612 87.8789 79.7917 87.5643 78.4852 86.9206C77.1786 86.2769 75.9622 85.4466 74.8358 84.4297C73.4765 85.6933 72.3107 86.5835 71.3382 87.1002C70.3921 87.6166 69.1646 87.8853 67.6555 87.9065C65.5111 87.9365 63.7952 87.3648 62.5077 86.1912C61.2202 85.0177 60.5637 83.5175 60.5381 81.6908C60.5155 80.0758 61.0637 78.5721 62.1828 77.1794C63.3016 75.7603 64.968 74.691 67.1823 73.9715C66.6331 72.5758 66.3485 71.1631 66.3285 69.7335C66.2936 67.2449 67.0448 65.1028 68.5819 63.3071C70.119 61.5114 72.1584 60.5958 74.6999 60.5602C76.1296 60.5401 77.3537 60.9731 78.3723 61.8592C79.4171 62.7184 79.9487 63.8098 79.9673 65.1335C79.9832 66.272 79.5226 67.417 78.5855 68.5688C77.648 69.6941 76.6283 70.6219 75.5264 71.3523C74.4245 72.0827 73.2159 72.7616 71.9007 73.3891C73.1553 75.993 74.7229 78.2615 76.6035 80.1947C77.4098 79.1507 78.3029 77.695 79.283 75.8277C80.2627 73.9339 80.8768 72.4027 81.1252 71.2341C81.5484 71.2017 82.1571 71.18 82.9514 71.1688C84.1692 71.1518 85.1894 71.2037 86.0119 71.3245C85.7072 72.2556 84.6564 73.7929 82.8593 75.9365C81.0883 78.0532 79.4056 79.8509 77.811 81.3296C80.0623 83.2576 82.0482 84.1962 83.7687 84.1457C85.2778 84.1245 86.8692 83.374 88.5432 81.8942C88.9452 82.2328 89.2546 82.5859 89.4716 82.9536C87.2926 86.1882 84.8 87.8251 81.9937 87.8644ZM69.4803 84.9019C70.804 84.8834 72.1337 84.3484 73.4694 83.297C71.0526 80.8947 69.1755 78.273 67.8382 75.432C66.0263 76.5165 65.1352 78.1178 65.1649 80.2358C65.1827 81.5066 65.6086 82.6127 66.4427 83.5543C67.3029 84.469 68.3154 84.9183 69.4803 84.9019ZM71.3247 71.9672C72.3494 71.3968 73.2647 70.5764 74.0706 69.5059C74.9026 68.4086 75.31 67.251 75.293 66.0331C75.2807 65.1595 75.1378 64.4068 74.8641 63.7751C74.5901 63.117 74.1751 62.7918 73.6192 62.7996C72.4808 62.8155 71.6813 63.3961 71.2207 64.5411C70.7597 65.6598 70.5391 66.9206 70.5587 68.3238C70.5739 69.4092 70.8293 70.6237 71.3247 71.9672Z" fill="#283859"/>
<path d="M18.1397 87.3691L16.7717 86.1173L38.5321 63.0133L39.9398 64.2647L18.1397 87.3691ZM21.1369 74.4977C19.4161 74.5218 17.9656 73.9993 16.7855 72.9302C15.6051 71.8346 15.002 70.3734 14.9765 68.5467C14.9497 66.6405 15.5366 65.0567 16.737 63.7954C17.937 62.5075 19.4504 61.8508 21.2771 61.8252C23.0509 61.8004 24.5279 62.3225 25.7079 63.3916C26.9145 64.4604 27.5306 65.9081 27.5562 67.7349C27.5836 69.694 27.0104 71.3041 25.8365 72.565C24.6626 73.826 23.096 74.4703 21.1369 74.4977ZM21.236 73.0664C22.2421 73.0523 22.9112 72.6193 23.2435 71.7673C23.5758 70.9153 23.7316 69.748 23.7108 68.2654C23.6641 64.9296 22.82 63.2732 21.1786 63.2962C19.5636 63.3188 18.778 64.8922 18.8218 68.0161C18.8411 69.3928 19.0431 70.5816 19.4279 71.5824C19.8391 72.5829 20.4418 73.0776 21.236 73.0664ZM35.3521 88.3593C33.6313 88.3834 32.1808 87.8609 31.0008 86.7917C29.8471 85.7222 29.2575 84.2741 29.2319 82.4474C29.2052 80.5412 29.7921 78.9574 30.9925 77.6961C32.1925 76.4082 33.6926 75.7517 35.4929 75.7265C37.2667 75.7016 38.7436 76.2238 39.9237 77.2929C41.1303 78.3617 41.7464 79.8094 41.772 81.6361C41.7994 83.5953 41.2262 85.2053 40.0522 86.4663C38.878 87.7008 37.3113 88.3318 35.3521 88.3593ZM35.4518 86.9677C37.1726 86.9436 38.0108 85.343 37.9663 82.1661C37.9459 80.71 37.7174 79.5216 37.2808 78.6009C36.8439 77.6538 36.2151 77.186 35.3944 77.1975C33.7794 77.2201 32.9938 78.7934 33.0376 81.9174C33.0569 83.2941 33.2589 84.4828 33.6436 85.4837C34.0548 86.4841 34.6576 86.9788 35.4518 86.9677Z" fill="#283859"/>
<path d="M230.427 36.2746L228.878 36.2963L228.837 33.3973L228.361 33.404C227.672 33.4136 226.638 33.309 225.258 33.09C223.905 32.8706 222.937 32.765 222.354 32.7732L220.846 32.8341C220.844 32.7282 220.813 31.4179 220.751 28.9031C220.716 26.3881 220.698 25.1041 220.697 25.0511L223.715 25.0088L224.267 30.4029C225.518 30.862 226.964 31.0801 228.606 31.0571L228.804 31.0543L228.677 21.9603L227.916 21.5341C225.247 20.0356 223.362 18.7513 222.262 17.6811C221.161 16.5843 220.598 15.1756 220.574 13.4547C220.548 11.575 221.28 10.0025 222.772 8.73702C224.29 7.44473 226.185 6.67674 228.459 6.43304L228.417 3.41495L229.966 3.39325L230.008 6.37163C230.749 6.38772 231.704 6.50674 232.872 6.72868C234.041 6.95063 234.89 7.08437 235.42 7.1299C235.499 7.12879 235.817 7.1111 236.373 7.07684C236.955 7.0422 237.299 7.02414 237.404 7.02266C237.406 7.12856 237.424 8.42581 237.459 10.9144C237.52 13.3762 237.551 14.6335 237.552 14.6865L234.772 14.7254L234.263 9.60872C233.061 8.85765 231.652 8.46696 230.036 8.43664L230.154 16.8555L230.875 17.2823C232.183 18.0319 233.131 18.6012 233.719 18.9902C234.333 19.3523 235.015 19.8193 235.765 20.3914C236.54 20.9366 237.077 21.4322 237.374 21.8782C237.672 22.3242 237.931 22.8634 238.152 23.4958C238.372 24.1017 238.488 24.8018 238.499 25.5961C238.528 27.714 237.785 29.4456 236.268 30.7909C234.751 32.1096 232.789 32.9315 230.384 33.2565L230.427 36.2746ZM232.919 27.0644C232.907 26.1908 232.698 25.4655 232.293 24.8886C231.913 24.2849 231.229 23.6457 230.24 22.9711L230.349 30.7546C232.088 30.1212 232.945 28.8912 232.919 27.0644ZM226.038 12.2263C226.048 12.9411 226.229 13.5741 226.581 14.1252C226.959 14.6495 227.629 15.2359 228.592 15.8844L228.49 8.6569C226.83 9.23623 226.013 10.426 226.038 12.2263Z" fill="#283859"/>
<path d="M182.307 33.6524L183.323 26.8064L178.995 26.867L179.395 24.2797L183.684 24.2196L184.521 18.7265L180.113 18.7883L180.513 16.2009L184.802 16.1408L185.937 9.21374L189.074 9.16978L188.019 16.0958L193.062 16.0251L194.077 9.09968L197.215 9.05572L196.239 15.9806L200.925 15.9149L200.602 18.3821L195.837 18.4488L195.002 24.061L199.648 23.9959L199.365 26.4625L194.639 26.5287L193.625 33.4938L190.527 33.5372L191.503 26.6521L186.5 26.7222L185.524 33.6073L182.307 33.6524ZM186.941 24.1739L191.865 24.1049L192.741 18.5717L187.657 18.6429L186.941 24.1739Z" fill="#283859"/>
<path d="M148.955 19.0658L147.168 19.0909L145.264 7.87693L147.88 7.48281L150.545 7.80293L148.955 19.0658ZM157.096 18.9518L155.309 18.9768L153.404 7.76287L156.02 7.36874L158.686 7.68887L157.096 18.9518Z" fill="#283859"/>
<path d="M118.237 31.8885C118.223 30.8824 118.543 30.0968 119.197 29.5316C119.877 28.9395 120.68 28.637 121.607 28.624C122.534 28.611 123.279 28.8786 123.843 29.4268C124.406 29.9749 124.694 30.6726 124.706 31.5198C124.72 32.5523 124.401 33.3644 123.747 33.9561C123.12 34.5475 122.317 34.85 121.337 34.8637C120.384 34.8771 119.625 34.6097 119.062 34.0615C118.524 33.5129 118.25 32.7886 118.237 31.8885ZM122.271 24.9605L120.484 24.9855L118.143 8.17723L121.116 7.73838L124.1 8.09376L122.271 24.9605Z" fill="#283859"/>
</svg>
