<svg width="323" height="450" viewBox="0 0 323 450" fill="none" xmlns="http://www.w3.org/2000/svg">
<path fill-rule="evenodd" clip-rule="evenodd" d="M37.7466 205.368C33.5355 242.356 57.2535 254.046 69.6389 255.268C74.6089 282.64 6.76183 338.696 0.225668 342.765C45.8985 389.032 171.552 455.819 308.786 352.834L261.189 327.709C274.019 319.457 271.976 298.828 269.351 289.545C278.583 282.099 278.895 245.925 277.897 228.768L277.022 190.812L275.543 126.649C280.444 88.1981 261.765 51.9186 251.813 38.5852C208.731 1.95944 187.884 2.60672 148.183 3.83938C144.371 3.95775 140.385 4.08151 136.189 4.17819C96.4088 4.37158 57.2566 44.8773 42.653 65.1059C29.8562 74.8044 24.4917 114.049 23.409 132.459C7.56389 166.822 26.3652 195.383 37.7466 205.368Z" fill="#FFECC2"/>
<path d="M322.596 442.03L308.786 352.834C171.552 455.819 45.8985 389.032 0.225668 342.765L-21.0007 441.811L322.596 442.03Z" fill="#283859"/>
<path d="M126.469 131.776C133.477 121.97 155.532 105.97 187.692 120.419M229.388 124.883C235.246 117.514 251.917 105.918 271.737 118.482M219.51 127.823C227.135 144.827 241.553 181.928 238.221 194.302M200.265 195.176C204.126 192.676 212.784 189.101 216.532 194.801M163.963 228.564C175.638 212.019 211.082 185.885 259.465 213.704M174.508 254.542C184.116 239.854 213.615 217.293 254.75 244.555M251.927 278.979C254.545 287.961 259.096 307.567 256.354 314.141M194.931 277.58C208.037 283.909 233.592 299.475 230.967 311.109C228.301 322.922 231.791 342.946 220.262 356.645M144.294 316.723C149.355 316.607 164.277 333.744 171.106 342.327C175.895 353.971 190.3 374.797 209.603 364.948C214.132 362.638 217.598 359.81 220.262 356.645M165.484 294.534C170.771 301.646 184.342 311.918 192.191 315.619C199.504 319.068 201.084 335.307 200.108 345.275M220.262 356.645C238.567 353.182 273.663 335.442 267.602 292.181C271.913 283.04 279.908 261.155 277.406 246.746M181.526 362.883C169.279 367.686 142.594 368.482 133.825 333.24C121.965 328.691 99.1856 313.242 102.94 287.838C98.5012 278.296 88.358 259.24 83.2972 259.357L76.7225 192.598M75.0344 175.458L76.7225 192.598M82.8509 83.0504C90.1681 99.76 101.288 137.6 87.2282 155.285M60.0128 151.391C50.3038 148.601 33.9527 150.545 46.2199 180.643C50.323 190.494 62.1679 206.677 76.7225 192.598M128.719 229.376C132.695 244.957 143.552 276.594 155.169 278.497M109.742 229.813C105.072 249.512 105.369 291.218 143.919 300.456M149.188 136.677C153.644 133.862 167.096 129.031 174.492 136.094C170.351 139.505 159.254 141.87 149.188 136.677ZM236.847 134.657C239.517 132.787 250.237 127.115 259.44 134.136C254.675 136.657 247.101 140.207 236.847 134.657Z" stroke="#283859" stroke-width="7"/>
</svg>
