<svg width="299" height="448" viewBox="0 0 299 448" fill="none" xmlns="http://www.w3.org/2000/svg">
<path fill-rule="evenodd" clip-rule="evenodd" d="M83.7049 355.233C89.7746 349.162 86.2339 329.657 83.7049 320.663C64.1463 320.663 48.1572 295.086 42.6075 282.298C27.6013 265.097 22.5859 181.115 21.954 141.275L6.14696 117.033C-11.725 78.9212 13.5936 58.1508 28.4869 52.5295C17.1904 33.9794 52.4428 11.7755 71.481 2.99231C117.918 -4.17478 219.389 -2.99431 253.785 59.0642C288.18 121.123 275.001 166.57 264.112 181.537C267.821 201.099 258.773 218.918 253.785 225.383C255.977 258.267 236.573 272.109 226.597 274.92V303.799L308.984 348.86C292.475 376.263 214.142 432.534 158.84 434.726C103.537 436.918 62.8754 410.063 49.4573 396.361L42.6075 383.269C53.7776 376.454 77.6351 361.304 83.7049 355.233Z" fill="#FFECC2"/>
<path d="M158.84 434.726C103.537 436.918 62.8754 410.063 49.4573 396.361V447.523L312.577 448.373L308.984 348.86C292.475 376.263 214.142 432.534 158.84 434.726Z" fill="#283859"/>
<path d="M49.4573 396.361L42.6075 383.269L6.14696 447.501L49.4573 447.523V396.361Z" fill="#283859"/>
<path d="M88.9503 166.819C93.9954 163.24 106.944 158.229 118.38 166.819C114.316 171.17 102.74 177.262 88.9503 166.819Z" fill="#273A5F"/>
<path d="M201.163 256.76C175.764 310.645 120.208 327.436 84.7309 324.687L85.2739 317.689C118.655 320.276 170.967 304.351 194.809 253.771L201.163 256.76ZM245.758 185.965C247.27 210.149 235.637 224.327 224.089 231.465C222.033 240.618 218.946 253.447 218.235 266.289C217.478 279.951 219.489 292.598 227.286 300.686L222.228 305.555C212.319 295.277 210.438 280.056 211.222 265.902C211.829 254.924 214.086 243.969 215.994 235.428C214.028 236.155 212.163 236.679 210.475 237.014L209.106 230.131C211.872 229.581 215.486 228.332 219.245 226.182C229.255 220.455 240.128 208.474 238.747 186.402L245.758 185.965ZM59.3539 266.894C63.5419 264.722 74.2495 261.591 83.9569 266.935L80.5672 273.082C73.7486 269.328 65.7099 271.505 62.5904 273.123L59.3539 266.894ZM52.8381 252.142C59.5467 248.712 76.8004 244.091 94.0665 252.081L91.1147 258.449C76.3408 251.613 61.4141 255.641 56.0374 258.389L52.8381 252.142ZM26.8141 138.715C30.3644 138.055 35.8115 138.083 40.8193 140.417C46.0484 142.854 50.5167 147.694 51.7954 155.95L51.8629 156.385L45.7769 219.703C46.1469 220.464 47.376 222.034 50.9609 223.058C55.2596 224.286 62.6185 224.571 74.432 221.538L75.8788 221.166L84.1066 226.24L80.4174 232.213L74.719 228.699C63.0247 231.53 54.7441 231.438 49.03 229.806C43.097 228.111 39.5942 224.595 38.7792 220.836L38.6637 220.302L44.784 156.611C43.7994 150.991 40.9216 148.209 37.8497 146.777C34.4821 145.208 30.5908 145.152 28.0985 145.615L26.8141 138.715ZM228.047 178.776L220.88 197.943L214.3 195.486L221.467 176.321L228.047 178.776ZM261.929 162.485C259.966 167.13 256.301 170.57 252.8 172.947C249.283 175.336 245.632 176.858 243.225 177.551L241.28 170.807C243.018 170.306 245.986 169.089 248.852 167.143C251.735 165.185 254.217 162.693 255.459 159.756L261.929 162.485ZM117.004 41.48C98.7812 46.9829 93.5002 55.2716 92.8472 62.3786C92.1645 69.8099 96.3077 77.6406 100.865 82.8677L101.308 83.3657L101.352 83.4143L101.395 83.4651C110.965 94.8669 122.319 98.0037 132.294 98.1891C127.428 92.3379 123.273 84.6196 123.311 76.2687C123.366 64.1399 132.124 52.6587 154.411 44.5139L156.824 51.1049C135.772 58.7984 130.371 68.4492 130.335 76.3007C130.298 84.5112 135.994 92.7673 141.957 98.1463L142.534 98.658L142.961 99.0293L143.251 99.5164C156.508 121.859 180.447 129.623 190.55 130.672L189.824 137.652C186.511 137.308 181.978 136.359 176.849 134.594C178.325 147.7 182.491 156.043 186.555 161.394C188.872 164.445 191.21 166.595 193.128 168.138C194.093 168.915 194.951 169.538 195.694 170.078C196.32 170.532 197.168 171.136 197.729 171.697L192.762 176.66C192.753 176.651 192.672 176.578 192.458 176.414C192.229 176.238 191.944 176.03 191.563 175.754C190.824 175.217 189.838 174.502 188.722 173.604C186.476 171.797 183.702 169.247 180.96 165.637C175.673 158.675 170.701 148.03 169.526 131.653C158.797 126.71 146.905 118.342 138.386 105.005C126.378 105.96 110.513 104.065 97.3733 89.5363C67.3515 94.8027 48.1881 83.7111 37.7222 71.6002C37.7083 72.3117 37.6863 73.0283 37.6559 73.7489C37.3517 80.9635 36.2389 88.9005 34.7127 96.6784C31.6681 112.194 26.9006 127.456 23.2883 135.586L16.8691 132.738C20.213 125.212 24.8466 110.482 27.8201 95.3283C29.3029 87.7717 30.3535 80.2049 30.6382 73.4536C30.9259 66.6311 30.4146 60.9521 28.9976 56.995C28.9935 56.9832 28.9892 56.9709 28.9851 56.9591L35.6113 54.6305C35.6155 54.6424 35.6196 54.6546 35.6238 54.6665C39.5759 66.0941 56.2597 87.8684 92.2928 83.2127C88.3582 77.4068 85.1187 69.7219 85.8524 61.7367C86.8682 50.6817 95.2538 40.7168 114.973 34.7623L117.004 41.48ZM86.7664 163.943C92.3964 159.959 107.176 154.079 120.415 164L123.547 166.347L120.872 169.204C118.345 171.904 113.721 174.939 107.724 175.828C101.593 176.736 94.295 175.36 86.6784 169.606L82.8508 166.715L86.7664 163.943ZM111.984 167.167C106.201 164.691 100.308 165.469 95.9117 167.076C100.047 169.035 103.702 169.329 106.694 168.885C108.716 168.586 110.501 167.939 111.984 167.167ZM73.9456 141.878C86.648 136.546 118.168 131.971 144.272 155.57L139.56 160.774C116.086 139.554 87.7133 143.712 76.6665 148.349L73.9456 141.878ZM256.282 135.87C249.534 147.97 242.966 154.403 237.062 157.208C231.041 160.068 225.722 159.092 222.523 156.456L226.991 151.041C227.796 151.705 230.129 152.73 234.046 150.869C238.081 148.953 243.739 143.942 250.145 132.454L256.282 135.87ZM245.544 97.4729C240.696 110.515 231.322 116.614 221.679 118.763C212.248 120.864 202.631 119.199 196.591 117.035L198.96 110.429C204.092 112.267 212.329 113.656 220.151 111.913C227.761 110.218 235.039 105.575 238.96 95.029L245.544 97.4729ZM197.259 50.6851C173.992 66.9483 172.476 77.6606 174.272 83.2846C175.262 86.3842 177.457 88.8275 179.627 90.5638C180.692 91.4164 181.693 92.0514 182.422 92.4651C182.787 92.6718 183.071 92.8154 183.246 92.8986C183.335 92.9409 183.378 92.9592 183.378 92.9592C183.375 92.9583 183.366 92.9542 183.351 92.9483C183.337 92.943 183.308 92.932 183.269 92.9186C183.237 92.9075 183.157 92.8814 183.05 92.8535C183.038 92.8503 182.663 92.7421 182.177 92.7421V99.7603C181.684 99.7603 181.298 99.6495 181.272 99.6427C181.151 99.611 181.053 99.5791 180.998 99.5604C180.883 99.5211 180.781 99.4804 180.71 99.4513C180.56 99.3897 180.396 99.3162 180.23 99.2372C179.891 99.076 179.457 98.8526 178.956 98.5689C177.956 98.002 176.636 97.1628 175.235 96.0411C172.471 93.8284 169.146 90.3215 167.58 85.4178C164.265 75.0352 169.494 61.5271 193.233 44.9343L197.259 50.6851ZM234.299 79.7527C231.074 87.1336 222.9 91.7936 215.152 94.7023C207.187 97.6926 198.585 99.2313 193.041 99.7449L192.392 92.757C197.458 92.2877 205.424 90.8568 212.682 88.1325C220.156 85.3265 225.86 81.5265 227.862 76.9444L234.299 79.7527ZM86.392 41.6142C72.032 42.9923 66.1378 47.6541 63.8811 51.8182C61.5579 56.1052 62.3911 61.1224 64.1132 64.5638L57.8311 67.7022C55.478 62.9999 53.9292 55.4434 57.7048 48.4765C61.547 41.3868 70.2324 36.1144 85.7203 34.6281L86.392 41.6142Z" fill="#273A5F"/>
</svg>
