<svg width="151" height="273" viewBox="0 0 151 273" fill="none" xmlns="http://www.w3.org/2000/svg">
<path d="M61.699 169.433V74.9366L60.4506 72.9379C58.3764 75.1519 54.1874 75.1929 52.3522 74.9366L28.9533 59.4383C18.2494 59.8811 13.6955 55.4407 12.7566 53.1652C10.2983 51.2464 10.9641 49.5161 11.6043 48.8909H23.8319C21.2711 47.1996 17.1867 43.8539 21.3351 44.0015C25.4835 44.1491 32.3037 49.8441 35.1952 52.6732L54.3688 59.7151L68.1328 42.3102C70.3201 39.2352 76.0071 33.1957 81.2567 33.6386C86.5062 34.0814 90.3793 33.0645 91.6597 32.5008V29.4565L90.7634 28.9952C84.8225 24.3211 86.5596 11.0779 88.1707 5.04048C88.4588 1.44266 100.782 -3.75419 107.728 4.11796C113.285 10.4157 109.276 19.3908 106.576 23.0911L107.152 31.5475C111.452 32.921 120.993 36.9227 124.757 41.9412C129.463 48.2143 131.863 67.6795 134.296 74.9366C136.242 80.7424 134.382 97.3436 133.208 104.918C133.347 108.117 133.099 115.786 130.999 120.878C128.899 125.97 125.216 126.772 123.637 126.536C123.36 126.013 122.971 124.894 123.637 124.599C124.303 124.304 125.216 122.549 125.59 121.708V115.589H124.885C124.693 118.92 123.944 124.642 122.485 120.878C121.025 117.114 122.645 111.745 123.637 109.531C124.757 108.896 126.716 107.003 125.59 104.519C124.463 102.034 123.05 86.4681 122.485 78.9957C121.068 75.8367 118.509 70.0862 118.001 68.7805C117.991 68.6699 117.971 68.5883 117.939 68.5405C117.886 68.4601 117.912 68.5525 118.001 68.7805C118.103 69.9225 117.117 74.1617 116.563 76.3204L118.868 85.4841C122.478 87.6243 120.927 92.608 119.7 94.8323C121.467 98.9406 120.436 107.676 119.7 111.53C121.006 118.197 118.686 135.628 117.363 143.511C120.974 153.498 118.1 168.993 116.211 175.491C116.52 175.86 116.742 178 115.155 183.609C114.652 185.384 113.505 186.575 112.05 187.349C108.905 189.021 104.322 188.745 101.711 188.191C97.7462 187.304 91.8819 185.94 86.5382 184.594C82.2386 183.512 78.276 182.442 75.9111 181.641C74.8 181.265 74.0415 180.949 73.7666 180.719C72.1789 179.39 71.3765 176.68 71.1738 175.491C68.9204 175.762 63.9183 171.565 61.699 169.433Z" fill="#FFECC2"/>
<path d="M86.5382 184.594C86.5916 187.69 86.8071 194.169 87.2424 195.325C87.7866 196.771 87.7546 200.737 87.1464 201.568C87.0981 201.634 86.8873 201.692 86.5382 201.742C83.3678 202.204 68.7992 202.075 61.1868 201.937C62.7659 199.661 67.9216 194.575 75.9111 192.435C75.9111 191.758 77.4796 184.563 75.9111 181.641C78.276 182.442 82.2386 183.512 86.5382 184.594Z" fill="#FFECC2"/>
<path d="M101.711 197.724C103.247 194.698 102.351 190.108 101.711 188.191C104.322 188.745 108.905 189.021 112.05 187.349C111.409 189.833 110.731 195.135 113.138 196.463C115.545 197.792 116.787 200.666 117.107 201.937H101.711C101.071 201.793 100.174 200.75 101.711 197.724Z" fill="#FFECC2"/>
<path d="M113.094 186.49C112.889 186.011 112.336 185.79 111.861 185.997C110.211 186.713 105.887 187.931 101.985 187.079C101.478 186.968 100.979 187.291 100.869 187.801C100.759 188.311 101.08 188.814 101.586 188.925C106.016 189.893 110.761 188.532 112.604 187.731C113.08 187.525 113.299 186.969 113.094 186.49ZM74.9858 177.709C74.4678 177.709 74.0476 178.132 74.0475 178.654C74.0475 179.176 74.4677 179.599 74.9858 179.599C75.702 179.599 76.6767 179.786 77.8304 180.131C78.9703 180.472 80.2277 180.949 81.49 181.485C84.0149 182.558 86.5063 183.847 88.0216 184.705C88.4733 184.96 89.045 184.799 89.2989 184.344C89.5527 183.889 89.3921 183.313 88.9403 183.058C87.3756 182.172 84.8212 180.849 82.2199 179.744C80.919 179.191 79.5925 178.687 78.3643 178.32C77.15 177.957 75.9714 177.709 74.9858 177.709ZM82.2181 161.065C81.9982 160.592 81.4393 160.389 80.9701 160.61C80.501 160.832 80.2989 161.394 80.5187 161.867C86.1582 173.986 93.0172 179.582 99.4412 181.519C105.841 183.448 111.632 181.689 115.033 179.444C115.466 179.158 115.587 178.572 115.303 178.136C115.019 177.7 114.437 177.578 114.004 177.864C110.991 179.853 105.769 181.454 99.9793 179.709C94.2134 177.97 87.7047 172.856 82.2181 161.065ZM85.5593 134.809C85.4591 134.297 84.9658 133.964 84.4574 134.064C83.9491 134.165 83.6181 134.662 83.7183 135.174C88.7523 160.891 103.563 173.522 110.548 176.658C111.021 176.87 111.576 176.656 111.787 176.179C111.998 175.703 111.785 175.144 111.312 174.932C104.919 172.062 90.483 159.962 85.5593 134.809ZM72.1442 105.605C71.6268 105.579 71.186 105.98 71.1595 106.501C70.7038 115.476 70.214 129.611 70.2262 142.855C70.2323 149.477 70.3641 155.886 70.6892 161.321C71.0128 166.73 71.5317 171.254 72.3384 174.059C72.4826 174.56 73.0031 174.848 73.5008 174.703C73.9983 174.558 74.285 174.034 74.141 173.533C73.3982 170.951 72.8855 166.615 72.562 161.207C72.24 155.825 72.1087 149.456 72.1026 142.854C72.0905 129.65 72.579 115.549 73.0336 106.597C73.06 106.076 72.6617 105.632 72.1442 105.605ZM117.61 141.175C117.14 140.956 116.583 141.164 116.366 141.637C116.089 142.24 115.517 143.207 114.733 144.067C113.939 144.936 113.02 145.598 112.06 145.778C111.551 145.873 111.215 146.367 111.31 146.88C111.405 147.393 111.895 147.731 112.404 147.635C113.934 147.348 115.195 146.354 116.115 145.345C117.045 144.325 117.721 143.188 118.069 142.428C118.286 141.955 118.081 141.393 117.61 141.175ZM76.8494 90.8969C76.3904 90.7367 75.8916 90.9565 75.6913 91.3908L75.6553 91.4806L75.6302 91.566C75.5819 91.7622 75.6015 91.9311 75.6058 91.9732C75.6152 92.0655 75.6332 92.1578 75.651 92.2383C75.6873 92.4023 75.7436 92.6032 75.8129 92.8281C75.9529 93.2825 76.168 93.9079 76.4481 94.6842C77.0098 96.2409 77.8508 98.4528 78.9226 101.223C81.0667 106.763 84.1488 114.572 87.7987 123.899C93.703 138.989 102.017 145.946 105.66 147.57C106.134 147.782 106.688 147.566 106.898 147.089C107.108 146.612 106.894 146.054 106.421 145.843C103.353 144.475 95.325 137.98 89.5444 123.207C85.8911 113.87 82.8134 106.073 80.6708 100.537C79.5994 97.7682 78.7653 95.5736 78.2116 94.0391C77.9342 93.2702 77.7315 92.6788 77.605 92.2684C77.5412 92.0611 77.5021 91.9171 77.4823 91.8274C77.4813 91.8231 77.4806 91.8189 77.4798 91.8151C77.4906 91.4144 77.2456 91.0352 76.8494 90.8969ZM70.8339 46.6057C70.32 46.6722 69.9566 47.146 70.0228 47.6635C71.1632 56.5912 71.8282 78.4518 92.4208 101.402C97.5554 107.124 101.967 110.709 105.735 112.715C109.509 114.725 112.693 115.177 115.308 114.531C117.925 113.884 119.82 112.174 121.085 110.161C122.346 108.157 123.013 105.812 123.182 103.767C123.225 103.247 122.842 102.791 122.325 102.747C121.809 102.704 121.355 103.09 121.312 103.61C121.164 105.393 120.578 107.436 119.5 109.15C118.427 110.855 116.899 112.192 114.86 112.697C112.818 113.201 110.111 112.907 106.612 111.045C103.108 109.178 98.8645 105.765 93.8129 100.135C73.6606 77.6761 73.0296 56.3906 71.884 47.4224C71.8179 46.905 71.3478 46.5392 70.8339 46.6057ZM61.2292 68.6249C61.2292 68.1032 60.8091 67.6802 60.2909 67.6802C59.7728 67.6803 59.3527 68.1032 59.3527 68.6249C59.3527 69.1895 59.5315 70.0012 59.7821 70.8974C60.0423 71.8277 60.412 72.9563 60.8547 74.2032C61.7408 76.6988 62.9354 79.7131 64.1752 82.6555C65.4153 85.5984 66.7062 88.482 67.7877 90.7161C68.3277 91.8315 68.8204 92.7954 69.2317 93.5274C69.4369 93.8926 69.6282 94.2117 69.7998 94.4671C69.9549 94.698 70.1463 94.9578 70.3569 95.1326C70.7567 95.4642 71.348 95.4065 71.6775 95.004C72.0069 94.6015 71.9501 94.0062 71.5504 93.6744C71.5663 93.6875 71.5033 93.6305 71.3544 93.4087C71.2217 93.2111 71.0577 92.9402 70.8651 92.5974C70.4807 91.9134 70.0066 90.988 69.4742 89.8882C68.4107 87.6914 67.1337 84.8389 65.9027 81.9175C64.6715 78.9957 63.4919 76.0169 62.6219 73.5666C62.1866 72.3407 61.8322 71.2578 61.5883 70.3857C61.335 69.48 61.2292 68.8982 61.2292 68.6249ZM81.6457 57.4867C81.4669 56.9971 80.9275 56.7458 80.4411 56.9258C79.9548 57.1059 79.7058 57.649 79.8847 58.1387C81.2205 61.796 83.819 67.7177 87.2923 73.654C90.7564 79.5746 95.1413 85.5985 100.075 89.3747C109.85 96.8571 117.307 95.7538 120.058 93.8964C120.488 93.6058 120.603 93.019 120.315 92.5858C120.026 92.1525 119.443 92.0369 119.013 92.3274C117.149 93.5859 110.588 95.0488 101.21 87.8703C96.5668 84.3161 92.3306 78.5429 88.9091 72.6951C85.4969 66.8631 82.9454 61.045 81.6457 57.4867ZM88.2763 37.8261C88.2763 37.3045 87.8561 36.8815 87.3381 36.8815C86.8199 36.8815 86.3999 37.3044 86.3998 37.8261C86.3998 39.9489 87.1661 43.2368 88.3875 47.0073C89.62 50.812 91.3509 55.2123 93.3517 59.6055C95.3525 63.9987 97.6307 68.4003 99.9622 72.205C102.285 75.9949 104.694 79.25 106.97 81.3012C110.493 84.476 113.107 86.0125 115 86.5868C116.845 87.1465 118.348 86.8516 119.004 85.7602C119.273 85.314 119.131 84.7334 118.688 84.4631C118.245 84.1928 117.668 84.3354 117.399 84.7817C117.398 84.7841 117.335 84.886 117.063 84.9434C116.781 85.003 116.292 85.0058 115.542 84.778C114.031 84.3196 111.659 82.9913 108.222 79.8934C106.148 78.0243 103.851 74.9525 101.559 71.2129C99.2764 67.4881 97.0334 63.1576 95.0572 58.8183C93.081 54.479 91.3783 50.1465 90.1717 46.4218C88.9541 42.6628 88.2763 39.6237 88.2763 37.8261ZM61.7374 57.3496C61.4833 56.8949 60.9111 56.7335 60.4595 56.9892C60.008 57.245 59.8476 57.8211 60.1016 58.2758L72.8344 81.0608C73.0885 81.5154 73.6607 81.6763 74.1123 81.4205C74.5639 81.1647 74.7243 80.5886 74.4702 80.1339L61.7374 57.3496ZM116.562 51.2448C116.046 51.2913 115.665 51.7504 115.711 52.2701C115.838 53.6907 115.691 55.6796 114.956 57.448C114.446 58.6773 113.666 59.7666 112.53 60.5133C111.4 61.2553 109.838 61.711 107.667 61.5447C107.151 61.5052 106.7 61.8948 106.661 62.415C106.621 62.9351 107.008 63.3889 107.525 63.4285C110.039 63.6211 112.025 63.1 113.554 62.0958C114.314 61.5971 114.941 60.9921 115.456 60.3257L117.238 67.8044L115.477 75.5212C115.361 76.0297 115.677 76.5366 116.182 76.6535C116.687 76.7703 117.19 76.4528 117.306 75.9443L118.168 72.1674L118.618 74.2905C118.726 74.8008 119.224 75.1263 119.731 75.0175C120.238 74.9086 120.561 74.4065 120.453 73.8963L119.119 67.6027L119.114 67.5793L116.804 57.8822C117.578 55.8506 117.721 53.6771 117.581 52.1015C117.534 51.5819 117.078 51.1984 116.562 51.2448ZM104.442 39.8428C104.317 39.3366 103.808 39.028 103.305 39.154C102.526 39.3494 101.286 39.7359 100.053 40.2703C98.847 40.7929 97.5245 41.5086 96.6875 42.4075C96.3331 42.7881 96.3522 43.3859 96.7303 43.7427C97.1083 44.0994 97.702 44.0802 98.0564 43.6997C98.6165 43.0981 99.6381 42.5071 100.795 42.0059C101.924 41.5164 103.066 41.161 103.759 40.9874C104.261 40.8613 104.567 40.349 104.442 39.8428ZM99.3966 26.8344C99.2197 26.344 98.6815 26.0905 98.1944 26.2685C97.234 26.6196 94.4469 27.3922 91.3281 27.5349C90.8105 27.5586 90.4098 28.0003 90.4332 28.5214C90.4567 29.0425 90.8954 29.446 91.413 29.4224C94.746 29.2699 97.7209 28.4521 98.8352 28.0447C99.3222 27.8667 99.5733 27.3247 99.3966 26.8344ZM89.0845 21.1693C88.5663 21.1693 88.1462 21.5923 88.1462 22.114C88.1464 22.6356 88.5664 23.0587 89.0845 23.0587H92.3549C92.873 23.0587 93.293 22.6356 93.2931 22.114C93.2931 21.5923 92.873 21.1693 92.3549 21.1693H89.0845ZM105.003 13.5485C104.257 13.3555 103.346 13.5071 102.773 14.3019C102.468 14.7242 102.562 15.3153 102.981 15.6218C103.4 15.9281 103.987 15.8342 104.291 15.4121C104.305 15.3924 104.343 15.3288 104.537 15.3788C104.746 15.433 105 15.6098 105.154 15.8955C105.294 16.1543 105.365 16.5313 105.17 17.0345C104.967 17.5596 104.451 18.2682 103.314 19.0622C102.889 19.3597 102.783 19.9486 103.079 20.3772C103.374 20.8057 103.959 20.912 104.385 20.6146C105.712 19.6867 106.535 18.7078 106.918 17.7215C107.309 16.7133 107.213 15.7548 106.804 14.9951C106.41 14.2623 105.734 13.7375 105.003 13.5485ZM89.3227 11.883C88.8215 11.7507 88.3083 12.0525 88.1768 12.5571L86.1219 20.4448H90.2273C90.7455 20.4448 91.1656 20.0219 91.1656 19.5001C91.1656 18.9784 90.7455 18.5555 90.2273 18.5555H88.5536L89.9915 13.0368C90.123 12.5322 89.8238 12.0155 89.3227 11.883ZM96.9593 12.0485C96.1221 11.3999 93.9699 10.529 91.8222 12.0189C91.3956 12.315 91.2882 12.9037 91.5822 13.3333C91.8761 13.7627 92.4603 13.8707 92.8869 13.575C94.1429 12.7036 95.3822 13.2101 95.8152 13.5454C96.2259 13.8636 96.815 13.7866 97.131 13.3732C97.447 12.9597 97.37 12.3666 96.9593 12.0485Z" fill="#273A5F"/>
</svg>
