<svg width="81" height="199" viewBox="0 0 81 199" fill="none" xmlns="http://www.w3.org/2000/svg">
<path d="M15.1716 9.72467C6.65823 16.6246 14.0887 23.0541 17.9578 21.6428L21.5178 24.7791L20.1248 29.3267C19.5057 30.9576 18.835 31.8881 18.577 32.1494C16.4617 33.1426 11.1167 35.913 6.6591 39.0494C2.20148 42.1857 0.983891 57.0833 0.932298 64.1401V78.2536C2.68645 85.1535 6.28763 99.3611 6.6591 100.992C7.03057 102.623 7.22662 105.331 7.27821 106.481C7.27821 111.812 9.29033 118.294 10.6833 121.065C9.9404 123.95 10.3738 130.003 10.6833 132.669L7.27821 142.235C4.95654 144.901 5.88521 173.285 6.50432 175.166C6.99961 176.672 6.71069 178.407 6.50432 179.087L2.94419 193.828C0.467732 194.329 -0.0481961 196.964 0.00339673 198.218H54.7949C54.7949 195.333 51.493 194.089 49.842 193.828L50.3064 174.069C53.4019 174.194 55.0013 172.553 55.4141 171.716C57.6429 151.644 54.8981 103.344 53.2472 81.7036L55.1045 83.4285C55.7236 84.3694 59.5415 88.0285 61.6052 89.7012C63.4625 90.8512 67.1153 93.5276 66.8677 95.033C66.62 96.5384 67.8995 98.2739 68.5702 98.9534C69.3441 99.267 71.9753 103.031 73.2136 105.226C74.5756 105.352 74.5034 103.815 74.297 103.031C72.5635 99.8943 72.8524 98.483 73.2136 98.1693C74.3486 99.1625 76.7116 101.807 77.083 104.442C77.4545 107.077 78.3729 107.944 78.7856 108.049C80.5191 107.547 80.6429 104.912 80.4882 103.658C81.4787 99.7689 77.083 94.6148 74.7614 92.5239C72.904 90.6944 68.6631 85.9376 66.5581 81.5467C64.4531 77.1559 58.0453 69.0537 55.1045 65.5514C55.5998 57.2715 52.4217 46.3152 50.7707 41.8721C49.6357 39.6244 46.0654 35.129 40.8649 35.129C35.6643 35.129 33.6419 33.5608 33.2807 32.7767L34.6738 30.2676H37.1502C37.4598 30.2676 39.6267 27.9154 39.4719 26.3472C39.3171 24.7791 40.8649 23.2109 41.7936 22.4268C42.5365 21.7995 42.1031 20.1791 41.7936 19.4473C40.9165 17.8791 39.5028 14.2096 40.8649 12.0769C42.2269 9.94418 42.0515 7.42465 41.7936 6.43148C39.9362 4.3406 34.3642 0.127484 26.9348 0.0020307C19.5055 -0.123423 16.6162 5.59516 16.1003 8.47014L15.1716 9.72467Z" fill="#FFECC2"/>
<path d="M42.7868 176.104L40.0282 194.859L38.0742 194.576L40.8329 175.821L42.7868 176.104ZM48.1531 175.962V193.262H46.1786V175.962H48.1531Z" fill="#283859"/>
<path d="M35.4187 16.663C35.9876 16.1423 37.4667 15.2884 38.8321 16.0382H37.4357C37.7977 16.1944 38.3046 16.6942 37.4357 17.444C37.0737 17.496 36.3496 17.4127 36.3496 16.663C36.1945 16.6109 35.7911 16.538 35.4187 16.663Z" fill="#283859"/>
<path d="M45.6822 41.7435C46.7056 44.143 47.9245 48.1165 48.281 52.3095C48.6167 56.2578 48.1992 60.5582 45.9595 63.8956C46.4315 64.6963 46.86 65.7755 47.2509 67.0669C47.7572 68.7398 48.228 70.8598 48.6444 73.3847C49.4777 78.4367 50.1031 85.1711 50.3444 93.3164C50.8269 109.604 49.7747 131.589 45.7503 157.156L45.7509 157.156L43.3971 175.573C44.0265 175.486 44.7775 175.326 45.5515 175.055C46.8549 174.599 48.1524 173.859 49.0691 172.724L49.5143 172.174L50.1711 172.442C50.9921 172.779 53.3668 173.034 55.3119 170.545C55.2911 170.572 55.3332 170.522 55.4017 170.3C55.4635 170.1 55.5284 169.823 55.5924 169.463C55.7201 168.744 55.8329 167.764 55.9292 166.545C56.1213 164.112 56.2408 160.803 56.2956 156.888C56.4053 149.063 56.2541 138.868 55.9124 128.514C55.5708 118.16 55.039 107.659 54.3883 99.2249C54.0628 95.0068 53.7087 91.3142 53.3346 88.4187C52.9676 85.5783 52.5914 83.6029 52.2394 82.6331C51.7727 81.9588 51.192 80.8667 50.8044 79.5612C50.3926 78.1738 50.178 76.4806 50.6063 74.7648L52.4518 75.2235C52.1298 76.5137 52.2794 77.8477 52.6282 79.0228C52.9341 80.0531 53.3786 80.9107 53.7221 81.4358L53.862 81.6402L53.9345 81.7396L53.9791 81.8538C54.4376 83.035 54.8461 85.275 55.2209 88.176C55.6009 91.1169 55.9578 94.8457 56.2845 99.0798C56.938 107.55 57.4714 118.079 57.8136 128.451C58.1558 138.823 58.3076 149.05 58.1975 156.915C58.1424 160.845 58.0216 164.201 57.8248 166.694C57.7265 167.938 57.6076 168.988 57.4645 169.794C57.393 170.196 57.3128 170.557 57.2193 170.859C57.1325 171.14 57.0088 171.459 56.812 171.711C54.5903 174.554 51.7805 174.788 50.1166 174.405C48.964 175.612 47.5212 176.376 46.1818 176.845C44.6695 177.374 43.2182 177.556 42.3063 177.556H41.2266L41.8092 172.994C41.0317 173.415 40.3218 173.704 39.6449 173.898C38.4919 174.229 37.4895 174.268 36.5229 174.268C36.4731 174.268 36.3013 174.288 35.9626 174.371C35.787 174.413 35.5854 174.468 35.3602 174.534L32.7774 195.979L30.8893 195.753L33.3668 175.183C32.4139 175.515 31.3354 175.913 30.2145 176.34L28.0892 195.968L26.1985 195.764L28.2185 177.111C26.9486 177.609 25.6957 178.114 24.5796 178.571L22.4605 195.513L20.5729 195.278L22.5595 179.398L22.5404 179.404C20.6553 179.899 18.9371 180.137 17.3772 180.172L15.8983 195.954L14.0045 195.777L15.4729 180.112C9.64372 179.59 6.55935 176.071 5.62402 173.662L7.39706 172.977C8.12193 174.844 10.8535 178.118 16.5378 178.275C18.1116 178.319 19.9236 178.124 21.9943 177.585C22.4048 177.414 22.8579 177.226 23.3427 177.026C24.9986 176.345 27.0276 175.53 28.9905 174.776C30.9188 174.035 32.7997 173.346 34.2038 172.902C34.6945 172.747 35.1384 172.619 35.5119 172.528C35.8623 172.443 36.2264 172.371 36.5229 172.371C37.4319 172.371 38.2238 172.332 39.1199 172.075C39.9428 171.84 40.898 171.406 42.1169 170.586L43.8639 156.917L43.8658 156.903L43.8683 156.889C47.879 131.42 48.9223 109.542 48.4432 93.372C48.2037 85.2853 47.5838 78.6393 46.768 73.6928C46.3599 71.2186 45.9052 69.1846 45.4302 67.6152C44.9474 66.0202 44.4687 64.9922 44.0546 64.4575L43.6101 63.8832L44.049 63.3053C46.2177 60.4487 46.7248 56.4538 46.386 52.4695C46.0492 48.508 44.8903 44.7311 43.9326 42.4857L45.6822 41.7435ZM45.7428 103.817C41.72 125.727 31.3024 151.196 26.5978 161.197L26.5613 161.275L26.5105 161.346C21.0332 168.977 16.3044 171.072 12.4376 169.742C10.5759 169.102 9.10508 167.71 7.99756 166.134C6.88593 164.553 6.09005 162.718 5.59863 161.064L7.42244 160.525C7.8689 162.028 8.5853 163.666 9.55455 165.045C10.5279 166.43 11.7069 167.484 13.0573 167.949C15.6072 168.826 19.5367 167.773 24.9133 160.31C29.6052 150.319 39.9022 125.096 43.872 103.475L45.7428 103.817ZM45.7181 86.3835C39.7648 106.155 33.7919 120.573 28.7342 130.573C23.693 140.54 19.5259 146.187 17.1519 148.343L15.871 146.941C17.9792 145.026 22.02 139.635 27.0361 129.718C32.0359 119.833 37.9702 105.521 43.8967 85.8377L45.7181 86.3835ZM39.6387 37.341C36.7159 41.4395 31.7822 45.2638 26.8875 48.3602C22.252 51.2928 17.565 53.6256 14.4527 54.9696C14.2675 57.9123 13.9819 62.1061 13.6801 65.806C13.519 67.7814 13.3529 69.6225 13.1954 71.0594C13.1167 71.7769 13.0392 72.4015 12.9644 72.8951C12.8945 73.357 12.8152 73.79 12.7156 74.0646C12.6526 74.238 12.6326 74.5427 12.7639 75.3026C12.8265 75.6653 12.914 76.0884 13.022 76.6104C13.1289 77.1269 13.2534 77.7272 13.3823 78.4226C13.8994 81.2114 14.489 85.4835 14.4917 92.3266C14.6731 94.3841 15.0882 97.4651 15.7416 100.065C16.0716 101.378 16.4507 102.52 16.8671 103.337C17.0754 103.745 17.2738 104.033 17.4503 104.217C17.5827 104.355 17.6739 104.405 17.7214 104.423L17.7543 104.432L18.1975 104.502L18.4253 104.888C19.156 106.126 20.0226 108.186 20.2776 110.412C20.5334 112.644 20.1827 115.174 18.2916 117.141L17.2237 116.12C17.2124 116.524 17.2029 116.924 17.1965 117.315C17.1783 118.421 17.1824 119.431 17.2206 120.202C17.2398 120.589 17.2669 120.898 17.2998 121.12C17.3156 121.226 17.3304 121.298 17.3419 121.342L17.8211 122.062L17.0497 122.59C16.6163 122.887 16.0274 123.061 15.3807 122.912C15.1209 122.852 14.8751 122.744 14.6434 122.595C13.7168 122.567 12.4628 122.208 11.4254 121.187C10.2111 119.993 9.42216 118.025 9.62265 115.013L11.5201 115.139C11.3455 117.763 12.0431 119.131 12.7608 119.836C12.7903 119.865 12.8212 119.892 12.8511 119.92C12.3802 118.585 12.0146 116.733 11.8117 114.213L13.708 114.061C14.0176 117.907 14.6938 119.776 15.2736 120.589C15.2975 120.623 15.3221 120.653 15.3448 120.682C15.3359 120.558 15.3279 120.428 15.3213 120.295C15.28 119.463 15.2763 118.405 15.2947 117.284C15.3314 115.036 15.4573 112.468 15.5621 110.789L17.4602 110.907C17.3848 112.115 17.2989 113.786 17.2435 115.457C18.3304 114.093 18.588 112.372 18.3882 110.628C18.1891 108.89 17.5437 107.239 16.9594 106.158C16.6138 106.01 16.3198 105.782 16.0772 105.53C15.7251 105.163 15.4277 104.698 15.1721 104.197C14.6607 103.194 14.2402 101.893 13.8968 100.527C13.207 97.7818 12.7787 94.5735 12.5936 92.4557L12.5905 92.4143V92.3735C12.5905 85.6224 12.0099 81.4526 11.5121 78.7678C11.387 78.0933 11.2666 77.5096 11.1598 76.9938C11.0542 76.4834 10.9585 76.0254 10.8893 75.6249C10.7569 74.8586 10.678 74.1064 10.9277 73.4187C10.953 73.3488 11.0103 73.1009 11.0843 72.6123C11.1535 72.1553 11.2272 71.5594 11.3047 70.8531C11.4594 69.4421 11.6239 67.6212 11.7845 65.6523C12.1045 61.7291 12.4082 57.2431 12.5905 54.2978V47.7508H14.4923V52.8782C17.4969 51.5323 21.7056 49.3925 25.8691 46.7586C30.705 43.6993 35.3846 40.0339 38.0891 36.2413L39.6387 37.341ZM45.5509 79.1864C33.3992 94.4008 21.2125 96.7298 16.3347 95.8103L16.6882 93.9468C20.6706 94.6973 32.2062 92.8509 44.0639 78.0046L45.5509 79.1864ZM41.4681 77.1636C29.1484 86.3231 18.6102 86.3961 14.6613 85.135L15.2414 83.3283C18.483 84.3636 28.3912 84.5201 40.3315 75.6428L41.4681 77.1636ZM29.2208 26.2582C29.9772 27.0158 32.2339 28.8022 34.9213 29.6215L34.3654 31.4356C31.3006 30.5013 28.7847 28.5087 27.8737 27.5962L29.2208 26.2582ZM39.9581 24.2564V26.1532H38.239V24.2564H39.9581ZM41.3276 21.3525C41.4511 21.3515 41.6044 21.3596 41.7634 21.3975C41.9149 21.4337 42.1494 21.515 42.3515 21.7174L41.0038 23.056C41.1432 23.1957 41.2851 23.2334 41.3207 23.2419C41.3636 23.2521 41.3769 23.249 41.343 23.2493C41.2753 23.2499 41.152 23.2635 40.9753 23.2999C40.6296 23.3712 40.2306 23.4965 39.9718 23.5908L39.3193 21.8094C39.6335 21.6949 40.1257 21.5384 40.5902 21.4426C40.8185 21.3956 41.0804 21.3545 41.3276 21.3525ZM42.068 12.2029C41.3753 12.6885 39.5269 13.4942 36.8795 13.6268C36.4752 13.6471 35.9076 13.8418 35.1919 14.2504C34.4932 14.6493 33.7342 15.2047 32.9663 15.8429C31.4312 17.1184 29.9401 18.6564 28.933 19.7427L28.6507 20.0472H24.6397V18.1503H27.8211C28.8379 17.0668 30.2626 15.6205 31.7485 14.3856C32.5632 13.7086 33.4169 13.0783 34.2471 12.6043C35.0601 12.1402 35.938 11.7748 36.7841 11.7324C39.1385 11.6145 40.6251 10.8963 40.9747 10.6512L42.068 12.2029ZM37.605 4.46366C36.0882 6.57742 33.1213 9.30814 30.1105 11.8182C27.0748 14.349 23.9052 16.7277 21.9089 18.1485L20.8045 16.6048C22.768 15.2074 25.8982 12.8578 28.8909 10.3629C31.9085 7.84717 34.6992 5.25402 36.0586 3.35963L37.605 4.46366ZM36.5693 14.4252C37.3547 14.189 38.3493 14.1351 39.3211 14.666L38.8642 16.4461H38.8568C38.7567 16.9 38.4545 17.3017 38.0774 17.6255L37.8669 17.8064L37.592 17.8459C37.2934 17.8886 36.8151 17.8871 36.3644 17.673C36.1242 17.5589 35.8745 17.3748 35.6877 17.0907C35.5845 16.9338 35.5126 16.7632 35.468 16.5844L34.7839 15.4236C35.1602 15.0809 35.7984 14.657 36.5693 14.4252Z" fill="#283859"/>
</svg>
