<svg width="67" height="204" viewBox="0 0 67 204" fill="none" xmlns="http://www.w3.org/2000/svg">
<path d="M45.7197 24.7606C50.4937 20.5443 56.6792 10.0192 43.2289 1.64912C39.2333 -0.64121 29.7474 -2.31731 23.7695 9.30088C23.4063 11.0186 23.0534 14.9538 24.5479 16.9527C23.9252 18.9307 22.6798 23.4489 22.6798 25.6975C22.0571 26.8948 20.9985 30.0075 21.7458 32.8808C21.4344 34.078 21.1853 36.6286 22.6798 37.2533C19.3588 38.0861 11.9072 40.8761 8.66916 45.3735C5.43115 49.8709 1.61195 64.6331 0.107096 71.452C-0.204252 74.1587 -0.0174399 80.3218 3.22057 83.32C3.52538 83.32 4.22807 84.2513 6.28078 84.8114L4.82686 116.129C4.68146 120.65 8.78077 124.576 10.8486 125.973L13.1869 182.123C18.421 185.04 20.9411 181.88 21.5469 179.936L22.4556 191.239C22.2739 193.001 21.3288 196.635 19.0026 197.073C16.6763 197.51 11.733 201.752 9.5521 203.818H37.5401C36.8131 200.901 36.6314 190.813 36.6314 186.134C40.1208 188.759 46.5665 190.631 49.3532 191.239C49.5349 192.879 49.7893 196.343 49.3532 197.073C48.917 197.802 46.3847 201.873 45.1731 203.818H65.1645C65.8915 202.542 62.9837 195.249 62.2567 192.515C61.6751 190.327 62.499 188.565 62.9837 187.957C66.4367 175.56 63.1654 150.22 62.2567 147.668C60.9845 145.845 60.8634 141.226 60.9845 138.735C64.4376 125.244 58.0767 101.544 58.9854 100.997C59.7123 100.56 60.2 97.2545 60.3529 95.6566C60.4567 94.7196 60.4774 92.4397 59.7302 90.8156C58.7962 88.7856 61.131 86.7555 57.8619 80.0407C60.3008 74.2628 65.3342 61.0518 65.9569 54.4307C66.7353 46.1543 63.4666 42.875 60.3529 41.3134C57.8619 40.0641 51.3237 37.2533 48.3659 36.004C47.38 35.4835 45.3459 34.1301 45.0968 32.8808C44.8477 31.6316 44.993 29.7577 45.0968 28.9769C45.5121 28.8207 46.2181 27.7588 45.7197 24.7606Z" fill="#FFECC2"/>
<path d="M36.0272 15.4792C35.8293 14.4894 34.1694 14.4749 33.8739 15.4792C33.4156 17.0367 36.3386 17.0367 36.0272 15.4792Z" fill="#283859"/>
<path d="M27.1092 15.4792C27.1092 14.3897 25.4172 14.3864 25.4172 15.4792C25.4172 16.572 27.1092 16.5688 27.1092 15.4792Z" fill="#283859"/>
<path d="M16.0729 144.793L18.8658 180.93L19.6869 180.983C20.9498 181.065 22.7502 181.567 24.9702 182.386C27.1684 183.196 29.6926 184.283 32.3753 185.477C37.7122 187.852 43.6849 190.656 48.7407 192.403C52.8462 193.822 55.8135 193.974 57.8899 193.491C59.9629 193.008 61.1852 191.869 61.5928 190.737L59.8074 190.099C59.6689 190.484 59.0707 191.276 57.4584 191.651C55.8491 192.026 53.2651 191.967 49.3624 190.618C44.4079 188.906 38.5504 186.156 33.1489 183.752C30.4624 182.557 27.8898 181.448 25.6289 180.614C23.7663 179.928 22.0539 179.404 20.6339 179.19L17.9638 144.649L16.0729 144.793ZM14.2554 110.414C17.7215 141.983 24.9843 162.289 33.5637 174.086C42.1657 185.914 52.1984 189.29 60.9797 186.587L60.4204 184.782C52.6391 187.177 43.3788 184.362 35.0997 172.978C26.798 161.563 19.591 141.633 16.1408 110.209L14.2554 110.414ZM23.6336 17.0487C23.3089 17.4795 23.0578 18.1647 22.8551 18.8393C22.6396 19.5567 22.4368 20.4141 22.2538 21.2959C21.904 22.9817 21.6178 24.814 21.45 26.0534C20.8478 27.2204 20.6093 28.7175 20.5302 30.043C20.45 31.3849 20.5274 32.6727 20.6302 33.5129C20.4838 34.5301 20.4554 35.3542 20.5314 36.0168C20.6099 36.7008 20.8069 37.2861 21.1704 37.7189C21.5578 38.1802 22.0664 38.3861 22.5662 38.4008C22.5883 38.4015 22.6104 38.3997 22.6322 38.3996C22.8578 38.8724 23.1839 39.2868 23.4749 39.6067C24.0243 40.2104 24.6715 40.7195 25.1115 41.013L25.135 41.0284L25.1597 41.0431C25.4644 41.2209 25.7588 41.3667 26.0425 41.4828C26.6541 45.2398 27.6722 50.867 28.857 55.7831C29.4787 58.3628 30.1526 60.7749 30.8449 62.6253C31.1901 63.5479 31.5513 64.3623 31.9283 64.997C31.9562 65.0438 31.9861 65.0903 32.0154 65.1372L23.0699 67.8582C22.6243 66.783 22.2171 65.2117 21.8606 63.2949C21.467 61.1793 21.1459 58.7141 20.8882 56.1724C20.3729 51.0895 20.1168 45.7499 20.0394 42.3898L18.1435 42.4328C18.2218 45.8303 18.4797 51.2199 19.001 56.3618C19.2616 58.9324 19.589 61.454 19.9955 63.6392C20.3401 65.4916 20.7521 67.1553 21.2494 68.4122L16.6279 69.8179C16.6237 69.808 16.6186 69.7982 16.6143 69.7877C16.4652 69.4235 16.3061 68.8802 16.1445 68.1718C15.8235 66.7641 15.524 64.8428 15.2617 62.7132C14.7376 58.4597 14.3738 53.4762 14.2708 50.3338L12.3749 50.3953C12.4798 53.5947 12.8485 58.6348 13.3794 62.9438C13.6444 65.0953 13.9533 67.0901 14.2955 68.5905C14.3331 68.7555 14.3723 68.9162 14.4116 69.072C13.3069 68.7017 12.2774 68.5109 11.3699 68.4589C10.6118 68.4155 9.92341 68.4674 9.34002 68.6022C8.77469 68.7328 8.22938 68.9599 7.83862 69.3278L9.14123 70.7003C9.1923 70.6523 9.37437 70.5337 9.76846 70.4426C10.1448 70.3556 10.6487 70.3098 11.2612 70.3449C11.9147 70.3823 12.6744 70.5115 13.509 70.7667L10.2395 71.7616L10.7933 73.5682L41.138 64.3372L41.2282 64.2867C42.0745 63.8106 43.4107 63.0194 44.6816 62.1868C45.7464 61.4893 46.8464 60.7101 47.5505 60.042H48.6055C48.0701 61.5461 47.4487 63.4268 46.9603 65.1987C46.6409 66.3573 46.3722 67.4913 46.2238 68.4528C46.1638 68.8411 46.1228 69.2139 46.1065 69.5572C45.6158 69.5493 45.0624 69.589 44.4538 69.6801C43.196 69.8685 41.6355 70.2849 39.7817 71.0237C36.0839 72.4974 31.1744 75.271 25.0942 80.1551C23.9292 80.8912 21.9667 81.9576 19.6652 82.902C16.774 84.0883 13.4482 85.0407 10.5377 84.976L10.1049 84.9668L9.81415 85.2866C9.55423 85.5723 9.42034 85.9666 9.33755 86.268C9.24319 86.6115 9.16667 87.03 9.10234 87.499C8.97325 88.4402 8.88144 89.6776 8.81897 91.1245C8.69381 94.0239 8.68172 97.8471 8.73872 102C8.85277 110.31 9.24407 119.996 9.56967 126.381L11.4637 126.285C11.1388 119.914 10.7489 110.253 10.6352 101.974C10.5784 97.8326 10.5908 94.0514 10.7136 91.2057C10.7752 89.7803 10.8636 88.6099 10.9809 87.7542C11.032 87.3822 11.0878 87.0871 11.1427 86.8644C13.5825 86.8127 16.1582 86.1848 18.5009 85.3653C18.3294 85.7137 18.1341 86.1389 17.9626 86.6609C17.4004 88.3723 17.0716 91.0634 17.7119 96.2996L17.8237 97.4655C19.0341 109.706 22.0913 127.883 27.4982 144.119C30.2886 152.498 33.7174 160.399 37.866 166.708C42.0071 173.005 46.9292 177.812 52.7424 179.84L53.369 178.057C48.1162 176.225 43.4855 171.805 39.4526 165.673C35.4274 159.552 32.0607 151.819 29.2984 143.524C23.7744 126.937 20.7182 108.258 19.6004 96.1268L19.5992 96.1127L19.5973 96.0986C18.9683 90.9738 19.3242 88.5896 19.7646 87.2488C19.9887 86.5668 20.2356 86.1399 20.4845 85.6358C20.6602 85.2801 20.8272 84.8949 20.9135 84.4282C22.6525 83.6861 24.1852 82.8894 25.3264 82.2237C25.9825 83.0151 26.9838 83.6163 28.0606 84.085C29.4226 84.6778 31.1051 85.1455 32.9093 85.5159C33.3738 88.2987 34.7142 93.7223 40.1361 96.9404C41.5141 98.6103 43.9584 100.815 47.0239 102.235C50.1919 103.703 54.0907 104.36 58.1313 102.622L57.3793 100.888C53.9678 102.355 50.6491 101.832 47.8233 100.523C44.9804 99.2059 42.7061 97.1202 41.5016 95.6226L41.3911 95.4849L41.2374 95.3963C36.8262 92.8469 35.4437 88.6056 34.9046 85.8806C37.7948 86.3498 40.8959 86.6199 43.5735 86.755C46.3188 89.9424 49.5739 91.1534 52.5504 91.3293C55.5893 91.5089 58.3174 90.612 59.9346 89.7072L59.0054 88.0598C57.6605 88.8123 55.2908 89.5993 52.6628 89.444C50.6082 89.3225 48.3841 88.6251 46.3355 86.8534C46.604 86.8585 46.8638 86.8623 47.114 86.8644C54.3969 87.5155 57.8491 82.4751 58.6628 79.801L56.8478 79.2531C56.208 81.3555 53.3956 85.5502 47.2418 84.9804L47.2017 84.9767L47.1615 84.976C46.2542 84.9688 45.2093 84.9419 44.0797 84.89C40.9488 84.746 37.1964 84.412 33.9205 83.7905C31.931 83.4131 30.1596 82.9372 28.82 82.3541C27.8847 81.947 27.2637 81.5314 26.8938 81.1408C32.5797 76.6485 37.1234 74.1184 40.4867 72.7781C42.2328 72.0822 43.6497 71.7108 44.7353 71.5482C45.8398 71.3829 46.5399 71.4426 46.8862 71.5439L48.7247 72.082L48.0394 70.3C48.0249 70.2623 47.9911 70.1197 47.9943 69.8166C47.9974 69.5311 48.0317 69.1697 48.0981 68.7399C48.2306 67.8811 48.4788 66.8258 48.7895 65.6986C49.4098 63.4482 50.257 60.9969 50.8477 59.4296L50.8656 59.3816L50.8786 59.3318L52.2819 53.8738L50.4446 53.4053L49.2241 58.153H46.73L46.4479 58.4672C45.9811 58.986 44.902 59.7819 43.6395 60.609C42.4541 61.3855 41.203 62.1274 40.383 62.5914L33.9267 64.5555C33.8218 64.436 33.6979 64.2663 33.5606 64.0353C33.265 63.5377 32.9494 62.8404 32.6223 61.9661C31.9697 60.222 31.3165 57.896 30.701 55.3423C29.5908 50.7356 28.625 45.4768 28.01 41.7626C28.0924 41.7473 28.1732 41.727 28.2532 41.7035C30.5245 42.4887 32.3413 42.3171 33.6983 41.5572L33.694 41.639C36.404 41.778 38.173 40.8077 39.2001 39.3933C39.5688 38.8856 39.8289 38.3387 40.0052 37.7958C41.6907 37.3959 42.7114 36.1449 43.2852 34.8565C43.7804 33.7446 43.9879 32.5237 44.0383 31.5501C44.1255 31.4944 44.2117 31.4344 44.2945 31.3687C44.7245 31.028 45.2521 30.4543 45.8997 29.5473C46.3343 28.9386 46.5549 28.1761 46.6646 27.4265C46.7759 26.665 46.784 25.8371 46.7362 25.0333C46.7044 24.4994 46.6459 23.9646 46.5738 23.4511C47.719 22.9399 48.4223 22.2026 48.7691 21.3752C49.1502 20.466 49.0488 19.5682 48.8142 18.9813L47.0523 19.6805C47.1294 19.8734 47.1836 20.2549 47.0189 20.6477C46.9143 20.8973 46.6941 21.2146 46.2176 21.508C46.1586 21.2496 46.0999 21.0119 46.0429 20.8009L44.2112 21.2916C44.458 22.2051 44.7564 23.6926 44.8428 25.1452C44.8859 25.8709 44.8745 26.5618 44.7878 27.1547C44.6993 27.7593 44.5432 28.1877 44.3544 28.4522C43.8314 29.1847 43.4539 29.5934 43.2117 29.8081L42.1017 29.0689L42.1523 30.8971C42.1755 31.734 42.0315 33.0128 41.5516 34.0903C41.253 34.7608 40.8536 35.2994 40.32 35.6387C40.3173 35.527 40.3124 35.4193 40.304 35.3164L38.4106 35.3933V36.1527C38.3553 36.8358 38.1406 37.6295 37.6636 38.2865C37.2659 38.834 36.6448 39.3415 35.6528 39.5944C36.1577 38.7116 36.3896 37.7569 36.4091 36.9767L34.5132 36.9294C34.4927 37.748 34.0874 38.9004 33.1989 39.6196C32.5367 40.1555 31.4879 40.5432 29.8565 40.1964C30.1293 39.5496 30.1927 38.844 30.1726 38.3203L28.2773 38.3928C28.2955 38.8658 28.1997 39.3692 28.0057 39.662C27.922 39.7883 27.837 39.851 27.7482 39.8834C27.6564 39.9168 27.4695 39.9508 27.129 39.8613C26.875 39.7944 26.5488 39.6608 26.1407 39.4247C25.801 39.1949 25.2941 38.7932 24.88 38.3381C24.4131 37.8249 24.2492 37.4464 24.2491 37.2651V35.6657C24.2794 35.7318 24.3117 35.7974 24.3479 35.8606L25.9962 34.9266C25.8892 34.7391 25.8195 34.3364 25.8536 33.7564C25.8853 33.2167 25.996 32.6851 26.0839 32.3772L24.2602 31.8606C24.1404 32.2805 24.0018 32.9492 23.9608 33.6463C23.926 34.2381 23.9511 35.003 24.2423 35.6503L22.8341 36.4423C22.7393 36.4957 22.6644 36.5106 22.6298 36.5118C22.6284 36.5103 22.6265 36.5089 22.6248 36.5069C22.5855 36.4601 22.4703 36.2791 22.4156 35.8022C22.3617 35.3323 22.3751 34.6434 22.5236 33.6629L22.5433 33.5307L22.5254 33.3979C22.4287 32.6718 22.3464 31.4382 22.423 30.1555C22.5011 28.8469 22.7382 27.618 23.1922 26.8104L23.2817 26.6517L23.3052 26.4722C23.4646 25.2667 23.7561 23.3875 24.1108 21.6783C24.2884 20.8227 24.4787 20.0246 24.672 19.381C24.8782 18.6947 25.0521 18.3131 25.1504 18.1826L23.6336 17.0487ZM28.8638 104.981C31.6676 112.937 36.598 124.279 42.2863 132.395C45.1198 136.437 48.2157 139.789 51.4182 141.465C53.0354 142.311 54.7188 142.75 56.4243 142.597C58.1377 142.443 59.7835 141.698 61.3298 140.33L60.0704 138.917C58.7774 140.061 57.5012 140.604 56.2533 140.716C54.9976 140.829 53.68 140.515 52.3004 139.793C49.5088 138.332 46.6252 135.286 43.8408 131.313C38.2932 123.399 33.4313 112.238 30.6535 104.355L28.8638 104.981ZM31.9685 30.3154C30.7735 30.8276 29.212 32.764 29.212 36.4854H31.1085C31.1085 33.2206 32.4576 32.1624 32.7179 32.0507L31.9685 30.3154ZM34.996 32.3052C35.0734 32.6883 35.1109 33.7609 34.6311 34.6247L36.2912 35.539C37.0586 34.1573 36.9876 32.5887 36.8548 31.932L34.996 32.3052ZM40.1268 28.9484C40.0856 29.7017 39.5805 31.2892 38.084 31.8606L38.7631 33.6242C41.2628 32.6695 41.9604 30.1571 42.0208 29.0511L40.1268 28.9484ZM31.1665 25.3727C29.3377 24.9585 27.0994 25.3303 24.6115 27.1461L25.7326 28.6699C27.8596 27.1174 29.5449 26.9431 30.7455 27.215C31.9871 27.4962 32.8615 28.288 33.268 28.898L34.8484 27.8539C34.2159 26.9045 32.9543 25.7777 31.1665 25.3727ZM41.7992 10.4248C42.0884 10.955 42.4774 11.8009 42.7024 12.593C42.8154 12.991 42.8744 13.3324 42.8771 13.5916C42.8792 13.7996 42.8448 13.8785 42.8394 13.8911L42.8462 13.8837C42.4884 14.3019 42.34 14.8446 42.2709 15.306C42.1983 15.7904 42.1946 16.3212 42.2239 16.8285C42.2827 17.8446 42.4818 18.8944 42.6481 19.5593L44.4884 19.1025C44.3429 18.5204 44.1677 17.5902 44.1174 16.7197C44.0921 16.2836 44.1001 15.8938 44.1464 15.5846C44.1961 15.2531 44.2732 15.1285 44.2896 15.1092C44.6922 14.6388 44.7785 14.0455 44.7736 13.572C44.7685 13.0799 44.6637 12.5594 44.5273 12.079C44.2534 11.1144 43.8004 10.1364 43.4661 9.52338L41.7992 10.4248ZM48.4018 14.6579C48.4308 14.8246 48.4124 15.1889 48.1641 15.552C47.9322 15.8909 47.435 16.3218 46.3485 16.5328L46.7115 18.3867C48.195 18.0987 49.169 17.4379 49.7316 16.6152C50.2777 15.8164 50.3772 14.9481 50.2705 14.3351L48.4018 14.6579ZM39.0174 13.7601C37.9976 12.944 35.2686 11.8339 31.5203 12.6373L31.9191 14.4845C32.5299 14.3536 33.1014 14.283 33.6304 14.2582C33.2775 14.4869 32.9797 14.832 32.834 15.3208C32.6258 16.019 32.7899 16.6911 33.2822 17.1532C33.715 17.5594 34.2929 17.7029 34.7787 17.7029C35.2688 17.7029 35.8344 17.5578 36.2727 17.1803C36.7589 16.7613 37.001 16.1239 36.8548 15.4025L36.832 15.3023C36.7586 15.0167 36.6288 14.7812 36.4647 14.5896C37.15 14.8006 37.6157 15.0617 37.8296 15.2328L39.0174 13.7601ZM34.8676 15.7863C34.8935 15.7863 34.9164 15.7885 34.9361 15.7918C34.8904 15.8043 34.836 15.8139 34.778 15.8139C34.7599 15.8139 34.7427 15.811 34.7262 15.8096C34.763 15.7964 34.8113 15.7861 34.8676 15.7863ZM26.0549 15.4849C26.0752 15.5022 26.0952 15.5271 26.1086 15.5563C26.122 15.5856 26.1203 15.6008 26.1203 15.5895C26.1203 15.5783 26.122 15.594 26.1086 15.6233C26.0952 15.6523 26.0751 15.6768 26.0549 15.694C26.0447 15.7026 26.0351 15.7067 26.0289 15.71C26.0229 15.7068 26.0134 15.7029 26.0036 15.6946C25.9838 15.6777 25.9638 15.6535 25.9505 15.6245C25.9371 15.5952 25.9388 15.5792 25.9388 15.5895C25.9388 15.6 25.9371 15.5844 25.9505 15.555C25.9639 15.526 25.9837 15.5013 26.0036 15.4843C26.0133 15.4761 26.0223 15.4716 26.0283 15.4683C26.0345 15.4716 26.0442 15.4759 26.0549 15.4849ZM48.3944 8.05436C48.4551 8.5807 48.383 9.4101 47.9894 10.1155C47.6247 10.7691 46.9543 11.3795 45.6416 11.5311L45.8595 13.4072C47.7895 13.1844 48.9906 12.2098 49.647 11.0336C50.2744 9.90939 50.3737 8.66432 50.2785 7.83914L48.3944 8.05436ZM24.2238 15.5895C24.2238 16.1329 24.4478 16.6031 24.8251 16.9232C25.1819 17.2259 25.6244 17.3534 26.0302 17.353C26.2226 17.3529 26.4228 17.3222 26.6185 17.2596C26.6158 17.273 26.6131 17.2863 26.6105 17.2995C26.5098 17.7996 26.4117 18.1437 26.3314 18.3246C26.0137 19.0396 25.8999 19.8621 25.869 20.5481C25.8377 21.2444 25.8887 21.8833 25.9499 22.2809L26.0734 23.0828H26.8154C26.1494 23.2981 25.4573 23.583 24.7405 23.948L25.6036 25.6304C28.7958 24.0048 31.1625 24.2716 32.8278 25.1194C34.5498 25.996 35.6624 27.5665 36.143 28.7344L37.8975 28.0174C37.2871 26.5343 35.9052 24.5648 33.6909 23.4376C32.8973 23.0336 32.0134 22.746 31.0424 22.6228L32.0339 21.7558L30.7819 20.3366L29.5343 21.4287L30.5461 22.5749C30.1212 22.5465 29.6807 22.5497 29.225 22.5872V21.1938H27.7612C27.7565 21.0181 27.7549 20.8284 27.7637 20.6324C27.7898 20.0527 27.8844 19.4973 28.0656 19.0896C28.2347 18.7089 28.3647 18.1937 28.4699 17.671C28.5787 17.1304 28.6737 16.5134 28.7545 15.8926C28.9032 14.7507 29.0078 13.5603 29.0651 12.7375L29.2206 12.4547C28.8152 12.2335 27.8 11.8786 26.6901 11.6707C25.5994 11.4663 24.1561 11.3504 23.0088 11.8422L23.7589 13.5775C24.3577 13.3209 25.3191 13.3359 26.3395 13.5271C26.6049 13.5768 26.8565 13.6348 27.0858 13.6949C27.0733 13.8331 27.0598 13.9749 27.0457 14.1192C26.7287 13.9161 26.3672 13.8269 26.0302 13.8265C25.6244 13.8262 25.1819 13.9537 24.8251 14.2564C24.4479 14.5764 24.2238 15.0461 24.2238 15.5895Z" fill="#283859"/>
</svg>
