<svg width="214" height="426" viewBox="0 0 214 426" fill="none" xmlns="http://www.w3.org/2000/svg">
<path d="M144.432 114.893L0.000347345 416.081C3.45138 427.816 14.555 425.863 19.6754 423.421L159.555 122.506L155.774 120.602L149.07 117.265L144.432 114.893Z" fill="#273A5F"/>
<path fill-rule="evenodd" clip-rule="evenodd" d="M149.07 117.265L144.432 114.893C123.054 75.0525 182.027 22.4949 213.621 -3.66747e-05C214.444 96.1356 172.424 125.946 159.555 122.506L155.774 120.602C173.102 89.4945 189.775 49.9852 195.945 34.119C187.524 43.7662 160.212 93.0914 149.07 117.265Z" fill="#FFECC2"/>
<path d="M195.945 34.119C187.524 43.7662 160.212 93.0914 149.07 117.265L155.774 120.602C173.102 89.4945 189.775 49.9852 195.945 34.119Z" fill="#273A5F"/>
</svg>
