<svg width="215" height="302" viewBox="0 0 215 302" fill="none" xmlns="http://www.w3.org/2000/svg">
<path d="M147.169 79.7239L-0.000332152 293.187C1.22635 302.602 9.97601 302.448 14.1975 301.194L157.844 87.3902L155.175 85.4736L150.439 82.104L147.169 79.7239Z" fill="#273A5F"/>
<path fill-rule="evenodd" clip-rule="evenodd" d="M150.439 82.104L147.169 79.7239C135.597 46.5914 187.17 13.4263 214.115 -0.000113192C203.118 73.81 167.295 91.5848 157.844 87.3902L155.175 85.4736C172.223 63.7178 189.786 35.4412 196.436 24.0223C188.812 30.4006 161.905 64.9167 150.439 82.104Z" fill="#FFECC2"/>
<path d="M196.436 24.0223C188.812 30.4006 161.905 64.9167 150.439 82.104L155.175 85.4736C172.223 63.7178 189.786 35.4412 196.436 24.0223Z" fill="#273A5F"/>
</svg>
