<svg width="99" height="415" viewBox="0 0 99 415" fill="none" xmlns="http://www.w3.org/2000/svg">
<path d="M42.0036 115.055L98.6011 408.289C92.9549 417.655 83.795 413.449 79.9208 410.174L27.1981 118.209L30.8995 117.421L37.4537 116.055L42.0036 115.055Z" fill="#273A5F"/>
<path fill-rule="evenodd" clip-rule="evenodd" d="M37.4537 116.055L42.0036 115.055C69.5274 85.4489 30.4461 26.6201 8.2245 9.50516e-05C-14.2906 82.9545 15.2879 118.266 27.1981 118.209L30.8995 117.421C22.9692 86.5876 17.5108 48.6373 15.7729 33.5163C20.8681 43.7695 33.3007 92.6218 37.4537 116.055Z" fill="#FFECC2"/>
<path d="M15.7729 33.5163C20.8681 43.7695 33.3007 92.6218 37.4537 116.055L30.8995 117.421C22.9692 86.5876 17.5108 48.6373 15.7729 33.5163Z" fill="#273A5F"/>
</svg>
