<svg width="126" height="483" viewBox="0 0 126 483" fill="none" xmlns="http://www.w3.org/2000/svg">
<path d="M96.7626 139.037L20.8981 479.66C10.4862 487.069 2.62764 478.296 -0.000187391 472.983L79.4264 135.524L83.7604 136.402L91.4208 137.99L96.7626 139.037Z" fill="#273A5F"/>
<path fill-rule="evenodd" clip-rule="evenodd" d="M91.4208 137.99L96.7626 139.037C140.045 120.121 125.549 38.8758 114.127 -2.55602e-05C51.3748 78.4236 66.6353 130.04 79.4264 135.524L83.7604 136.402C89.6164 99.6646 101.435 56.4502 106.612 39.4352C107.3 52.7962 97.8798 110.942 91.4208 137.99Z" fill="#FFECC2"/>
<path d="M106.612 39.4352C107.3 52.7962 97.8798 110.942 91.4208 137.99L83.7604 136.402C89.6164 99.6646 101.435 56.4502 106.612 39.4352Z" fill="#273A5F"/>
</svg>
