<svg width="172" height="343" viewBox="0 0 172 343" fill="none" xmlns="http://www.w3.org/2000/svg">
<path d="M55.708 92.4883L171.975 334.943C169.197 344.39 160.258 342.819 156.136 340.852L43.5339 98.6167L46.5774 97.0846L51.9737 94.3981L55.708 92.4883Z" fill="#273A5F"/>
<path fill-rule="evenodd" clip-rule="evenodd" d="M51.9737 94.3981L55.708 92.4883C72.9167 60.4171 25.4436 18.1084 0.0103786 1.86715e-05C-0.651515 77.3888 33.1741 101.386 43.5339 98.6167L46.5774 97.0846C32.6285 72.0428 19.2068 40.2379 14.2395 27.4658C21.0189 35.2317 43.0046 74.9383 51.9737 94.3981Z" fill="#FFECC2"/>
<path d="M14.2395 27.4658C21.0189 35.2317 43.0046 74.9383 51.9737 94.3981L46.5774 97.0846C32.6285 72.0428 19.2068 40.2379 14.2395 27.4658Z" fill="#273A5F"/>
</svg>
