<svg width="119" height="411" viewBox="0 0 119 411" fill="none" xmlns="http://www.w3.org/2000/svg">
<path d="M26.7358 118.544L100.313 408.071C109.436 414.134 115.966 406.415 118.09 401.797L41.5332 115.073L37.8338 115.941L31.2962 117.505L26.7358 118.544Z" fill="#273A5F"/>
<path fill-rule="evenodd" clip-rule="evenodd" d="M31.2962 117.505L26.7358 118.544C-10.8943 103.511 -0.461915 33.5815 8.38153 -0.000103186C64.2024 65.4471 52.3793 110.037 41.5332 115.073L37.8338 115.941C31.8956 84.6522 20.6774 47.979 15.8105 33.5535C15.5517 45.0083 25.0803 94.5261 31.2962 117.505Z" fill="#FFECC2"/>
<path d="M15.8105 33.5535C15.5517 45.0083 25.0803 94.5261 31.2962 117.505L37.8338 115.941C31.8956 84.6522 20.6774 47.979 15.8105 33.5535Z" fill="#273A5F"/>
</svg>
