<svg width="219" height="243" viewBox="0 0 219 243" fill="none" xmlns="http://www.w3.org/2000/svg">
<path d="M107.298 115.618C86.0118 96.3418 84.5611 63.1583 104.058 41.5002C123.555 19.842 156.616 17.9106 177.903 37.1864C199.189 56.4621 200.64 89.6455 181.143 111.304C161.646 132.962 128.585 134.893 107.298 115.618Z" fill="#FFF0E4"/>
<path d="M1.26555 202.562C2.72177 219.356 9.25907 245.819 42.4475 236.057L103.057 149.728L102.757 149.616C95.4045 146.879 89.0763 144.523 80.9481 132.155L1.26555 202.562ZM30.0027 216.559C28.8161 216.59 28.1352 216.457 27.8539 216.385C27.4965 216.292 27.2985 216.228 26.8294 215.639C26.187 214.832 25.3044 213.257 24.4932 210.599L50.0282 188.036L30.0027 216.559ZM90.2579 75.6285C91.3013 46.8177 115.394 23.9779 144.071 24.6145C172.749 25.2511 195.15 49.1228 194.107 77.9336C193.063 106.744 168.97 129.584 140.293 128.948L139.511 150.538C180.057 151.438 214.122 119.145 215.597 78.4107C217.072 37.676 185.399 3.92445 144.853 3.02444C104.308 2.12443 70.2432 34.4168 68.7681 75.1514C67.293 115.886 98.9658 149.638 139.511 150.538L140.293 128.948C111.616 128.311 89.2146 104.439 90.2579 75.6285Z" fill="#273A5F"/>
<path d="M62.1258 148.606L72.8944 157.322L29.9433 218.857L12.8005 218.476L5.66381 202.623L62.1258 148.606Z" fill="#273A5F"/>
<path d="M7.53514 209.757L16.7095 230.128L38.5131 230.612L90.0107 156.861L75.2958 144.955L7.53514 209.757ZM85.8905 157.477L36.9811 227.522L18.709 227.116L11.1991 210.441L75.4307 149.014L85.8905 157.477Z" fill="#273A5F"/>
</svg>
