<svg width="1224" height="645" viewBox="0 0 1224 645" fill="none" xmlns="http://www.w3.org/2000/svg">
<path d="M65 231H1153.79V379.568V525H935.614H65V231Z" fill="#273A5F"/>
<path d="M451.572 274.27L458.279 285.271L460.86 508.872H537.904L533.888 285.271L539.376 274.27H451.572Z" fill="#FFF0E4"/>
<path d="M556.449 240.755H436.633L447.466 265.06H544.068L556.449 240.755Z" fill="#FFF0E4"/>
<path d="M447.466 265.06L451.572 274.27H539.376L544.068 265.06H447.466Z" fill="#273A5F"/>
<path d="M461.023 522.943H538.156L537.904 508.872H460.86L461.023 522.943Z" fill="#273A5F"/>
<path d="M261.962 273.611L268.679 284.644L271.265 508.888H348.426L344.405 284.644L349.901 273.611H261.962Z" fill="#FFF0E4"/>
<path d="M367 240H247L257.85 264.374H354.6L367 240Z" fill="#FFF0E4"/>
<path d="M257.85 264.374L261.962 273.611H349.901L354.6 264.374H257.85Z" fill="#273A5F"/>
<path d="M271.427 523H348.679L348.426 508.888H271.265L271.427 523Z" fill="#273A5F"/>
<path d="M80.9618 275.611L87.6794 286.644L90.2648 510.888H167.426L163.405 286.644L168.901 275.611H80.9618Z" fill="#FFF0E4"/>
<path d="M186 242H66L76.8502 266.374H173.6L186 242Z" fill="#FFF0E4"/>
<path d="M76.8502 266.374L80.9618 275.611H168.901L173.6 266.374H76.8502Z" fill="#273A5F"/>
<path d="M90.4275 525H167.679L167.426 510.888H90.2648L90.4275 525Z" fill="#273A5F"/>
<path d="M843.494 273.283L850.201 284.328L852.782 508.816H929.826L925.81 284.328L931.298 273.283H843.494Z" fill="#FFF0E4"/>
<path d="M948.371 239.635H828.555L839.388 264.036H935.99L948.371 239.635Z" fill="#FFF0E4"/>
<path d="M839.388 264.036L843.494 273.283H931.298L935.99 264.036H839.388Z" fill="#273A5F"/>
<path d="M852.945 522.943H930.078L929.826 508.816H852.782L852.945 522.943Z" fill="#273A5F"/>
<path d="M1045.96 273.611L1052.68 284.644L1055.26 508.888H1132.43L1128.4 284.644L1133.9 273.611H1045.96Z" fill="#FFF0E4"/>
<path d="M1151 240H1031L1041.85 264.374H1138.6L1151 240Z" fill="#FFF0E4"/>
<path d="M1041.85 264.374L1045.96 273.611H1133.9L1138.6 264.374H1041.85Z" fill="#273A5F"/>
<path d="M1055.43 523H1132.68L1132.43 508.888H1055.26L1055.43 523Z" fill="#273A5F"/>
<path d="M770.324 240.755H650.508L661.341 265.06H757.943L770.324 240.755Z" fill="#FFF0E4"/>
<path d="M665.447 274.27L672.154 285.271L674.735 508.872H751.779L747.763 285.271L753.251 274.27H665.447Z" fill="#FFF0E4"/>
<path d="M661.341 265.06L665.447 274.27H753.251L757.943 265.06H661.341Z" fill="#273A5F"/>
<path d="M674.898 522.943H752.031L751.779 508.872H674.735L674.898 522.943Z" fill="#273A5F"/>
<path d="M1157.5 525H62.4996V555.489H1157.5V525Z" fill="#FFF0E4"/>
<path d="M1203.62 601.223H18.2038H0V644.818H1223.03V601.223H1203.62Z" fill="#FFF0E4"/>
<path d="M1157.5 555.489H62.4996H34.5872V565.652H1189.96V555.489H1157.5Z" fill="#273A5F"/>
<path fill-rule="evenodd" clip-rule="evenodd" d="M34.5872 565.652H1189.96H1203.62V591.863H18.2038V565.652H34.5872Z" fill="#FFF0E4"/>
<path d="M18.2038 601.223H1203.62V591.863H18.2038V601.223Z" fill="#273A5F"/>
<path d="M103.217 148.392L595.966 25.5L1152.5 145L103.217 148.392Z" fill="#FFF0E4"/>
<path d="M61.5001 162.353V177.479H1152.5V158.961L61.5001 162.353Z" fill="#FFF0E4"/>
<path d="M287.669 191.337L271.905 199.033V230.613H949.129V205.933L937.913 196.299L287.669 191.337Z" fill="#FFF0E4"/>
<path fill-rule="evenodd" clip-rule="evenodd" d="M595.966 0L16.0284 140.327L34.2171 162.353H61.5001L1152.5 158.961H1189L1198.09 136.935L595.966 0ZM595.966 25.5L103.217 148.392L1152.5 145L595.966 25.5Z" fill="#273A5F"/>
<path d="M1152.5 177.479H61.5001V194.729L271.905 191.337H287.669L937.913 196.299H1152.5V177.479Z" fill="#273A5F"/>
<path d="M949.129 230.613H271.905L244.622 239.635H949.129V230.613Z" fill="#273A5F"/>
<path d="M287.669 191.337H271.905L61.5001 194.729V234.005L271.905 230.613V199.033L287.669 191.337Z" fill="#FFF0E4"/>
<path d="M949.129 205.933V230.613H1152.5V196.299H937.913L949.129 205.933Z" fill="#FFF0E4"/>
</svg>
