<svg width="805" height="646" viewBox="0 0 805 646" fill="none" xmlns="http://www.w3.org/2000/svg">
<path d="M75.0312 230.695H733.236L721.713 373.698L733.236 511.375L734.149 525.223H75.0312V230.695Z" fill="#273A5F"/>
<path d="M254.595 274.291L261.302 285.293L263.884 508.911H340.934L336.918 285.293L342.407 274.291H254.595Z" fill="#FFF0E4"/>
<path d="M359.481 240.774H239.654L250.489 265.08H347.099L359.481 240.774Z" fill="#FFF0E4"/>
<path d="M250.489 265.08L254.595 274.291H342.407L347.099 265.08H250.489Z" fill="#273A5F"/>
<path d="M264.047 522.983H341.187L340.934 508.911H263.884L264.047 522.983Z" fill="#273A5F"/>
<path d="M65.3348 274.291L72.0427 285.293L74.6243 508.911H151.675L147.659 285.293L153.147 274.291H65.3348Z" fill="#FFF0E4"/>
<path d="M170.222 240.774H50.3945L61.2291 265.08H157.839L170.222 240.774Z" fill="#FFF0E4"/>
<path d="M61.2291 265.08L65.3348 274.291H153.147L157.839 265.08H61.2291Z" fill="#273A5F"/>
<path d="M74.7868 522.983H151.927L151.675 508.911H74.6243L74.7868 522.983Z" fill="#273A5F"/>
<path d="M646.552 273.304L653.259 284.35L655.841 508.855H732.891L728.875 284.35L734.364 273.304H646.552Z" fill="#FFF0E4"/>
<path d="M751.438 239.654H631.611L642.446 264.057H739.056L751.438 239.654Z" fill="#FFF0E4"/>
<path d="M642.446 264.057L646.552 273.304H734.364L739.056 264.057H642.446Z" fill="#273A5F"/>
<path d="M656.004 522.983H733.144L732.891 508.855H655.841L656.004 522.983Z" fill="#273A5F"/>
<path d="M573.377 240.774H453.55L464.384 265.08H560.994L573.377 240.774Z" fill="#FFF0E4"/>
<path d="M468.49 274.291L475.198 285.293L477.78 508.911H554.83L550.814 285.293L556.302 274.291H468.49Z" fill="#FFF0E4"/>
<path d="M464.384 265.08L468.49 274.291H556.302L560.994 265.08H464.384Z" fill="#273A5F"/>
<path d="M477.942 522.983H555.083L554.83 508.911H477.78L477.942 522.983Z" fill="#273A5F"/>
<path d="M738.533 525.223H62.5053V555.715H738.533V525.223Z" fill="#FFF0E4"/>
<path d="M784.653 601.452H18.2054H0V645.05H804.073V601.452H784.653Z" fill="#FFF0E4"/>
<path d="M738.533 555.715H62.5053H34.5903V565.878H770.999V555.715H738.533Z" fill="#273A5F"/>
<path fill-rule="evenodd" clip-rule="evenodd" d="M34.5903 565.878H770.999H784.653V592.091H18.2054V565.878H34.5903Z" fill="#FFF0E4"/>
<path d="M18.2054 601.452H784.653V592.091H18.2054V601.452Z" fill="#273A5F"/>
<path d="M142.824 136.945L399.003 35.2979L673.07 136.945H142.824Z" fill="#FFF0E4"/>
<path d="M63.3927 158.973V169.324L735.524 174.101V158.973H63.3927Z" fill="#FFF0E4"/>
<path d="M63.3927 191.352L47.6278 199.048V230.63H752.198V205.948L740.981 196.314L63.3927 191.352Z" fill="#FFF0E4"/>
<path fill-rule="evenodd" clip-rule="evenodd" d="M399.003 0L17.917 136.945L36.1073 158.973H63.3927H735.524H777.058L786.153 136.945L399.003 0ZM399.003 35.2979L142.824 136.945H673.07L399.003 35.2979Z" fill="#273A5F"/>
<path d="M735.524 174.101L63.3927 169.324H47.6278V191.352H63.3927L740.981 196.314L752.198 196.394V174.101H735.524Z" fill="#273A5F"/>
<path d="M752.198 230.63H47.6278V239.654H752.198V230.63Z" fill="#273A5F"/>
</svg>
