<svg width="1276" height="1024" viewBox="0 0 1276 1024" fill="none" xmlns="http://www.w3.org/2000/svg">
<path d="M118.392 366.898H1162.74L1144.45 593.885L1162.74 812.418L1164.19 834.398H118.392V366.898Z" fill="#273A5F"/>
<path d="M403.844 435.43L414.459 452.93L418.544 808.632H540.472L534.117 452.93L542.802 435.43H403.844Z" fill="#FFF0E4"/>
<path d="M569.822 382.115H380.202L397.347 420.778H550.227L569.822 382.115Z" fill="#FFF0E4"/>
<path d="M397.347 420.778L403.844 435.43H542.802L550.227 420.778H397.347Z" fill="#273A5F"/>
<path d="M418.802 831.016H540.872L540.472 808.632H418.544L418.802 831.016Z" fill="#273A5F"/>
<path d="M103.532 435.43L114.147 452.93L118.232 808.632H240.16L233.805 452.93L242.49 435.43H103.532Z" fill="#FFF0E4"/>
<path d="M269.509 382.115H79.8896L97.0347 420.778H249.915L269.509 382.115Z" fill="#FFF0E4"/>
<path d="M97.0347 420.778L103.532 435.43H242.49L249.915 420.778H97.0347Z" fill="#273A5F"/>
<path d="M118.489 831.016H240.56L240.16 808.632H118.232L118.489 831.016Z" fill="#273A5F"/>
<path d="M1025.76 434.585L1036.43 452.085L1040.54 807.787H1163.08L1156.7 452.085L1165.43 434.585H1025.76Z" fill="#FFF0E4"/>
<path d="M1192.58 381.27H1002L1019.23 419.933H1172.89L1192.58 381.27Z" fill="#FFF0E4"/>
<path d="M1019.23 419.933L1025.76 434.585H1165.43L1172.89 419.933H1019.23Z" fill="#273A5F"/>
<path d="M1040.8 830.171H1163.49L1163.08 807.787H1040.54L1040.8 830.171Z" fill="#273A5F"/>
<path d="M908.633 382.115H719.014L736.159 420.778H889.039L908.633 382.115Z" fill="#FFF0E4"/>
<path d="M742.656 435.43L753.271 452.93L757.356 808.632H879.284L872.929 452.93L881.614 435.43H742.656Z" fill="#FFF0E4"/>
<path d="M736.159 420.778L742.656 435.43H881.614L889.039 420.778H736.159Z" fill="#273A5F"/>
<path d="M757.613 831.016H879.684L879.284 808.632H757.356L757.613 831.016Z" fill="#273A5F"/>
<path d="M1171.41 834.398H99.1411V882.585H1171.41V834.398Z" fill="#FFF0E4"/>
<path d="M1244.56 954.866H28.8761H0V1023.76H1275.36V954.866H1244.56Z" fill="#FFF0E4"/>
<path d="M1171.41 882.585H99.1411H54.8645V898.647H1222.9V882.585H1171.41Z" fill="#273A5F"/>
<path fill-rule="evenodd" clip-rule="evenodd" d="M54.8645 898.647H1222.9H1244.56V940.071H28.8761V898.647H54.8645Z" fill="#FFF0E4"/>
<path d="M28.8761 954.866H1244.56V940.071H28.8761V954.866Z" fill="#273A5F"/>
<path d="M226.197 218.11L632.868 56.2183L1067.93 218.11H226.197Z" fill="#FFF0E4"/>
<path d="M100.105 253.194V269.679L1167.08 277.287V253.194H100.105Z" fill="#FFF0E4"/>
<path d="M100.105 304.762L75.0793 317.021V367.321H1193.55V328.011L1175.74 312.666L100.105 304.762Z" fill="#FFF0E4"/>
<path fill-rule="evenodd" clip-rule="evenodd" d="M632.868 0L27.915 218.11L56.7911 253.194H100.105H1167.08H1233.01L1247.45 218.11L632.868 0ZM632.868 56.2183L226.197 218.11H1067.93L632.868 56.2183Z" fill="#273A5F"/>
<path d="M1167.08 277.287L100.105 269.679H75.0793V304.762H100.105L1175.74 312.666L1193.55 312.794V277.287H1167.08Z" fill="#273A5F"/>
<path d="M1193.55 367.321H75.0793V381.693H1193.55V367.321Z" fill="#273A5F"/>
</svg>
