<svg width="1237" height="993" viewBox="0 0 1237 993" fill="none" xmlns="http://www.w3.org/2000/svg">
<path d="M114.807 355.788H1127.53L1109.8 575.902L1127.53 787.818L1128.93 809.132H114.807V355.788Z" fill="#273A5F"/>
<path d="M391.616 422.245L401.909 439.215L405.871 784.147H524.106L517.944 439.215L526.366 422.245H391.616Z" fill="#FFF0E4"/>
<path d="M552.567 370.544H368.689L385.315 408.037H533.566L552.567 370.544Z" fill="#FFF0E4"/>
<path d="M385.315 408.037L391.616 422.245H526.366L533.566 408.037H385.315Z" fill="#273A5F"/>
<path d="M406.12 805.853H524.494L524.106 784.147H405.871L406.12 805.853Z" fill="#273A5F"/>
<path d="M100.397 422.245L110.69 439.215L114.652 784.147H232.888L226.725 439.215L235.147 422.245H100.397Z" fill="#FFF0E4"/>
<path d="M261.348 370.544H77.4707L94.0966 408.037H242.347L261.348 370.544Z" fill="#FFF0E4"/>
<path d="M94.0966 408.037L100.397 422.245H235.147L242.347 408.037H94.0966Z" fill="#273A5F"/>
<path d="M114.901 805.853H233.275L232.888 784.147H114.652L114.901 805.853Z" fill="#273A5F"/>
<path d="M994.7 421.425L1005.05 438.396L1009.03 783.327H1127.86L1121.67 438.396L1130.13 421.425H994.7Z" fill="#FFF0E4"/>
<path d="M1156.47 369.725H971.657L988.368 407.218H1137.37L1156.47 369.725Z" fill="#FFF0E4"/>
<path d="M988.368 407.218L994.7 421.425H1130.13L1137.37 407.218H988.368Z" fill="#273A5F"/>
<path d="M1009.28 805.033H1128.25L1127.86 783.327H1009.03L1009.28 805.033Z" fill="#273A5F"/>
<path d="M881.119 370.544H697.241L713.867 408.037H862.118L881.119 370.544Z" fill="#FFF0E4"/>
<path d="M720.167 422.245L730.461 439.215L734.422 784.147H852.658L846.496 439.215L854.917 422.245H720.167Z" fill="#FFF0E4"/>
<path d="M713.867 408.037L720.167 422.245H854.917L862.118 408.037H713.867Z" fill="#273A5F"/>
<path d="M734.672 805.853H853.046L852.658 784.147H734.422L734.672 805.853Z" fill="#273A5F"/>
<path d="M1135.93 809.132H96.1391V855.86H1135.93V809.132Z" fill="#FFF0E4"/>
<path d="M1206.87 925.952H28.0017H0V992.765H1236.74V925.952H1206.87Z" fill="#FFF0E4"/>
<path d="M1135.93 855.86H96.1391H53.2032V871.436H1185.87V855.86H1135.93Z" fill="#273A5F"/>
<path fill-rule="evenodd" clip-rule="evenodd" d="M53.2032 871.436H1185.87H1206.87V911.606H28.0017V871.436H53.2032Z" fill="#FFF0E4"/>
<path d="M28.0017 925.952H1206.87V911.606H28.0017V925.952Z" fill="#273A5F"/>
<path d="M219.348 211.506L613.704 54.516L1035.6 211.506H219.348Z" fill="#FFF0E4"/>
<path d="M97.0735 245.527V261.513L1131.74 268.891V245.527H97.0735Z" fill="#FFF0E4"/>
<path d="M97.0735 295.534L72.8054 307.421V356.199H1157.4V318.078L1140.14 303.198L97.0735 295.534Z" fill="#FFF0E4"/>
<path fill-rule="evenodd" clip-rule="evenodd" d="M613.704 0L27.0693 211.506L55.071 245.527H97.0735H1131.74H1195.67L1209.67 211.506L613.704 0ZM613.704 54.516L219.348 211.506H1035.6L613.704 54.516Z" fill="#273A5F"/>
<path d="M1131.74 268.891L97.0735 261.513H72.8054V295.534H97.0735L1140.14 303.198L1157.4 303.322V268.891H1131.74Z" fill="#273A5F"/>
<path d="M1157.4 356.199H72.8054V370.135H1157.4V356.199Z" fill="#273A5F"/>
</svg>
