<svg width="839" height="710" viewBox="0 0 839 710" fill="none" xmlns="http://www.w3.org/2000/svg">
<path d="M303.523 639.755C285.629 653.86 237.922 675.23 190.246 647.865C199.034 481.878 194.945 387.391 159.702 214.452C180.573 198.331 232.448 174.141 272.979 206.341C261.452 384.988 269.208 479.457 303.523 639.755Z" fill="#FFECC2"/>
<path d="M300.124 622.169L374.232 621.102L402.654 605.218L424.119 620.383L908.172 613.412L925.387 597.689L913.376 224.644L678.037 228.034L678.746 250.055L653.817 228.383L260.14 234.053L196.026 478.106L300.124 622.169Z" fill="#FFECC2"/>
<path d="M190.124 648.785C191.328 620.51 214.911 602.344 240.404 599.298C266.052 596.233 294.123 608.367 304.505 640.855L299.898 642.176C290.308 612.167 264.69 601.126 241.071 603.948C217.296 606.789 196.03 623.574 194.945 649.055L190.124 648.785ZM196.967 651.354C199.458 644.294 204.036 636.111 210.197 628.851C216.353 621.597 224.204 615.128 233.301 611.697C242.469 608.239 252.83 607.901 263.73 612.84C274.554 617.744 285.703 627.754 296.773 644.595L292.718 647.069C281.943 630.677 271.43 621.466 261.749 617.08C252.145 612.729 243.159 613.033 235.112 616.068C226.995 619.13 219.762 625.005 213.941 631.865C208.125 638.719 203.833 646.422 201.534 652.937L196.967 651.354ZM213.685 645.041C214.757 641.066 217.939 637.005 222.166 633.635C226.442 630.227 232.013 627.341 238.221 625.835C250.768 622.791 265.879 625.424 277.845 640.482L279.474 642.532L277.248 643.885C247.391 662.025 223.572 653.195 214.73 647.628L213.239 646.69L213.685 645.041ZM218.959 644.676C227.472 649.322 247.247 655.427 272.321 641.261C261.995 629.673 249.746 627.887 239.463 630.382C233.968 631.714 229.026 634.279 225.265 637.276C222.193 639.725 220.052 642.346 218.959 644.676Z" fill="#273A5F"/>
<path d="M270.023 444.296C263.473 372.57 261.742 294.816 272.651 232.424L277.974 233.384C267.181 295.118 268.865 372.346 275.401 443.919C281.934 515.457 293.295 581.161 301.763 619.761L296.483 620.773C287.972 581.972 276.576 516.057 270.023 444.296Z" fill="#283859"/>
</svg>
