<svg width="499" height="596" viewBox="0 0 499 596" fill="none" xmlns="http://www.w3.org/2000/svg">
<path d="M468.014 85.8033L43.2504 79.5639C61.3233 303.89 56.4238 419.831 35.3332 618.546L394.46 623.821L406.338 566.848L460.78 578.269C453.073 388.796 453.982 281.147 468.014 85.8033Z" fill="#FFECC2"/>
<path d="M406.338 566.848L394.46 623.821L460.78 578.269L406.338 566.848Z" fill="#DCCAA2"/>
<path d="M43.2504 79.5639L468.014 85.8033L482.618 86.0178C494.892 86.0942 497.727 83.9628 497.355 77.244C496.189 58.1913 496.217 46.0376 498.193 20.1713C499.075 8.99805 494.7 7.1412 483.42 6.98236L28.2614 0.296414C14.3316 0.297202 10.8572 3.56197 8.89929 12.9839C13.3639 33.8742 14.1016 45.9714 8.07422 69.1524C9.5109 74.7726 11.4507 76.6135 18.6766 79.2029L43.2504 79.5639Z" fill="#FFECC2"/>
<path d="M469.926 91.7311L41.2791 85.345L41.3735 78.9196L470.021 85.3058L469.926 91.7311Z" fill="#273A5F"/>
</svg>
