<svg width="306" height="320" viewBox="0 0 306 320" fill="none" xmlns="http://www.w3.org/2000/svg">
<path d="M133.847 81.8407C137.739 87.8773 154.052 113.535 162.114 125.271C160.942 125.785 159.789 126.319 158.657 126.872L130.076 84.2756C131.067 83.671 132.849 82.4089 133.847 81.8407Z" fill="#E74155"/>
<path d="M116.115 164.483C115.243 166.212 114.4 166.8 113.84 168.21L73.6843 147.41C74.0647 145.686 74.9637 144.774 75.4169 143.045L116.115 164.483Z" fill="#E74155"/>
<path d="M67.5616 218.518L105.814 210.59C105.591 212.534 105.335 214.108 105.141 216.051L67.5656 223.979C67.3831 222.362 67.6978 220.178 67.5616 218.518Z" fill="#E74155"/>
<path d="M95.0354 117.09L131.511 144.363C127.825 147.862 120.008 156.765 116.115 164.483L75.4169 143.045C79.5216 127.379 83.5839 131.884 95.0354 117.09Z" fill="#E74155"/>
<path d="M105.834 238.717L75.5114 249.487C71.2874 239.825 69.4263 240.468 67.5656 223.979L105.141 216.051C105.148 226.089 105.829 232.113 105.834 238.717Z" fill="#E74155"/>
<path d="M109.497 100.168C116.099 93.8451 122.996 88.5919 130.076 84.2756L158.657 126.872C150.161 131.018 142.46 134.013 135.305 140.318L98.1802 112.165C101.357 108.356 105.701 103.804 109.497 100.168Z" fill="#E74155"/>
<path d="M182.984 120.874C178.743 121.048 178.69 121.142 172.85 122.13C169.358 122.72 164.657 124.156 162.114 125.271C154.052 113.535 137.739 87.8773 133.847 81.8407C148.45 73.5319 162.184 70.1959 177.233 68.451L182.984 120.874Z" fill="#E74155"/>
<path d="M182.048 67.6034C202.543 65.8685 221.556 68.4056 238.315 73.5011L215.333 124.244C206.984 122.191 197.609 120.806 187.654 120.783L182.048 67.6034Z" fill="#E74155"/>
<path d="M67.5656 223.979C69.4263 240.468 71.2874 239.825 75.5114 249.487L21.4118 268.237C14.7438 252.818 11.6057 252.815 9.49239 235.494L67.5656 223.979Z" fill="#E74155"/>
<path d="M95.0354 117.09C83.5839 131.884 79.5216 127.379 75.4169 143.045L12.0327 105.399C20.6651 81.9246 24.4895 78.8862 35.0052 68.3489L95.0354 117.09Z" fill="#E74155"/>
<path d="M130.076 84.2756C122.996 88.5919 116.099 93.8451 109.497 100.168C105.701 103.804 101.357 108.356 98.1802 112.165L39.6658 62.4939C53.113 45.1292 69.439 32.1612 88.3636 22.9166L130.076 84.2756Z" fill="#E74155"/>
<path d="M177.233 68.451C162.184 70.1959 148.45 73.5319 133.847 81.8407L94.6379 19.7145C118.015 8.97121 141.347 5.51549 168.047 5.2141L177.233 68.451Z" fill="#E74155"/>
<path d="M238.315 73.5011C221.556 68.4056 202.543 65.8685 182.048 67.6034L173.257 5.2158C204.268 5.58407 235.595 12.3188 263.3 24.0755L238.315 73.5011Z" fill="#E74155"/>
<path d="M275.666 93.6246C262.588 84.899 263.567 84.8234 242.272 75.0839L268.118 26.1873C281.323 32.1623 293.624 39.2965 304.575 47.4372L275.666 93.6246Z" fill="#E74155"/>
<path d="M133.847 81.8407C132.849 82.4089 131.067 83.671 130.076 84.2756L88.3636 22.9166C89.4586 22.3817 93.5295 20.224 94.6379 19.7145L133.847 81.8407Z" fill="#E74155"/>
<path d="M75.4169 143.045C74.9637 144.774 74.0647 145.686 73.6843 147.41L9.97884 115.517C10.1561 113.619 10.7059 109.718 12.0327 105.399L75.4169 143.045Z" fill="#E74155"/>
<path d="M67.5616 218.518C67.6978 220.178 67.3831 222.362 67.5656 223.979L9.49239 235.494C9.15934 233.588 8.84304 231.695 8.54323 229.816L67.5616 218.518Z" fill="#E74155"/>
<path fill-rule="evenodd" clip-rule="evenodd" d="M69.5328 177.045C70.7199 165.205 72.2388 153.964 73.6843 147.41L9.97884 115.517C9.65019 119.036 6.45324 123.725 5.8663 129.254C4.96407 137.754 5.87715 144.166 5.88536 155.457L69.5328 177.045ZM69.0516 182.078C67.7206 196.704 66.9747 211.364 67.5616 218.518L8.54323 229.816C6.1834 215.029 3.78957 188.236 5.8915 163.872L69.0516 182.078Z" fill="#E74155"/>
<path fill-rule="evenodd" clip-rule="evenodd" d="M113.84 168.21L73.6843 147.41C72.2388 153.964 70.7199 165.205 69.5328 177.045L109.562 189.452C110.217 186.201 110.88 182.982 111.487 180.032L111.488 180.03C112.565 174.798 113.468 170.415 113.84 168.21ZM108.681 193.876C107.396 200.426 106.262 206.66 105.814 210.59L67.5616 218.518C66.9747 211.364 67.7206 196.704 69.0516 182.078C69.2046 180.396 69.3654 178.714 69.5328 177.045L69.0516 182.078L108.681 193.876Z" fill="#E74155"/>
<path d="M242.272 75.0839C241.246 74.7496 239.366 73.8208 238.315 73.5011L263.3 24.0755C264.919 24.7624 266.525 25.4664 268.118 26.1873L242.272 75.0839Z" fill="#E74155"/>
<path d="M275.666 93.6246C268.879 102.361 257.604 120.75 247.373 137.457C241.972 133.847 231.982 128.846 219.208 125.264L242.272 75.0839C263.567 84.8234 262.588 84.899 275.666 93.6246Z" fill="#E74155"/>
<path d="M238.315 73.5011C239.366 73.8208 241.246 74.7496 242.272 75.0839L219.208 125.264C217.943 124.909 216.651 124.568 215.333 124.244L238.315 73.5011Z" fill="#E74155"/>
<path d="M264.026 174.109L188.878 216.809C187.083 218.678 186.458 223.379 198.321 227.232C213.149 232.048 220.158 257.761 194.344 264.084C195.127 273.735 192.508 295.655 175.768 306.123C159.028 316.591 132.286 309.33 121.008 304.391C131.219 298.355 150.565 281.86 146.256 264.162C142.143 253.411 133.627 230.749 132.47 226.108C131.023 220.308 124.133 183.858 155.918 156.73C187.703 129.602 252.792 151.588 264.026 174.109Z" fill="#273A5F"/>
<path d="M290.065 229.92C286.127 215.871 276.371 186.136 268.847 179.59L195.734 219.721C210.674 217.499 238.872 256.358 199.341 270.88C197.486 288.511 230.036 321.479 283.694 318.913L273.556 251.031C261.58 252.179 237.976 250.31 239.366 233.645C241.105 212.813 285.894 224.46 290.065 229.92Z" fill="#273A5F"/>
<path d="M242.028 148.69C231.001 141.521 201.155 129.845 169.524 138.192C139.053 151.112 126.161 175.717 124.797 183.453C122.716 196.743 119.013 224.639 120.845 229.897L120.725 233.729L105.834 238.717C105.829 232.113 105.148 226.089 105.141 216.051C105.335 214.108 105.591 212.534 105.814 210.59C106.262 206.66 107.396 200.426 108.681 193.876C108.969 192.41 109.265 190.928 109.562 189.452C110.217 186.201 110.88 182.982 111.487 180.032L111.488 180.03C112.565 174.798 113.468 170.415 113.84 168.21C114.4 166.8 115.243 166.212 116.115 164.483C120.008 156.765 127.825 147.862 131.511 144.363C132.459 143.463 134.301 141.203 135.305 140.318C142.46 134.013 150.161 131.018 158.657 126.872C159.789 126.319 160.942 125.785 162.114 125.271C164.657 124.156 169.358 122.72 172.85 122.13C178.69 121.142 178.743 121.048 182.984 120.874C184.553 120.809 186.111 120.78 187.654 120.783C197.609 120.806 206.984 122.191 215.333 124.244C216.651 124.568 217.943 124.909 219.208 125.264C231.982 128.846 241.972 133.847 247.373 137.457C245.14 141.102 243.299 144.867 242.028 148.69Z" fill="#273A5F"/>
<path d="M187.654 120.783C186.111 120.78 184.553 120.809 182.984 120.874L177.233 68.451C178.578 68.2951 180.707 67.7169 182.048 67.6034L187.654 120.783Z" fill="#273A5F"/>
<path d="M182.048 67.6034C180.707 67.7169 178.578 68.2951 177.233 68.451L168.047 5.2141C169.782 5.19452 171.519 5.19516 173.257 5.2158L182.048 67.6034Z" fill="#273A5F"/>
<path d="M98.1802 112.165L135.305 140.318C134.301 141.203 132.459 143.463 131.511 144.363L95.0354 117.09C96.0066 115.835 97.1466 113.404 98.1802 112.165Z" fill="#273A5F"/>
<path d="M98.1802 112.165C97.1466 113.404 96.0066 115.835 95.0354 117.09L35.0052 68.3489C36.8182 64.4091 38.7151 63.7216 39.6658 62.4939L98.1802 112.165Z" fill="#273A5F"/>
<path d="M109.562 189.452C109.265 190.928 108.969 192.41 108.681 193.876L69.0516 182.078L69.5328 177.045L109.562 189.452Z" fill="#273A5F"/>
<path d="M5.8915 163.872C6.05811 161.94 5.71156 157.358 5.88536 155.457L69.5328 177.045C69.3654 178.714 69.2046 180.396 69.0516 182.078L5.8915 163.872Z" fill="#273A5F"/>
<path d="M38.2775 246.5L35.1187 247.164C34.9828 246.697 34.8736 246.184 34.7912 245.625C34.963 245.57 35.7891 245.317 37.2697 244.866C38.7293 244.402 39.6051 244.124 39.897 244.031L41.1506 249.923C41.5249 251.768 41.7855 253.036 41.9323 253.726C41.9963 254.027 42.1423 254.67 42.3703 255.656C42.5773 256.629 42.6997 257.204 42.7373 257.381C42.3976 257.508 42.0714 257.611 41.7585 257.692L41.1787 255.354C39.9787 255.66 37.4126 256.437 33.4802 257.687C29.5477 258.936 27.1216 259.726 26.2019 260.056L26.6014 262.451C26.2961 262.567 25.9698 262.671 25.6226 262.762C25.585 262.585 25.4674 261.99 25.27 260.976C25.0554 259.967 24.9162 259.312 24.8522 259.012L24.0359 255.304C24.3755 255.177 24.7018 255.074 25.0147 254.993L25.6372 257.402C27.0051 257.024 29.4234 256.284 32.8922 255.182C36.7044 253.971 39.2335 253.148 40.4796 252.715L39.305 247.194C39.1846 246.628 38.8421 246.397 38.2775 246.5Z" fill="white"/>
<path d="M21.7865 238.267L22.3104 240.675C23.6941 240.356 26.1597 239.717 29.7074 238.757C33.6724 237.684 36.2691 236.963 37.4973 236.593L37.1348 234.17C37.4445 234.067 37.775 233.978 38.126 233.901C38.4482 235.757 38.6729 237.031 38.8003 237.725C38.8558 238.028 38.9836 238.675 39.1838 239.667C39.3634 240.645 39.4695 241.224 39.5022 241.401C39.1576 241.513 38.8272 241.603 38.5109 241.67L37.9919 239.289C36.7789 239.542 34.1812 240.208 30.1987 241.286C26.1989 242.368 23.7327 243.054 22.8001 243.344L23.1626 245.767C22.8528 245.87 22.5224 245.959 22.1714 246.036C22.1387 245.858 22.038 245.259 21.8693 244.24C21.6832 243.226 21.5624 242.568 21.5069 242.265L20.7952 238.536C21.1398 238.424 21.4702 238.334 21.7865 238.267Z" fill="white"/>
<path d="M22.768 219.704L20.3623 220.39C19.9776 220.492 19.7181 220.64 19.5837 220.836C19.4494 221.031 19.3663 221.326 19.3345 221.721C19.298 222.449 19.3775 223.466 19.573 224.772C19.8648 226.723 20.7437 228.223 22.2095 229.273C23.6754 230.322 25.6848 230.571 28.2379 230.019C29.5936 229.726 30.7777 229.257 31.7902 228.614C32.7823 227.956 33.5282 227.231 34.0278 226.44C34.5247 225.63 34.8754 224.815 35.0799 223.995C35.2667 223.179 35.3039 222.395 35.1915 221.644C34.9505 220.034 34.5883 218.828 34.105 218.028C31.9921 218.485 30.1461 218.902 28.5668 219.281L28.9471 222.551C28.6328 222.637 28.2983 222.71 27.9435 222.768C27.9167 222.589 27.8157 221.854 27.6406 220.562C27.4478 219.273 27.3286 218.477 27.2831 218.173L26.8149 215.226C27.1644 215.132 27.4989 215.06 27.8185 215.009L28.1468 216.656C29.5458 216.409 31.7771 215.954 34.8407 215.292L35.1403 217.111C35.2103 217.336 35.3356 217.688 35.5162 218.166C35.6941 218.626 35.8336 219.011 35.9346 219.322C36.0506 219.611 36.1644 219.947 36.2761 220.329C36.3879 220.711 36.4651 221.045 36.508 221.331C36.9364 224.194 36.4868 226.656 35.1592 228.716C33.8289 230.759 31.8256 232.069 29.1493 232.648C26.297 233.265 23.8856 232.881 21.9154 231.497C19.9248 230.099 18.7099 227.933 18.2708 224.998C18.1771 224.372 18.128 223.376 18.1236 222.01C18.1165 220.626 18.1003 219.789 18.075 219.499L17.9643 218.941C18.2636 218.877 19.0559 218.705 20.3413 218.427C21.6063 218.135 22.3268 217.97 22.5029 217.932C22.55 218.125 22.603 218.419 22.6619 218.812C22.7234 219.224 22.7588 219.521 22.768 219.704Z" fill="white"/>
<path d="M16.2084 193.656L16.5047 196.079C17.9225 195.966 20.4558 195.693 24.1046 195.26C28.1827 194.776 30.8551 194.441 32.1218 194.254L31.9889 191.839C32.3092 191.783 32.6491 191.742 33.0084 191.718C33.1568 193.594 33.2622 194.884 33.3245 195.587C33.3517 195.893 33.419 196.55 33.5265 197.557C33.6144 198.548 33.6664 199.134 33.6824 199.314C33.3262 199.375 32.9864 199.415 32.6628 199.435L32.3641 196.985C30.8374 197.093 28.3211 197.355 24.8154 197.771C24.8618 198.293 24.9281 199.041 25.0145 200.015C25.0814 200.972 25.1348 201.676 25.1747 202.126C25.2163 202.595 25.2884 203.306 25.3911 204.259C25.4742 205.196 25.5382 205.917 25.5829 206.421C29.4285 205.965 31.9399 205.649 33.1172 205.473L32.9794 203.004C33.2998 202.947 33.6396 202.907 33.9989 202.883C34.1474 204.759 34.2527 206.049 34.3151 206.752C34.3423 207.058 34.4096 207.715 34.517 208.722C34.605 209.713 34.6569 210.299 34.6729 210.479C34.3168 210.539 33.9769 210.58 33.6534 210.6L33.3594 208.203C32.1189 208.278 29.4506 208.558 25.3547 209.044C21.2408 209.532 18.7026 209.851 17.7399 210.001L17.8729 212.417C17.5525 212.473 17.2127 212.513 16.8534 212.538C16.8374 212.358 16.7928 211.753 16.7195 210.723C16.6284 209.696 16.5692 209.029 16.542 208.723L16.1794 204.942C16.5355 204.881 16.8754 204.841 17.1989 204.821L17.5001 207.298C18.7927 207.199 21.1024 206.953 24.4293 206.558C24.3624 205.601 24.2434 204.158 24.0723 202.23C23.9028 200.319 23.766 198.879 23.6618 197.908C19.9235 198.351 17.6178 198.643 16.7446 198.783L16.8823 201.252C16.562 201.309 16.2221 201.349 15.8628 201.373C15.8468 201.193 15.8022 200.588 15.7289 199.559C15.6378 198.532 15.5786 197.865 15.5515 197.558L15.1888 193.777C15.545 193.716 15.8848 193.676 16.2084 193.656Z" fill="white"/>
<path d="M33.0165 178.105C32.9802 180.565 32.9594 182.148 32.9541 182.853C32.9518 183.161 32.9551 183.93 32.9639 185.161C32.9548 186.391 32.9495 187.097 32.9482 187.278C32.5881 187.284 32.2461 187.272 31.9222 187.242L31.8104 184.116C30.569 184.001 27.9053 183.871 23.8194 183.728C19.7695 183.586 17.2314 183.516 16.2052 183.516L16.2323 187.127C16.2306 187.363 16.3736 187.503 16.6613 187.55L20.0888 187.86C20.1057 188.005 20.1127 188.277 20.1097 188.675C20.1068 189.073 20.0957 189.353 20.0765 189.515C19.8965 189.509 19.0685 189.48 17.5925 189.428C16.0987 189.358 15.1988 189.317 14.8928 189.307L15.0147 187.438L15.0817 182.065L15.0947 176.691L15.0007 174.814C15.3067 174.825 16.2066 174.856 17.7006 174.909C19.1767 174.942 20.0048 174.962 20.1848 174.968C20.2015 175.132 20.2085 175.413 20.2055 175.811C20.2025 176.209 20.1915 176.48 20.1724 176.624L16.6339 176.717C16.4179 176.71 16.309 176.833 16.3071 177.086L16.2524 180.803C17.674 180.907 20.1847 181.022 23.7846 181.148C27.8705 181.291 30.5526 181.367 31.8308 181.375L31.9905 178.069C32.3146 178.062 32.6566 178.074 33.0165 178.105Z" fill="white"/>
<path d="M15.3303 146.454L15.5067 143.098C15.5965 141.39 15.9829 140.086 16.6659 139.188C17.3497 138.274 18.3255 137.851 19.5935 137.918C20.3511 137.958 21.0086 138.281 21.566 138.887C22.1242 139.477 22.5078 140.144 22.7168 140.887C22.9538 139.919 23.4325 139.072 24.1529 138.347C24.874 137.606 25.7604 137.264 26.8118 137.319C28.2808 137.397 29.3806 138.009 30.1112 139.153C30.8418 140.298 31.1503 141.95 31.0368 144.109C31.0246 144.342 30.9838 144.823 30.9145 145.552C30.8452 146.28 30.7975 146.893 30.7714 147.39C30.7689 147.436 30.7493 147.957 30.7125 148.952C30.6602 149.946 30.6202 150.708 30.5924 151.236C30.1115 151.241 29.6708 151.218 29.2704 151.166L29.3061 149.158C28.1953 149.052 26.0317 148.914 22.8155 148.744L19.7307 148.58C18.0608 148.491 17.0243 148.444 16.6215 148.438C16.6101 148.656 16.5917 149.005 16.5664 149.487C16.5256 149.968 16.4934 150.285 16.4698 150.44C16.097 150.451 15.872 150.455 15.7947 150.451C15.7638 150.449 15.5327 150.421 15.1013 150.367C15.1381 149.668 15.1891 148.845 15.2544 147.898C15.3042 146.951 15.3295 146.469 15.3303 146.454ZM29.5133 144.332C29.5688 143.276 29.3456 142.509 28.8435 142.03C28.3268 141.536 27.6742 141.267 26.8856 141.225C24.8291 141.116 23.7457 142.11 23.6354 144.207L23.6171 144.557C23.6048 144.79 23.6036 144.961 23.6133 145.071C26.6131 145.23 28.5463 145.325 29.413 145.355C29.4562 145.124 29.4896 144.783 29.5133 144.332ZM16.969 144.041L16.9359 144.67C17.8156 144.748 19.5698 144.856 22.1985 144.996C22.2197 144.888 22.236 144.725 22.2474 144.508L22.2621 144.228C22.2964 143.576 22.1008 143.02 21.6752 142.561C21.2505 142.087 20.6361 141.828 19.832 141.786C18.9197 141.737 18.2284 141.911 17.7579 142.307C17.272 142.701 17.009 143.279 16.969 144.041Z" fill="white"/>
<path d="M17.791 125.428C18.0315 124.366 18.4168 123.402 18.9469 122.534C19.477 121.666 20.1298 120.922 20.9056 120.301C21.6813 119.681 22.6096 119.263 23.6907 119.048C24.7566 118.829 25.8935 118.857 27.1013 119.133C29.6227 119.71 31.4346 120.93 32.537 122.793C33.6244 124.653 33.9069 126.735 33.3847 129.041C33.1511 130.072 32.7843 131.025 32.2844 131.9C31.7729 132.756 31.1409 133.513 30.3885 134.171C29.6396 134.813 28.7211 135.257 27.6332 135.503C26.5337 135.73 25.3422 135.697 24.0589 135.404C21.6885 134.862 19.9219 133.653 18.7591 131.776C17.5846 129.88 17.2619 127.764 17.791 125.428ZM31.959 128.5C32.2339 127.286 31.9421 126.191 31.0838 125.213C30.2138 124.216 28.7219 123.476 26.6082 122.993C25.7778 122.803 24.983 122.701 24.224 122.687C23.4649 122.673 22.7398 122.755 22.0486 122.932C21.3423 123.105 20.741 123.446 20.2447 123.955C19.7518 124.449 19.416 125.09 19.2373 125.878C18.9212 127.274 19.2562 128.459 20.2422 129.434C21.2281 130.41 22.6572 131.111 24.5294 131.539C26.5827 132.009 28.2625 131.954 29.5688 131.375C30.8599 130.793 31.6566 129.834 31.959 128.5Z" fill="white"/>
<path d="M36.7506 110.306L34.2504 109.111C34.3698 108.774 34.5256 108.367 34.7176 107.892C34.898 107.445 35.0564 107.073 35.193 106.776L39.9969 108.783C39.8514 109.144 39.6261 109.681 39.3208 110.396C39.0357 111.103 38.8204 111.636 38.6749 111.996C38.2125 113.101 37.5304 114.77 36.6285 117.004C36.611 117.047 36.4262 117.526 36.074 118.44C35.7132 119.334 35.4223 120.055 35.2012 120.602C34.7447 120.45 34.3357 120.283 33.9743 120.103L34.669 118.195C33.6475 117.745 31.6445 116.913 28.6598 115.697L22.9775 113.382L22.132 115.228C21.776 115.117 21.5621 115.046 21.4904 115.017C21.4617 115.005 21.2523 114.903 20.8621 114.711C21.0192 114.322 21.3028 113.64 21.7128 112.665C22.1143 111.671 22.3267 111.145 22.35 111.087L23.7947 107.445C24.2512 107.598 24.6673 107.767 25.0431 107.954L24.3827 109.901C25.4472 110.368 27.3284 111.151 30.026 112.25C32.9676 113.448 34.9364 114.242 35.9323 114.631L37.1892 111.517C37.4219 110.94 37.2757 110.537 36.7506 110.306Z" fill="white"/>
<path d="M43.8602 102.449C43.8101 102.528 43.5405 102.908 43.0512 103.591C42.5833 104.269 42.1802 104.86 41.8421 105.362C41.8087 105.415 41.5235 105.878 40.9864 106.751C40.4445 107.603 40.0485 108.226 39.7985 108.619C39.3773 108.386 39.0054 108.147 38.6828 107.903L39.7119 106.155C38.7974 105.513 36.9831 104.321 34.269 102.579C31.4505 100.77 29.7043 99.6583 29.0305 99.2443C28.9138 99.4278 28.7262 99.7228 28.4678 100.129C28.1963 100.527 28.0082 100.794 27.9035 100.93C27.5737 100.755 27.3761 100.647 27.3109 100.605C27.2848 100.588 27.0974 100.449 26.7487 100.189C27.1655 99.5333 27.5781 98.8844 27.9866 98.2421L28.6314 97.2715C29.5567 95.8164 30.2129 94.77 30.6 94.1325C32.2708 91.4761 34.0771 89.8204 36.0188 89.1652C37.9604 88.5101 39.9686 88.8483 42.0434 90.1799C42.9829 90.7829 43.7548 91.4905 44.359 92.3029C44.9632 93.1152 45.3957 94.0388 45.6563 95.0737C45.9039 96.1001 45.8811 97.2484 45.5879 98.5185C45.2947 99.7886 44.7188 101.099 43.8602 102.449ZM42.4667 101.693C43.492 100.081 43.7874 98.5905 43.3528 97.2225C42.9181 95.8544 41.8853 94.647 40.2542 93.6002C38.4796 92.4613 36.8652 92.0528 35.411 92.3747C33.9568 92.6966 32.7671 93.5851 31.8418 95.0402L31.1416 96.1413L38.4227 100.814C39.9103 101.769 40.991 102.453 41.6648 102.867C42.041 102.334 42.3083 101.942 42.4667 101.693Z" fill="white"/>
<path d="M72.5183 50.8829L71.119 52.4458C72.0797 53.4166 73.6422 54.9708 75.8063 57.1083C77.8048 59.0823 79.2732 60.5218 80.2115 61.4268L81.6779 60.0283C81.9756 60.2788 82.2682 60.5678 82.5557 60.8953C81.3179 62.1378 80.4982 62.9643 80.0965 63.3747C80.0423 63.4302 79.7058 63.785 79.0872 64.4393C78.4576 65.0826 77.9691 65.5818 77.6217 65.9367C77.2908 65.6536 76.9982 65.3646 76.7439 65.0697L77.8341 63.856L71.058 56.9013L75.8007 68.1302L74.6934 69.2616L63.0627 65.0707C63.1731 65.1797 63.7528 65.7523 64.8017 66.7883C65.8504 67.8024 66.43 68.3639 66.5404 68.473L69.8031 71.6957L71.8751 70.0446C72.162 70.3061 72.4545 70.5951 72.7528 70.9116C71.7648 71.899 71.0699 72.5979 70.6682 73.0083C70.6031 73.0748 70.2721 73.4242 69.6752 74.0562C69.0782 74.6663 68.5951 75.1599 68.226 75.537C67.906 75.2428 67.6134 74.9538 67.3482 74.67L68.4841 73.0434L59.8691 64.2069L58.0583 65.6577C57.7055 65.3747 57.3909 65.0639 57.1143 64.7253C57.6247 64.226 58.3793 63.466 59.378 62.4456C60.1162 61.6913 60.6589 61.1257 61.0061 60.7487L72.9015 65.1684L67.9267 53.6775C68.4479 53.167 69.1537 52.457 70.0438 51.5475C70.706 50.8709 71.2162 50.3385 71.5742 49.9505C71.9268 50.2115 72.2415 50.5223 72.5183 50.8829Z" fill="white"/>
<path d="M93.5087 53.2458L91.5057 54.5675L88.5608 56.7672C87.3089 57.6828 86.4532 58.3124 85.9934 58.6558C85.9561 58.6836 85.5942 58.9637 84.9076 59.4959C84.2241 60.0064 83.5966 60.4751 83.025 60.9021C82.7539 60.5618 82.5091 60.231 82.2905 59.9096L83.8892 58.6283C83.2705 57.7142 81.9772 55.9276 80.0094 53.2687C78.1246 50.7222 76.8665 49.0353 76.2351 48.2083L74.5672 49.396C74.3145 49.0807 74.0651 48.7436 73.8188 48.3848C74.1295 48.1528 74.6933 47.7414 75.5102 47.1506C76.3303 46.538 76.79 46.1946 76.8895 46.1203L81.9033 42.3753L83.7538 40.8476C83.7908 40.8976 84.2158 41.4718 85.0288 42.5703C85.845 43.6471 86.2623 44.1979 86.2808 44.2229C85.9482 44.5295 85.67 44.7663 85.4464 44.9334C85.2103 45.1098 84.9168 45.2999 84.566 45.5037L83.2624 43.9769C83.0929 43.774 82.9432 43.6629 82.8132 43.6437C82.6832 43.6245 82.5374 43.6752 82.3759 43.7959C82.1398 43.9722 81.576 44.3837 80.6845 45.0302C79.8055 45.6674 79.2541 46.0695 79.0305 46.2366C79.5969 47.0541 80.6562 48.5114 82.2083 50.6086C83.1278 49.9217 83.7756 49.4282 84.1515 49.128L83.0997 47.355C83.1743 47.2993 83.2799 47.2204 83.4166 47.1183C83.5565 46.9944 83.6575 46.9093 83.7196 46.8629C83.7817 46.8165 83.8858 46.7485 84.0317 46.6588C84.1808 46.5475 84.2988 46.4593 84.3858 46.3943C84.7707 46.9404 85.3557 47.7439 86.141 48.805L87.8733 51.1456C87.5719 51.3901 87.1402 51.6932 86.5782 52.0549L84.983 50.2515C84.5016 50.5917 83.8446 51.0728 83.0121 51.6946C84.8229 54.1413 86.0133 55.7236 86.5832 56.4416L90.1619 53.7685C90.5347 53.4901 90.5933 53.1652 90.3378 52.7939L89.0132 50.7304C89.8893 50.0371 90.4455 49.6023 90.6816 49.426L93.5087 53.2458Z" fill="white"/>
<path d="M100.599 48.9976C100.477 49.0661 100.041 49.2854 99.2886 49.6556C98.5442 50.0394 97.9183 50.3652 97.411 50.6332C97.3165 50.6864 96.8476 50.9595 96.0044 51.4525C95.1535 51.9318 94.5525 52.2704 94.2014 52.4683C93.9758 52.096 93.7751 51.7364 93.5993 51.3896L95.3479 50.3242C94.8506 49.3381 93.7954 47.4001 92.1821 44.5102C90.5234 41.5389 89.4903 39.7043 89.083 39.0064C88.3267 39.4325 87.7249 39.7537 87.2776 39.9701C87.0671 39.6249 86.8626 39.2586 86.6641 38.8711C87.2178 38.5592 87.8428 38.2159 88.5392 37.8414C89.2279 37.4534 89.5993 37.2441 89.6533 37.2137C91.1119 36.3919 92.1683 35.7878 92.8225 35.4014C95.516 33.8661 97.8658 33.2734 99.872 33.6234C101.871 33.9598 103.472 35.2066 104.676 37.3639C105.222 38.3407 105.574 39.3373 105.733 40.3535C105.884 41.3561 105.835 42.3648 105.585 43.3796C105.335 44.3945 104.782 45.3924 103.927 46.3734C103.086 47.3468 101.976 48.2215 100.599 48.9976ZM99.7414 47.7954C101.491 46.8274 102.512 45.6191 102.804 44.1705C103.11 42.7142 102.774 41.111 101.797 39.3608C100.744 37.4749 99.4805 36.3408 98.0066 35.9584C96.5251 35.5625 94.9943 35.8097 93.4142 36.6999L92.1177 37.4304L96.4008 45.1028C97.2719 46.6631 97.9148 47.799 98.3298 48.5104C99.0007 48.1859 99.4713 47.9476 99.7414 47.7954Z" fill="white"/>
<path d="M110.475 28.2189L108.679 29.0421C109.113 30.1412 109.921 32.078 111.103 34.8524C112.419 37.9414 113.291 39.969 113.72 40.9354L115.605 40.2011C115.771 40.5525 115.933 40.9315 116.089 41.338C114.418 42.0398 113.247 42.5345 112.578 42.8221C112.479 42.8649 111.983 43.0863 111.093 43.4862C110.196 43.8717 109.555 44.1471 109.171 44.3124C108.986 43.9181 108.825 43.5391 108.687 43.1754L110.538 42.3032C110.148 41.2695 109.305 39.2296 108.007 36.1835C106.685 33.0802 105.859 31.1597 105.528 30.4222L103.621 31.1657C103.448 30.8 103.284 30.4139 103.128 30.0073C103.384 29.8972 103.999 29.6411 104.973 29.2393C105.941 28.8231 106.489 28.5875 106.617 28.5324L109.982 27.0605C110.181 27.4487 110.345 27.8348 110.475 28.2189Z" fill="white"/>
<path d="M124.762 38.6388C124.243 38.7966 123.73 38.9201 123.223 39.0094C122.731 39.0941 122.157 39.1225 121.502 39.0944C120.846 39.0664 120.252 38.9465 119.719 38.7349C119.181 38.5084 118.67 38.1276 118.185 37.5925C117.696 37.0425 117.323 36.3432 117.067 35.4946L114.408 26.6737L112.625 27.1188C112.493 26.7362 112.372 26.3342 112.261 25.9129C112.572 25.8182 113.012 25.6926 113.579 25.5361C114.142 25.3648 114.832 25.1551 115.647 24.9071L119.308 23.7687C119.448 24.181 119.567 24.5755 119.665 24.9522L117.52 25.7268L119.923 33.6991C120.377 35.2027 121.054 36.2156 121.956 36.7376C122.872 37.2552 123.872 37.3494 124.953 37.0202C126.183 36.6459 126.966 35.9689 127.302 34.9891C127.648 33.9899 127.612 32.798 127.194 31.4135L124.878 23.7315L122.072 24.244C121.926 23.866 121.804 23.464 121.708 23.0382C122.286 22.8623 122.911 22.6803 123.582 22.4923C124.249 22.2894 124.612 22.1789 124.672 22.1609L128.044 21.1104C128.199 21.5182 128.318 21.9127 128.401 22.294L126.539 23.2018L128.969 31.2635C129.283 32.3056 129.379 33.2678 129.257 34.1502C129.13 35.0177 128.824 35.7449 128.337 36.3317C127.861 36.8992 127.324 37.3714 126.726 37.7485C126.143 38.121 125.488 38.4178 124.762 38.6388Z" fill="white"/>
<path d="M150.598 19.1899L148.536 19.5497C148.694 20.9094 148.966 23.1013 149.352 26.1254C149.709 28.9181 149.978 30.9615 150.158 32.2556L152.172 32.0667C152.252 32.4485 152.304 32.8574 152.328 33.2933C150.591 33.5015 149.438 33.6423 148.87 33.7155C148.793 33.7254 148.31 33.7954 147.421 33.9256C146.53 34.0404 145.839 34.1295 145.348 34.1928C145.262 33.7647 145.21 33.3559 145.191 32.9662L146.795 32.689L145.747 23.0143L142.567 34.7864L141 34.9882L134.436 24.4718C134.455 24.6261 134.559 25.4362 134.746 26.9019C134.946 28.3503 135.057 29.1516 135.076 29.3059L135.658 33.8652L138.303 33.8538C138.368 34.2375 138.42 34.6464 138.46 35.0804C137.075 35.2431 136.099 35.361 135.531 35.4342C135.439 35.4461 134.964 35.5152 134.106 35.6414C133.261 35.7503 132.577 35.8383 132.055 35.9056C131.985 35.4756 131.932 35.0667 131.899 34.679L133.792 34.1056L132.457 21.8098L130.14 21.826C130.037 21.3845 129.981 20.9447 129.972 20.5068C130.681 20.4312 131.741 20.3023 133.154 20.1203C134.199 19.9857 134.973 19.878 135.478 19.7973L142.11 30.6579L145.269 18.5357C145.993 18.4581 146.984 18.3382 148.244 18.1759C149.181 18.0552 149.909 17.9535 150.429 17.8707C150.546 18.2948 150.602 18.7346 150.598 19.1899Z" fill="white"/>
<path d="M190.93 32.1388L193.07 32.59C193.051 32.9176 192.996 33.2712 192.906 33.6507C191.042 33.3447 189.819 33.1464 189.238 33.0559C189.054 33.0273 188.502 32.9492 187.581 32.8216C186.663 32.6787 186.074 32.587 185.814 32.5465C185.843 32.1574 185.897 31.8039 185.978 31.4858L188.008 31.7311C188.22 30.6622 188.587 28.4369 189.109 25.055L189.603 21.8499C189.869 20.1283 190.025 19.0664 190.071 18.6644L188.062 18.2807C188.083 17.9378 188.139 17.5765 188.229 17.197C188.55 17.247 189.169 17.3512 190.085 17.5095C191.003 17.6524 191.546 17.737 191.714 17.7632L194.698 18.2278C196.549 18.516 197.841 19.1342 198.572 20.0824C199.321 21.0175 199.603 22.0846 199.418 23.2836C199.328 23.8677 199.145 24.3903 198.871 24.8512C198.598 25.2968 198.295 25.6353 197.962 25.8667C197.644 26.1005 197.324 26.2947 197.002 26.4493C196.696 26.6062 196.437 26.7076 196.227 26.7535L195.914 26.7993C196.829 28.8936 197.449 30.2573 197.774 30.8904C198.773 32.9506 199.753 34.1107 200.716 34.3707C200.659 34.7397 200.573 35.0411 200.459 35.2752C200.304 35.2667 200.073 35.2387 199.767 35.191C197.869 34.8956 196.619 34.213 196.017 33.1432C195.819 32.7977 195.635 32.4699 195.463 32.1598C195.307 31.8522 195.13 31.4782 194.931 31.0381C194.748 30.6003 194.598 30.2542 194.48 29.9998C194.378 29.7478 194.178 29.268 193.88 28.5604C193.597 27.8552 193.374 27.3169 193.212 26.9453C192.309 26.8048 191.814 26.712 191.727 26.6669C191.293 29.48 191.028 31.304 190.93 32.1388ZM192.88 19.1961L191.898 25.5601C191.913 25.5625 192.072 25.6029 192.373 25.6813C192.692 25.7467 192.867 25.7818 192.897 25.7866C193.907 25.9438 194.709 25.7773 195.301 25.2872C195.912 24.784 196.293 24.0406 196.444 23.0568C196.587 22.1344 196.46 21.3277 196.066 20.6366C195.686 19.9479 195.014 19.5285 194.05 19.3784L192.88 19.1961Z" fill="white"/>
<path d="M213.394 37.6145L211.388 37.1052L207.679 36.3398C206.135 36.0053 205.075 35.7786 204.499 35.6597C204.347 35.6284 203.845 35.5327 202.993 35.3726C202.158 35.2005 201.521 35.069 201.082 34.9782C201.129 34.591 201.201 34.2406 201.297 33.9268L203.313 34.2715C203.591 33.2174 204.074 31.0142 204.759 27.662C205.432 24.3707 205.848 22.2572 206.008 21.3215L204.02 20.8397C204.058 20.4983 204.132 20.1402 204.24 19.7655C204.513 19.8219 205.11 19.9531 206.032 20.1593C206.973 20.3534 207.534 20.4692 207.716 20.5067L214.041 21.812L216.084 22.1385C216.053 22.2908 215.916 22.9613 215.673 24.1498C215.445 25.3414 215.322 25.983 215.303 26.0744C215.07 26.0579 214.756 26.009 214.361 25.9276C213.982 25.8493 213.697 25.7746 213.506 25.7035L213.731 23.6774C213.796 23.2781 213.64 23.0394 213.261 22.9611C213.109 22.9298 212.375 22.7704 211.058 22.4828C209.742 22.1952 209.008 22.0358 208.856 22.0045C208.602 23.016 208.202 24.855 207.657 27.5216C208.976 27.7939 209.949 27.9866 210.574 28.0997L211.263 26.1219C211.557 26.1509 211.997 26.2416 212.582 26.3942C212.442 27.0006 212.24 27.9513 211.975 29.2465C211.71 30.5417 211.525 31.488 211.418 32.0853C210.976 32.0098 210.537 31.9114 210.104 31.7902L210.331 29.2882C210.149 29.2507 209.898 29.199 209.58 29.1333C209.264 29.0523 209.031 28.9962 208.879 28.9649C208.728 28.9336 208.483 28.8911 208.147 28.8375C207.828 28.7718 207.585 28.7217 207.419 28.6872C206.792 31.7499 206.396 33.7644 206.23 34.7306L211.053 35.726C211.478 35.8136 211.742 35.6457 211.844 35.2222L212.517 32.8599C213.327 32.9953 213.92 33.1098 214.296 33.2032L213.394 37.6145Z" fill="white"/>
<path d="M228.933 30.0377L229.308 27.9181C229.367 27.5639 229.341 27.2921 229.229 27.1026C229.118 26.9132 228.92 26.7496 228.636 26.6118C228.123 26.3667 227.447 26.1356 226.607 25.9185C225.002 25.5036 223.538 25.6952 222.214 26.4933C220.891 27.2914 219.961 28.7375 219.424 30.8314C218.903 32.8651 219.015 34.6127 219.759 36.0743C220.519 37.5397 221.626 38.4605 223.081 38.8366C224.056 39.0887 224.936 39.1797 225.721 39.1097C226.161 37.3924 226.524 35.9122 226.811 34.6692L224.18 33.8924C224.235 33.5532 224.326 33.1992 224.452 32.8304C225.067 32.9894 225.852 33.2005 226.808 33.4637C227.783 33.7158 228.323 33.8554 228.427 33.8825L231.267 34.5928C231.201 34.9772 231.11 35.3312 230.995 35.6549L229.634 35.3511C229.427 36.0363 228.937 37.8853 228.165 40.8982L226.365 40.4329C224.327 40.3394 223.06 40.2286 222.565 40.1007C220.121 39.4686 218.338 38.2846 217.216 36.5488C216.108 34.8169 215.848 32.806 216.435 30.5162C217.06 28.0758 218.31 26.3188 220.184 25.2454C222.077 24.1607 224.275 23.9422 226.779 24.5898C227.304 24.7255 228.07 25.0119 229.077 25.4491C230.104 25.875 230.772 26.1363 231.083 26.2328C231.113 26.2405 231.248 26.2754 231.488 26.3375C231.732 26.3844 231.861 26.4099 231.876 26.4137C231.838 26.5644 231.658 27.2649 231.338 28.5152C231.032 29.7695 230.868 30.4418 230.845 30.5322C230.387 30.4459 230.069 30.3796 229.889 30.333C229.724 30.2904 229.405 30.192 228.933 30.0377Z" fill="white"/>
<path d="M238.038 44.6424C237.553 44.4822 237.092 44.2973 236.655 44.0877C236.213 43.8928 235.732 43.5949 235.212 43.1938C234.705 42.7976 234.3 42.3689 233.994 41.9079C233.693 41.432 233.497 40.8352 233.406 40.1174C233.315 39.3996 233.404 38.6269 233.675 37.7993L236.625 28.777L234.867 28.0985C234.944 27.7636 235.057 27.4164 235.208 27.0566C235.443 27.1343 235.882 27.2873 236.524 27.5157C237.172 27.7293 237.775 27.9283 238.334 28.1128L241.761 29.2194C241.655 29.5937 241.542 29.941 241.421 30.2613L239.207 29.629L236.561 37.7203C236.025 39.3607 235.972 40.6448 236.402 41.5727C236.846 42.5053 237.679 43.1732 238.9 43.5761C240.136 43.9839 241.206 43.903 242.109 43.3333C243.027 42.7685 243.737 41.7176 244.24 40.1806L246.799 32.3554L244.223 31.1861C244.315 30.8561 244.428 30.5088 244.564 30.1442C244.946 30.2704 245.503 30.4623 246.233 30.7198C246.969 30.9625 247.41 31.1082 247.557 31.1567L250.61 32.1395C250.504 32.5138 250.39 32.8611 250.269 33.1814L248.284 32.8211L245.595 41.0454C245.257 42.0799 244.788 42.9157 244.189 43.5529C243.589 44.1901 242.932 44.6038 242.218 44.7938C241.504 44.9839 240.802 45.0632 240.111 45.0318C239.435 45.0052 238.744 44.8754 238.038 44.6424Z" fill="white"/>
<path d="M256.431 49.1692L257.725 46.6785C257.825 46.7207 257.967 46.781 258.153 46.8593C258.345 46.9234 258.483 46.9735 258.569 47.0097C258.655 47.0458 258.787 47.1103 258.967 47.203C259.167 47.2874 259.316 47.3507 259.416 47.3929C259.38 47.4789 259.064 48.2144 258.468 49.5993C257.877 50.9699 257.552 51.7269 257.492 51.8703L253.403 50.1431C253.217 50.0648 252.632 49.8176 251.647 49.4016C250.682 48.9773 249.986 48.6748 249.558 48.4939C249.401 48.4276 248.898 48.2238 248.05 47.8824C247.208 47.5267 246.637 47.2856 246.337 47.159C246.458 46.7884 246.597 46.4586 246.751 46.1695L248.662 46.9008C249.125 45.9151 250.017 43.8448 251.337 40.6901C252.681 37.478 253.502 35.4961 253.8 34.7444L251.952 33.8625C252.055 33.535 252.196 33.198 252.375 32.8516C252.617 32.9541 253.171 33.1964 254.036 33.5784C254.921 33.9522 255.449 34.1753 255.62 34.2476L258.884 35.6006C258.748 35.9652 258.61 36.295 258.47 36.5901L256.498 35.8838C255.993 36.9698 255.149 38.9254 253.967 41.7503C252.677 44.8334 251.833 46.89 251.435 47.9202L255.311 49.5569C255.81 49.7679 256.184 49.6387 256.431 49.1692Z" fill="white"/>
<path d="M264.141 49.3382L261.09 52.1089L263.154 53.6556C263.008 53.9476 262.833 54.2592 262.629 54.5901C261.275 53.804 260.342 53.2656 259.829 52.9749C259.681 52.8907 259.354 52.7139 258.847 52.4444C258.362 52.169 257.964 51.9434 257.654 51.7674C257.831 51.4212 258.01 51.1029 258.191 50.8125L259.671 51.3578L271.128 41.5118L272.807 42.4641L270.166 57.5533L271.336 58.2709C271.182 58.5765 271.003 58.8948 270.799 59.2258C269.715 58.5926 268.916 58.1307 268.404 57.84C268.256 57.7559 267.787 57.4987 266.997 57.0686C266.215 56.6249 265.662 56.3113 265.339 56.1277C265.516 55.7814 265.691 55.4699 265.864 55.1931L267.609 56.0757L268.44 51.7505C266.606 50.7101 265.173 49.9061 264.141 49.3382ZM269.857 44.2474L264.906 48.5935C265.808 49.1407 266.528 49.5673 267.068 49.8733C267.243 49.9728 267.506 50.1219 267.856 50.3208C268.228 50.5138 268.495 50.6562 268.657 50.748L269.857 44.2474Z" fill="white"/>
<path d="M275.032 61.3198L276.56 62.8903C276.363 63.1518 276.122 63.4152 275.837 63.6804C274.457 62.3843 273.551 61.5362 273.117 61.1361C272.981 61.0098 272.565 60.6365 271.871 60.0161C271.187 59.3844 270.748 58.979 270.554 58.8C270.794 58.4927 271.035 58.2293 271.278 58.0099L272.829 59.3483C273.597 58.5784 275.134 56.9339 277.44 54.4148L279.625 52.0275C280.799 50.745 281.516 49.9497 281.778 49.6415L280.32 48.2001C280.528 47.9271 280.774 47.658 281.059 47.3928C281.298 47.614 281.755 48.0461 282.428 48.6893C283.112 49.3211 283.517 49.6949 283.642 49.8107L285.865 51.8639C287.244 53.138 287.975 54.3733 288.057 55.5698C288.162 56.7653 287.806 57.8097 286.988 58.7028C286.59 59.1379 286.149 59.4702 285.665 59.6998C285.192 59.9178 284.753 60.0299 284.348 60.0359C283.954 60.0525 283.581 60.0352 283.228 59.984C282.887 59.9433 282.616 59.8832 282.415 59.8035L282.13 59.6669C281.731 61.9186 281.491 63.3984 281.411 64.1063C281.1 66.3762 281.273 67.8882 281.929 68.6423C281.677 68.9171 281.439 69.1197 281.215 69.2503C281.09 69.1565 280.914 69.0042 280.686 68.7937C279.273 67.488 278.612 66.2223 278.703 64.9964C278.73 64.5989 278.758 64.2235 278.787 63.8699C278.828 63.527 278.888 63.1171 278.966 62.6404C279.056 62.1742 279.123 61.8026 279.166 61.5256C279.221 61.2591 279.32 60.7485 279.464 59.9938C279.619 59.2496 279.733 58.6779 279.804 58.2786C279.131 57.6574 278.771 57.3037 278.724 57.2176C276.806 59.313 275.575 60.6804 275.032 61.3198ZM283.818 51.6528L279.478 56.3932C279.49 56.4038 279.599 56.5258 279.806 56.7593C280.035 56.9918 280.161 57.1186 280.183 57.1397C280.936 57.8346 281.694 58.144 282.458 58.0678C283.243 57.9907 283.972 57.5857 284.643 56.8529C285.271 56.1659 285.613 55.4249 285.668 54.63C285.734 53.8456 285.407 53.1217 284.689 52.4583L283.818 51.6528Z" fill="white"/>
</svg>
