<svg width="423" height="442" viewBox="0 0 423 442" fill="none" xmlns="http://www.w3.org/2000/svg">
<path d="M237.664 113.137C232.284 121.483 209.734 156.952 198.588 173.176C200.209 173.887 201.802 174.625 203.367 175.389L242.878 116.504C241.507 115.668 239.045 113.923 237.664 113.137Z" fill="#E74155"/>
<path d="M262.177 227.383C263.383 229.774 264.548 230.587 265.323 232.535L320.834 203.782C320.309 201.398 319.066 200.138 318.439 197.746L262.177 227.383Z" fill="#E74155"/>
<path d="M329.298 302.081L276.419 291.121C276.726 293.809 277.08 295.985 277.349 298.671L329.293 309.631C329.545 307.396 329.11 304.377 329.298 302.081Z" fill="#E74155"/>
<path d="M291.318 161.866L240.895 199.569C245.99 204.405 256.796 216.713 262.177 227.383L318.439 197.746C312.765 176.09 307.149 182.318 291.318 161.866Z" fill="#E74155"/>
<path d="M276.39 330.004L318.309 344.893C324.148 331.537 326.721 332.426 329.293 309.631L277.349 298.671C277.339 312.547 276.397 320.875 276.39 330.004Z" fill="#E74155"/>
<path d="M271.327 138.473C262.2 129.732 252.666 122.47 242.878 116.504L203.367 175.389C215.112 181.12 225.758 185.262 235.65 193.977L286.971 155.058C282.579 149.792 276.575 143.5 271.327 138.473Z" fill="#E74155"/>
<path d="M169.738 167.097C175.6 167.339 175.673 167.468 183.747 168.833C188.574 169.649 195.073 171.634 198.588 173.176C209.734 156.952 232.284 121.483 237.664 113.137C217.477 101.651 198.491 97.0395 177.688 94.6274L169.738 167.097Z" fill="#E74155"/>
<path d="M171.031 93.4557C142.699 91.0573 116.415 94.5646 93.2474 101.609L125.018 171.756C136.56 168.917 149.52 167.003 163.282 166.972L171.031 93.4557Z" fill="#E74155"/>
<path d="M329.293 309.631C326.721 332.426 324.148 331.537 318.309 344.893L393.096 370.813C402.314 349.498 406.652 349.494 409.574 325.549L329.293 309.631Z" fill="#E74155"/>
<path d="M291.318 161.866C307.149 182.318 312.765 176.09 318.439 197.746L406.062 145.705C394.129 113.253 388.842 109.053 374.305 94.4862L291.318 161.866Z" fill="#E74155"/>
<path d="M242.878 116.504C252.666 122.47 262.2 129.732 271.327 138.473C276.575 143.5 282.579 149.792 286.971 155.058L367.862 86.3922C349.272 62.3871 326.703 44.46 300.542 31.6802L242.878 116.504Z" fill="#E74155"/>
<path d="M177.688 94.6274C198.491 97.0395 217.477 101.651 237.664 113.137L291.868 27.2536C259.551 12.4019 227.297 7.6247 190.387 7.20805L177.688 94.6274Z" fill="#E74155"/>
<path d="M93.2474 101.609C116.415 94.5646 142.699 91.0573 171.031 93.4557L183.184 7.21039C140.314 7.7195 97.0073 17.0296 58.7076 33.2822L93.2474 101.609Z" fill="#E74155"/>
<path d="M41.6132 129.428C59.6916 117.365 58.3379 117.261 87.7764 103.797L52.0467 36.2017C33.7928 44.4616 16.7876 54.3239 1.64928 65.5777L41.6132 129.428Z" fill="#E74155"/>
<path d="M237.664 113.137C239.045 113.923 241.507 115.668 242.878 116.504L300.542 31.6802C299.028 30.9407 293.4 27.9578 291.868 27.2536L237.664 113.137Z" fill="#E74155"/>
<path d="M318.439 197.746C319.066 200.138 320.309 201.398 320.834 203.782L408.901 159.692C408.656 157.069 407.896 151.675 406.062 145.705L318.439 197.746Z" fill="#E74155"/>
<path d="M329.298 302.081C329.11 304.377 329.545 307.396 329.293 309.631L409.574 325.549C410.034 322.914 410.472 320.297 410.886 317.7L329.298 302.081Z" fill="#E74155"/>
<path fill-rule="evenodd" clip-rule="evenodd" d="M326.573 244.749C324.932 228.381 322.833 212.842 320.834 203.782L408.901 159.692C409.356 164.556 413.775 171.039 414.587 178.682C415.834 190.432 414.572 199.297 414.56 214.905L326.573 244.749ZM327.239 251.706C329.079 271.926 330.11 292.192 329.298 302.081L410.886 317.7C414.148 297.259 417.458 260.219 414.552 226.538L327.239 251.706Z" fill="#E74155"/>
<path fill-rule="evenodd" clip-rule="evenodd" d="M265.323 232.535L320.834 203.782C322.833 212.842 324.932 228.381 326.573 244.749L271.237 261.901C270.331 257.407 269.415 252.956 268.575 248.878L268.575 248.875C267.085 241.643 265.837 235.583 265.323 232.535ZM272.454 268.016C274.232 277.071 275.798 285.688 276.419 291.121L329.298 302.081C330.11 292.192 329.079 271.926 327.239 251.706C327.027 249.381 326.805 247.057 326.573 244.749L327.239 251.706L272.454 268.016Z" fill="#E74155"/>
<path d="M87.7764 103.797C89.1953 103.335 91.794 102.051 93.2474 101.609L58.7076 33.2822C56.4698 34.2318 54.2492 35.2051 52.0467 36.2017L87.7764 103.797Z" fill="#E74155"/>
<path d="M41.6132 129.428C50.9947 141.506 66.5816 166.926 80.7257 190.022C88.1921 185.032 102.002 178.118 119.66 173.166L87.7764 103.797C58.3379 117.261 59.6916 117.365 41.6132 129.428Z" fill="#E74155"/>
<path d="M93.2474 101.609C91.794 102.051 89.1953 103.335 87.7764 103.797L119.66 173.166C121.409 172.676 123.196 172.204 125.018 171.756L93.2474 101.609Z" fill="#E74155"/>
<path d="M57.7038 240.69L161.589 299.72C164.071 302.303 164.935 308.801 148.536 314.127C128.037 320.785 118.347 356.331 154.033 365.072C152.951 378.414 156.571 408.716 179.713 423.187C202.854 437.658 239.822 427.621 255.414 420.793C241.298 412.45 214.554 389.646 220.51 365.18C226.196 350.318 237.969 318.989 239.569 312.575C241.568 304.556 251.093 254.167 207.153 216.665C163.213 179.163 73.234 209.557 57.7038 240.69Z" fill="#273A5F"/>
<path d="M21.7079 317.844C27.1515 298.422 40.6387 257.316 51.0388 248.266L152.112 303.744C131.458 300.672 92.4774 354.392 147.125 374.467C149.69 398.84 104.691 444.416 30.5145 440.869L44.53 347.027C61.0855 348.615 93.716 346.031 91.7937 322.993C89.3908 294.195 27.4735 310.295 21.7079 317.844Z" fill="#273A5F"/>
<path d="M88.1137 205.551C103.359 195.64 144.617 179.499 188.344 191.038C230.468 208.899 248.29 242.913 250.175 253.607C253.052 271.98 258.172 310.543 255.638 317.812L255.804 323.11L276.39 330.004C276.397 320.875 277.339 312.547 277.349 298.671C277.08 295.985 276.726 293.809 276.419 291.121C275.798 285.688 274.232 277.071 272.454 268.016C272.056 265.989 271.647 263.941 271.237 261.901C270.331 257.407 269.415 252.956 268.575 248.878L268.575 248.875C267.085 241.643 265.837 235.583 265.323 232.535C264.548 230.587 263.383 229.774 262.177 227.383C256.796 216.713 245.99 204.405 240.895 199.569C239.584 198.325 237.037 195.2 235.65 193.977C225.758 185.262 215.112 181.12 203.367 175.389C201.802 174.625 200.209 173.887 198.588 173.176C195.073 171.634 188.574 169.649 183.747 168.833C175.673 167.468 175.6 167.339 169.738 167.097C167.568 167.008 165.415 166.967 163.282 166.972C149.52 167.003 136.56 168.917 125.018 171.756C123.196 172.204 121.409 172.676 119.66 173.166C102.002 178.118 88.1921 185.032 80.7257 190.022C83.812 195.061 86.357 200.266 88.1137 205.551Z" fill="#273A5F"/>
<path d="M163.282 166.972C165.415 166.967 167.568 167.008 169.738 167.097L177.688 94.6274C175.829 94.4118 172.884 93.6125 171.031 93.4557L163.282 166.972Z" fill="#273A5F"/>
<path d="M171.031 93.4557C172.884 93.6125 175.829 94.4118 177.688 94.6274L190.387 7.20805C187.988 7.18097 185.587 7.18186 183.184 7.21039L171.031 93.4557Z" fill="#273A5F"/>
<path d="M286.971 155.058L235.65 193.977C237.037 195.2 239.584 198.325 240.895 199.569L291.318 161.866C289.976 160.131 288.4 156.771 286.971 155.058Z" fill="#273A5F"/>
<path d="M286.971 155.058C288.4 156.771 289.976 160.131 291.318 161.866L374.305 94.4862C371.798 89.0398 369.176 88.0894 367.862 86.3922L286.971 155.058Z" fill="#273A5F"/>
<path d="M271.237 261.901C271.647 263.941 272.056 265.989 272.454 268.016L327.239 251.706L326.573 244.749L271.237 261.901Z" fill="#273A5F"/>
<path d="M414.552 226.538C414.322 223.868 414.801 217.533 414.56 214.905L326.573 244.749C326.805 247.057 327.027 249.381 327.239 251.706L414.552 226.538Z" fill="#273A5F"/>
<path d="M41.3964 84.8467L43.8773 83.4129C44.2852 84.1983 44.5094 84.6419 44.55 84.7437C42.4768 86.0771 41.1264 86.9495 40.499 87.3608C40.3018 87.49 39.6981 87.8986 38.688 88.5864C37.6662 89.2563 37.0119 89.6852 36.7251 89.8732C36.4794 89.495 36.2462 89.0573 36.0255 88.5601L38.2585 86.9807C38.0198 86.4953 36.6194 83.69 34.0574 78.5651C32.1301 74.693 30.7579 72.0491 29.9405 70.6334L27.656 72.0154C27.4868 71.7155 27.2567 71.2629 26.9658 70.6576C27.3423 70.4109 28.0383 69.9674 29.0539 69.3273C30.0578 68.6693 30.6493 68.2814 30.8286 68.1639L34.1091 66.0134C35.9735 64.7912 37.6139 64.3064 39.0304 64.559C40.4352 64.7936 41.5412 65.5322 42.3483 66.7748C43.1321 67.9815 43.496 69.3092 43.4403 70.758C43.3728 72.1888 42.9155 73.4129 42.0684 74.4304C43.9038 75.5639 45.5894 76.526 47.1253 77.3166C47.6983 77.6085 48.1681 77.8398 48.5345 78.0104C48.9009 78.1811 49.3652 78.3646 49.9273 78.561C50.4894 78.7574 51.0019 78.8579 51.465 78.8625C51.946 78.8554 52.3774 78.7523 52.7593 78.5533C52.9512 78.9667 53.0955 79.3856 53.1923 79.8101C52.9889 79.9691 52.69 80.1779 52.2956 80.4364C50.3775 81.6938 48.6793 82.011 47.2011 81.388C45.942 80.8269 43.3828 79.3462 39.5235 76.9461L38.6899 77.4926C38.3134 77.7394 38.0387 77.9066 37.8657 77.9944C39.817 81.825 40.994 84.1091 41.3964 84.8467ZM34.8333 72.0864L37.1754 76.6366C37.5511 76.4673 37.9272 76.2593 38.3037 76.0125C39.5117 75.1179 40.1752 74.0538 40.2942 72.8204C40.4131 71.5869 40.0749 70.3579 39.2795 69.1333C38.6829 68.2148 37.9644 67.6202 37.124 67.3494C36.2719 67.0607 35.3618 67.2336 34.3937 67.8682L33.103 68.7143L34.8333 72.0864Z" fill="white"/>
<path d="M66.0252 66.0421L68.1991 71.9453L65.7421 72.9947L61.3162 75.2096C59.4673 76.1108 58.2075 76.7292 57.5369 77.0648C57.3645 77.1511 56.7849 77.4532 55.7981 77.971C54.8018 78.4696 54.0354 78.8532 53.4989 79.1216C53.2985 78.7174 53.1173 78.2555 52.9553 77.736L55.3553 76.4268C54.9741 75.2722 53.9159 72.3183 52.1807 67.5649C52.1044 67.3628 51.6228 66.1023 50.736 63.7833C49.8683 61.4547 49.2914 59.9295 49.0053 59.2078L46.5482 60.3293C46.4146 60.0118 46.2383 59.5355 46.019 58.9004C46.3447 58.7374 47.068 58.3875 48.1888 57.8506C49.3001 57.2945 49.9611 56.9637 50.1719 56.8582L57.673 53.1044L60.0586 51.7664L62.0324 56.977C61.4767 57.3031 61.0935 57.5189 60.8827 57.6244C60.672 57.7299 60.3463 57.8688 59.9057 58.0413L58.8752 55.7461C58.6748 55.3419 58.4645 55.1107 58.2445 55.0527C58.0148 54.9754 57.7276 55.0231 57.3827 55.1957C57.2102 55.282 56.3864 55.6943 54.9111 56.4326C53.4262 57.1516 52.5976 57.5543 52.4251 57.6406C53.0733 59.5265 53.9647 61.9753 55.0994 64.9871C56.613 64.2296 57.7387 63.6543 58.4764 63.2611L57.8058 60.3895C58.1507 60.1688 58.6776 59.9051 59.3865 59.5984C60.2922 62.1002 61.2409 64.6164 62.2328 67.1472C61.6867 67.4445 61.1454 67.7033 60.609 67.9237L59.0484 64.8488C58.8376 64.9542 58.5407 65.1029 58.1575 65.2946C57.7839 65.4576 57.5109 65.5822 57.3384 65.6685C57.166 65.7548 56.893 65.9034 56.5193 66.1144C56.1361 66.3062 55.8487 66.45 55.6571 66.5459C55.762 66.8057 56.2197 68.0181 57.0302 70.1832C57.8407 72.3482 58.3938 73.8012 58.6894 74.5421L64.035 71.867C64.8014 71.4834 65.0417 70.8347 64.7559 69.9206L63.9415 67.1209C64.8613 66.6126 65.5559 66.253 66.0252 66.0421Z" fill="white"/>
<path d="M79.4421 50.4871L78.3757 47.6145C78.1153 46.8618 77.6001 46.5625 76.8302 46.7165C76.0801 46.8623 75.1999 47.1429 74.1896 47.5584C71.9708 48.4708 70.4497 50.1304 69.6263 52.537C68.8226 54.9355 69.029 57.6273 70.2454 60.6125C71.1698 62.8813 72.4642 64.4402 74.1286 65.2893C75.8128 66.1303 77.4671 66.2168 79.0915 65.5488C80.2801 65.06 81.2809 64.4509 82.0939 63.7216L80.3339 57.614L76.9274 58.8754C76.7283 58.3299 76.5872 57.8419 76.5043 57.4113C77.2769 57.0936 78.2615 56.7003 79.4582 56.2314C80.6666 55.7344 81.3402 55.4574 81.4789 55.4004L85.0028 53.9164C85.1451 54.3226 85.2862 54.8106 85.4259 55.3805L83.7268 56.149L85.8992 63.8646L83.6881 64.739C81.4308 66.2946 79.9951 67.1987 79.381 67.4513C76.5878 68.5999 74.0668 68.7421 71.8179 67.8777C69.5889 67.0052 67.9352 65.2455 66.8566 62.5986C65.4294 59.096 65.3274 55.7803 66.5505 52.6517C67.7935 49.5149 70.0988 47.254 73.4665 45.8691C74.1202 45.6002 75.1355 45.3105 76.5124 44.9999C77.9009 44.6612 78.7775 44.4285 79.1422 44.3018C79.162 44.2937 79.3205 44.2285 79.6177 44.1063C79.9067 43.9642 80.071 43.885 80.1107 43.8687C80.135 43.9284 80.2882 44.4463 80.5703 45.4224C80.8442 46.3786 81.1038 47.271 81.3489 48.0996C81.5941 48.9283 81.731 49.4064 81.7599 49.5339C81.4988 49.6878 81.1305 49.8625 80.655 50.058C80.1598 50.2616 79.7555 50.4047 79.4421 50.4871Z" fill="white"/>
<path d="M98.6963 60.1903C98.0664 60.3999 97.4535 60.5585 96.8576 60.6662C96.2888 60.7875 95.6084 60.844 94.8164 60.8357C94.038 60.8002 93.3377 60.6594 92.7154 60.4134C92.0864 60.147 91.4815 59.6801 90.9006 59.0125C90.313 58.3246 89.8781 57.4499 89.5958 56.3885C89.5217 56.164 88.5352 51.7012 86.636 43.0001L84.2792 43.6484C84.1716 43.2538 84.0744 42.7538 83.9876 42.1484C84.2924 42.047 84.8647 41.8678 85.7045 41.611C86.5376 41.3338 87.32 41.0735 88.0515 40.8301L92.461 39.3289C92.5956 39.7372 92.7131 40.2304 92.8135 40.8086L89.9583 41.8946C91.7436 49.9767 92.6665 54.1096 92.727 54.2933C93.2717 56.2188 94.0951 57.4852 95.1973 58.0925C96.2928 58.6794 97.5314 58.743 98.9131 58.2832C100.518 57.7491 101.63 56.7788 102.249 55.3723C102.861 53.9455 102.932 52.1435 102.462 49.9666L100.047 38.8436L96.4406 39.6017C96.3533 39.2684 96.2459 38.7717 96.1185 38.1119C96.6265 37.9428 97.3513 37.713 98.2927 37.4224C99.2477 37.1046 99.8167 36.9153 99.9996 36.8545L103.952 35.5054C104.1 35.9545 104.207 36.4511 104.274 36.9952L101.896 38.1943L104.463 49.8786C104.792 51.3549 104.843 52.7082 104.617 53.9386C104.385 55.1486 103.953 56.1644 103.322 56.986C102.684 57.7872 101.979 58.4523 101.206 58.9812C100.447 59.483 99.6107 59.886 98.6963 60.1903Z" fill="white"/>
<path d="M122.42 49.6265L122.153 46.0301C122.298 45.9922 122.484 45.9435 122.712 45.884C122.955 45.7982 123.139 45.7391 123.263 45.7067C123.388 45.6742 123.577 45.6359 123.831 45.5917C124.079 45.5268 124.276 45.4754 124.421 45.4375L125.396 52.1487L119.802 53.6101C119.553 53.675 118.756 53.8834 117.409 54.2352C116.078 54.5608 115.122 54.7993 114.542 54.9509C114.335 55.005 113.665 55.1913 112.531 55.5098C111.391 55.8075 110.604 56.0131 110.169 56.1268C110.056 55.6897 109.973 55.2002 109.922 54.6583L112.539 53.8746C112.466 53.338 112.027 50.231 111.221 44.5535C110.721 41.0845 110.28 38.1444 109.899 35.7332L107.226 36.2984C107.16 35.96 107.085 35.4573 107.001 34.7905C107.333 34.7039 108.102 34.5141 109.309 34.221C110.51 33.9071 111.225 33.7203 111.453 33.6608L115.889 32.4687C116.007 32.9265 116.082 33.4291 116.113 33.9765L113.504 34.7914C113.656 36.0626 114.07 38.9873 114.747 43.5656C115.235 46.9042 115.716 49.9561 116.188 52.7212L121.191 51.4141C121.709 51.2788 122.045 51.08 122.198 50.8178C122.372 50.5501 122.446 50.153 122.42 49.6265Z" fill="white"/>
<path d="M130.577 43.5489L129.328 49.2964L132.63 49.1358C132.696 49.4951 132.745 49.9892 132.775 50.618C130.772 50.9723 129.402 51.2185 128.666 51.3568C128.434 51.4003 127.952 51.5017 127.22 51.6612C126.504 51.7955 125.926 51.9042 125.484 51.9871C125.397 51.5221 125.358 51.0155 125.365 50.4673L127.32 49.7392L132.337 28.7799L134.736 28.3294L142.838 47.1203L144.617 46.8518C144.688 47.2323 144.738 47.737 144.768 48.3658C143.165 48.6449 141.995 48.8537 141.259 48.992C141.027 49.0354 140.335 49.1764 139.182 49.4148C138.024 49.6322 137.214 49.7843 136.751 49.8712C136.669 49.4273 136.62 48.9332 136.606 48.389L139.108 47.788L136.852 42.3377C134.159 42.8435 132.067 43.2472 130.577 43.5489ZM132.972 32.8938L130.854 42.053C132.209 41.8424 133.275 41.664 134.054 41.5178C134.327 41.4664 134.717 41.3933 135.222 41.2985C135.744 41.1786 136.131 41.0949 136.384 41.0475L132.972 32.8938Z" fill="white"/>
<path d="M152.014 45.9361L154.875 45.8496C154.865 46.7354 154.854 47.2328 154.842 47.3418C152.388 47.5332 150.787 47.6614 150.041 47.7261C149.806 47.7465 149.082 47.8202 147.868 47.9471C146.653 48.0526 145.875 48.1202 145.533 48.1498C145.495 47.6999 145.495 47.2034 145.534 46.6604L148.245 46.328C148.263 45.7868 148.348 42.6498 148.499 36.9168C148.621 32.5894 148.655 29.6078 148.6 27.9722L145.936 28.1062C145.928 27.7616 145.938 27.2535 145.967 26.5819C146.414 26.543 147.236 26.4825 148.432 26.4002C149.627 26.2966 150.33 26.2355 150.544 26.217L154.446 25.8782C156.664 25.6857 158.338 26.0369 159.468 26.9317C160.596 27.8051 161.223 28.9809 161.35 30.4592C161.474 31.8946 161.17 33.2376 160.44 34.4881C159.708 35.7172 158.729 36.5792 157.504 37.0741C158.589 38.9441 159.622 40.5919 160.604 42.0176C160.972 42.5468 161.277 42.9736 161.52 43.2979C161.763 43.6222 162.086 44.0042 162.489 44.4441C162.892 44.884 163.296 45.2158 163.702 45.4396C164.13 45.6615 164.558 45.7754 164.989 45.7812C164.963 46.2366 164.894 46.6744 164.779 47.0944C164.525 47.138 164.164 47.1802 163.694 47.221C161.412 47.419 159.767 46.8928 158.757 45.6422C157.911 44.5501 156.351 42.0306 154.078 38.0837L153.086 38.1698C152.639 38.2087 152.318 38.2257 152.124 38.221C152.043 42.5233 152.006 45.095 152.014 45.9361ZM152.229 31.5747L152.154 36.6967C152.565 36.7258 152.994 36.7209 153.442 36.682C154.927 36.4667 156.012 35.8437 156.697 34.813C157.382 33.7823 157.662 32.5385 157.537 31.0816C157.443 29.989 157.089 29.1239 156.475 28.4865C155.86 27.8276 154.977 27.5482 153.825 27.6481L152.29 27.7814L152.229 31.5747Z" fill="white"/>
<path d="M242.203 34.8957L239.508 34.4422C238.489 37.3449 237.514 40.2462 236.583 43.1461C236.389 43.7419 235.975 45.005 235.34 46.9352C234.726 48.87 234.269 50.3327 233.968 51.3234L236.521 51.9772C236.419 52.351 236.246 52.8966 236.004 53.614C233.77 53.1065 232.277 52.7709 231.524 52.6073C231.419 52.5845 230.799 52.4609 229.665 52.2364C228.556 51.9954 227.678 51.8045 227.029 51.6635C227.147 51.1171 227.319 50.5715 227.546 50.0267L229.669 50.3891C232.413 42.4268 233.89 38.1605 234.1 37.5901L223.321 51.1877L221.281 50.7444L219.633 34.4462C219.576 34.6098 219.386 35.1846 219.064 36.1708C218.747 37.1359 218.421 38.143 218.085 39.1922C217.775 40.2249 217.599 40.7915 217.555 40.8921C216.564 43.867 215.919 45.894 215.621 46.9733L218.727 48.1103C218.625 48.4841 218.453 49.0297 218.211 49.7472C216.458 49.3442 215.215 49.0632 214.483 48.9041C214.357 48.8768 213.738 48.7532 212.625 48.5332C211.537 48.2968 210.668 48.1081 210.02 47.9672C210.128 47.4627 210.301 46.9171 210.537 46.3303L213.174 46.4414L218.773 30.2001L215.974 29.1628C216.179 28.4152 216.371 27.8299 216.549 27.4067C218.256 27.8215 219.549 28.1244 220.427 28.3154C221.139 28.47 222.21 28.6808 223.642 28.948L225.22 45.7259L236.163 31.6691C237.912 32.0931 239.11 32.3755 239.759 32.5164C240.303 32.6347 241.312 32.8319 242.785 33.1081C242.677 33.6125 242.483 34.2084 242.203 34.8957Z" fill="white"/>
<path d="M255.741 52.6943L253.274 58.8313L250.361 57.8003L245.789 56.498C243.86 55.9258 242.534 55.5371 241.813 55.3317C241.772 55.32 241.203 55.169 240.106 54.8788C239.035 54.5737 238.057 54.295 237.171 54.0428C237.323 53.5049 237.529 52.9713 237.79 52.4421L240.38 53.0794C240.62 52.5442 241.789 49.7033 243.887 44.5565C245.879 39.469 246.933 36.7627 247.047 36.4375L244.531 35.6539C244.677 35.2932 244.9 34.7419 245.198 33.9999C245.692 34.1407 246.565 34.4003 247.815 34.7789C249.071 35.1368 249.771 35.3362 249.916 35.3773L257.731 37.6037L260.793 38.3419L258.66 43.7694C258.087 43.6731 257.604 43.5692 257.213 43.4577C256.842 43.3521 256.439 43.2037 256.004 43.0126L256.863 40.4411C256.974 40.048 256.975 39.7689 256.866 39.6037C256.777 39.4443 256.579 39.3207 256.27 39.2327C255.899 39.1271 255.065 38.8895 253.768 38.5199C252.476 38.1296 251.655 37.8846 251.305 37.7848C250.881 38.7368 249.942 41.0397 248.487 44.6935C249.826 45.0749 250.807 45.3432 251.431 45.4985L252.727 42.9172C252.85 42.9524 253.036 43.0052 253.283 43.0756C253.536 43.1253 253.714 43.1649 253.817 43.1942C253.94 43.2294 254.112 43.2896 254.333 43.3748C254.56 43.4394 254.724 43.4863 254.827 43.5156C254.277 44.8341 253.271 47.3749 251.808 51.1381C251.267 51.0062 250.572 50.7861 249.725 50.4776L250.72 47.3077C250.005 47.0816 249.03 46.7926 247.794 46.4406C246.208 50.3251 245.206 52.8896 244.788 54.1339L250.07 55.6387C250.853 55.8617 251.407 55.5947 251.731 54.8379L253.067 51.9996C254.479 52.3571 255.37 52.5887 255.741 52.6943Z" fill="white"/>
<path d="M263.05 62.0438C262.848 61.9734 262.242 61.7282 261.231 61.3082C260.234 60.9155 259.405 60.5929 258.745 60.3402C258.603 60.2909 257.932 60.0688 256.732 59.6737C255.539 59.2583 254.699 58.9662 254.214 58.7972C254.396 58.2689 254.632 57.748 254.923 57.2346L257.472 58.0197C257.777 57.3977 258.204 56.522 258.752 55.3928C259.307 54.2433 259.863 53.0597 260.418 51.8422C261.002 50.6114 261.338 49.8979 261.429 49.7018C261.581 49.3907 261.928 48.6468 262.47 47.4699C263.019 46.2727 263.533 45.1431 264.013 44.081C264.52 43.0057 264.874 42.2415 265.075 41.7882C264.2 41.4378 263.377 41.1288 262.609 40.8613C262.775 40.5096 263.029 39.972 263.369 39.2483C264.158 39.5229 265.024 39.8358 265.968 40.187C266.938 40.5249 267.464 40.708 267.545 40.7362C269.588 41.4472 271.088 41.9581 272.046 42.2686C275.565 43.4936 277.959 45.1236 279.228 47.1584C280.525 49.18 280.7 51.5623 279.754 54.3053C278.513 57.9018 276.375 60.4233 273.339 61.8699C270.303 63.3165 266.873 63.3744 263.05 62.0438ZM263.713 60.1237C266.383 61.053 268.731 60.8462 270.757 59.5033C272.79 58.14 274.301 56.0259 275.289 53.1609C276.088 50.8446 276.084 48.9199 275.276 47.387C274.468 45.8541 273.063 44.7391 271.06 44.0421L269.24 43.4085C267.796 46.4789 267.06 48.0547 267.032 48.136L264.054 54.4049C263.985 54.5401 263.234 56.1906 261.803 59.3564C262.631 59.713 263.268 59.9688 263.713 60.1237Z" fill="white"/>
<path d="M294.724 52.9741L292.324 52.0505C291.394 53.6421 290 56.1933 288.143 59.704C286.185 63.2896 284.74 65.994 283.807 67.8172L286.175 68.9022C285.976 69.3314 285.7 69.8337 285.348 70.4091C283.199 69.496 281.689 68.8592 280.819 68.4987C280.7 68.4495 280.053 68.1932 278.877 67.7296C277.709 67.2461 276.868 66.8979 276.354 66.6848C276.566 66.1679 276.831 65.6615 277.15 65.1657L279.651 66.0964C279.95 65.5924 281.435 62.9044 284.105 58.0324C286.672 53.1873 288.022 50.6297 288.156 50.3595L285.759 49.2622C285.945 48.9207 286.229 48.3985 286.61 47.6957C286.946 47.835 287.734 48.1727 288.972 48.7088C290.239 49.2332 290.951 49.5282 291.11 49.5938L295.604 51.4199C295.345 51.9403 295.051 52.4584 294.724 52.9741Z" fill="white"/>
<path d="M295.372 75.3927C294.758 75.0886 294.181 74.7553 293.643 74.393C293.105 74.0307 292.557 73.5434 291.998 72.9312C291.458 72.3284 291.053 71.6961 290.781 71.0341C290.518 70.3528 290.437 69.5454 290.537 68.612C290.637 67.6785 290.995 66.7051 291.611 65.6918C291.801 65.306 294.087 61.667 298.47 54.7749L296.395 53.6041C296.641 53.1506 296.959 52.6487 297.349 52.0982C297.733 52.2883 298.246 52.5546 298.89 52.8971C299.562 53.2298 300.397 53.6433 301.395 54.1375L305.903 56.3328C305.628 56.8441 305.315 57.3364 304.963 57.8097L302.214 56.6284C301.863 57.1979 301.133 58.3706 300.023 60.1466C298.922 61.9033 297.979 63.4139 297.191 64.6783C296.404 65.9427 296.001 66.5942 295.982 66.6328C294.949 68.3507 294.584 69.8483 294.888 71.1256C295.211 72.4124 295.997 73.3647 297.245 73.9825C298.743 74.7239 300.16 74.7782 301.496 74.1453C302.842 73.4931 304.047 72.3273 305.109 70.6477L310.986 61.2945L307.858 59.2787C308.104 58.8253 308.422 58.3233 308.811 57.7729C309.522 58.1246 310.276 58.5097 311.073 58.9282C311.879 59.3274 312.321 59.546 312.397 59.5841L316.53 61.594C316.284 62.0955 315.981 62.5926 315.62 63.0852L313.002 62.2926L306.855 72.0512C306.039 73.3254 305.116 74.331 304.086 75.0679C303.086 75.795 302.064 76.2241 301.021 76.3552C299.997 76.4958 299.016 76.4775 298.077 76.3002C297.157 76.1325 296.255 75.83 295.372 75.3927Z" fill="white"/>
<path d="M339.61 79.47L337.29 78.0211C335.248 80.3165 333.248 82.6274 331.29 84.9538C330.885 85.4309 330.023 86.4408 328.706 87.9836C327.406 89.5386 326.429 90.7168 325.776 91.5181L327.89 93.098C327.654 93.4046 327.288 93.8435 326.792 94.4145C324.918 93.0918 323.664 92.2108 323.029 91.7718C322.941 91.7108 322.415 91.3598 321.451 90.7189C320.516 90.0725 319.776 89.5602 319.229 89.1821C319.545 88.7216 319.911 88.2828 320.327 87.8656L322.153 89.0117C327.705 82.6955 330.685 79.3139 331.096 78.8668L315.98 87.3255L314.261 86.1363L318.905 70.4327C318.79 70.5622 318.398 71.0215 317.727 71.8106C317.068 72.582 316.385 73.3888 315.678 74.2311C315 75.0678 314.622 75.5244 314.544 75.6007C312.501 77.9736 311.138 79.6023 310.454 80.4866L312.896 82.7246C312.66 83.0312 312.294 83.4701 311.799 84.0412C310.33 82.9989 309.287 82.2644 308.67 81.8375C308.564 81.7643 308.038 81.4133 307.092 80.7846C306.175 80.1504 305.443 79.6442 304.897 79.2661C305.188 78.8411 305.554 78.4022 305.994 77.9496L308.391 79.0596L319.717 66.1771L317.521 64.1486C317.993 63.5354 318.392 63.0673 318.718 62.7441C320.139 63.7797 321.22 64.5536 321.96 65.0659C322.56 65.4806 323.471 66.0849 324.694 66.8788L319.803 82.9993L335.245 74.1786C336.702 75.2386 337.703 75.9576 338.25 76.3357C338.708 76.6528 339.567 77.2206 340.825 78.0389C340.534 78.464 340.129 78.941 339.61 79.47Z" fill="white"/>
<path d="M381.592 131.253L383.659 135.117C385.696 138.924 385.385 141.545 382.727 142.981C381.633 143.571 380.503 143.73 379.336 143.457C378.169 143.183 377.124 142.637 376.199 141.818C376.539 142.953 376.535 144.103 376.186 145.267C375.866 146.441 375.131 147.338 373.981 147.959C372.887 148.55 371.799 148.832 370.716 148.807C369.652 148.771 368.676 148.468 367.788 147.898C366.918 147.317 366.136 146.629 365.443 145.832C364.749 145.034 364.128 144.124 363.581 143.101C363.439 142.836 363.164 142.277 362.756 141.423C362.358 140.588 362.007 139.887 361.703 139.318C361.672 139.262 361.339 138.66 360.702 137.515C360.094 136.379 359.633 135.517 359.318 134.93C359.846 134.645 360.409 134.402 361.007 134.201L362.323 136.457C362.73 136.31 365.537 135.197 370.743 133.119C370.999 133.005 371.741 132.69 372.971 132.172C374.211 131.674 375.346 131.207 376.377 130.772C377.437 130.346 378.189 130.026 378.633 129.811C378.501 129.564 378.289 129.167 377.995 128.617C377.72 128.058 377.541 127.678 377.459 127.479C377.969 127.252 378.561 127.018 379.234 126.777C379.659 127.572 380.151 128.515 380.71 129.605C381.288 130.684 381.582 131.234 381.592 131.253ZM364.777 140.771L365.343 141.967C366.012 143.217 366.891 143.951 367.98 144.169C369.078 144.406 370.212 144.208 371.381 143.577C373.474 142.447 373.948 140.812 372.803 138.671L372.575 138.245C372.433 137.98 372.322 137.796 372.242 137.692C368.863 139.053 366.375 140.079 364.777 140.771ZM381.198 134.944L380.818 134.234C378.705 135.009 376.452 135.908 374.059 136.931C374.101 137.055 374.188 137.24 374.319 137.486L374.502 137.827C375.085 138.782 375.877 139.307 376.875 139.402C377.884 139.516 378.888 139.304 379.888 138.764C381.622 137.828 382.059 136.554 381.198 134.944Z" fill="white"/>
<path d="M393.527 154.871C394.604 157.332 394.749 159.746 393.962 162.114C393.183 164.502 391.481 166.276 388.856 167.436C385.407 168.96 382.103 169.104 378.943 167.869C375.803 166.626 373.591 164.538 372.307 161.605C371.807 160.463 371.505 159.293 371.401 158.094C371.297 156.894 371.402 155.72 371.718 154.571C372.033 153.421 372.627 152.348 373.5 151.352C374.382 150.375 375.519 149.579 376.91 148.964C378.987 148.046 381.146 147.691 383.388 147.898C385.631 148.106 387.665 148.828 389.493 150.064C391.32 151.3 392.665 152.903 393.527 154.871ZM374.424 161.233C375.131 162.847 376.581 163.863 378.774 164.279C380.968 164.696 383.721 164.173 387.032 162.71C388.913 161.878 390.292 160.835 391.168 159.578C392.053 158.341 392.151 156.936 391.461 155.361C390.634 153.471 389.038 152.391 386.675 152.12C384.311 151.849 381.709 152.341 378.868 153.596C376.771 154.523 375.344 155.67 374.587 157.038C373.849 158.398 373.795 159.796 374.424 161.233Z" fill="white"/>
<path d="M384.687 183.757L388.463 183.097C388.626 183.518 388.813 184.045 389.024 184.677C389.229 185.288 389.389 185.801 389.505 186.216L382.421 187.72C382.257 187.231 382.029 186.514 381.736 185.569C381.423 184.631 381.188 183.928 381.031 183.459C380.554 181.964 379.822 179.738 378.834 176.782C378.82 176.742 378.603 176.123 378.18 174.927C377.779 173.725 377.455 172.756 377.21 172.022C377.778 171.831 378.373 171.687 378.996 171.59L379.925 174.067C380.602 173.929 381.559 173.72 382.797 173.439C384.042 173.178 385.274 172.91 386.491 172.635C387.736 172.374 388.498 172.22 388.775 172.172C389.296 172.041 390.673 171.736 392.906 171.255C395.145 170.795 396.536 170.496 397.077 170.359L396.34 167.749C396.882 167.612 397.504 167.482 398.208 167.358C398.385 167.888 398.678 168.798 399.087 170.09C399.523 171.394 399.754 172.087 399.781 172.169L401.436 177.021C400.861 177.192 400.252 177.329 399.61 177.433L398.609 174.946C396.444 175.358 393.687 175.959 390.338 176.748C386.989 177.469 384.113 178.121 381.712 178.704L383.029 182.649C383.213 183.2 383.404 183.532 383.6 183.648C383.824 183.776 384.186 183.813 384.687 183.757Z" fill="white"/>
<path d="M384.541 197.703C384.518 197.576 384.446 196.978 384.324 195.907C384.18 194.841 384.052 193.925 383.94 193.159C383.925 193.074 383.792 192.377 383.541 191.068C383.314 189.776 383.149 188.833 383.045 188.24C383.635 188.136 384.245 188.083 384.875 188.08L385.427 190.668C386.116 190.634 387.085 190.583 388.334 190.514C389.604 190.443 390.882 190.358 392.169 190.262C393.46 190.186 394.223 190.139 394.459 190.119C394.631 190.11 395.931 190.022 398.358 189.855C400.805 189.684 402.349 189.564 402.989 189.494C402.941 189.219 402.861 188.763 402.75 188.128C402.663 187.51 402.612 187.093 402.596 186.878C403.151 186.823 403.786 186.787 404.5 186.77C404.675 187.766 404.849 188.761 405.024 189.756L405.248 191.223C405.634 193.426 405.923 195.012 406.115 195.983C406.79 199.706 406.552 202.631 405.403 204.755C404.258 206.901 402.262 208.226 399.417 208.729C395.622 209.401 392.362 208.722 389.637 206.693C386.938 204.681 385.239 201.685 384.541 197.703ZM386.702 197.386C387.17 200.055 388.473 201.91 390.612 202.95C392.775 204.009 395.28 204.286 398.126 203.783C400.466 203.369 402.111 202.466 403.063 201.075C404.015 199.684 404.316 197.993 403.967 196.003L403.677 194.351C400.519 194.56 398.887 194.674 398.782 194.693L391.755 195.15C391.107 195.177 390.077 195.25 388.663 195.369C387.271 195.484 386.532 195.55 386.448 195.564C386.547 196.377 386.632 196.984 386.702 197.386Z" fill="white"/>
<path d="M384.736 266.77L389.186 267.296C389.283 267.907 389.325 268.558 389.312 269.249L380.798 268.88L380.302 261.179C380.175 258.77 380.083 257.123 380.026 256.239C380.001 255.846 379.932 254.999 379.82 253.698C379.737 252.421 379.689 251.671 379.675 251.45C380.074 251.431 380.618 251.442 381.306 251.483L381.641 254.683C383.739 254.853 388.012 255.068 394.46 255.326C399.908 255.582 403.963 255.733 406.624 255.778L406.593 252.638C406.736 252.631 407.28 252.654 408.227 252.707C408.241 252.928 408.276 253.691 408.332 254.994C408.417 256.321 408.473 257.18 408.498 257.573L408.854 262.436C408.37 262.459 407.825 262.436 407.22 262.366L406.845 259.205C403.945 258.999 399.915 258.785 394.755 258.564C389.28 258.334 385.054 258.179 382.076 258.1L382.515 264.917C382.585 265.998 383.325 266.616 384.736 266.77Z" fill="white"/>
<path d="M406.511 283.576L406.575 280.401C403.915 279.961 399.906 279.374 394.549 278.64C388.086 277.757 383.847 277.209 381.83 276.995L381.515 280.085C381.201 280.071 380.662 280.01 379.897 279.902C380.071 277.495 380.185 275.849 380.239 274.965C380.263 274.572 380.3 273.723 380.35 272.42C380.427 271.142 380.473 270.393 380.486 270.172C380.885 270.189 381.425 270.251 382.104 270.355L382.038 273.568C384.102 273.932 388.324 274.541 394.703 275.394C400.03 276.152 404.057 276.678 406.783 276.973L407.101 273.846C407.243 273.853 407.782 273.926 408.716 274.067C408.703 274.288 408.643 275.049 408.535 276.35C408.455 277.677 408.403 278.537 408.379 278.93L408.127 283.797C407.642 283.775 407.104 283.702 406.511 283.576Z" fill="white"/>
<path d="M397.8 303.904L401.694 304.438C402.847 304.626 403.554 304.275 403.816 303.384C404.161 302.304 404.429 301.043 404.621 299.6C404.787 298.354 404.664 297.116 404.253 295.886C403.867 294.684 403.188 293.527 402.216 292.416C401.271 291.307 399.876 290.352 398.029 289.55C396.21 288.751 394.053 288.228 391.558 287.982C388.07 287.637 385.317 288.145 383.297 289.506C381.277 290.866 380.138 292.524 379.877 294.48C379.601 296.558 379.667 298.224 380.075 299.477L388.899 301.167L389.635 296.93C390.256 297.017 390.788 297.119 391.232 297.237C391.203 297.457 391.063 298.397 390.814 300.056C390.593 301.718 390.456 302.745 390.404 303.136L389.94 306.954C389.631 306.898 389.099 306.796 388.343 306.647L388.503 304.471L377.846 302.303L378.153 299.993C378.135 299.694 378.085 299.207 378.003 298.53C377.917 297.877 377.86 297.339 377.83 296.915C377.772 296.488 377.736 296.002 377.722 295.456C377.706 294.934 377.721 294.49 377.77 294.123C378.219 290.75 379.651 288.192 382.066 286.449C384.509 284.709 387.617 284.026 391.388 284.399C396.464 284.9 400.414 286.628 403.239 289.582C406.064 292.536 407.208 296.03 406.671 300.063C406.564 300.87 406.242 302.101 405.706 303.757C405.17 305.413 404.865 306.41 404.791 306.75L404.741 307.451C400.504 306.685 398.093 306.236 397.508 306.104C397.516 305.61 397.536 305.24 397.569 304.996C397.601 304.751 397.679 304.387 397.8 303.904Z" fill="white"/>
<path d="M397.976 336.668L398.447 333.518C395.859 332.827 391.951 331.862 386.72 330.622C380.41 329.129 376.267 328.18 374.29 327.776L373.58 330.817C373.27 330.773 372.742 330.661 371.996 330.48C372.473 328.129 372.797 326.504 372.968 325.606C373.042 325.218 373.188 324.378 373.405 323.087C373.646 321.825 373.787 321.084 373.829 320.866C374.223 320.922 374.751 321.034 375.413 321.202L374.936 324.389C377.321 325.076 381.202 326.037 386.578 327.273C386.707 326.593 386.888 325.646 387.119 324.432C387.379 323.222 387.564 322.326 387.676 321.743C387.787 321.16 387.944 320.26 388.147 319.042C388.374 317.852 388.548 316.942 388.668 316.311C383.161 315.007 379.266 314.118 376.985 313.645L376.274 316.687C375.965 316.643 375.437 316.53 374.69 316.35C375.172 313.974 375.496 312.35 375.663 311.476C375.737 311.087 375.882 310.248 376.1 308.957C376.34 307.694 376.482 306.954 376.523 306.735C376.918 306.791 377.446 306.903 378.108 307.072L377.63 310.258C379.635 310.817 383.753 311.824 389.983 313.281C395.181 314.541 399.115 315.447 401.787 316L402.504 312.923C402.644 312.943 403.17 313.067 404.081 313.296C404.04 313.514 403.882 314.265 403.608 315.548C403.358 316.859 403.196 317.709 403.122 318.097L402.248 322.91C401.769 322.843 401.243 322.718 400.67 322.537L401.141 319.387C398.939 318.801 395.375 317.922 390.45 316.75C390.19 317.96 389.829 319.779 389.366 322.207C388.903 324.635 388.568 326.47 388.36 327.712C394.477 329.153 398.053 329.971 399.085 330.167L399.809 327.053C399.95 327.073 400.476 327.197 401.387 327.426C401.345 327.645 401.185 328.408 400.907 329.715C400.657 331.026 400.495 331.875 400.421 332.264L399.554 337.041C399.075 336.973 398.549 336.848 397.976 336.668Z" fill="white"/>
<path d="M368.204 347.281C368.927 344.193 369.386 342.215 369.581 341.345C369.668 340.959 369.874 339.978 370.199 338.403C370.546 336.857 370.744 335.976 370.793 335.758C371.185 335.824 371.709 335.949 372.366 336.134L371.68 340.155C373.773 340.805 377.811 341.918 383.794 343.493C389.027 344.918 392.902 345.916 395.419 346.487L396.247 342.415C396.404 341.714 396.088 341.248 395.297 341.015L390.652 339.563C390.748 338.877 390.9 338.201 391.108 337.534L399.007 339.642L398.318 341.933L396.761 348.666L395.289 355.412L394.92 357.832C393.691 357.476 391.053 356.798 387.004 355.796C387.117 355.038 387.266 354.373 387.452 353.803L392.161 354.777C393.002 354.918 393.498 354.65 393.65 353.973L394.628 349.813C392.53 349.187 388.708 348.148 383.162 346.696C379.662 345.71 375.583 344.653 370.923 343.524L369.777 347.656C369.468 347.605 368.944 347.479 368.204 347.281Z" fill="white"/>
<path d="M303.803 94.7862L304.839 92.1489C305.051 91.6144 305.095 91.2159 304.971 90.9534C304.854 90.6716 304.6 90.4389 304.21 90.2551C303.788 90.0382 303.356 89.8503 302.913 89.6914C300.661 88.8831 298.523 89.0969 296.499 90.3328C294.475 91.5688 292.985 93.5307 292.029 96.2185C291.224 98.4808 291.205 100.426 291.972 102.053C292.759 103.687 293.97 104.798 295.606 105.385C296.164 105.585 296.594 105.718 296.897 105.783C297.36 105.884 297.736 105.866 298.023 105.729C298.31 105.592 298.621 105.268 298.955 104.755L300.843 101.737C300.997 101.792 301.218 101.872 301.507 101.975C301.802 102.06 302.018 102.126 302.152 102.174C302.287 102.223 302.495 102.308 302.777 102.431C303.085 102.542 303.326 102.628 303.499 102.69L300.409 108.45C299.903 108.225 299.502 108.07 299.206 107.986C298.769 107.872 297.906 107.704 296.618 107.482C295.349 107.266 294.387 107.041 293.733 106.806C291.096 105.859 289.205 104.341 288.06 102.251C286.915 100.161 286.796 97.8401 287.704 95.2876C288.873 92.0004 290.915 89.6152 293.83 88.1322C296.752 86.6297 299.878 86.4761 303.208 87.6713C303.882 87.9131 304.7 88.3269 305.664 88.9127C306.635 89.4792 307.338 89.8515 307.774 90.0297C307.832 90.0505 308.043 90.1264 308.409 90.2577C308.782 90.3696 308.987 90.4325 309.026 90.4463L306.517 95.7604C305.996 95.6388 305.543 95.5089 305.158 95.3707C304.754 95.2256 304.302 95.0308 303.803 94.7862Z" fill="white"/>
<path d="M291.14 85.5311L288.81 84.7601C287.994 86.3208 286.78 88.8179 285.169 92.2515C283.465 95.761 282.209 98.4067 281.402 100.188L283.709 101.115C283.539 101.533 283.299 102.025 282.989 102.59C280.898 101.817 279.429 101.279 278.582 100.975C278.467 100.934 277.838 100.719 276.695 100.331C275.56 99.9231 274.742 99.6295 274.241 99.4499C274.42 98.9471 274.65 98.4519 274.932 97.9644L277.36 98.7375C277.622 98.2431 278.916 95.6113 281.242 90.8421C283.47 86.1033 284.642 83.602 284.757 83.3382L282.421 82.4014C282.583 82.0672 282.83 81.5562 283.161 80.8683C283.488 80.9858 284.255 81.2718 285.461 81.7264C286.693 82.1686 287.385 82.4173 287.539 82.4725L291.909 84.0084C291.685 84.5166 291.429 85.0242 291.14 85.5311Z" fill="white"/>
<path d="M271.416 95.0666L273.112 91.9465C273.465 92.0516 273.921 92.2042 274.479 92.4046C274.999 92.5911 275.419 92.7528 275.739 92.8896L272.769 98.9536C272.422 98.8292 271.675 98.5501 270.527 98.1163C269.391 97.7086 268.65 97.4427 268.304 97.3183C267.233 96.9121 265.321 96.215 262.569 95.227C262.472 95.1925 261.863 94.9845 260.739 94.6032C259.642 94.2094 258.805 93.9088 258.227 93.7016C258.406 93.1988 258.637 92.7037 258.919 92.2161L261.346 92.9892C261.636 92.4174 262.042 91.5818 262.563 90.4824C263.11 89.3706 263.661 88.2491 264.215 87.1179C264.777 85.9674 265.105 85.2893 265.199 85.0835C265.429 84.6208 266.031 83.3867 267.004 81.3813C267.985 79.3565 268.581 78.1093 268.791 77.6397L266.407 76.6532C266.569 76.3189 266.816 75.8079 267.148 75.1201C267.59 75.279 268.395 75.5788 269.562 76.0196C270.737 76.441 271.381 76.6724 271.497 76.7139L275.925 78.2704C275.733 78.747 275.5 79.2518 275.223 79.7849L272.746 79.0594C271.511 81.4944 270.308 83.9625 269.136 86.4638C267.683 89.4527 266.454 92.0534 265.45 94.2661L269.55 95.7376C270.05 95.9172 270.414 95.9608 270.643 95.8683C270.897 95.7633 271.155 95.4961 271.416 95.0666Z" fill="white"/>
<path d="M253.462 84.8282L248.005 82.8696L244.628 86.5965L247.419 88.0886C247.248 88.5071 247.008 88.9988 246.699 89.5636C244.781 88.8534 243.495 88.3809 242.84 88.146C242.744 88.1114 242.384 87.9933 241.762 87.7916C241.146 87.5705 240.539 87.3528 239.943 87.1387C240.121 86.6359 240.355 86.1311 240.644 85.6242L242.576 85.958L256.516 71.206L259.085 72.1283L256.689 91.3178L258.198 91.925C258.055 92.2662 257.821 92.771 257.497 93.4395C255.945 92.8605 254.832 92.4501 254.158 92.2083C254.042 92.1669 253.462 91.9693 252.415 91.6155C251.395 91.2494 250.577 90.9558 249.961 90.7347C250.14 90.2319 250.37 89.7368 250.652 89.2492L252.686 89.8483L253.462 84.8282ZM254.865 75.3889L249.078 81.6846C249.232 81.7399 249.526 81.8566 249.962 82.0349C250.405 82.1938 250.751 82.3181 251.002 82.4079C251.906 82.7327 252.827 83.0415 253.765 83.3344L254.865 75.3889Z" fill="white"/>
<path d="M238.3 86.5493C235.42 85.4936 233.643 84.8449 232.969 84.6031C232.873 84.5686 232.148 84.3191 230.794 83.8549C229.465 83.3782 228.532 83.0431 227.993 82.8496C228.179 82.3276 228.419 81.8359 228.713 81.3746L231.796 82.3177C233.076 79.8772 234.354 77.2612 235.629 74.4699C235.696 74.3415 236.221 73.2324 237.203 71.1427C238.211 69.0405 238.857 67.6808 239.142 67.0634L236.88 66.2841C236.322 66.0837 235.914 66.2536 235.657 66.7936L233.98 69.953C233.439 69.8245 233.025 69.7084 232.736 69.6048C232.409 69.4873 232.015 69.3132 231.554 69.0825L234.356 63.2194L236.961 64.3179L241.887 66.119L247.008 67.9242L249.773 68.7534L247.001 74.6268C246.461 74.4982 246.056 74.3856 245.786 74.2889C245.497 74.1853 245.113 74.0146 244.633 73.777L245.923 70.6093C246.053 70.2419 246.075 69.9663 245.989 69.7826C245.922 69.6058 245.724 69.4586 245.397 69.3412L243.155 68.5039C242.812 69.1654 241.615 71.6142 239.566 75.8503C237.781 79.5269 236.529 82.1629 235.809 83.7581L238.962 85.0535C238.804 85.4982 238.584 85.9968 238.3 86.5493Z" fill="white"/>
<path d="M232.663 64.5421L230.333 63.7711C229.517 65.3318 228.304 67.8289 226.692 71.2625C224.988 74.772 223.732 77.4176 222.925 79.1994L225.233 80.1258C225.062 80.5443 224.822 81.036 224.513 81.6009C222.422 80.8285 220.953 80.2903 220.106 79.9863C219.99 79.9448 219.361 79.73 218.219 79.3417C217.083 78.9341 216.265 78.6405 215.765 78.4608C215.943 77.9581 216.174 77.4629 216.456 76.9754L218.883 77.7485C219.146 77.2541 220.44 74.6223 222.765 69.8531C224.993 65.1143 226.165 62.613 226.281 62.3492L223.944 61.4124C224.106 61.0782 224.353 60.5672 224.685 59.8793C225.012 59.9968 225.778 60.2828 226.984 60.7374C228.216 61.1796 228.909 61.4283 229.063 61.4835L233.433 63.0194C233.209 63.5276 232.952 64.0352 232.663 64.5421Z" fill="white"/>
<path d="M370.263 215.971L372.698 214.987C373.161 214.803 373.439 214.589 373.534 214.345C373.653 214.11 373.651 213.808 373.529 213.438C373.37 212.982 373.254 212.67 373.179 212.501C372.29 210.469 370.823 209.208 368.778 208.717C366.732 208.226 364.606 208.468 362.398 209.443C360.442 210.307 359.168 211.486 358.575 212.981C358.007 214.485 358.045 215.973 358.69 217.446C358.845 217.802 358.981 218.065 359.096 218.237C359.309 218.587 359.538 218.81 359.78 218.904C360.047 219.009 360.43 219.011 360.93 218.912L364.191 218.229C364.258 218.381 364.351 218.593 364.469 218.864C364.612 219.144 364.713 219.352 364.772 219.488C364.832 219.623 364.916 219.839 365.025 220.134C365.151 220.422 365.251 220.65 365.325 220.82L359.508 222.419C359.29 221.829 359.113 221.402 358.978 221.138C358.781 220.78 358.364 220.126 357.726 219.175C357.089 218.224 356.64 217.452 356.381 216.86C355.373 214.557 355.188 212.365 355.827 210.285C356.465 208.204 357.897 206.673 360.121 205.69C362.953 204.439 365.763 204.31 368.55 205.301C371.354 206.285 373.408 208.267 374.713 211.248C374.98 211.857 375.213 212.643 375.413 213.606C375.63 214.561 375.819 215.245 375.98 215.659C376.009 215.727 376.106 215.947 376.269 216.319C376.449 216.684 376.55 216.892 376.572 216.943L371.419 218.613C371.161 218.161 370.951 217.749 370.788 217.376C370.625 217.004 370.45 216.536 370.263 215.971Z" fill="white"/>
<path d="M368.537 202.039L367.608 200.055C366.077 200.509 363.736 201.25 360.585 202.278C357.261 203.322 354.794 204.119 353.184 204.668C353.28 204.888 353.424 205.239 353.614 205.721C353.829 206.212 353.965 206.546 354.022 206.722C353.611 206.884 353.099 207.049 352.489 207.218C351.669 205.297 351.088 203.947 350.747 203.168C350.725 203.117 350.479 202.579 350.01 201.554C349.558 200.521 349.217 199.742 348.988 199.217C349.46 199.008 349.958 198.839 350.484 198.707L351.472 200.757C351.831 200.658 354.313 199.896 358.918 198.468C359.161 198.38 359.819 198.161 360.892 197.808C361.972 197.472 362.969 197.153 363.882 196.851C364.813 196.541 365.479 196.317 365.882 196.18L365.046 194.064C365.499 193.904 366.022 193.743 366.615 193.582C366.756 193.904 367.063 194.628 367.535 195.753C368.032 196.887 368.302 197.505 368.347 197.607L370.106 201.558C369.619 201.733 369.096 201.893 368.537 202.039Z" fill="white"/>
<path d="M350.06 194.424L353.243 193.563C353.416 193.911 353.617 194.348 353.847 194.873C354.069 195.381 354.246 195.808 354.377 196.154L348.425 197.995C348.247 197.588 347.996 196.992 347.672 196.206C347.331 195.427 347.075 194.843 346.905 194.453C346.381 193.21 345.581 191.36 344.507 188.905C344.492 188.871 344.258 188.358 343.803 187.367C343.366 186.368 343.014 185.563 342.747 184.954C343.219 184.745 343.718 184.575 344.244 184.444L345.231 186.493C345.801 186.323 346.604 186.069 347.643 185.731C348.69 185.41 349.724 185.085 350.746 184.755C351.792 184.434 352.433 184.242 352.667 184.179C353.103 184.027 354.259 183.658 356.134 183.072C358.017 182.503 359.185 182.138 359.638 181.979L358.806 179.8C359.259 179.641 359.782 179.48 360.375 179.319C360.568 179.76 360.889 180.517 361.339 181.591C361.814 182.675 362.066 183.25 362.095 183.318L363.888 187.346C363.409 187.537 362.898 187.702 362.355 187.841L361.306 185.789C359.483 186.311 357.167 187.041 354.359 187.978C351.546 188.857 349.133 189.64 347.12 190.327L348.554 193.603C348.755 194.06 348.943 194.331 349.121 194.414C349.322 194.507 349.635 194.51 350.06 194.424Z" fill="white"/>
<path d="M345.372 176.268L343.349 171.645L339.164 171.735L339.908 174.468C339.496 174.63 338.985 174.795 338.375 174.963C337.628 173.212 337.129 172.048 336.877 171.473C336.862 171.439 336.731 171.163 336.485 170.646C336.262 170.138 336.014 169.57 335.74 168.944C336.246 168.72 336.765 168.552 337.298 168.437L338.266 169.889L356.334 169.88L357.423 172.369L343.519 182.512L344.035 183.829C343.623 183.991 343.104 184.16 342.477 184.336C341.871 182.906 341.438 181.895 341.179 181.302C341.164 181.268 340.956 180.815 340.553 179.942C340.168 179.061 339.827 178.282 339.531 177.605C340.003 177.397 340.502 177.227 341.027 177.095L341.843 178.614L345.372 176.268ZM352.323 171.469L344.871 171.609C344.923 171.727 345.022 171.977 345.168 172.356C345.332 172.729 345.465 173.034 345.569 173.271C345.961 174.168 346.308 174.914 346.609 175.509L352.323 171.469Z" fill="white"/>
<path d="M335.138 167.579C333.999 164.93 333.3 163.31 333.04 162.717C333.026 162.683 332.747 162.069 332.204 160.874C331.677 159.672 331.292 158.791 331.047 158.232C331.536 158.016 332.047 157.851 332.581 157.737L333.863 160.323C335.812 159.765 338.261 158.996 341.211 158.017C341.438 157.937 342.502 157.588 344.404 156.97C346.313 156.369 347.549 155.975 348.11 155.788L347.329 154.072C347.114 153.58 346.751 153.418 346.24 153.583L343.143 154.435C342.876 154.008 342.679 153.65 342.553 153.362C342.405 153.024 342.261 152.602 342.121 152.098L347.812 150.281L348.772 152.888L350.603 157.141L352.563 161.55L353.849 164.073L348.179 165.941C347.904 165.497 347.697 165.114 347.556 164.792C347.43 164.504 347.3 164.117 347.168 163.63L350.004 162.528C350.366 162.389 350.571 162.238 350.62 162.074C350.694 161.921 350.664 161.691 350.531 161.387L349.811 159.674C347.67 160.296 345.371 161.019 342.915 161.841C339.465 162.92 337.015 163.709 335.564 164.209L336.66 167.059C336.056 167.285 335.548 167.459 335.138 167.579Z" fill="white"/>
<path d="M345.792 150.073L344.864 148.089C343.333 148.543 340.992 149.284 337.841 150.312C334.517 151.356 332.05 152.153 330.44 152.703C330.536 152.923 330.679 153.274 330.87 153.755C331.085 154.246 331.221 154.58 331.278 154.757C330.866 154.919 330.355 155.084 329.745 155.252C328.925 153.331 328.344 151.981 328.003 151.202C327.981 151.152 327.735 150.614 327.266 149.588C326.814 148.555 326.473 147.776 326.243 147.251C326.715 147.043 327.214 146.873 327.74 146.742L328.728 148.791C329.087 148.693 331.569 147.93 336.174 146.502C336.417 146.415 337.075 146.195 338.148 145.842C339.228 145.507 340.225 145.188 341.138 144.885C342.069 144.575 342.735 144.352 343.138 144.214L342.302 142.098C342.755 141.938 343.278 141.778 343.871 141.617C344.012 141.939 344.319 142.662 344.791 143.787C345.287 144.922 345.558 145.54 345.602 145.641L347.362 149.592C346.875 149.767 346.352 149.927 345.792 150.073Z" fill="white"/>
<path d="M360.527 330.725L362.407 330.938C362.854 330.999 363.161 330.954 363.327 330.804C363.506 330.67 363.641 330.449 363.733 330.14C363.871 329.668 363.976 329.072 364.048 328.352C364.125 327.586 364.05 326.828 363.823 326.077C363.61 325.343 363.243 324.639 362.722 323.964C362.215 323.291 361.473 322.716 360.495 322.238C359.531 321.761 358.392 321.456 357.077 321.323C355.239 321.137 353.794 321.469 352.743 322.318C351.692 323.167 351.106 324.192 350.986 325.393C350.921 326.038 350.894 326.688 350.904 327.341C350.905 327.781 350.985 328.107 351.145 328.32C351.305 328.534 351.633 328.726 352.129 328.898L354.316 329.665C354.29 330.072 354.245 330.522 354.181 331.016L349.969 329.885L350.032 329.482C350.042 329.24 350.001 328.591 349.911 327.536C349.835 326.482 349.823 325.7 349.874 325.189C350.082 323.118 350.814 321.539 352.07 320.453C353.341 319.368 354.97 318.926 356.957 319.127C359.632 319.398 361.725 320.429 363.236 322.219C364.747 324.01 365.379 326.144 365.13 328.621C365.081 329.116 364.928 329.813 364.672 330.712C364.415 331.611 364.268 332.18 364.229 332.419L364.208 332.849L360.391 332.076C360.366 331.725 360.411 331.275 360.527 330.725Z" fill="white"/>
<path d="M364.888 319.53L365.014 317.587C363.629 317.249 361.54 316.788 358.746 316.202C355.375 315.497 353.162 315.053 352.109 314.871L351.852 316.755C351.688 316.739 351.406 316.688 351.007 316.602C351.17 315.132 351.278 314.127 351.332 313.587C351.356 313.346 351.401 312.828 351.465 312.031C351.544 311.25 351.59 310.792 351.603 310.657C351.812 310.678 352.094 310.729 352.448 310.811L352.319 312.777C353.393 313.052 355.594 313.533 358.922 314.218C361.699 314.817 363.8 315.242 365.224 315.492L365.483 313.585C365.558 313.593 365.839 313.651 366.326 313.761C366.313 313.896 366.258 314.361 366.164 315.155C366.082 315.966 366.03 316.491 366.006 316.731L365.73 319.706C365.476 319.68 365.195 319.622 364.888 319.53Z" fill="white"/>
<path d="M353.981 308.411L356.245 309.095C356.237 309.473 356.197 309.871 356.125 310.289L351.735 309.367L352.206 304.661C352.369 303.191 352.477 302.186 352.531 301.645C352.555 301.405 352.6 300.887 352.665 300.089C352.743 299.309 352.789 298.851 352.802 298.716C353.011 298.737 353.293 298.788 353.647 298.87L353.518 300.835C354.592 301.111 356.793 301.591 360.121 302.277C362.929 302.879 365.022 303.303 366.401 303.549L366.683 301.644C366.757 301.652 367.038 301.71 367.525 301.82C367.512 301.955 367.458 302.42 367.363 303.214C367.282 304.025 367.229 304.55 367.205 304.79L366.929 307.765C366.675 307.739 366.395 307.68 366.087 307.589L366.191 305.643C364.703 305.28 362.628 304.82 359.967 304.263C357.143 303.674 354.961 303.233 353.42 302.941L353.003 307.107C352.937 307.767 353.263 308.202 353.981 308.411Z" fill="white"/>
<path d="M359.146 289.368L355.115 287.118L354.591 289.408C354.427 289.391 354.145 289.34 353.746 289.254C353.895 287.92 353.997 286.982 354.051 286.442C354.077 286.186 354.11 285.773 354.153 285.201C354.208 284.646 354.243 284.3 354.257 284.165C354.466 284.186 354.747 284.238 355.102 284.319L355.199 285.83L368.419 293.536L368.282 294.91L353.918 296.801L353.716 298.145C353.551 298.128 353.27 298.077 352.871 297.991C352.991 296.942 353.078 296.147 353.132 295.606C353.158 295.351 353.206 294.795 353.277 293.938C353.363 293.082 353.412 292.587 353.426 292.452C353.635 292.473 353.917 292.524 354.271 292.605L354.148 294.731L358.693 294.122L358.93 291.757C359.03 290.752 359.103 289.955 359.146 289.368ZM365.961 293.219L359.967 289.77C359.825 290.877 359.731 291.664 359.685 292.129C359.667 292.31 359.637 292.61 359.594 293.03C359.567 293.452 359.541 293.791 359.515 294.046L365.961 293.219Z" fill="white"/>
<path d="M354.407 282.694C354.614 280.774 354.745 279.544 354.799 279.003C354.823 278.763 354.877 278.154 354.96 277.177C355.056 276.216 355.111 275.668 355.124 275.533C355.334 275.554 355.615 275.606 355.969 275.687L355.833 278.175C356.966 278.472 359.143 278.958 362.366 279.632C365.187 280.251 367.273 280.675 368.624 280.902L368.832 278.376C368.876 277.94 368.684 277.671 368.257 277.567L365.742 276.903C365.754 276.48 365.796 276.059 365.868 275.642L370.124 276.55L369.89 277.982L369.448 282.168L369.051 286.359L368.991 287.854C368.328 287.696 366.908 287.408 364.731 286.991C364.748 286.523 364.789 286.11 364.855 285.753L367.376 286.121C367.825 286.167 368.07 285.979 368.112 285.559L368.394 282.972C367.26 282.69 365.2 282.239 362.213 281.618C360.324 281.185 358.128 280.735 355.623 280.269L355.252 282.848C355.087 282.831 354.806 282.78 354.407 282.694Z" fill="white"/>
<path d="M369.311 275.396L369.438 273.452C368.053 273.115 365.963 272.654 363.169 272.068C359.798 271.363 357.586 270.919 356.533 270.737L356.276 272.621C356.112 272.605 355.83 272.554 355.431 272.468C355.593 270.998 355.702 269.993 355.756 269.453C355.78 269.212 355.824 268.694 355.889 267.897C355.967 267.116 356.013 266.658 356.027 266.523C356.236 266.544 356.518 266.595 356.872 266.677L356.743 268.643C357.817 268.918 360.018 269.398 363.346 270.084C366.123 270.683 368.224 271.108 369.648 271.358L369.907 269.451C369.982 269.459 370.263 269.517 370.75 269.627C370.736 269.762 370.682 270.227 370.588 271.021C370.506 271.832 370.454 272.357 370.43 272.597L370.154 275.572C369.9 275.546 369.619 275.488 369.311 275.396Z" fill="white"/>
<path d="M132.323 66.4058L131.763 64.4711C131.646 64.0493 131.492 63.7819 131.299 63.6689C131.106 63.556 130.847 63.535 130.523 63.606C130.018 63.7026 129.572 63.8121 129.186 63.9346C127.553 64.4515 126.376 65.52 125.656 67.1401C124.936 68.7601 124.919 70.6638 125.605 72.8511C126.147 74.5779 127.004 75.7541 128.176 76.3795C129.363 77.0004 130.551 77.1227 131.74 76.7463C132.284 76.574 132.726 76.4023 133.066 76.2314C133.425 76.0703 133.666 75.8835 133.788 75.6708C133.906 75.4437 133.945 75.0912 133.905 74.6133L133.718 72.1337C133.804 72.1065 133.933 72.0656 134.105 72.0112C134.272 71.9424 134.406 71.8922 134.506 71.8604C134.592 71.8332 134.73 71.7973 134.921 71.7528C135.122 71.6893 135.279 71.6394 135.394 71.6031L136.067 76.1594C136.01 76.1776 135.895 76.2138 135.723 76.2683C135.547 76.3083 135.437 76.3351 135.394 76.3487C135.127 76.4493 134.549 76.7427 133.663 77.2291C132.771 77.701 132.082 78.0141 131.595 78.1683C129.633 78.7895 127.876 78.7366 126.326 78.0094C124.789 77.2778 123.723 75.9622 123.127 74.0627C122.337 71.5444 122.458 69.2201 123.491 67.0899C124.538 64.9551 126.279 63.5023 128.714 62.7314C129.201 62.5772 129.877 62.4501 130.743 62.3499C131.619 62.2308 132.196 62.1353 132.472 62.0636C132.487 62.059 132.601 62.0228 132.816 61.9547C133.026 61.8723 133.146 61.8266 133.175 61.8175L133.999 65.8753C133.821 65.963 133.554 66.0636 133.196 66.1769C132.823 66.2948 132.532 66.3711 132.323 66.4058Z" fill="white"/>
<path d="M120.598 66.7008L118.835 67.3301C119.102 68.9856 119.501 71.0345 120.031 73.4769C120.711 76.9 121.16 79.0596 121.378 79.9555C122.209 79.6925 122.803 79.5282 123.16 79.4625C123.183 79.5344 123.258 79.8745 123.386 80.4826C121.877 80.9444 120.837 81.2659 120.264 81.4473C120.106 81.4972 119.628 81.6563 118.831 81.9246C118.029 82.1786 117.499 82.3464 117.241 82.428C117.146 82.1258 117.071 81.7857 117.015 81.4079L118.821 80.7649C118.683 79.9228 118.272 77.7591 117.588 74.2739C117.571 74.1686 117.38 73.2326 117.015 71.4657C116.649 69.6989 116.411 68.5879 116.3 68.1327L114.475 68.6393C114.417 68.4045 114.346 68.055 114.264 67.5908C114.464 67.5273 114.982 67.3713 115.818 67.1226C116.663 66.8551 117.171 66.6941 117.343 66.6397L120.387 65.6522C120.463 65.9446 120.534 66.2941 120.598 66.7008Z" fill="white"/>
<path d="M113.929 81.1273L113.614 78.6169C113.714 78.5852 113.843 78.5444 114 78.4945C114.168 78.4257 114.295 78.3777 114.38 78.3505C114.466 78.3232 114.598 78.2896 114.774 78.2496C114.946 78.1952 115.082 78.1521 115.182 78.1204L116.103 82.7881L112.236 84.0125C112.064 84.0669 111.512 84.2415 110.581 84.5362C109.66 84.8121 108.999 85.0135 108.598 85.1404C108.454 85.1858 107.991 85.3404 107.208 85.6042C106.42 85.8536 105.876 86.0259 105.575 86.1211C105.48 85.8189 105.405 85.4789 105.349 85.101L107.155 84.458C107.085 84.0847 106.667 81.9233 105.901 77.9738C105.427 75.561 105.015 73.5166 104.662 71.8406L102.809 72.3324C102.751 72.0977 102.68 71.7481 102.598 71.2839C102.827 71.2114 103.359 71.0508 104.195 70.8021C105.025 70.5391 105.52 70.3827 105.677 70.3328L108.743 69.3386C108.842 69.6551 108.912 70.0046 108.954 70.3871L107.154 71.0516C107.306 71.9369 107.7 73.9714 108.337 77.1552C108.797 79.4772 109.242 81.5985 109.672 83.5191L113.131 82.424C113.489 82.3106 113.717 82.1593 113.815 81.9701C113.928 81.7763 113.965 81.4954 113.929 81.1273Z" fill="white"/>
<path d="M94.6768 84.1602L94.2888 88.2695L96.5752 87.8779C96.6519 88.1226 96.7271 88.4626 96.8007 88.8981C95.4353 89.3145 94.502 89.602 94.0007 89.7607C93.8431 89.8106 93.5159 89.9221 93.0191 90.0952C92.532 90.2494 92.1381 90.3741 91.8373 90.4693C91.738 90.1527 91.6677 89.8032 91.6265 89.4208L92.9272 88.748L94.6628 73.724L96.2957 73.2071L103.516 85.6093L104.733 85.2716C104.814 85.5306 104.892 85.8779 104.965 86.3133C103.872 86.6436 103.075 86.888 102.574 87.0467C102.416 87.0966 101.946 87.2535 101.162 87.5173C100.375 87.7667 99.8231 87.9412 99.5079 88.041C99.4131 87.7388 99.338 87.3988 99.2824 87.0209L100.974 86.3904L98.9458 82.7851C97.1123 83.3655 95.6893 83.8239 94.6768 84.1602ZM95.4503 76.5357L94.7442 83.0949C95.6699 82.8334 96.3978 82.6188 96.9278 82.451C97.114 82.3921 97.379 82.3082 97.7228 82.1994C98.0764 82.0716 98.3391 81.9805 98.511 81.9261L95.4503 76.5357Z" fill="white"/>
<path d="M90.548 90.8779C88.5381 91.4983 87.2753 91.8902 86.7596 92.0534C86.6164 92.0988 86.0671 92.2805 85.1119 92.5988C84.1665 92.898 83.5506 93.093 83.2641 93.1837C83.1693 92.8815 83.0941 92.5415 83.0386 92.1636L85.3253 91.3211C85.1998 90.5698 84.7862 88.4228 84.0843 84.88C84.0362 84.6263 83.9198 84.0541 83.7349 83.1635C83.5455 82.2585 83.3625 81.3989 83.1858 80.5848C83.0235 79.7661 82.9002 79.1724 82.816 78.8036L80.8314 79.4793C80.4303 79.6063 80.2594 79.8898 80.3187 80.3297L80.7253 82.9061C80.5337 82.9984 80.2804 83.0944 79.9653 83.1942C79.6502 83.2939 79.395 83.3589 79.1997 83.389L78.2832 78.886L80.036 78.4497L83.8673 77.2606L87.7496 76.0078L89.4561 75.349C89.5755 76.1812 89.8881 77.68 90.3941 79.8452C90.2026 79.9375 89.9493 80.0335 89.6341 80.1333C89.319 80.233 89.071 80.2957 88.8901 80.3214L88.2392 77.8698C88.1624 77.6252 88.0581 77.4684 87.9263 77.3994C87.8087 77.3258 87.6354 77.3254 87.4062 77.3979L85.3582 78.0225C85.4919 78.8503 85.8815 80.8704 86.527 84.083C87.0575 86.7783 87.5021 88.9235 87.8606 90.5184L90.3225 89.8577C90.4112 90.2409 90.4863 90.581 90.548 90.8779Z" fill="white"/>
<path d="M77.7291 80.2713L75.966 80.9006C76.2334 82.5561 76.632 84.6051 77.1619 87.0475C77.842 90.4706 78.291 92.6301 78.5091 93.5261C79.3399 93.263 79.934 93.0987 80.2913 93.0331C80.3138 93.105 80.389 93.445 80.5168 94.0532C79.0082 94.5149 77.9675 94.8365 77.3945 95.0179C77.2369 95.0678 76.7593 95.2269 75.9617 95.4952C75.1595 95.7491 74.6295 95.9169 74.3717 95.9985C74.2769 95.6963 74.2017 95.3563 74.1462 94.9784L75.9522 94.3355C75.814 93.4934 75.403 91.3297 74.7192 87.8445C74.702 87.7392 74.5107 86.8031 74.1454 85.0363C73.7802 83.2694 73.5419 82.1584 73.4306 81.7033L71.6055 82.2099C71.5476 81.9751 71.4773 81.6256 71.3947 81.1613C71.5952 81.0979 72.1131 80.9418 72.9485 80.6932C73.7936 80.4257 74.3021 80.2647 74.474 80.2103L77.5183 79.2228C77.5942 79.5151 77.6645 79.8646 77.7291 80.2713Z" fill="white"/>
</svg>
