<svg width="496" height="394" viewBox="0 0 496 394" fill="none" xmlns="http://www.w3.org/2000/svg">
<path d="M397.81 206.934H456.379C452.885 196.291 457.835 191.608 460.746 190.597H394.378C397.732 192.091 403.113 197.449 397.81 206.934Z" fill="#FFECC2"/>
<path d="M456.379 206.934L459.264 208.933C467.193 212.655 484.065 216.06 488.12 199.903C492.176 183.745 474.784 177.96 465.582 177.087H385.019C376.285 178.258 360.453 185.11 367.004 203.142C369.76 209.048 379.779 218.073 397.81 206.934C403.113 197.449 397.732 192.091 394.378 190.597H460.746C457.835 191.608 452.885 196.291 456.379 206.934Z" fill="#FFECC2"/>
<path d="M463.32 308.4H392.818V317.912H463.32V308.4Z" fill="#FFECC2"/>
<path d="M463.32 321.014H392.818H391.804H383.148V335.076H473.38V321.014H463.32Z" fill="#FFECC2"/>
<path fill-rule="evenodd" clip-rule="evenodd" d="M396.718 210.656V305.229H459.264V210.656H396.718ZM409.274 218.79H406.31V299.163H409.274V218.79ZM424.794 218.79H421.83V299.163H424.794V218.79ZM438.286 218.79H435.322V299.163H438.286V218.79ZM450.998 218.79H448.034V299.163H450.998V218.79Z" fill="#FFECC2"/>
<path d="M396.718 210.656H459.264V208.933L456.379 206.934H397.81L396.718 208.795V210.656Z" fill="#273A5F"/>
<path d="M463.32 317.912H392.818V321.014H463.32V317.912Z" fill="#273A5F"/>
<path d="M459.264 305.229H396.718L392.818 306.745V308.4H463.32V306.745L459.264 305.229Z" fill="#273A5F"/>
<path d="M406.31 218.79H409.274V299.163H406.31V218.79Z" fill="#273A5F"/>
<path d="M421.83 218.79H424.794V299.163H421.83V218.79Z" fill="#273A5F"/>
<path d="M435.322 218.79H438.286V299.163H435.322V218.79Z" fill="#273A5F"/>
<path d="M448.034 218.79H450.998V299.163H448.034V218.79Z" fill="#273A5F"/>
<path d="M471.071 188.372L471.707 188.77C473.672 190 476.359 192.394 477.189 195.615C477.628 197.317 477.525 199.191 476.585 201.058C475.669 202.88 474.043 204.528 471.728 206.009C470.54 206.769 468.944 206.447 468.163 205.29C467.382 204.133 467.712 202.578 468.901 201.818C470.705 200.663 471.569 199.633 471.961 198.852C472.331 198.117 472.356 197.465 472.194 196.835C471.872 195.587 470.754 194.304 469.507 193.386H460.747C458.733 194.216 456.573 195.725 455.633 197.599C455.168 198.526 454.976 199.58 455.268 200.838C455.57 202.139 456.43 203.82 458.373 205.862C459.339 206.878 459.277 208.464 458.234 209.405C457.191 210.346 455.562 210.286 454.596 209.27C452.231 206.786 450.802 204.341 450.246 201.944C449.679 199.505 450.059 197.288 451.006 195.399C451.371 194.672 451.816 194.002 452.314 193.386H401.344C401.893 194.068 402.384 194.813 402.785 195.621C403.703 197.469 404.138 199.631 403.71 202.016C403.286 204.377 402.048 206.78 399.92 209.198C398.995 210.249 397.369 210.371 396.289 209.47C395.21 208.569 395.084 206.986 396.01 205.934C397.689 204.026 398.409 202.425 398.638 201.152C398.862 199.903 398.645 198.801 398.149 197.803C397.182 195.856 395.125 194.282 393.273 193.386H385.229C383.512 194.478 382.651 195.434 382.245 196.154C381.837 196.878 381.828 197.458 381.987 197.997C382.382 199.334 383.967 200.79 385.711 201.708C386.962 202.366 387.428 203.888 386.752 205.106C386.076 206.324 384.513 206.778 383.262 206.119C381.105 204.984 378.009 202.672 377.038 199.381C376.514 197.604 376.652 195.655 377.731 193.741C378.769 191.9 380.588 190.24 383.157 188.732L383.77 188.372H471.071Z" fill="#273A5F"/>
<path d="M454.686 45.2968C437.249 48.915 410.753 46.8044 399.684 45.2968C398.311 47.1443 396.601 48.9411 394.687 50.6545C406.311 52.9274 435.499 56.1096 459.262 50.6545C457.258 49.048 455.769 47.2154 454.686 45.2968Z" fill="#CC3D3F"/>
<path d="M490.284 73.616H364.594C363.417 75.7197 362.447 77.8322 361.669 79.9478H493.361C492.483 77.4799 491.419 75.3534 490.284 73.616Z" fill="#CC3D3F"/>
<path fill-rule="evenodd" clip-rule="evenodd" d="M362.903 112.581H492.246C496.194 101.68 496.311 92.0708 494.686 84.6097H360.261C357.995 94.1224 359.365 103.616 362.903 112.581ZM365.99 90.3848V104.858H370.487V94.4901H378.551V105.901H394.679V94.4901H406.93V105.901H421.818V94.4901H432.906V105.901H448.724V94.4901H459.191V105.901H475.552V94.4901H481.832V105.901H489.276V90.3848H469.892V102.144H463.456V90.3848H444.692V102.144H437.636V90.3848H417.398V102.144H411.66V90.3848H390.027V102.144H384.057V90.3848H365.99Z" fill="#CC3D3F"/>
<path d="M367.625 122.253H487.859C488.924 120.3 489.864 118.377 490.687 116.488H364.594C365.514 118.441 366.529 120.364 367.625 122.253Z" fill="#CC3D3F"/>
<path d="M452.756 165.184V159.826H403.751V165.184H452.756Z" fill="#CC3D3F"/>
<path d="M367.625 122.253C377.133 138.639 392.674 152.374 403.751 159.826H452.756C470.475 146.821 481.449 133.998 487.859 122.253H367.625Z" fill="#273A5F"/>
<path fill-rule="evenodd" clip-rule="evenodd" d="M490.284 73.616C508.335 4.36966 470.925 9.18462 449.964 20.2479C451.391 11.3973 459.915 3.06155 463.999 0H387.701C398.494 6.79104 401.089 16.3282 401.037 20.2479C349.738 -4.07737 355.367 45.6911 364.594 73.616H490.284ZM479.584 65.1967L467.72 54.8989C464.205 53.8678 461.432 52.3937 459.262 50.6545C435.499 56.1096 406.311 52.9274 394.687 50.6545C388.512 56.1822 380.208 60.8407 374.209 63.5268C369.583 55.038 362.951 35.7226 373.434 26.371C378.784 22.2193 391.795 17.1585 401.037 30.1283C404.603 35.1317 403.329 40.3927 399.684 45.2968C410.753 46.8044 437.249 48.915 454.686 45.2968C451.624 39.8726 451.803 33.7608 452.756 30.1283C450.429 27.693 473.071 13.2898 481.91 30.1283C488.981 43.599 483.306 59.1201 479.584 65.1967Z" fill="#273A5F"/>
<path d="M493.361 79.9478H361.669C361.099 81.5008 360.631 83.0555 360.261 84.6097H494.686C494.323 82.9457 493.874 81.3886 493.361 79.9478Z" fill="#273A5F"/>
<path d="M492.246 112.581H362.903C363.422 113.895 363.987 115.198 364.594 116.488H490.687C491.262 115.169 491.781 113.866 492.246 112.581Z" fill="#273A5F"/>
<path d="M365.99 104.858V90.3848H384.057V102.144H390.027V90.3848H411.66V102.144H417.398V90.3848H437.636V102.144H444.692V90.3848H463.456V102.144H469.892V90.3848H489.276V105.901H481.832V94.4901H475.552V105.901H459.191V94.4901H448.724V105.901H432.906V94.4901H421.818V105.901H406.93V94.4901H394.679V105.901H378.551V94.4901H370.487V104.858H365.99Z" fill="#273A5F"/>
<path d="M459.967 174.507C458.664 170.221 454.616 166.506 452.756 165.184H403.751C396.122 169.47 397.109 175.087 398.556 177.36C419.569 178.195 461.269 178.794 459.967 174.507Z" fill="#273A5F"/>
<path d="M215.283 306.429H282.125V393.236H215.283V306.429Z" fill="#FFECC2"/>
<path d="M266.493 194.018C254.547 183.27 260.085 176.717 264.347 174.783C266.732 173.889 269.064 173.541 273.825 173.829C281.408 173.065 281.873 169.106 281.158 167.222C279.161 163.771 270.106 157.59 249.861 160.467C229.617 163.345 222.886 170.574 222.052 173.829H232.067C236.359 175.836 242.064 182.683 230.547 194.018C228.211 195.6 225.901 197.306 223.661 199.084H272.507C270.589 197.566 268.584 195.899 266.493 194.018Z" fill="#CC3D3F"/>
<path d="M297.79 225.293C294.112 215.585 288.538 211.02 281.158 205.574H216.112C208.139 212.991 202.027 220.607 200.412 225.293C199.629 226.936 199 228.578 198.508 230.211L210.606 221.402L225.629 232.854L239.041 222.576L252.454 233.735L265.509 222.576L277.849 230.211L287.506 222.576L299.061 230.211C298.786 228.473 298.369 226.822 297.79 225.293Z" fill="#CC3D3F"/>
<path d="M209.265 231.68C205.197 234.274 197.059 239.579 197.053 240.049C197.012 248.414 199.824 256.105 202.764 262L217.76 251.942L230.994 260.972L243.512 251.942L257.104 262L273.199 251.942L284.466 259.944L297.043 252.645C298.041 248.937 298.815 245.043 299.205 241.224L287.506 232.854L277.849 241.224L265.509 233.295L252.454 243.573L238.326 233.295L225.629 242.105L209.265 231.68Z" fill="#CC3D3F"/>
<path d="M269.176 298.928L287.506 273.233C289.094 271.803 291.091 268.52 292.998 264.203L284.466 268.607L273.199 259.944L257.104 270.369L243.512 260.972L230.994 268.607L217.76 260.972L206.465 268.607C207.934 270.992 209.044 272.607 209.265 273.233C209.888 274.999 222.26 291.048 229.384 298.928H269.176Z" fill="#CC3D3F"/>
<path d="M210.606 221.402L198.508 230.211C197.503 233.547 197.069 236.848 197.053 240.049C197.059 239.579 205.197 234.274 209.265 231.68L225.629 242.105L238.326 233.295L252.454 243.573L265.509 233.295L277.849 241.224L287.506 232.854L299.205 241.224C299.597 237.39 299.603 233.632 299.061 230.211L287.506 222.576L277.849 230.211L265.509 222.576L252.454 233.735L239.041 222.576L225.629 232.854L210.606 221.402Z" fill="#273A5F"/>
<path d="M217.76 251.942L202.764 262C204.049 264.577 205.358 266.811 206.465 268.607L217.76 260.972L230.994 268.607L243.512 260.972L257.104 270.369L273.199 259.944L284.466 268.607L292.998 264.203C294.48 260.847 295.906 256.867 297.043 252.645L284.466 259.944L273.199 251.942L257.104 262L243.512 251.942L230.994 260.972L217.76 251.942Z" fill="#273A5F"/>
<path d="M269.176 298.928H229.384C227.839 299.682 225.412 301.412 224.268 303.773H272.83C271.935 301.734 270.28 299.893 269.176 298.928Z" fill="#273A5F"/>
<path d="M272.507 199.084H223.661C221.026 201.174 218.486 203.365 216.112 205.574H281.158C278.506 203.618 275.621 201.547 272.507 199.084Z" fill="#273A5F"/>
<path d="M223.84 307.958C225.36 313.537 271.679 312.142 273.199 307.958C273.689 306.61 273.432 305.147 272.83 303.773H224.268C223.669 305.011 223.422 306.422 223.84 307.958Z" fill="#CC3D3F"/>
<path d="M230.039 322.055L230.039 377.611L224.83 377.611L224.83 322.055L230.039 322.055Z" fill="#273A5F"/>
<path d="M243.062 322.055L243.062 377.611L237.854 377.611L237.854 322.055L243.062 322.055Z" fill="#273A5F"/>
<path d="M256.951 322.055L256.951 377.611L251.742 377.611L251.742 322.055L256.951 322.055Z" fill="#273A5F"/>
<path d="M270.839 322.055L270.839 377.611L265.631 377.611L265.631 322.055L270.839 322.055Z" fill="#273A5F"/>
<path d="M39.7094 208.342H97.4538C94.0092 197.816 98.889 193.185 101.759 192.185H36.3261C39.6324 193.662 44.938 198.961 39.7094 208.342Z" fill="#FFECC2"/>
<path d="M97.4538 208.342L100.299 210.319C108.116 214 124.75 217.368 128.748 201.388C132.746 185.408 115.6 179.686 106.527 178.823H27.0994C18.4877 179.982 2.87908 186.758 9.33783 204.592C12.0547 210.432 21.9325 219.359 39.7094 208.342C44.938 198.961 39.6324 193.662 36.3261 192.185H101.759C98.889 193.185 94.0092 197.816 97.4538 208.342Z" fill="#FFECC2"/>
<path d="M104.297 308.693H34.7884V318.101H104.297V308.693Z" fill="#FFECC2"/>
<path d="M104.297 321.168H34.7884H33.7888H25.2541V335.076H114.216V321.168H104.297Z" fill="#FFECC2"/>
<path fill-rule="evenodd" clip-rule="evenodd" d="M38.6329 212.023V305.557H100.299V212.023H38.6329ZM51.0122 220.068H48.0904V299.557H51.0122V220.068ZM66.3133 220.068H63.3915V299.557H66.3133V220.068ZM79.6153 220.068H76.6935V299.557H79.6153V220.068ZM92.1484 220.068H89.2265V299.557H92.1484V220.068Z" fill="#FFECC2"/>
<path d="M38.6329 212.023H100.299V210.319L97.4538 208.342H39.7094L38.6329 210.182V212.023Z" fill="#273A5F"/>
<path d="M104.297 318.101H34.7884V321.168H104.297V318.101Z" fill="#273A5F"/>
<path d="M100.299 305.557H38.6329L34.7884 307.056V308.693H104.297V307.056L100.299 305.557Z" fill="#273A5F"/>
<path d="M48.0904 220.068H51.0122V299.557H48.0904V220.068Z" fill="#273A5F"/>
<path d="M63.3915 220.068H66.3133V299.557H63.3915V220.068Z" fill="#273A5F"/>
<path d="M76.6935 220.068H79.6153V299.557H76.6935V220.068Z" fill="#273A5F"/>
<path d="M89.2265 220.068H92.1484V299.557H89.2265V220.068Z" fill="#273A5F"/>
<path d="M111.734 190.108L112.369 190.508C114.319 191.737 116.986 194.131 117.811 197.353C118.246 199.056 118.144 200.931 117.211 202.799C116.301 204.622 114.687 206.269 112.39 207.749C111.203 208.514 109.609 208.19 108.829 207.026C108.049 205.862 108.379 204.298 109.566 203.533C111.352 202.382 112.205 201.356 112.592 200.581C112.956 199.852 112.982 199.205 112.822 198.581C112.505 197.342 111.403 196.067 110.171 195.153H101.501C99.5088 195.98 97.3762 197.483 96.448 199.347C95.9891 200.269 95.7996 201.316 96.088 202.567C96.3862 203.861 97.2358 205.536 99.1593 207.572C100.125 208.594 100.063 210.19 99.0209 211.137C97.979 212.084 96.3518 212.023 95.3865 211.001C93.0419 208.52 91.6237 206.077 91.0711 203.68C90.5088 201.24 90.8854 199.023 91.8263 197.133C92.1818 196.419 92.6141 195.76 93.0982 195.153H42.6722C43.2069 195.826 43.6851 196.56 44.077 197.355C44.9876 199.203 45.4201 201.366 44.9951 203.75C44.5741 206.112 43.345 208.513 41.2345 210.929C40.3102 211.986 38.6869 212.109 37.6084 211.202C36.53 210.296 36.4051 208.703 37.3294 207.646C38.9921 205.743 39.7029 204.148 39.9285 202.882C40.15 201.639 39.9355 200.543 39.4463 199.551C38.4914 197.613 36.4597 196.046 34.6276 195.153H26.6666C24.9708 196.24 24.121 197.191 23.7215 197.905C23.3198 198.623 23.3117 199.197 23.4675 199.73C23.8561 201.056 25.421 202.507 27.1477 203.422C28.3973 204.084 28.8628 205.615 28.1875 206.84C27.5122 208.066 25.9521 208.522 24.7026 207.86C22.5634 206.726 19.4889 204.416 18.5243 201.122C18.0037 199.344 18.1404 197.393 19.2125 195.477C20.2432 193.635 22.0497 191.977 24.5966 190.47L25.2094 190.108H111.734Z" fill="#273A5F"/>
<path d="M95.5638 52.2257C78.2373 55.7733 51.9083 53.7038 40.9096 52.2257C39.5452 54.0371 37.8464 55.7989 35.9444 57.4788C47.4947 59.7074 76.4985 62.8275 100.111 57.4788C98.1198 55.9038 96.6402 54.1069 95.5638 52.2257Z" fill="#273A5F"/>
<path d="M130.936 79.9923H6.04225C4.87191 82.055 3.90847 84.1262 3.13583 86.2006H133.994C133.122 83.7808 132.064 81.6958 130.936 79.9923Z" fill="#273A5F"/>
<path fill-rule="evenodd" clip-rule="evenodd" d="M4.36199 118.197H132.886C136.808 107.509 136.925 98.087 135.31 90.7715H1.73641C-0.515419 100.099 0.846329 109.407 4.36199 118.197ZM7.42908 96.434V110.624H11.8978V100.459H19.9108V111.648H35.9367V100.459H48.1102V111.648H62.9034V100.459H73.9212V111.648H89.6389V100.459H100.04V111.648H116.297V100.459H122.538V111.648H129.935V96.434H110.673V107.964H104.278V96.434H85.6324V107.964H78.6211V96.434H58.5116V107.964H52.8101V96.434H31.3138V107.964H25.3812V96.434H7.42908Z" fill="#273A5F"/>
<path d="M9.05341 127.68H128.526C129.585 125.765 130.519 123.88 131.337 122.028H6.04225C6.95572 123.943 7.96476 125.829 9.05341 127.68Z" fill="#273A5F"/>
<path d="M93.6454 169.773V164.52H44.9513V169.773H93.6454Z" fill="#273A5F"/>
<path d="M9.05341 127.68C18.501 143.747 33.9438 157.213 44.9513 164.52H93.6454C111.253 151.769 122.157 139.196 128.526 127.68H9.05341Z" fill="#CC3D3F"/>
<path fill-rule="evenodd" clip-rule="evenodd" d="M130.936 79.9923C148.873 12.0971 111.7 16.8182 90.8717 27.6656C92.2894 18.9877 100.759 10.8146 104.817 7.81274H29.0024C39.7275 14.4713 42.306 23.8223 42.2546 27.6656C-8.72013 3.81493 -3.12644 52.6123 6.04225 79.9923H130.936ZM120.304 71.7374L108.516 61.6404C105.022 60.6294 102.267 59.1841 100.111 57.4788C76.4985 62.8275 47.4947 59.7074 35.9444 57.4788C29.8081 62.8987 21.557 67.4663 15.5961 70.1C10.9989 61.7769 4.40879 42.8383 14.8256 33.6692C20.1419 29.5985 33.0705 24.6364 42.2546 37.3531C45.7976 42.259 44.5315 47.4173 40.9096 52.2257C51.9083 53.7038 78.2373 55.7733 95.5638 52.2257C92.5206 46.9074 92.699 40.9148 93.6454 37.3531C91.334 34.9654 113.832 20.8433 122.615 37.3531C129.642 50.5611 124.002 65.7793 120.304 71.7374Z" fill="#CC3D3F"/>
<path d="M133.994 86.2006H3.13583C2.56866 87.7233 2.10431 89.2476 1.73641 90.7715H135.31C134.95 89.14 134.504 87.6132 133.994 86.2006Z" fill="#CC3D3F"/>
<path d="M132.886 118.197H4.36199C4.87733 119.486 5.43895 120.763 6.04225 122.028H131.337C131.908 120.734 132.424 119.457 132.886 118.197Z" fill="#CC3D3F"/>
<path d="M7.42908 110.624V96.434H25.3812V107.964H31.3138V96.434H52.8101V107.964H58.5116V96.434H78.6211V107.964H85.6324V96.434H104.278V107.964H110.673V96.434H129.935V111.648H122.538V100.459H116.297V111.648H100.04V100.459H89.6389V111.648H73.9212V100.459H62.9034V111.648H48.1102V100.459H35.9367V111.648H19.9108V100.459H11.8978V110.624H7.42908Z" fill="#CC3D3F"/>
<path d="M100.811 178.915C99.5164 174.713 95.4945 171.07 93.6454 169.773H44.9513C37.3698 173.976 38.3509 179.484 39.7891 181.712C60.669 182.531 102.105 183.118 100.811 178.915Z" fill="#CC3D3F"/>
</svg>
