<svg width="31" height="40" viewBox="0 0 31 40" fill="none" xmlns="http://www.w3.org/2000/svg">
<path d="M16.9091 0C25.8634 0 30.5004 4.0374 30.8202 12.1122C30.7802 14.3508 30.2405 16.3095 29.2012 17.9884C28.1619 19.6274 26.8427 20.8866 25.2438 21.766C23.6448 22.6054 22.0258 23.225 20.3869 23.6248C18.7879 23.9846 17.1689 24.1644 15.53 24.1644C14.4507 24.1644 13.5513 24.1245 12.8317 24.0445V30.0407C12.8317 32.599 12.8717 34.8776 12.9517 36.8763L21.1064 37.1761C21.1464 38.0155 21.1464 38.9349 21.1064 39.9343C14.5906 39.8943 10.5532 39.8743 8.99421 39.8743C8.55449 39.8743 7.13541 39.8943 4.73695 39.9343C2.37847 39.9343 0.819472 39.9343 0.0599614 39.9343C-0.0199871 38.9349 -0.0199871 38.0155 0.0599614 37.1761L5.33657 36.9962C5.45649 34.198 5.51645 28.4017 5.51645 19.6074C5.51645 10.6132 5.49646 5.07673 5.45649 2.99807L0.179885 2.81819C0.0999365 1.93875 0.0999365 0.999356 0.179885 0C0.819473 0 2.29852 0.0199869 4.61703 0.0599606C6.93554 0.0599606 8.33464 0.0599606 8.81433 0.0599606C9.45392 0.0599606 10.6531 0.0599606 12.412 0.0599606C14.1709 0.0199869 15.6699 0 16.9091 0ZM12.8317 14.9904V20.9865C13.7112 21.1064 14.5506 21.1664 15.3501 21.1664C17.2289 21.1264 18.7879 20.6467 20.0271 19.7273C21.2663 18.8079 22.1058 17.7486 22.5455 16.5493C22.9852 15.3501 23.2051 14.031 23.2051 12.5919C23.2051 9.75372 22.5655 7.49518 21.2863 5.81626C20.0071 4.13734 18.1283 3.27789 15.6499 3.23791H12.8917C12.8517 4.99678 12.8317 8.91426 12.8317 14.9904Z" fill="#E74155"/>
</svg>
