<svg width="34" height="41" viewBox="0 0 34 41" fill="none" xmlns="http://www.w3.org/2000/svg">
<path d="M9.29402 0.0599606H17.8085C21.8859 0.0599606 25.1238 0.839458 27.5223 2.39845C29.9607 3.95745 31.1799 6.29595 31.1799 9.41394C31.1799 11.6925 30.3605 13.6112 28.7215 15.1702C27.1225 16.7292 25.4436 17.7885 23.6848 18.3482C24.6841 18.5081 25.6835 18.8079 26.6828 19.2476C27.7222 19.6474 28.8015 20.227 29.9207 20.9865C31.08 21.706 31.9994 22.7254 32.679 24.0445C33.3985 25.3237 33.7583 26.7628 33.7583 28.3617C33.7583 32.0793 32.3592 34.9575 29.561 36.9962C26.8027 39.0349 22.8453 40.0542 17.6886 40.0542C17.2889 40.0542 16.1496 40.0342 14.2708 39.9943C12.432 39.9543 10.6731 39.9143 8.99421 39.8743C8.55449 39.8743 7.15539 39.8943 4.79691 39.9343C2.43843 39.9343 0.859447 39.9343 0.0599614 39.9343C-0.0199871 38.9349 -0.0199871 38.0155 0.0599614 37.1761L5.33657 36.9962C5.45649 34.198 5.51645 28.4017 5.51645 19.6074V11.2727C5.51645 6.79562 5.49646 4.0374 5.45649 2.99807C5.21664 2.99807 4.31722 2.97808 2.75822 2.93811C1.19923 2.89813 0.339781 2.85816 0.179884 2.81819C0.0999356 1.93875 0.0999356 0.999356 0.179884 0C1.13927 0 2.7982 0.0199869 5.15668 0.0599606C7.51516 0.0599606 8.89428 0.0599606 9.29402 0.0599606ZM16.9691 36.8163C19.9671 36.8163 22.2057 36.1367 23.6848 34.7776C25.2038 33.3785 25.9633 31.4997 25.9633 29.1412C25.9633 23.5448 22.7853 20.7466 16.4294 20.7466H14.4507C14.4107 20.7466 14.1309 20.7666 13.6112 20.8066C13.1315 20.8066 12.8717 20.8066 12.8317 20.8066C12.8317 29.0013 12.8717 34.2979 12.9517 36.6964C13.8311 36.7763 15.1702 36.8163 16.9691 36.8163ZM15.9497 3.23791H13.0116C12.8917 5.75629 12.8317 10.5932 12.8317 17.7486C12.9117 17.7486 13.1715 17.7686 13.6112 17.8085C14.051 17.8085 14.3108 17.8085 14.3907 17.8085H16.1896C18.3082 17.8085 20.0471 17.2089 21.4062 16.0097C22.8053 14.7705 23.5049 12.9716 23.5049 10.6132C23.5049 5.69633 20.9865 3.23791 15.9497 3.23791Z" fill="#E74155"/>
</svg>
