<svg width="1145" height="268" viewBox="0 0 1145 268" fill="none" xmlns="http://www.w3.org/2000/svg">
<path d="M201.285 92.2391C200.388 94.2326 199.478 96.1927 198.556 98.12C206.974 89.9142 224.328 73.9995 226.397 75.9872C228.984 78.4719 209.527 111.564 188.201 117.621C186.631 120.288 185.037 122.878 183.421 125.393C181.634 128.175 179.82 130.866 177.983 133.468C188.726 126.219 210.656 112.483 212.43 115.522C214.648 119.322 182.092 144.983 168.305 148.292C167.447 148.498 166.689 148.676 166.022 148.829C162.86 152.51 159.652 155.964 156.412 159.205C154.313 161.306 152.201 163.316 150.08 165.24C159.577 161.507 179.513 155.267 183.279 160.174C187.986 166.307 137.543 184.664 136.058 176.66C133.237 178.713 130.414 180.629 127.598 182.414C124.293 184.509 120.998 186.424 117.727 188.172C115.285 189.476 112.857 190.686 110.447 191.809C120.838 190.639 142.149 189.858 144.266 196.09C146.913 203.88 102.733 205.282 106.036 193.775C100.834 195.99 95.7399 197.798 90.8132 199.25C89.5253 199.629 88.2487 199.984 86.9848 200.316C93.4475 202.561 105.53 208.674 102.156 215.16C95.4851 216.266 80.678 215.358 74.8198 202.881C75.7706 202.73 76.7321 202.566 77.7037 202.387C79.0143 188.235 109.371 161.828 111.181 166.253C112.629 169.792 98.2058 189.725 90.8132 199.25C95.7399 197.798 100.834 195.99 106.036 193.775C107.498 193.152 108.969 192.497 110.447 191.809C112.857 190.686 115.285 189.476 117.727 188.172C115.123 180.623 132.642 150.023 141.814 143.764C150.986 137.505 130.289 180.669 127.598 182.414C130.414 180.629 133.237 178.713 136.058 176.66C140.75 173.245 145.437 169.45 150.08 165.24C152.201 163.316 154.313 161.306 156.412 159.205C152.585 150.836 163.086 118.694 167.825 116.974C171.617 115.598 171.051 134.208 170.294 143.685C172.896 140.442 175.461 137.038 177.983 133.468C179.82 130.866 181.634 128.175 183.421 125.393C176.359 119.789 175.222 83.6039 184.769 81.426C192.406 79.6836 192.197 101.409 191.138 112.49C193.684 107.917 196.16 103.129 198.556 98.12C199.478 96.1927 200.388 94.2326 201.285 92.2391C199.23 77.641 198.232 46.2313 209.431 46.3485C220.631 46.4657 209.739 74.5642 202.893 88.5988C202.362 89.8244 201.826 91.0378 201.285 92.2391Z" fill="#283859"/>
<path d="M210.575 45.4462C214.393 45.4861 216.128 47.9949 216.637 51.2636C217.138 54.4765 216.54 58.7396 215.428 63.2253C213.199 72.2208 208.7 82.8995 205.24 90.0017C204.99 90.5769 204.739 91.1494 204.488 91.7192C207.645 88.7936 211.092 85.7001 214.297 83.002C217.148 80.6016 219.891 78.4432 222.102 76.9969C223.192 76.284 224.285 75.656 225.26 75.2865C226.114 74.9629 227.575 74.5827 228.51 75.4247L228.554 75.4657L228.603 75.5151C229.101 76.0323 229.196 76.7552 229.188 77.3169C229.179 77.9269 229.045 78.6047 228.853 79.2828C228.468 80.6455 227.759 82.329 226.822 84.1816C224.938 87.9066 221.979 92.6212 218.275 97.4224C211.195 106.598 200.934 116.676 189.807 120.303C188.416 122.639 187.006 124.917 185.578 127.139C185.31 127.556 185.041 127.972 184.772 128.385C189.134 125.59 194.027 122.583 198.49 120.074C202.047 118.075 205.429 116.339 208.085 115.293C209.399 114.776 210.672 114.372 211.75 114.237C212.757 114.111 214.151 114.16 214.8 115.272C215.208 115.971 215.143 116.821 214.92 117.562C214.703 118.28 214.31 118.999 213.877 119.658C213.009 120.976 211.699 122.474 210.165 124.027C207.067 127.163 202.648 130.93 197.788 134.634C192.916 138.346 187.521 142.054 182.444 145.057C177.418 148.028 172.502 150.428 168.666 151.349C168.166 151.469 167.699 151.58 167.263 151.682C164.264 155.136 161.224 158.394 158.154 161.466C158.026 161.594 157.898 161.721 157.77 161.849C161.489 160.629 165.61 159.442 169.506 158.613C172.908 157.889 176.231 157.417 178.996 157.468C181.692 157.518 184.238 158.068 185.56 159.791C186.079 160.468 186.294 161.355 186.044 162.406C185.808 163.404 185.21 164.315 184.556 165.068C183.288 166.529 181.348 167.925 179.23 169.198C174.907 171.797 168.803 174.49 162.613 176.698C156.412 178.91 149.944 180.701 144.872 181.422C142.349 181.78 140.045 181.893 138.268 181.597C137.299 181.435 136.332 181.122 135.612 180.542C133.339 182.15 131.065 183.672 128.795 185.111C125.887 186.954 122.986 188.661 120.101 190.24C123.87 190.067 127.931 190.036 131.701 190.275C135.213 190.498 138.554 190.961 141.187 191.802C143.739 192.617 146.005 193.901 146.746 196.081C147.008 196.853 147.037 197.769 146.628 198.771C146.223 199.767 145.496 200.578 144.73 201.192C143.292 202.347 141.343 203.118 139.399 203.666C135.39 204.795 129.996 205.347 124.74 205.288C119.475 205.23 114.129 204.558 110.26 203.105C108.331 202.381 106.656 201.422 105.574 200.143C104.989 199.452 104.558 198.64 104.375 197.706C100.734 199.18 97.1499 200.459 93.6438 201.56C95.9355 202.653 98.3168 204.003 100.312 205.537C102.083 206.899 103.645 208.477 104.527 210.243C105.409 212.008 105.725 214.219 104.445 216.681L103.748 218.02L102.354 218.251C95.4131 219.401 80.3231 218.54 73.8262 206.155C63.7677 207.65 54.9086 207.656 47.9281 206.732L49.6727 202.741C56.5524 203.652 65.4486 203.619 75.616 202.005C75.9032 201.96 76.1915 201.912 76.4806 201.864C77.3349 198.27 79.4738 194.326 82.1151 190.529C85.3106 185.935 89.424 181.296 93.5161 177.287C97.5996 173.286 101.762 169.815 105.097 167.598C106.737 166.508 108.341 165.61 109.706 165.167C110.981 164.754 112.895 164.521 113.599 166.09L113.632 166.166L113.667 166.257C114.01 167.2 113.792 168.379 113.495 169.373C113.167 170.468 112.62 171.724 111.955 173.049C110.619 175.707 108.65 178.935 106.453 182.279C103.206 187.218 99.3624 192.553 96.0735 196.94C99.4031 195.822 102.798 194.538 106.241 193.072C107.675 192.461 109.117 191.819 110.566 191.144C112.334 190.321 114.111 189.449 115.897 188.527C115.856 187.67 115.93 186.74 116.081 185.78C116.356 184.039 116.907 182.06 117.647 179.961C119.127 175.76 121.43 170.893 124.081 166.115C126.733 161.333 129.773 156.57 132.758 152.578C135.683 148.666 138.758 145.219 141.508 143.342C142.258 142.83 143.198 142.326 144.164 142.251C145.274 142.165 145.986 142.672 146.345 143.356C146.665 143.968 146.723 144.729 146.696 145.418C146.669 146.138 146.542 146.958 146.354 147.825C145.611 151.247 143.719 156.293 141.53 161.424C139.322 166.598 136.74 172.022 134.534 176.276C134.296 176.734 134.062 177.181 133.832 177.613C134.446 177.179 135.061 176.739 135.675 176.292C140.275 172.944 144.874 169.221 149.43 165.088C151.13 163.547 152.824 161.949 154.511 160.291C153.836 157.821 153.903 154.42 154.349 150.812C154.886 146.455 156.018 141.48 157.413 136.747C158.806 132.018 160.485 127.453 162.147 123.916C162.973 122.157 163.833 120.573 164.695 119.326C165.126 118.703 165.603 118.098 166.126 117.582C166.636 117.079 167.33 116.521 168.168 116.216L168.241 116.191C169.762 115.669 170.755 116.291 171.282 116.894C171.817 117.506 172.168 118.386 172.421 119.304C172.936 121.175 173.202 123.816 173.323 126.679C173.484 130.515 173.389 134.943 173.195 138.884C174.432 137.239 175.66 135.555 176.877 133.831C178.385 131.696 179.876 129.5 181.351 127.241C180.681 126.439 180.105 125.439 179.606 124.331C178.87 122.694 178.258 120.717 177.768 118.546C176.789 114.204 176.273 108.964 176.286 103.844C176.3 98.7489 176.837 93.6357 178.045 89.5717C178.646 87.5523 179.46 85.6251 180.589 84.0533C181.763 82.4203 183.388 81.0414 185.413 80.5794C188.539 79.8662 190.416 81.6724 191.531 83.7833C192.687 85.9724 193.37 89.0841 193.762 92.4471C194.222 96.3844 194.303 100.857 194.185 105.014C195.205 103.014 196.212 100.976 197.206 98.8982C198.029 97.1772 198.843 95.4293 199.646 93.6541C198.646 86.259 197.926 74.9401 198.815 65.3296C199.267 60.4478 200.151 55.7737 201.777 52.2325C202.594 50.453 203.696 48.7433 205.221 47.4591C206.835 46.1003 208.675 45.4263 210.575 45.4462ZM97.185 208.976C94.0928 206.598 89.8897 204.648 86.7794 203.521C84.026 204.229 81.3323 204.828 78.7091 205.327C84.3304 213.696 94.9442 215.036 101.158 214.506C101.144 214.006 101.002 213.446 100.687 212.814C100.05 211.54 98.8207 210.234 97.185 208.976ZM109.642 169.024C108.984 169.271 107.972 169.806 106.624 170.702C103.717 172.635 99.8691 175.82 95.9732 179.637C92.0861 183.446 88.2511 187.785 85.3296 191.985C82.9856 195.355 81.3409 198.475 80.6234 201.1C82.8838 200.641 85.196 200.106 87.5526 199.488C88.4969 199.24 89.4482 198.979 90.4061 198.704C94.0433 193.983 99.0935 187.125 103.151 180.952C105.302 177.679 107.13 174.666 108.322 172.293C108.921 171.102 109.322 170.146 109.534 169.437C109.583 169.274 109.617 169.137 109.642 169.024ZM142.765 198.316C142.447 197.38 141.255 196.425 138.891 195.67C136.608 194.941 133.575 194.504 130.196 194.289C123.615 193.872 116.03 194.316 110.913 194.873C110.101 195.248 109.291 195.614 108.483 195.97C108.573 196.326 108.764 196.691 109.083 197.069C109.775 197.886 110.988 198.644 112.695 199.285C116.098 200.562 121.012 201.211 126.049 201.267C131.094 201.322 136.043 200.782 139.47 199.817C141.243 199.317 142.286 198.791 142.745 198.423C142.76 198.41 142.774 198.399 142.787 198.388C142.781 198.368 142.775 198.344 142.765 198.316ZM142.539 146.813C140.76 148.2 138.429 150.755 135.851 154.203C133.053 157.944 130.155 162.477 127.607 167.071C125.057 171.669 122.895 176.258 121.536 180.114C120.857 182.042 120.394 183.741 120.173 185.143C120.106 185.568 120.064 185.953 120.042 186.301C122.388 184.994 124.744 183.597 127.105 182.107C127.136 182.067 127.173 182.018 127.217 181.958C127.444 181.643 127.752 181.172 128.136 180.536C128.897 179.275 129.859 177.529 130.933 175.458C133.078 171.324 135.602 166.021 137.758 160.968C139.932 155.872 141.663 151.191 142.306 148.226C142.429 147.659 142.504 147.19 142.539 146.813ZM181.976 162.773C181.416 162.043 180.057 161.533 177.659 161.49C175.33 161.447 172.37 161.848 169.129 162.538C162.885 163.867 155.944 166.189 151.279 167.995C147.45 171.446 143.589 174.621 139.72 177.54C139.841 177.57 139.976 177.598 140.125 177.622C141.372 177.83 143.216 177.775 145.557 177.442C150.213 176.78 156.341 175.099 162.348 172.956C168.366 170.809 174.083 168.262 177.939 165.944C179.912 164.759 181.152 163.777 181.747 163.091C181.876 162.944 181.945 162.842 181.982 162.781C181.98 162.778 181.978 162.776 181.976 162.773ZM168.097 120.519C168.041 120.596 167.981 120.679 167.918 120.77C167.314 121.643 166.606 122.917 165.841 124.544C164.321 127.779 162.725 132.095 161.379 136.663C160.034 141.226 158.962 145.963 158.459 150.04C158.141 152.616 158.067 154.813 158.24 156.516C159.418 155.288 160.592 154.03 161.76 152.742C161.666 152.74 161.542 152.732 161.409 152.708C161.303 152.688 160.857 152.606 160.546 152.215C160.361 151.981 160.216 151.624 160.26 151.143C160.302 150.673 160.509 150.264 160.698 149.983C161.024 149.501 161.419 149.218 161.523 149.144C161.804 148.943 162.079 148.812 162.196 148.757C162.735 148.502 163.62 148.187 164.474 147.898C165.132 147.676 165.862 147.439 166.582 147.211C167.316 146.337 168.046 145.451 168.774 144.551C169.125 139.882 169.408 133.348 169.186 128.056C169.069 125.254 168.813 122.909 168.392 121.381C168.293 121.021 168.192 120.738 168.097 120.519ZM210.597 118.297C210.097 118.406 209.408 118.622 208.513 118.974C206.223 119.875 203.118 121.456 199.628 123.417C192.884 127.207 185.063 132.213 179.732 135.794C177.283 139.243 174.792 142.539 172.265 145.689C172.009 146.008 171.753 146.325 171.496 146.641C174.221 145.618 177.55 143.933 181.19 141.78C186.025 138.922 191.217 135.356 195.93 131.765C200.654 128.165 204.82 124.598 207.634 121.75C209.055 120.312 210.032 119.156 210.575 118.33C210.583 118.319 210.59 118.308 210.597 118.297ZM187.717 86.4069C186.757 84.588 185.796 84.3316 185.103 84.4895C184.742 84.572 184.314 84.8006 183.75 85.5852C183.142 86.4311 182.534 87.732 182.008 89.4987C180.965 93.0072 180.439 97.6989 180.426 102.623C180.413 107.522 180.909 112.516 181.831 116.603C182.291 118.646 182.852 120.432 183.492 121.856C183.679 122.271 183.87 122.648 184.061 122.986C185.037 121.416 186.005 119.817 186.963 118.188C187.853 116.677 188.735 115.14 189.609 113.577C190.105 108.123 190.376 100.327 189.645 94.069C189.268 90.8332 188.637 88.1477 187.717 86.4069ZM224.893 79.3392C224.541 79.5296 224.109 79.788 223.592 80.1262C221.704 81.3613 219.195 83.3216 216.397 85.6771C210.999 90.2208 204.837 95.9712 200.659 100.029C198.31 104.917 195.884 109.599 193.389 114.08C193.154 114.503 192.918 114.924 192.681 115.343C201.055 111.559 209.108 103.668 215.238 95.7239C218.74 91.1844 221.492 86.7815 223.196 83.4135C224.052 81.7198 224.605 80.363 224.872 79.4167C224.88 79.3903 224.886 79.3644 224.893 79.3392ZM212.537 53.0054C212.152 50.5341 211.049 49.4865 209.267 49.4678C208.367 49.4584 207.788 49.7405 207.321 50.1339C206.765 50.602 206.123 51.441 205.491 52.8177C204.219 55.5892 203.381 59.6579 202.939 64.4386C202.292 71.4292 202.531 79.445 203.108 86.0688C206.174 79.3966 209.601 70.8002 211.41 63.5009C212.477 59.1931 212.93 55.5325 212.537 53.0054Z" fill="#283859"/>
<path d="M943.278 92.2388C944.175 94.2324 945.085 96.1925 946.006 98.1197C937.588 89.9139 920.235 73.9992 918.165 75.987C915.578 78.4717 935.035 111.564 956.361 117.621C957.931 120.288 959.526 122.878 961.142 125.393C962.929 128.175 964.742 130.866 966.579 133.467C955.836 126.219 933.907 112.483 932.132 115.522C929.914 119.322 962.471 144.982 976.258 148.291C977.116 148.497 977.874 148.676 978.54 148.829C981.703 152.509 984.911 155.964 988.15 159.205C990.249 161.305 992.361 163.316 994.483 165.24C984.986 161.506 965.05 155.267 961.284 160.173C956.576 166.307 1007.02 184.664 1008.5 176.659C1011.33 178.713 1014.15 180.628 1016.96 182.414C1020.27 184.508 1023.56 186.424 1026.84 188.171C1029.28 189.475 1031.71 190.686 1034.12 191.808C1023.72 190.639 1002.41 189.858 1000.3 196.09C997.649 203.88 1041.83 205.281 1038.53 193.774C1043.73 195.99 1048.82 197.798 1053.75 199.249C1055.04 199.629 1056.31 199.984 1057.58 200.316C1051.12 202.561 1039.03 208.674 1042.41 215.16C1049.08 216.266 1063.88 215.358 1069.74 202.881C1068.79 202.73 1067.83 202.565 1066.86 202.387C1065.55 188.235 1035.19 161.828 1033.38 166.252C1031.93 169.792 1046.36 189.725 1053.75 199.249C1048.82 197.798 1043.73 195.99 1038.53 193.774C1037.06 193.152 1035.59 192.497 1034.12 191.808C1031.71 190.686 1029.28 189.475 1026.84 188.171C1029.44 180.623 1011.92 150.023 1002.75 143.764C993.577 137.504 1014.27 180.669 1016.96 182.414C1014.15 180.628 1011.33 178.713 1008.5 176.659C1003.81 173.245 999.125 169.449 994.483 165.24C992.361 163.316 990.249 161.305 988.15 159.205C991.978 150.836 981.477 118.694 976.737 116.974C972.946 115.597 973.512 134.207 974.269 143.685C971.667 140.442 969.101 137.038 966.579 133.467C964.742 130.866 962.929 128.175 961.142 125.393C968.203 119.789 969.34 83.6037 959.794 81.4257C952.157 79.6834 952.365 101.409 953.424 112.49C950.878 107.916 948.402 103.129 946.006 98.1197C945.085 96.1925 944.175 94.2324 943.278 92.2388C945.333 77.6407 946.331 46.2311 935.131 46.3482C923.931 46.4654 934.823 74.5639 941.669 88.5985C942.201 89.8242 942.737 91.0376 943.278 92.2388Z" fill="#283859"/>
<path d="M933.988 45.446C930.169 45.486 928.434 47.9948 927.925 51.2634C927.425 54.4763 928.023 58.7395 929.134 63.2252C931.363 72.2206 935.862 82.8993 939.323 90.0016C939.573 90.5767 939.823 91.1492 940.075 91.7191C936.917 88.7935 933.471 85.7 930.266 83.0019C927.414 80.6015 924.671 78.4431 922.46 76.9968C921.371 76.2839 920.278 75.6558 919.302 75.2864C918.448 74.9628 916.987 74.5826 916.053 75.4245L916.008 75.4656L915.959 75.515C915.461 76.0321 915.367 76.7551 915.375 77.3168C915.384 77.9268 915.518 78.6046 915.709 79.2827C916.094 80.6454 916.804 82.3288 917.741 84.1815C919.624 87.9064 922.584 92.6211 926.288 97.4223C933.367 106.598 943.629 116.676 954.756 120.303C956.147 122.639 957.557 124.917 958.984 127.139C959.252 127.556 959.521 127.971 959.79 128.385C955.428 125.59 950.536 122.582 946.072 120.074C942.515 118.075 939.133 116.338 936.477 115.293C935.163 114.776 933.89 114.372 932.813 114.237C931.805 114.111 930.412 114.159 929.763 115.271C929.355 115.971 929.419 116.821 929.643 117.562C929.86 118.28 930.253 118.999 930.686 119.658C931.553 120.976 932.863 122.474 934.398 124.027C937.495 127.163 941.914 130.93 946.775 134.634C951.647 138.346 957.041 142.054 962.119 145.056C967.145 148.028 972.06 150.428 975.897 151.349C976.397 151.469 976.864 151.58 977.299 151.682C980.298 155.136 983.338 158.394 986.408 161.465C986.536 161.594 986.664 161.721 986.792 161.849C983.073 160.629 978.953 159.442 975.056 158.613C971.655 157.889 968.332 157.417 965.566 157.468C962.87 157.517 960.325 158.068 959.002 159.791C958.483 160.467 958.269 161.355 958.518 162.406C958.754 163.404 959.353 164.315 960.006 165.068C961.274 166.529 963.214 167.925 965.332 169.198C969.656 171.797 975.76 174.489 981.95 176.698C988.151 178.91 994.618 180.701 999.691 181.422C1002.21 181.78 1004.52 181.893 1006.29 181.597C1007.26 181.435 1008.23 181.122 1008.95 180.541C1011.22 182.15 1013.5 183.672 1015.77 185.111C1018.68 186.954 1021.58 188.661 1024.46 190.24C1020.69 190.067 1016.63 190.036 1012.86 190.275C1009.35 190.498 1006.01 190.961 1003.38 191.802C1000.82 192.616 998.557 193.901 997.817 196.081C997.554 196.853 997.526 197.769 997.934 198.771C998.34 199.767 999.067 200.577 999.833 201.192C1001.27 202.347 1003.22 203.118 1005.16 203.666C1009.17 204.795 1014.57 205.346 1019.82 205.288C1025.09 205.23 1030.43 204.558 1034.3 203.105C1036.23 202.381 1037.91 201.421 1038.99 200.143C1039.57 199.452 1040 198.64 1040.19 197.706C1043.83 199.18 1047.41 200.459 1050.92 201.56C1048.63 202.653 1046.25 204.003 1044.25 205.537C1042.48 206.899 1040.92 208.477 1040.04 210.243C1039.15 212.008 1038.84 214.219 1040.12 216.681L1040.81 218.02L1042.21 218.251C1049.15 219.401 1064.24 218.54 1070.74 206.154C1080.79 207.649 1089.65 207.656 1096.63 206.732L1094.89 202.741C1088.01 203.652 1079.11 203.619 1068.95 202.005C1068.66 201.959 1068.37 201.912 1068.08 201.864C1067.23 198.27 1065.09 194.326 1062.45 190.529C1059.25 185.935 1055.14 181.296 1051.05 177.287C1046.96 173.286 1042.8 169.815 1039.47 167.598C1037.83 166.508 1036.22 165.61 1034.86 165.167C1033.58 164.754 1031.67 164.52 1030.96 166.09L1030.93 166.166L1030.9 166.256C1030.55 167.2 1030.77 168.379 1031.07 169.373C1031.4 170.468 1031.94 171.724 1032.61 173.049C1033.94 175.707 1035.91 178.935 1038.11 182.279C1041.36 187.218 1045.2 192.553 1048.49 196.94C1045.16 195.822 1041.76 194.538 1038.32 193.072C1036.89 192.461 1035.45 191.819 1034 191.144C1032.23 190.321 1030.45 189.449 1028.67 188.527C1028.71 187.67 1028.63 186.74 1028.48 185.78C1028.21 184.039 1027.66 182.06 1026.92 179.96C1025.44 175.76 1023.13 170.893 1020.48 166.115C1017.83 161.333 1014.79 156.57 1011.8 152.578C1008.88 148.666 1005.8 145.218 1003.05 143.341C1002.3 142.83 1001.36 142.326 1000.4 142.251C999.288 142.165 998.577 142.672 998.218 143.356C997.897 143.967 997.84 144.729 997.866 145.418C997.894 146.138 998.021 146.958 998.209 147.825C998.951 151.247 1000.84 156.293 1003.03 161.424C1005.24 166.598 1007.82 172.022 1010.03 176.276C1010.27 176.734 1010.5 177.18 1010.73 177.612C1010.12 177.179 1009.5 176.739 1008.89 176.292C1004.29 172.944 999.689 169.221 995.132 165.088C993.432 163.547 991.738 161.948 990.052 160.291C990.727 157.821 990.659 154.42 990.214 150.812C989.676 146.455 988.545 141.48 987.15 136.747C985.757 132.018 984.078 127.452 982.416 123.916C981.59 122.157 980.73 120.573 979.868 119.326C979.437 118.703 978.96 118.098 978.436 117.581C977.927 117.079 977.233 116.521 976.394 116.216L976.321 116.191C974.8 115.669 973.807 116.291 973.28 116.894C972.746 117.506 972.395 118.386 972.142 119.304C971.626 121.175 971.36 123.816 971.24 126.679C971.079 130.515 971.174 134.943 971.368 138.884C970.131 137.239 968.903 135.555 967.685 133.83C966.178 131.696 964.686 129.5 963.211 127.241C963.882 126.439 964.458 125.439 964.956 124.331C965.692 122.694 966.305 120.717 966.794 118.546C967.774 114.203 968.289 108.964 968.276 103.844C968.263 98.7488 967.725 93.6356 966.517 89.5716C965.917 87.5521 965.103 85.6249 963.973 84.0532C962.8 82.4201 961.175 81.0413 959.15 80.5793C956.023 79.866 954.147 81.6723 953.032 83.7832C951.875 85.9722 951.193 89.084 950.8 92.447C950.341 96.3843 950.26 100.857 950.378 105.014C949.358 103.014 948.35 100.976 947.356 98.898C946.533 97.1771 945.72 95.4292 944.916 93.654C945.916 86.2589 946.636 74.9399 945.747 65.3295C945.296 60.4477 944.412 55.7735 942.786 52.2324C941.969 50.4529 940.867 48.7432 939.342 47.4589C937.728 46.1002 935.888 45.4262 933.988 45.446ZM1047.38 208.976C1050.47 206.598 1054.67 204.648 1057.78 203.521C1060.54 204.229 1063.23 204.828 1065.85 205.327C1060.23 213.696 1049.62 215.036 1043.4 214.506C1043.42 214.006 1043.56 213.446 1043.88 212.814C1044.51 211.54 1045.74 210.234 1047.38 208.976ZM1034.92 169.024C1035.58 169.271 1036.59 169.806 1037.94 170.702C1040.85 172.635 1044.69 175.82 1048.59 179.637C1052.48 183.446 1056.31 187.785 1059.23 191.985C1061.58 195.354 1063.22 198.475 1063.94 201.099C1061.68 200.641 1059.37 200.106 1057.01 199.488C1056.07 199.24 1055.11 198.979 1054.16 198.704C1050.52 193.982 1045.47 187.125 1041.41 180.952C1039.26 177.679 1037.43 174.666 1036.24 172.293C1035.64 171.102 1035.24 170.146 1035.03 169.436C1034.98 169.273 1034.95 169.137 1034.92 169.024ZM1001.8 198.316C1002.12 197.38 1003.31 196.425 1005.67 195.67C1007.95 194.941 1010.99 194.504 1014.37 194.289C1020.95 193.871 1028.53 194.316 1033.65 194.873C1034.46 195.248 1035.27 195.614 1036.08 195.97C1035.99 196.326 1035.8 196.691 1035.48 197.069C1034.79 197.886 1033.57 198.644 1031.87 199.285C1028.46 200.562 1023.55 201.211 1018.51 201.266C1013.47 201.322 1008.52 200.782 1005.09 199.817C1003.32 199.317 1002.28 198.791 1001.82 198.423C1001.8 198.41 1001.79 198.398 1001.78 198.388C1001.78 198.368 1001.79 198.343 1001.8 198.316ZM1002.02 146.813C1003.8 148.2 1006.13 150.755 1008.71 154.203C1011.51 157.944 1014.41 162.477 1016.96 167.071C1019.51 171.669 1021.67 176.258 1023.03 180.114C1023.71 182.042 1024.17 183.741 1024.39 185.143C1024.46 185.567 1024.5 185.953 1024.52 186.301C1022.17 184.994 1019.82 183.597 1017.46 182.107C1017.43 182.067 1017.39 182.018 1017.35 181.957C1017.12 181.643 1016.81 181.171 1016.43 180.536C1015.67 179.275 1014.7 177.529 1013.63 175.458C1011.48 171.324 1008.96 166.021 1006.8 160.968C1004.63 155.872 1002.9 151.191 1002.26 148.226C1002.13 147.659 1002.06 147.189 1002.02 146.813ZM962.586 162.773C963.147 162.042 964.506 161.533 966.904 161.489C969.232 161.447 972.193 161.848 975.433 162.538C981.678 163.867 988.618 166.188 993.283 167.995C997.113 171.445 1000.97 174.621 1004.84 177.54C1004.72 177.57 1004.59 177.597 1004.44 177.622C1003.19 177.83 1001.35 177.774 999.005 177.442C994.349 176.78 988.222 175.099 982.215 172.956C976.197 170.809 970.48 168.262 966.623 165.944C964.651 164.759 963.41 163.777 962.815 163.091C962.687 162.944 962.617 162.842 962.581 162.781C962.582 162.778 962.584 162.776 962.586 162.773ZM976.465 120.519C976.522 120.595 976.582 120.679 976.644 120.769C977.248 121.643 977.957 122.916 978.722 124.544C980.242 127.779 981.838 132.095 983.184 136.663C984.528 141.226 985.6 145.963 986.103 150.04C986.421 152.616 986.496 154.813 986.323 156.516C985.145 155.288 983.971 154.03 982.803 152.742C982.897 152.74 983.02 152.732 983.154 152.707C983.259 152.688 983.705 152.606 984.016 152.215C984.201 151.981 984.347 151.624 984.303 151.143C984.26 150.673 984.054 150.263 983.865 149.983C983.539 149.501 983.143 149.218 983.039 149.144C982.758 148.943 982.484 148.812 982.367 148.757C981.828 148.502 980.942 148.187 980.088 147.898C979.431 147.676 978.7 147.439 977.98 147.211C977.247 146.337 976.516 145.451 975.788 144.551C975.437 139.882 975.154 133.348 975.376 128.056C975.494 125.254 975.75 122.909 976.171 121.381C976.27 121.021 976.37 120.738 976.465 120.519ZM933.966 118.297C934.465 118.406 935.155 118.622 936.049 118.974C938.339 119.875 941.444 121.456 944.934 123.417C951.678 127.207 959.5 132.213 964.83 135.794C967.279 139.243 969.771 142.539 972.297 145.689C972.553 146.008 972.81 146.325 973.066 146.641C970.341 145.618 967.013 143.933 963.372 141.78C958.537 138.921 953.346 135.356 948.633 131.765C943.908 128.165 939.742 124.598 936.929 121.75C935.508 120.312 934.53 119.156 933.987 118.33C933.98 118.319 933.973 118.308 933.966 118.297ZM956.845 86.4068C957.806 84.5878 958.767 84.3315 959.459 84.4894C959.821 84.5719 960.249 84.8005 960.812 85.5851C961.42 86.431 962.029 87.7319 962.554 89.4986C963.597 93.0071 964.124 97.6988 964.137 102.622C964.15 107.522 963.654 112.516 962.732 116.603C962.271 118.646 961.711 120.432 961.07 121.855C960.883 122.271 960.693 122.648 960.501 122.986C959.525 121.416 958.558 119.817 957.599 118.188C956.709 116.677 955.827 115.14 954.953 113.577C954.457 108.123 954.187 100.326 954.917 94.0688C955.295 90.8331 955.926 88.1475 956.845 86.4068ZM919.669 79.3391C920.021 79.5294 920.454 79.7879 920.971 80.1261C922.859 81.3611 925.368 83.3215 928.166 85.677C933.563 90.2207 939.725 95.9711 943.904 100.029C946.253 104.917 948.679 109.598 951.173 114.08C951.409 114.503 951.645 114.924 951.881 115.343C943.507 111.558 935.454 103.668 929.325 95.7238C925.823 91.1843 923.07 86.7813 921.367 83.4134C920.51 81.7197 919.957 80.3628 919.69 79.4166C919.683 79.3902 919.676 79.3643 919.669 79.3391ZM932.026 53.0053C932.411 50.534 933.514 49.4863 935.295 49.4677C936.195 49.4583 936.774 49.7404 937.241 50.1338C937.797 50.6019 938.439 51.4409 939.071 52.8176C940.344 55.589 941.182 59.6578 941.624 64.4384C942.27 71.429 942.032 79.4449 941.454 86.0686C938.388 79.3964 934.961 70.8001 933.153 63.5008C932.085 59.193 931.632 55.5324 932.026 53.0053Z" fill="#283859"/>
</svg>
