<svg width="810" height="73" viewBox="0 0 810 73" fill="none" xmlns="http://www.w3.org/2000/svg">
<path d="M18.0629 26.6139L16.1502 32.6349L13.5486 31.943L8.66196 30.9537C6.63542 30.5214 5.25195 30.2303 4.51154 30.0804C4.32115 30.0419 3.6738 29.9218 2.56949 29.7203C1.46946 29.4976 0.623285 29.3263 0.0309616 29.2064C0.120899 28.7621 0.261711 28.2841 0.453397 27.7724L3.16986 28.2233C3.57893 27.0729 4.55955 24.0783 6.11172 19.2395C6.1757 19.0322 6.5703 17.7358 7.29552 15.3501C8.04188 12.9688 8.52389 11.4037 8.74153 10.655L6.09535 10.0202C6.18502 9.68603 6.33856 9.19961 6.55594 8.56095C6.91556 8.63376 7.70671 8.80494 8.92939 9.07449C10.1563 9.32289 10.8862 9.47064 11.1189 9.51775L19.4008 11.1944L22.1237 11.6136L20.4793 16.9622C19.8361 16.876 19.3982 16.8094 19.1655 16.7623C18.9328 16.7152 18.588 16.6233 18.1312 16.4868L18.7275 14.031C18.8174 13.5868 18.7927 13.2735 18.6535 13.0911C18.5185 12.8876 18.2606 12.7474 17.8798 12.6703C17.6895 12.6317 16.7798 12.4476 15.1509 12.1178C13.5263 11.7669 12.6188 11.5721 12.4284 11.5336C11.7806 13.4284 10.9789 15.9197 10.0235 19.0075C11.6947 19.3458 12.9449 19.5879 13.7742 19.7338L15.0123 17.0446C15.4228 17.0836 16.0046 17.2014 16.7576 17.3979C15.9346 19.9399 15.137 22.5201 14.3647 25.1385C13.7469 25.0354 13.1567 24.9049 12.5941 24.747L13.2498 21.3453C13.0171 21.2982 12.6892 21.2318 12.2661 21.1461C11.8684 21.0436 11.5744 20.9731 11.384 20.9345C11.1936 20.896 10.8848 20.8444 10.4574 20.7799C10.0343 20.6943 9.71699 20.63 9.50545 20.5872C9.42862 20.8579 9.04473 22.1015 8.35378 24.3179C7.66283 26.5343 7.20639 28.0275 6.98446 28.7973L12.8865 29.9922C13.7327 30.1635 14.3241 29.7988 14.6606 28.898L15.74 26.1766C16.7852 26.3442 17.5595 26.4899 18.0629 26.6139Z" fill="white"/>
<path d="M33.324 35.7988C32.5794 35.6713 32.0575 35.3301 31.7584 34.7752C31.4805 34.224 31.409 33.5548 31.5438 32.7677C31.5985 32.4486 31.6887 32.1136 31.8144 31.7629L35.3504 23.0072C35.5047 22.6175 35.5347 22.2504 35.4405 21.9058C35.3711 21.5436 35.1131 21.3242 34.6663 21.2477C33.709 21.0837 32.5831 21.7121 31.2887 23.1327C29.998 24.5321 28.8213 26.2248 27.7585 28.2107C26.6958 30.1965 25.8355 32.1514 25.1776 34.0752L21.8269 33.5014L26.449 21.0886C26.7765 20.0717 26.6636 19.5158 26.1105 19.4211C25.5361 19.3228 24.7415 19.6794 23.7266 20.491L23.1922 19.7754C24.0831 18.9206 24.9801 18.2859 25.8832 17.8713C26.7864 17.4566 27.5783 17.3075 28.2591 17.4241C29.8546 17.6974 30.3566 18.922 29.7649 21.0981C29.7576 21.1406 29.5383 21.7819 29.107 23.0219C28.6793 24.2406 28.4512 24.8694 28.4226 24.9083C29.7412 22.8349 31.1198 21.2425 32.5583 20.1312C34.0004 18.9986 35.3809 18.5452 36.6999 18.7711C37.636 18.9314 38.2958 19.3619 38.6795 20.0627C39.0844 20.7671 39.2103 21.566 39.0573 22.4595C38.9881 22.8637 38.8836 23.2181 38.7439 23.5226L35.3209 32.0021C35.1557 32.4556 35.0603 32.7567 35.0348 32.9057C34.9401 33.4588 35.0842 33.7681 35.4671 33.8337C35.9989 33.9248 36.7741 33.5539 37.7927 32.721C38.0401 32.9386 38.2289 33.1789 38.359 33.4421C37.4893 34.3005 36.5923 34.9352 35.6679 35.3462C34.7648 35.7609 33.9835 35.9117 33.324 35.7988Z" fill="white"/>
<path d="M49.9954 20.8447C51.4255 21.0591 52.5482 21.5767 53.3636 22.3973C53.8546 22.4709 54.687 22.5958 55.861 22.7718C57.0595 22.9297 57.6694 23.0103 57.6908 23.0135C57.4806 23.8331 57.2266 24.5807 56.9289 25.2563C56.0847 25.0642 55.3136 24.894 54.6156 24.7457C54.7395 25.3754 54.755 25.9997 54.6621 26.6187C54.4189 28.2409 53.6447 29.6199 52.3395 30.7555C51.0375 31.8697 49.4041 32.3559 47.4393 32.2141C45.6389 32.577 44.7003 33.0146 44.6235 33.5269C44.5627 33.9325 44.9442 34.3716 45.7682 34.8444C46.6166 35.299 47.5553 35.7344 48.5841 36.1505C49.6375 36.5486 50.5612 37.1563 51.3553 37.9738C52.1526 38.7699 52.4744 39.6802 52.3207 40.7048C52.0711 42.3697 50.9655 43.5571 49.0039 44.2669C47.0424 44.9767 44.9517 45.1651 42.7318 44.8323C40.8107 44.5442 39.3374 43.9632 38.3117 43.0891C37.3042 42.2397 36.8869 41.2386 37.0597 40.086C37.1846 39.2535 37.6642 38.5289 38.4988 37.912C39.3515 37.3196 40.4107 36.8782 41.6764 36.5879C41.0094 35.9422 40.7351 35.2245 40.8535 34.4348C41.0391 33.1968 42.681 32.3626 45.7792 31.9324C44.506 31.5451 43.5294 30.853 42.8495 29.8562C42.191 28.8627 41.9594 27.7149 42.1546 26.4128C42.4107 24.7052 43.2585 23.2719 44.6982 22.1128C46.1378 20.9537 47.9036 20.531 49.9954 20.8447ZM47.2936 30.7845C48.1687 30.9157 49.0012 30.6041 49.7909 29.8495C50.5806 29.0949 51.0811 28.0132 51.2923 26.6045C51.4684 25.4305 51.4219 24.4305 51.1529 23.6045C50.9053 22.7817 50.3546 22.3062 49.5008 22.1782C48.5402 22.0342 47.6865 22.3426 46.9394 23.1036C46.1924 23.8646 45.7021 25.0242 45.4684 26.5823C45.2828 27.8204 45.3431 28.8006 45.6494 29.5231C45.9771 30.2488 46.5252 30.6693 47.2936 30.7845ZM48.6852 41.3709C48.7748 40.7733 48.484 40.2386 47.8127 39.7669C47.1382 39.3166 46.1846 38.8353 44.9519 38.3231C43.7192 37.8109 42.8339 37.3835 42.296 37.0409C40.9886 37.6087 40.247 38.4796 40.0709 39.6536C39.9301 40.5928 40.1884 41.4172 40.8459 42.1269C41.5214 42.8611 42.4676 43.3195 43.6842 43.5019C44.9436 43.6908 46.0599 43.5962 47.0332 43.2184C48.0065 42.8406 48.5572 42.2247 48.6852 41.3709Z" fill="white"/>
<path d="M59.8323 39.7776C59.0837 39.6764 58.5501 39.3538 58.2316 38.8098C57.913 38.2658 57.8058 37.6089 57.9099 36.8388C57.9417 36.6036 58.0322 36.2564 58.1813 35.7974L61.513 25.8914C61.883 24.7653 62.372 23.2415 62.9802 21.3199C63.6127 19.3799 63.9454 18.3685 63.9783 18.2859L61.357 17.3762C61.3819 17.0311 61.4625 16.5955 61.599 16.0694C62.8783 16.1117 65.0467 16.2632 68.1041 16.5239L66.8676 20.1138L61.6299 35.9041C61.2784 37.0545 61.3807 37.6673 61.9368 37.7424C62.4288 37.8089 63.1797 37.4095 64.1896 36.5441C64.4446 36.7528 64.6417 36.9864 64.781 37.2448C63.9208 38.1304 63.0467 38.7963 62.1588 39.2426C61.2708 39.6889 60.4953 39.8672 59.8323 39.7776Z" fill="white"/>
<path d="M69.986 41.1041C69.215 41.008 68.6674 40.6896 68.3433 40.1489C68.0433 39.5895 67.9414 38.9242 68.0375 38.1532C68.0776 37.8319 68.1524 37.4932 68.2621 37.1372L71.3594 27.7355C71.6883 26.6673 71.5529 26.0957 70.9533 26.021C70.4392 25.9569 69.6683 26.3828 68.6406 27.2986L68.0421 26.6041C68.8931 25.7097 69.7603 25.0348 70.6436 24.5794C71.5269 24.1241 72.3005 23.9378 72.9645 24.0205C74.5708 24.2208 75.2632 25.2098 75.0415 26.9875C74.9801 27.4801 74.8838 27.9031 74.7528 28.2565L71.8401 37.2244C71.4576 38.373 71.5448 38.982 72.1017 39.0515C72.5728 39.1102 73.3089 38.7017 74.3099 37.826C74.5509 37.9866 74.7504 38.2181 74.9084 38.5206C74.0574 39.415 73.1902 40.0899 72.3069 40.5452C71.4236 41.0006 70.65 41.1869 69.986 41.1041ZM75.3087 20.9197C74.7733 20.853 74.3582 20.6055 74.0636 20.1772C73.769 19.749 73.6578 19.2457 73.7299 18.6674C73.8287 18.049 74.103 17.5068 74.5526 17.0408C75.0022 16.5749 75.5483 16.382 76.1908 16.4621C76.7048 16.5262 77.1078 16.7831 77.3998 17.2327C77.6944 17.661 77.8056 18.1642 77.7335 18.7425C77.6534 19.3851 77.3685 19.9259 76.8787 20.3651C76.4103 20.807 75.887 20.9919 75.3087 20.9197Z" fill="white"/>
<path d="M81.3781 42.4938C80.7132 42.4198 80.0136 42.266 79.2795 42.0323C78.5454 41.7986 77.8686 41.441 77.2489 40.9594C76.6531 40.4588 76.3886 39.9082 76.4555 39.3075C76.5056 38.8571 76.6773 38.4852 76.9705 38.1921C77.2851 37.9014 77.657 37.7799 78.086 37.8276C78.3649 37.8586 78.6389 38.0303 78.9082 38.3426C79.199 38.6572 79.4552 38.9898 79.6768 39.3402C79.8984 39.6906 80.2189 40.0303 80.6384 40.3593C81.0793 40.6906 81.5679 40.8861 82.1041 40.9458C83.5843 41.1105 84.4222 40.3133 84.6179 38.5543C84.6799 37.9966 84.4584 37.353 83.9532 36.6236C83.4504 35.8727 82.8868 35.1802 82.2624 34.5461C81.638 33.912 81.078 33.1873 80.5823 32.3721C80.089 31.5354 79.8818 30.7631 79.9606 30.0553C80.13 28.5322 80.9322 27.3728 82.3672 26.5769C83.8046 25.7595 85.2419 25.4308 86.6791 25.5907C87.5157 25.6838 88.3749 25.964 89.2568 26.4313C90.16 26.901 90.5735 27.479 90.4971 28.1654C90.4494 28.5945 90.2575 28.9532 89.9213 29.2415C89.6091 29.5108 89.2491 29.6228 88.8416 29.5774C88.4983 29.5393 88.1861 29.3199 87.9049 28.9195C87.6476 28.4999 87.3461 28.0863 87.0006 27.6787C86.6765 27.2735 86.257 27.0422 85.7422 26.9849C85.1416 26.9181 84.6195 27.1206 84.1761 27.5925C83.7351 28.0429 83.4776 28.6006 83.4036 29.2656C83.3607 29.6517 83.506 30.1022 83.8396 30.6171C84.1732 31.132 84.5927 31.6564 85.0979 32.1904C85.6031 32.7244 86.106 33.2798 86.6064 33.8567C87.1069 34.4336 87.5144 35.0653 87.8289 35.7518C88.1434 36.4383 88.2649 37.1033 88.1933 37.7468C88.0167 39.3342 87.2276 40.5711 85.8259 41.4576C84.4481 42.325 82.9655 42.6704 81.3781 42.4938Z" fill="white"/>
<path d="M103.882 44.7186C103.108 44.6479 102.561 44.3487 102.241 43.8209C101.921 43.2932 101.796 42.6424 101.867 41.8686C101.898 41.5247 101.963 41.173 102.061 40.8135L104.899 31.8074C105.022 31.4069 105.024 31.0386 104.903 30.7024C104.784 30.3448 104.498 30.1453 104.047 30.1041C103.08 30.0157 102.007 30.7304 100.828 32.2482C99.6721 33.7465 98.6424 35.5272 97.7387 37.5903C96.835 39.6534 96.1306 41.6697 95.6256 43.6392L92.2403 43.3299L96.0597 29.9921C96.8484 27.2899 97.5286 24.7079 98.1002 22.246L95.6003 21.4974C95.6494 20.9601 95.7112 20.5214 95.7856 20.1814C97.5228 20.1451 99.7074 20.193 102.34 20.3251L101.227 23.9621L97.9012 34.7442C99.0395 32.4858 100.309 30.6837 101.711 29.338C103.136 27.9727 104.504 27.35 105.816 27.4698C106.804 27.5601 107.518 27.9288 107.958 28.5758C108.419 29.2247 108.608 30.0006 108.525 30.9033C108.486 31.3332 108.408 31.7162 108.29 32.0522L105.543 40.774C105.418 41.1961 105.347 41.4931 105.331 41.665C105.278 42.2454 105.467 42.5552 105.897 42.5944C106.434 42.6435 107.167 42.212 108.096 41.2999C108.342 41.4524 108.549 41.6772 108.717 41.9743C107.896 42.8963 107.051 43.5993 106.183 44.0836C105.316 44.5678 104.548 44.7795 103.882 44.7186Z" fill="white"/>
<path d="M166.074 34.1288L174.444 35.2882L177.219 35.5419L175.91 40.9823C175.348 40.9481 174.939 40.9132 174.683 40.8776C174.383 40.8362 174.001 40.7615 173.537 40.6536L173.993 38.0693C174.091 37.3638 173.787 36.9622 173.081 36.8644C172.868 36.8348 171.938 36.706 170.291 36.478C168.648 36.2286 167.73 36.0906 167.538 36.0639C167.234 37.1549 166.533 39.8577 165.434 44.1724C165.987 44.2708 166.627 44.3703 167.354 44.471C168.038 44.5658 168.638 44.638 169.154 44.6877L170.305 41.8074C170.454 41.8282 170.626 41.8518 170.818 41.8785C171.035 41.8867 171.175 41.8953 171.239 41.9042C171.303 41.9131 171.43 41.9415 171.62 41.9896C171.833 42.0192 172.026 42.0458 172.197 42.0695C171.275 45.7333 170.612 48.3978 170.207 50.0631C169.603 50.0229 169.29 50.0014 169.268 49.9984C169.226 49.9925 168.908 49.9267 168.315 49.801L168.758 46.3652C168.545 46.3355 168.224 46.2911 167.796 46.2319C167.393 46.1542 167.095 46.1021 166.903 46.0754C166.689 46.0458 166.378 46.0136 165.968 45.9787C165.562 45.9224 165.252 45.8795 165.038 45.8499C164.093 49.5321 163.455 52.1675 163.126 53.7561L167.241 54.4895C167.19 54.8529 167.08 55.3387 166.908 55.9469C163.576 55.4636 161.536 55.1701 160.787 55.0664C160.552 55.0338 159.824 54.9438 158.602 54.7964C157.384 54.6276 156.603 54.5195 156.261 54.4721C156.323 54.0232 156.434 53.5374 156.594 53.0147L159.333 53.2961C159.471 52.7705 160.253 49.7193 161.68 44.1426C162.682 40.2068 163.39 37.2979 163.803 35.4159L161.123 34.9466C161.192 34.6075 161.315 34.1124 161.492 33.4615C161.962 33.5267 162.784 33.6514 163.957 33.8356C165.154 34.0015 165.86 34.0992 166.074 34.1288Z" fill="white"/>
<path d="M175.955 57.0895L179.823 44.6878C180.132 43.4845 180.018 42.8528 179.482 42.7926C178.946 42.7323 178.173 43.1343 177.164 43.9983L176.557 43.3111C177.397 42.4064 178.256 41.7209 179.134 41.2548C180.011 40.7886 180.793 40.5941 181.48 40.6712C183.088 40.8518 183.661 42.0347 183.199 44.2199C183.194 44.2628 183.032 44.831 182.714 45.9247C182.42 46.9993 182.27 47.5581 182.265 47.601C183.321 45.3522 184.298 43.7134 185.196 42.6848C186.093 41.6562 187.078 41.2021 188.15 41.3225C189.416 41.4646 189.981 42.1362 189.846 43.3374C189.784 43.895 189.58 44.3501 189.237 44.7024C188.896 45.0333 188.478 45.1711 187.985 45.1157C187.771 45.0916 187.477 44.9935 187.106 44.8215C186.756 44.6518 186.42 44.549 186.098 44.5128C185.197 44.4117 184.124 45.6487 182.879 48.2238C181.659 50.7799 180.466 53.8603 179.301 57.4652L175.955 57.0895Z" fill="white"/>
<path d="M204.213 43.1407L200.445 56.0173C200.126 57.0925 200.267 57.6589 200.868 57.7164C201.405 57.7678 202.14 57.3393 203.073 56.4311C203.338 56.6082 203.544 56.8339 203.691 57.1082C202.866 58.0267 202.007 58.7359 201.113 59.2359C200.243 59.7164 199.475 59.9249 198.809 59.8612C197.95 59.779 197.402 59.3905 197.165 58.6957C196.927 58.0009 196.896 57.1956 197.07 56.28C197.077 56.2155 197.176 55.8564 197.369 55.2027C197.585 54.5295 197.801 53.8564 198.017 53.1832C198.233 52.5101 198.343 52.152 198.347 52.109C197.29 54.3278 196.178 56.0862 195.013 57.3842C193.851 58.6606 192.56 59.2311 191.142 59.0955C190.046 58.9907 189.266 58.4174 188.802 57.3757C188.362 56.3145 188.217 54.9889 188.369 53.399C188.487 52.1743 188.803 50.9037 189.319 49.587C189.859 48.251 190.53 47.0143 191.333 45.8768C192.159 44.7199 193.178 43.8092 194.391 43.1446C195.627 42.4606 196.912 42.1823 198.244 42.3097C199.533 42.4329 200.999 42.7466 202.642 43.2506L204.213 43.1407ZM192.977 56.5715C193.751 56.6455 194.622 56.035 195.591 54.74C196.563 53.4236 197.435 51.9025 198.207 50.1767C199 48.453 199.702 46.6771 200.31 44.8489C199.668 44.3105 198.949 44.0033 198.154 43.9273C196.607 43.7793 195.265 44.6592 194.129 46.567C193.016 48.4553 192.345 50.6027 192.114 53.0091C191.895 55.308 192.182 56.4955 192.977 56.5715Z" fill="white"/>
<path d="M217.866 61.394C217.113 61.3345 216.563 61.042 216.215 60.5165C215.888 59.9927 215.756 59.3328 215.819 58.5367C215.844 58.2139 215.904 57.8722 215.997 57.5115L218.725 48.4714C218.844 48.0694 218.84 47.701 218.715 47.3664C218.613 47.0119 218.337 46.8168 217.885 46.7811C216.916 46.7046 215.852 47.4324 214.692 48.9645C213.533 50.4751 212.515 52.2674 211.636 54.3414C210.758 56.4154 210.078 58.4402 209.597 60.4157L206.209 60.1479L209.687 47.3673C209.921 46.3249 209.758 45.7816 209.199 45.7374C208.618 45.6915 207.859 46.1186 206.921 47.0188L206.324 46.3546C207.134 45.4227 207.97 44.7093 208.832 44.2145C209.694 43.7197 210.469 43.4995 211.157 43.5539C212.771 43.6814 213.382 44.8556 212.99 47.0763C212.987 47.1193 212.826 47.7778 212.509 49.0518C212.194 50.3043 212.023 50.9512 211.998 50.9925C213.124 48.8081 214.352 47.0973 215.684 45.8603C217.018 44.6016 218.352 44.0251 219.686 44.1305C220.632 44.2053 221.328 44.5743 221.774 45.2374C222.241 45.9022 222.439 46.6864 222.367 47.5901C222.335 47.9989 222.263 48.3613 222.152 48.6772L219.511 57.432C219.388 57.8986 219.32 58.2072 219.308 58.3578C219.264 58.9172 219.435 59.2122 219.823 59.2428C220.361 59.2853 221.099 58.8457 222.038 57.924C222.304 58.1182 222.514 58.3405 222.667 58.5908C221.879 59.5244 221.043 60.2378 220.16 60.7309C219.298 61.2257 218.533 61.4468 217.866 61.394Z" fill="white"/>
<path d="M225.837 68.6881L226.385 67.7171C226.961 68.1861 227.647 68.4457 228.444 68.4961C228.982 68.5302 229.436 68.375 229.803 68.0306C230.171 67.6862 230.371 67.2663 230.402 66.7708C230.458 65.8877 229.815 65.1117 228.473 64.443L229.588 62.2102C228.217 61.9938 227.232 61.3259 226.632 60.2067C226.034 59.0659 225.778 57.817 225.864 56.4599C225.948 55.1244 226.238 53.7911 226.733 52.4599C227.229 51.1072 227.881 49.8724 228.686 48.7555C229.494 47.617 230.513 46.7191 231.744 46.0616C232.975 45.4042 234.291 45.1197 235.691 45.2082C236.875 45.2831 237.785 45.6109 238.418 46.1917C239.074 46.7738 239.383 47.3556 239.346 47.9372C239.317 48.3895 239.144 48.7462 238.824 49.0072C238.505 49.2681 238.098 49.3829 237.602 49.3516C237.322 49.3339 237.05 49.1977 236.785 48.9431C236.541 48.6898 236.331 48.4278 236.153 48.157C235.998 47.8661 235.778 47.5926 235.491 47.3366C235.205 47.0806 234.889 46.9417 234.544 46.9199C233.64 46.8627 232.812 47.297 232.061 48.2227C231.334 49.1283 230.765 50.2494 230.357 51.586C229.948 52.9227 229.698 54.3018 229.608 55.7235C229.532 56.9298 229.696 57.9242 230.101 58.7067C230.529 59.469 231.205 59.8795 232.132 59.938C232.843 59.983 233.553 59.8657 234.263 59.5862C234.995 59.2864 235.558 58.9435 235.95 58.5574C236.22 58.7259 236.424 58.9226 236.561 59.1476C235.901 60.0141 235.044 60.7385 233.991 61.3207C232.939 61.8814 231.892 62.1937 230.85 62.2575L230.362 63.2972C231.334 63.6614 232.04 64.1278 232.48 64.6963C232.94 65.2876 233.149 65.9172 233.106 66.585C233.049 67.4897 232.59 68.25 231.729 68.866C230.869 69.482 229.76 69.7471 228.403 69.6613C227.326 69.5933 226.47 69.2688 225.837 68.6881Z" fill="white"/>
<path d="M255.154 46.4872L251.991 59.5256C251.722 60.6146 251.889 61.1737 252.493 61.2031C253.032 61.2293 253.746 60.7671 254.635 59.8163C254.908 59.9809 255.124 60.1967 255.284 60.4638C254.503 61.4198 253.678 62.1684 252.809 62.7095C251.962 63.2301 251.205 63.4742 250.536 63.4417C249.674 63.3997 249.108 63.0372 248.839 62.3542C248.57 61.6712 248.501 60.8683 248.632 59.9455C248.635 59.8809 248.718 59.5175 248.88 58.8555C249.064 58.173 249.249 57.4905 249.433 56.808C249.618 56.1255 249.711 55.7626 249.713 55.7195C248.76 57.9853 247.732 59.7937 246.629 61.1446C245.527 62.4739 244.265 63.104 242.842 63.0347C241.742 62.9812 240.937 62.445 240.424 61.426C239.935 60.3866 239.729 59.0692 239.806 57.4739C239.866 56.2451 240.123 54.961 240.577 53.6218C241.054 52.262 241.667 50.9953 242.415 49.8216C243.187 48.6274 244.162 47.6701 245.343 46.9496C246.546 46.2086 247.815 45.8706 249.152 45.9357C250.446 45.9987 251.925 46.2435 253.589 46.6703L255.154 46.4872ZM244.557 60.4279C245.333 60.4656 246.175 59.8151 247.083 58.4763C247.992 57.116 248.792 55.5558 249.483 53.7959C250.195 52.037 250.812 50.2303 251.335 48.3757C250.668 47.8679 249.936 47.5945 249.138 47.5557C247.586 47.4802 246.287 48.4217 245.241 50.3805C244.217 52.3187 243.646 54.4951 243.529 56.9096C243.417 59.2163 243.759 60.389 244.557 60.4279Z" fill="white"/>
<path d="M260.25 63.7682C259.474 63.7409 258.9 63.4724 258.529 62.9626C258.181 62.432 258.02 61.7784 258.047 61.0019C258.059 60.6784 258.103 60.3344 258.181 59.97L260.431 50.3305C260.664 49.2372 260.479 48.68 259.875 48.6587C259.357 48.6405 258.627 49.1332 257.685 50.1367L257.027 49.498C257.795 48.5316 258.599 47.7824 259.438 47.2504C260.278 46.7184 261.032 46.4642 261.7 46.4877C263.318 46.5446 264.096 47.4682 264.033 49.2585C264.015 49.7547 263.957 50.1845 263.858 50.5482L261.753 59.7392C261.474 60.9173 261.614 61.5161 262.175 61.5359C262.65 61.5525 263.347 61.0803 264.266 60.1192C264.52 60.2577 264.74 60.4706 264.924 60.7579C264.156 61.7243 263.352 62.4735 262.512 63.0055C261.673 63.5375 260.919 63.7917 260.25 63.7682ZM263.76 43.191C263.221 43.172 262.785 42.9624 262.454 42.562C262.123 42.1616 261.967 41.6702 261.988 41.0878C262.031 40.463 262.256 39.8986 262.663 39.3945C263.069 38.8905 263.596 38.6499 264.243 38.6726C264.761 38.6909 265.185 38.911 265.516 39.3329C265.847 39.7333 266.003 40.2247 265.982 40.8071C265.959 41.4542 265.723 42.0183 265.275 42.4992C264.847 42.9809 264.342 43.2115 263.76 43.191Z" fill="white"/>
<path d="M272.049 64.1422C271.38 64.1286 270.669 64.0386 269.917 63.8722C269.165 63.7058 268.458 63.4108 267.798 62.9872C267.159 62.5425 266.846 62.018 266.858 61.4138C266.868 60.9606 267.005 60.5749 267.27 60.2564C267.558 59.9384 267.917 59.7838 268.348 59.7926C268.629 59.7983 268.917 59.9445 269.214 60.2311C269.532 60.5183 269.817 60.8263 270.069 61.1552C270.322 61.4842 270.672 61.7935 271.119 62.0833C271.588 62.3734 272.092 62.524 272.632 62.535C274.121 62.5652 274.883 61.6956 274.919 59.9261C274.931 59.365 274.652 58.7441 274.083 58.0633C273.514 57.361 272.89 56.7222 272.211 56.1471C271.532 55.5721 270.909 54.901 270.342 54.1339C269.775 53.3452 269.499 52.5948 269.513 51.8827C269.544 50.3505 270.238 49.1233 271.595 48.201C272.953 47.2572 274.355 46.7999 275.801 46.8293C276.642 46.8464 277.523 47.0478 278.444 47.4335C279.386 47.8196 279.85 48.3579 279.836 49.0485C279.827 49.4801 279.668 49.8546 279.36 50.1722C279.073 50.4686 278.725 50.6126 278.315 50.6043C277.969 50.5973 277.638 50.407 277.322 50.0336C277.028 49.6391 276.69 49.2544 276.309 48.8797C275.95 48.5054 275.511 48.313 274.994 48.3024C274.389 48.2902 273.888 48.539 273.489 49.049C273.09 49.5375 272.884 50.1162 272.871 50.7851C272.863 51.1735 273.048 51.6091 273.427 52.0917C273.806 52.5743 274.271 53.0587 274.822 53.5449C275.374 54.031 275.925 54.5387 276.475 55.068C277.026 55.5973 277.489 56.1896 277.864 56.8449C278.239 57.5001 278.42 58.1514 278.407 58.7988C278.375 60.3957 277.701 61.6989 276.385 62.7083C275.091 63.6967 273.646 64.1747 272.049 64.1422Z" fill="white"/>
<path d="M339.309 45.7011C343.561 45.6915 345.692 47.5645 345.7 51.3201C345.703 52.4856 345.489 53.5329 345.06 54.4619C344.63 55.3694 344.103 56.0828 343.478 56.6023C342.853 57.1217 342.131 57.555 341.312 57.9022C340.514 58.2277 339.781 58.4452 339.112 58.5546C338.464 58.664 337.849 58.7193 337.267 58.7206C336.727 58.7219 336.274 58.7013 335.907 58.659L335.59 61.8972C335.442 63.0415 335.326 64.272 335.243 65.5888L339.355 65.7414C339.355 66.1083 339.313 66.6049 339.228 67.231C335.904 67.2169 333.865 67.2107 333.109 67.2124C332.872 67.2129 332.149 67.2253 330.94 67.2496C329.732 67.2524 328.933 67.2542 328.545 67.255C328.544 66.8018 328.586 66.3053 328.671 65.7655L331.422 65.6622C331.486 65.1224 331.835 61.992 332.47 56.2709C332.85 52.8383 333.135 49.8591 333.324 47.3334L330.636 47.2423C330.657 46.8969 330.71 46.3896 330.795 45.7203C331.14 45.7195 331.896 45.7286 333.061 45.7476C334.227 45.7449 334.928 45.7434 335.165 45.7428C335.489 45.7421 336.104 45.7407 337.011 45.7387C337.917 45.715 338.684 45.7025 339.309 45.7011ZM336.414 53.8015L336.097 57.0074C336.529 57.0712 336.939 57.1026 337.328 57.1017C338.213 57.0566 338.968 56.8498 339.593 56.4815C340.218 56.1132 340.681 55.6373 340.982 55.0539C341.304 54.4704 341.529 53.8871 341.658 53.3041C341.807 52.6994 341.881 52.0841 341.88 51.4582C341.877 50.2063 341.594 49.2249 341.032 48.5139C340.469 47.8029 339.626 47.4487 338.504 47.4512L337.079 47.4544C336.741 50.5632 336.519 52.6789 336.414 53.8015Z" fill="white"/>
<path d="M352.186 72.5956C350.481 72.5466 349.13 72.2271 348.132 71.637C347.156 71.0475 346.684 70.1918 346.716 69.07C346.738 68.3148 347.017 67.6211 347.553 66.9887C348.089 66.378 348.761 65.9115 349.569 65.5892C349.741 65.6373 349.877 65.7708 349.979 65.9896C349.815 66.4384 349.721 67.0511 349.699 67.8278C349.64 69.8774 350.797 70.9363 353.171 71.0045C354.444 71.0411 355.483 70.5419 356.291 69.5071C357.097 68.4938 357.784 66.7646 358.351 64.3193C358.352 64.2762 358.476 63.7183 358.723 62.6458C358.969 61.5733 359.205 60.5112 359.43 59.4596C359.654 58.4081 359.767 57.8607 359.768 57.8176C357.636 62.8953 355.221 65.3954 352.524 65.3179C351.64 65.2924 350.947 64.9702 350.447 64.3513C349.946 63.7323 349.71 62.959 349.736 62.0312C349.746 61.686 349.788 61.3418 349.863 60.9984L352.04 51.7331C352.307 50.7043 352.128 50.1809 351.502 50.163C350.985 50.1481 350.236 50.6664 349.255 51.7178L348.561 51.0825C349.323 50.1111 350.144 49.3466 351.024 48.7889C351.904 48.2096 352.679 47.9295 353.347 47.9488C354.103 47.9705 354.656 48.2455 355.008 48.7738C355.36 49.2806 355.525 49.9331 355.502 50.7314C355.491 51.1197 355.448 51.4855 355.374 51.8289L353.3 60.8705C353.201 61.2995 353.222 61.6888 353.364 62.0383C353.526 62.3885 353.834 62.5701 354.287 62.5831C355.215 62.6098 356.186 61.8604 357.202 60.3349C358.218 58.7878 359.091 56.956 359.821 54.8393C360.552 52.7227 361.109 50.6118 361.493 48.5068L364.891 48.6045L361.774 63.5432C361.499 64.8525 361.087 66.039 360.538 67.1029C359.989 68.1667 359.381 69.0345 358.714 69.7063C358.047 70.3781 357.318 70.9401 356.528 71.3925C355.759 71.8454 355.005 72.1584 354.266 72.3315C353.548 72.5268 352.854 72.6148 352.186 72.5956Z" fill="white"/>
<path d="M374.587 50.1617C373.681 50.1514 372.877 50.6278 372.175 51.5911C371.495 52.5331 370.986 53.682 370.646 55.038C370.307 56.394 370.129 57.7842 370.113 59.2086C370.099 60.4172 370.314 61.4018 370.759 62.1623C371.225 62.9016 371.923 63.2765 372.851 63.2871C373.563 63.2953 374.266 63.1414 374.961 62.8256C375.677 62.4884 376.221 62.1169 376.592 61.7111C376.871 61.8653 377.085 62.0513 377.233 62.2688C376.553 63.2755 375.615 64.1066 374.42 64.7621C373.247 65.4178 372.1 65.7392 370.977 65.7264C369.402 65.7083 368.243 65.1339 367.5 64.0029C366.758 62.872 366.395 61.5836 366.411 60.1376C366.427 58.7995 366.647 57.4529 367.073 56.0979C367.499 54.7214 368.085 53.4546 368.832 52.2975C369.58 51.1189 370.551 50.1695 371.746 49.4493C372.942 48.7291 374.241 48.377 375.644 48.3931C376.831 48.4066 377.756 48.687 378.419 49.2343C379.103 49.7817 379.442 50.3468 379.435 50.9295C379.43 51.3827 379.275 51.7479 378.969 52.025C378.664 52.3021 378.263 52.4378 377.767 52.4322C377.486 52.429 377.207 52.307 376.929 52.0664C376.673 51.8261 376.449 51.5753 376.258 51.3141C376.088 51.0315 375.854 50.7698 375.555 50.529C375.255 50.2881 374.933 50.1657 374.587 50.1617Z" fill="white"/>
<path d="M390.26 50.2013C389.353 50.2037 388.556 50.6915 387.868 51.6646C387.201 52.6161 386.708 53.7721 386.388 55.1327C386.068 56.4934 385.909 57.8859 385.913 59.3105C385.917 60.5191 386.146 61.5006 386.601 62.2548C387.078 62.9873 387.78 63.3524 388.708 63.3499C389.421 63.348 390.122 63.1842 390.812 62.8586C391.523 62.5114 392.061 62.1322 392.427 61.7212C392.708 61.8715 392.925 62.0544 393.076 62.2698C392.41 63.286 391.484 64.1303 390.299 64.8025C389.135 65.4747 387.992 65.8124 386.87 65.8154C385.294 65.8196 384.127 65.2615 383.369 64.1412C382.61 63.0209 382.229 61.7377 382.225 60.2916C382.222 58.9534 382.423 57.6039 382.829 56.243C383.236 54.8606 383.804 53.5856 384.535 52.4182C385.266 51.2291 386.224 50.2661 387.409 49.529C388.594 48.792 389.888 48.4216 391.291 48.4179C392.478 48.4147 393.407 48.682 394.077 49.2198C394.769 49.7575 395.116 50.3178 395.118 50.9005C395.119 51.3538 394.969 51.7211 394.667 52.0025C394.366 52.2839 393.967 52.4253 393.471 52.4266C393.19 52.4273 392.909 52.3094 392.628 52.0727C392.368 51.836 392.141 51.5884 391.946 51.3299C391.773 51.0498 391.535 50.7914 391.232 50.5548C390.929 50.3182 390.605 50.2004 390.26 50.2013Z" fill="white"/>
<path d="M398.229 65.4092L400.436 52.936C400.691 51.4852 400.517 50.7651 399.912 50.7758C399.653 50.7804 399.311 50.9268 398.884 51.2149C398.457 51.5031 398.075 51.8553 397.737 52.2714L397.079 51.6678C398.681 49.5024 400.259 48.4059 401.813 48.3784C403.302 48.352 404.062 49.2021 404.092 50.9285C404.1 51.3601 404.065 51.8141 403.987 52.2903L402.732 58.2382L402.829 58.2364C406.532 51.5653 409.473 48.2105 411.653 48.1719C412.71 48.1532 413.516 48.5491 414.07 49.3596C413.721 50.3804 413.175 51.2319 412.431 51.9143C411.906 51.5134 411.374 51.3178 410.834 51.3273C409.432 51.3521 407.814 52.6652 405.982 55.2664C409.05 60.2851 410.983 62.7873 411.782 62.7732C412.149 62.7667 412.565 62.5219 413.032 62.0387C413.36 62.292 413.568 62.4718 413.656 62.5781C413.321 63.1453 412.739 63.7817 411.909 64.4871C411.079 65.171 410.416 65.5173 409.92 65.5261C409.229 65.5383 408.399 64.9486 407.428 63.7569C406.456 62.5436 405.291 60.7401 403.932 58.3465C402.712 60.1598 401.944 62.4939 401.627 65.349L398.229 65.4092Z" fill="white"/>
<path d="M423.474 62.3592C424.423 62.324 425.354 61.512 426.267 59.9231C427.202 58.3334 427.974 56.4581 428.586 54.2973C429.197 52.1364 429.624 49.9823 429.869 47.835L433.266 47.7092L431.322 60.8374C431.168 61.923 431.393 62.4547 431.997 62.4323C432.558 62.4116 433.263 61.9103 434.112 60.9285C434.354 61.0491 434.566 61.2465 434.749 61.5205C434.032 62.5621 433.274 63.3786 432.475 63.9697C431.676 64.5608 430.942 64.8688 430.274 64.8935C428.829 64.9471 428.073 64.0787 428.007 62.2885C427.996 61.9865 428.015 61.6402 428.065 61.2496L428.195 60.3701C428.281 59.7837 428.367 59.1974 428.454 58.611C428.562 58.0239 428.624 57.676 428.642 57.5673C426.732 62.5625 424.515 65.1068 421.991 65.2002C421.021 65.2362 420.265 64.9618 419.725 64.377C419.206 63.7699 418.93 63.0134 418.896 62.1075C418.888 61.8702 418.917 61.4912 418.984 60.9703L420.533 52.0684C420.586 51.7425 420.607 51.4393 420.597 51.1589C420.615 50.4887 420.398 50.162 419.945 50.1788C419.384 50.1995 418.671 50.7659 417.805 51.8779L417.07 51.2895C417.767 50.2702 418.536 49.4534 419.377 48.8391C420.239 48.2024 421.004 47.8717 421.673 47.8469C422.406 47.8198 422.966 48.0582 423.352 48.5623C423.737 49.0448 423.944 49.6851 423.973 50.4831C423.988 50.8714 423.969 51.2392 423.917 51.5867L422.41 60.7463C422.299 61.8519 422.654 62.3895 423.474 62.3592Z" fill="white"/>
<path d="M445.216 62.4026C446.164 62.3434 447.074 61.5081 447.946 59.8965C448.84 58.2837 449.565 56.3894 450.122 54.2137C450.678 52.0381 451.051 49.8738 451.241 47.7211L454.634 47.5092L453.023 60.6824C452.897 61.7716 453.135 62.2974 453.738 62.2597C454.298 62.2248 454.99 61.7058 455.814 60.7028C456.059 60.8172 456.277 61.0091 456.467 61.2784C455.776 62.3379 455.039 63.1733 454.255 63.7845C453.471 64.3957 452.746 64.7221 452.078 64.7638C450.635 64.854 449.857 64.005 449.746 62.2171C449.728 61.937 449.736 61.5473 449.77 61.0478C450.078 58.7146 450.242 57.5258 450.261 57.4813C448.478 62.5233 446.326 65.123 443.806 65.2804C442.837 65.3409 442.075 65.0857 441.52 64.5148C440.985 63.9211 440.69 63.1718 440.633 62.267C440.619 62.0301 440.638 61.6504 440.692 61.128L442.015 52.1897C442.06 51.8626 442.073 51.559 442.056 51.2789C442.057 50.6084 441.832 50.2873 441.379 50.3156C440.819 50.3505 440.121 50.9348 439.283 52.0684L438.534 51.4988C439.204 50.4622 439.952 49.6262 440.778 48.9907C441.623 48.3324 442.38 47.9824 443.048 47.9407C443.78 47.895 444.346 48.1192 444.744 48.6133C445.141 49.0859 445.365 49.7207 445.414 50.5178C445.439 50.9055 445.429 51.2737 445.386 51.6224L444.111 60.8172C444.029 61.9253 444.397 62.4537 445.216 62.4026ZM446.408 43.0597C446.722 43.5808 447.299 43.8151 448.139 43.7626C448.979 43.7102 449.566 43.4032 449.898 42.8418C450.252 42.2791 450.336 41.5493 450.151 40.6527L452.8 40.4872C452.861 41.8026 452.471 42.8325 451.631 43.577C450.812 44.3202 449.595 44.7422 447.979 44.843C446.385 44.9426 445.223 44.68 444.492 44.0552C443.759 43.4089 443.47 42.4106 443.624 41.0602L446.306 40.8928C446.059 41.7948 446.093 42.5171 446.408 43.0597Z" fill="white"/>
<path d="M531.979 57.363L531.425 63.6562L528.735 63.548L523.75 63.6476C521.678 63.6674 520.264 63.6848 519.509 63.6999C519.315 63.7038 518.657 63.7278 517.535 63.7718C516.413 63.7942 515.55 63.8114 514.946 63.8235C514.937 63.3703 514.97 62.8731 515.045 62.3319L517.795 62.1799C517.943 60.968 518.248 57.8316 518.708 52.7709C518.725 52.5547 518.828 51.2034 519.015 48.717C519.225 46.2302 519.354 44.5978 519.403 43.8196L516.682 43.7768C516.697 43.4311 516.741 42.9229 516.814 42.2522C517.181 42.2449 517.99 42.2395 519.242 42.2361C520.494 42.2111 521.238 42.1962 521.476 42.1915L529.924 42.0227L532.673 41.8383L532.234 47.4167C531.587 47.4728 531.145 47.5032 530.908 47.508C530.67 47.5127 530.314 47.4983 529.838 47.4646L529.885 44.9379C529.876 44.4847 529.784 44.1843 529.608 44.0367C529.432 43.8675 529.15 43.7868 528.761 43.7946C528.567 43.7984 527.639 43.817 525.977 43.8502C524.315 43.8618 523.387 43.8695 523.193 43.8734C522.974 45.8639 522.734 48.47 522.475 51.6918C524.18 51.6577 525.453 51.6215 526.294 51.5831L526.916 48.6887C527.325 48.6374 527.919 48.6255 528.696 48.6531C528.447 51.3134 528.231 54.0054 528.048 56.7292C527.423 56.7632 526.818 56.7645 526.235 56.733L526.133 53.2702C525.896 53.2749 525.561 53.2816 525.13 53.2902C524.719 53.2768 524.417 53.2721 524.223 53.276C524.029 53.2798 523.716 53.2969 523.285 53.3271C522.853 53.3357 522.529 53.3422 522.314 53.3465C522.298 53.6274 522.194 54.9248 522.003 57.2385C521.812 59.5522 521.692 61.109 521.643 61.9087L527.663 61.7884C528.527 61.7712 529.024 61.2863 529.156 60.3338L529.617 57.4426C530.673 57.3783 531.461 57.3518 531.979 57.363Z" fill="white"/>
<path d="M539.918 63.4677C539.25 63.4988 538.535 63.4564 537.773 63.3406C537.012 63.2248 536.287 62.9776 535.6 62.599C534.933 62.1979 534.585 61.6955 534.557 61.0918C534.536 60.6391 534.647 60.245 534.891 59.9095C535.156 59.5731 535.505 59.3948 535.936 59.3748C536.216 59.3617 536.514 59.4883 536.828 59.7546C537.165 60.0198 537.47 60.3081 537.744 60.6195C538.018 60.9308 538.387 61.2161 538.853 61.4754C539.341 61.7336 539.854 61.8502 540.393 61.8251C541.88 61.7559 542.583 60.8373 542.501 59.0694C542.475 58.5088 542.155 57.9079 541.542 57.2666C540.928 56.6037 540.263 56.0081 539.547 55.4796C538.831 54.9511 538.164 54.3231 537.547 53.5956C536.928 52.8465 536.603 52.1162 536.57 51.4047C536.498 49.874 537.109 48.6031 538.402 47.5923C539.693 46.5599 541.061 46.0101 542.506 45.9429C543.347 45.9038 544.239 46.0459 545.183 46.3693C546.149 46.6917 546.648 47.1979 546.68 47.8878C546.7 48.319 546.567 48.7033 546.28 49.0408C546.014 49.3557 545.676 49.5226 545.266 49.5417C544.921 49.5578 544.579 49.39 544.238 49.0386C543.918 48.6645 543.556 48.3033 543.151 47.9548C542.767 47.6053 542.316 47.4426 541.799 47.4667C541.195 47.4948 540.711 47.7766 540.347 48.3121C539.982 48.826 539.815 49.4171 539.847 50.0855C539.865 50.4736 540.079 50.8958 540.489 51.3521C540.899 51.8083 541.395 52.2606 541.978 52.7088C542.561 53.1571 543.144 53.6269 543.729 54.1183C544.314 54.6096 544.815 55.1697 545.233 55.7984C545.651 56.4272 545.875 57.065 545.906 57.7118C545.98 59.3072 545.394 60.6525 544.149 61.7476C542.924 62.8201 541.514 63.3935 539.918 63.4677Z" fill="white"/>
<path d="M550.886 59.4541L552.079 49.7101C552.121 49.3613 552.133 49.0361 552.114 48.7346C552.076 48.153 551.842 47.876 551.412 47.9036C550.852 47.9395 550.162 48.4811 549.342 49.5284L548.655 48.9236C549.323 47.8859 550.049 47.0609 550.832 46.4484C551.614 45.836 552.34 45.5084 553.007 45.4656C554.623 45.3622 555.395 46.4374 555.323 48.6913C555.324 48.7128 555.248 49.3881 555.096 50.7172C554.943 52.0463 554.867 52.7216 554.868 52.7432C555.722 50.2013 556.626 48.2726 557.58 46.9571C558.555 45.6402 559.722 44.9384 561.078 44.8515C562.199 44.7797 563.122 45.1856 563.849 46.069C564.575 46.9309 564.985 48.105 565.08 49.5912C565.196 51.4005 564.948 53.2656 564.336 55.1864C563.743 57.0844 562.748 58.7594 561.348 60.2115C559.971 61.6623 558.366 62.4463 556.535 62.5636C556.406 62.5718 555.53 62.5738 553.908 62.5696C553.47 65.8634 553.23 67.8577 553.188 68.5525L556.946 68.4741C556.937 68.6693 556.881 69.1487 556.779 69.9122C553.913 70.0741 552.07 70.1813 551.252 70.2337C551.015 70.2489 550.315 70.2937 549.152 70.3682C548.012 70.4628 547.248 70.5226 546.86 70.5474C546.878 70.1569 546.923 69.6782 546.995 69.1113L549.41 68.8269C549.761 67.55 550.253 64.4257 550.886 59.4541ZM559.6 47.6063C558.545 47.6739 557.477 49.0724 556.398 51.8017C555.34 54.5297 554.593 57.3999 554.159 60.4124C554.877 60.8206 555.657 60.9978 556.497 60.944C557.66 60.8695 558.649 60.2763 559.465 59.1643C560.279 58.0307 560.835 56.7515 561.133 55.3266C561.43 53.8802 561.533 52.457 561.443 51.0569C561.377 50.023 561.183 49.1812 560.86 48.5314C560.537 47.8816 560.117 47.5732 559.6 47.6063Z" fill="white"/>
<path d="M580.872 43.5893L579.408 56.9257C579.28 58.0402 579.518 58.5733 580.12 58.525C580.658 58.4819 581.307 57.9319 582.067 56.875C582.359 57.0032 582.601 57.1895 582.794 57.4339C582.142 58.4822 581.419 59.3304 580.627 59.9785C579.854 60.6034 579.134 60.9425 578.467 60.996C577.607 61.0649 576.999 60.778 576.644 60.1352C576.29 59.4924 576.118 58.7049 576.13 57.7729C576.125 57.7084 576.16 57.3375 576.236 56.6602C576.331 55.9596 576.427 55.2591 576.522 54.5586C576.618 53.858 576.664 53.4862 576.66 53.4432C576.006 55.8125 575.218 57.7377 574.297 59.2189C573.375 60.6786 572.204 61.4653 570.784 61.5791C569.687 61.667 568.819 61.2386 568.18 60.2937C567.561 59.3256 567.188 58.0455 567.06 56.4534C566.962 55.2271 567.052 53.9207 567.331 52.5343C567.629 51.1246 568.074 49.7897 568.666 48.5298C569.278 47.2465 570.123 46.172 571.201 45.3061C572.299 44.417 573.515 43.919 574.849 43.8121C576.14 43.7087 577.638 43.7618 579.344 43.9716L580.872 43.5893ZM572.15 58.7738C572.925 58.7118 573.677 57.9587 574.405 56.5145C575.132 55.0488 575.726 53.399 576.185 51.565C576.666 49.7293 577.046 47.8583 577.327 45.9521C576.6 45.5339 575.839 45.3567 575.043 45.4205C573.494 45.5446 572.326 46.645 571.54 48.7218C570.773 50.7752 570.487 53.0068 570.68 55.4164C570.864 57.7185 571.354 58.8376 572.15 58.7738Z" fill="white"/>
<path d="M597.772 59.1721C597.02 59.2443 596.427 59.0519 595.993 58.5949C595.58 58.1359 595.336 57.5089 595.259 56.7139C595.228 56.3917 595.228 56.0448 595.257 55.6734L596.373 46.2967C596.419 45.8803 596.352 45.5181 596.171 45.2103C596.009 44.8789 595.702 44.7349 595.251 44.7783C594.284 44.8712 593.363 45.7728 592.486 47.4832C591.608 49.1722 590.916 51.1142 590.411 53.3093C589.907 55.5044 589.589 57.6164 589.459 59.6455L586.075 59.9705L587.28 46.78C587.329 45.7128 587.074 45.206 586.516 45.2597C585.936 45.3154 585.262 45.868 584.496 46.9173L583.793 46.367C584.428 45.3085 585.127 44.4607 585.89 43.8237C586.653 43.1867 587.378 42.8351 588.065 42.7691C589.677 42.6143 590.482 43.6644 590.482 45.9194C590.486 45.9624 590.443 46.6388 590.352 47.9485C590.259 49.2367 590.204 49.9033 590.186 49.9484C590.915 47.6017 591.827 45.7035 592.924 44.2538C594.019 42.7826 595.232 41.983 596.564 41.855C597.509 41.7642 598.259 42.0066 598.813 42.5822C599.389 43.1557 599.72 43.8936 599.806 44.796C599.846 45.2042 599.838 45.5736 599.783 45.9041L598.704 54.9845C598.663 55.4654 598.65 55.7811 598.664 55.9315C598.718 56.4901 598.938 56.7508 599.325 56.7137C599.862 56.6621 600.513 56.1008 601.277 55.03C601.573 55.175 601.818 55.3575 602.013 55.5773C601.399 56.6337 600.7 57.4814 599.915 58.1205C599.153 58.7576 598.438 59.1081 597.772 59.1721ZM588.84 39.9952L588.159 39.345C589.297 37.1975 590.393 36.0731 591.445 35.972C592.068 35.9121 592.907 36.1785 593.962 36.7711C595.037 37.3616 595.769 37.6382 596.155 37.6011C596.821 37.5371 597.443 37.0112 598.02 36.0234L598.788 36.5676C597.891 38.5184 596.896 39.5573 595.803 39.684C595.287 39.7335 594.459 39.4662 593.319 38.8819C592.176 38.2761 591.433 37.9897 591.09 38.0227C590.466 38.0826 589.717 38.74 588.84 39.9952Z" fill="white"/>
<path d="M612 40.18C613.866 39.9664 615.299 40.4324 616.299 41.5779C617.321 42.721 617.931 44.1609 618.13 45.8979C618.324 47.5919 618.161 49.305 617.643 51.0372C617.143 52.7454 616.241 54.2608 614.937 55.5832C613.652 56.8818 612.109 57.6341 610.307 57.8403C608.592 58.0367 607.202 57.5659 606.137 56.4277C605.071 55.2681 604.436 53.8091 604.235 52.0508C604.049 50.421 604.216 48.7508 604.737 47.0401C605.277 45.3055 606.188 43.7782 607.471 42.4582C608.754 41.1382 610.263 40.3788 612 40.18ZM610.849 56.3119C611.793 56.2039 612.567 55.5613 613.17 54.3842C613.793 53.1833 614.194 51.8448 614.373 50.3688C614.549 48.8713 614.558 47.4364 614.401 46.064C614.256 44.7989 613.938 43.7273 613.447 42.8495C612.976 41.9691 612.334 41.5756 611.519 41.6689C610.619 41.772 609.854 42.4026 609.227 43.5607C608.599 44.7188 608.185 46.0371 607.985 47.5155C607.782 48.9725 607.755 50.3443 607.902 51.631C608.037 52.8103 608.348 53.9153 608.835 54.9457C609.342 55.9522 610.013 56.4076 610.849 56.3119Z" fill="white"/>
<path d="M626.058 55.9425C625.309 56.0403 624.71 55.8681 624.261 55.4262C623.811 54.9842 623.536 54.3779 623.436 53.6075C623.405 53.372 623.402 53.0133 623.426 52.5313L624.056 42.0991C624.119 40.9154 624.194 39.3167 624.279 37.3031C624.384 35.2652 624.441 34.2021 624.451 34.1137L621.683 33.9198C621.617 33.5801 621.581 33.1386 621.576 32.5951C622.822 32.302 624.954 31.8822 627.974 31.3359L627.717 35.1241L626.783 51.7342C626.744 52.9364 627.002 53.5012 627.559 53.4286C628.051 53.3644 628.672 52.7828 629.421 51.6838C629.721 51.8187 629.973 51.9927 630.174 52.2058C629.575 53.2852 628.905 54.1562 628.165 54.8188C627.424 55.4814 626.722 55.856 626.058 55.9425Z" fill="white"/>
<path d="M677.212 49.7033L679.421 26.1795L691.064 24.8373L690.81 27.4411L682.03 28.4534L681.345 35.7998L689.546 34.8543L689.353 37.4186L681.119 38.3678L680.296 46.7731L689.108 45.7572L688.855 48.3611L677.212 49.7033Z" fill="white"/>
<path d="M706.164 46.3026C705.544 46.3916 705.044 46.3218 704.662 46.0932C704.28 45.8646 703.979 45.3627 703.759 44.5876L701.849 37.8953C701.711 37.3917 701.538 36.7951 701.33 36.1055C701.143 35.4127 700.958 34.7307 700.774 34.0593C700.612 33.3849 700.477 32.8264 700.37 32.3839L700.242 32.4023C700.032 33.2175 699.743 34.1639 699.374 35.2417C699.006 36.3195 698.658 37.3179 698.333 38.237L694.998 47.58L691.986 48.0128L699.122 29.3905L698.429 27.2987C698.144 26.3801 697.701 25.7242 697.1 25.331C696.519 24.9346 695.716 24.8101 694.691 24.9575C694.306 25.0128 693.968 25.0832 693.675 25.1689C693.382 25.2546 693.121 25.3357 692.892 25.4122L693.05 23.0999C693.337 22.9715 693.659 22.8598 694.016 22.7649C694.373 22.67 694.765 22.5918 695.193 22.5304C696.838 22.2941 698.115 22.5357 699.025 23.2553C699.954 23.9505 700.7 25.1953 701.263 26.9896L706.216 42.7954C706.366 43.2317 706.516 43.5155 706.665 43.6466C706.836 43.7747 707.039 43.8218 707.274 43.788C707.445 43.7635 707.603 43.7191 707.746 43.6549C707.911 43.5876 708.045 43.5356 708.149 43.4989L707.999 45.6464C707.758 45.79 707.482 45.9169 707.171 46.027C706.863 46.1586 706.527 46.2504 706.164 46.3026Z" fill="white"/>
<path d="M722.71 43.6746C722.093 43.7757 721.591 43.7157 721.204 43.4946C720.818 43.2735 720.508 42.7776 720.272 42.0069L718.231 35.3533C718.084 34.8525 717.899 34.2594 717.678 33.574C717.477 32.885 717.279 32.2067 717.082 31.5391C716.906 30.8679 716.761 30.3122 716.645 29.8719L716.517 29.8928C716.323 30.7119 716.053 31.6639 715.705 32.7487C715.358 33.8335 715.03 34.8385 714.723 35.7637L711.571 45.1702L708.568 45.6619L715.339 26.9035L714.605 24.8256C714.302 23.9128 713.847 23.2657 713.237 22.8843C712.649 22.4994 711.844 22.3906 710.822 22.558C710.438 22.6208 710.101 22.6979 709.81 22.7893C709.519 22.8807 709.259 22.9669 709.032 23.0479L709.145 20.7329C709.429 20.5989 709.749 20.4809 710.104 20.3791C710.459 20.2772 710.85 20.1914 711.276 20.1216C712.916 19.8531 714.198 20.0697 715.122 20.7714C716.064 21.4482 716.834 22.6782 717.432 24.4612L722.694 40.167C722.852 40.6003 723.007 40.8811 723.16 41.0093C723.333 41.134 723.537 41.1771 723.771 41.1388C723.942 41.1109 724.098 41.0634 724.24 40.9964C724.404 40.9259 724.537 40.8713 724.64 40.8326L724.533 42.9825C724.294 43.1309 724.021 43.2632 723.712 43.3794C723.406 43.5169 723.072 43.6153 722.71 43.6746Z" fill="white"/>
<path d="M738.775 29.4347C738.792 28.9269 738.79 28.4993 738.77 28.1519C738.771 27.8005 738.744 27.4762 738.69 27.1791C738.557 26.4573 738.27 25.9723 737.83 25.7241C737.41 25.4721 736.861 25.4085 736.182 25.5333C735.439 25.6699 734.7 26.069 733.966 26.7306C733.228 27.3711 732.612 28.3182 732.118 29.572C731.642 30.8008 731.37 32.365 731.302 34.2647L731.062 41.9129L728.069 42.463L728.576 24.6271L731.059 24.1706L731.289 27.3873L731.352 27.3756C731.65 26.7283 732.027 26.0886 732.481 25.4565C732.956 24.8204 733.513 24.2682 734.151 23.7998C734.811 23.3275 735.565 23.0133 736.414 22.8572C737.815 22.5997 738.968 22.7828 739.873 23.4065C740.799 24.0263 741.384 25.0049 741.63 26.3423C741.72 26.8305 741.769 27.3372 741.778 27.8623C741.804 28.3622 741.81 28.8111 741.795 29.2088L741.191 47.9512L738.23 48.4955L738.775 29.4347Z" fill="white"/>
<path d="M751.186 38.112L746.088 21.4425L748.847 20.8776L751.358 29.9142C751.504 30.413 751.67 31.007 751.855 31.6961C752.04 32.3852 752.225 33.0744 752.41 33.7635C752.617 34.4483 752.77 35.0339 752.869 35.5202L752.996 35.4942C754.191 33.7957 755.099 32.1005 755.722 30.4087C756.345 28.717 756.735 26.9628 756.892 25.1461C757.066 23.304 757.049 21.3358 756.84 19.2414L759.695 18.6571C759.908 20.8826 759.871 23.0162 759.584 25.0578C759.318 27.095 758.743 29.1294 757.859 31.161C756.975 33.1926 755.692 35.317 754.009 37.5342L751.186 38.112Z" fill="white"/>
<path d="M769.481 34.586C768.132 34.8834 767.077 34.8067 766.314 34.3559C765.568 33.8794 765.077 33.1037 764.84 32.0287C764.728 31.5229 764.671 30.9609 764.667 30.3429L764.569 17.5675L767.352 16.9542L767.439 29.8314C767.45 30.1825 767.488 30.5057 767.553 30.8008C767.697 31.4542 767.965 31.8702 768.358 32.0488C768.768 32.2016 769.246 32.2177 769.794 32.0969C770.216 32.0039 770.588 31.8887 770.912 31.7511C771.256 31.6089 771.588 31.4584 771.906 31.2998L771.927 33.6491C771.634 33.8242 771.284 33.9898 770.876 34.146C770.494 34.3185 770.029 34.4652 769.481 34.586Z" fill="white"/>
<path d="M775.634 32.9044L775.168 15.1759L777.971 14.5077L778.04 18.9844C778.078 19.7963 778.067 20.5867 778.006 21.3556C777.966 22.1194 777.933 22.7264 777.907 23.1763L777.97 23.1613L784.018 13.0661L787.293 12.2853L781.776 21.2555L788.577 29.8186L785.522 30.5469L780.079 23.4906L778.24 25.8263L778.437 32.2362L775.634 32.9044Z" fill="white"/>
<path d="M798.739 27.5616C797.404 27.9163 796.181 27.7274 795.071 26.9951C793.982 26.2572 793.185 24.9391 792.681 23.0408C792.259 21.4555 792.061 19.9113 792.086 18.4084C792.106 16.8847 792.329 15.4966 792.755 14.2444C793.197 12.9657 793.828 11.8936 794.648 11.0282C795.483 10.1364 796.495 9.53258 797.684 9.2167C798.539 8.98948 799.261 8.93177 799.849 9.04354C800.452 9.12892 800.982 9.35673 801.437 9.72698C801.908 10.0708 802.37 10.5064 802.823 11.0338L802.979 10.9922L803.556 7.99176L805.371 7.50962L806.021 20.8031C806.031 21.0909 806.048 21.3655 806.073 21.6269C806.092 21.8674 806.126 22.0816 806.176 22.2693C806.248 22.5405 806.366 22.7325 806.53 22.8453C806.694 22.958 806.943 22.9701 807.277 22.8814C807.423 22.8426 807.566 22.7934 807.707 22.7337C807.868 22.6685 808.024 22.5825 808.174 22.4756L808.268 24.5945C808.123 24.7223 807.874 24.8778 807.521 25.061C807.194 25.2595 806.864 25.4031 806.53 25.4917C806.092 25.6081 805.681 25.6168 805.297 25.5177C804.919 25.4395 804.583 25.1826 804.289 24.7472C803.989 24.2909 803.735 23.5879 803.527 22.6381L803.402 22.6713C802.902 23.8985 802.276 24.9469 801.525 25.8166C800.794 26.6807 799.865 27.2623 798.739 27.5616ZM799.071 25.028C799.822 24.8285 800.487 24.3502 801.068 23.593C801.643 22.815 802.098 21.879 802.432 20.7851C802.788 19.6857 802.983 18.5285 803.017 17.3134C803.024 16.6641 802.986 16.06 802.904 15.501C802.817 14.9211 802.716 14.4122 802.599 13.9741C802.339 12.9937 801.865 12.2598 801.177 11.7726C800.489 11.2853 799.634 11.1775 798.612 11.449C797.798 11.6652 797.117 12.1254 796.567 12.8298C796.012 13.5133 795.6 14.3596 795.332 15.3688C795.064 16.3779 794.944 17.4817 794.972 18.6802C795 19.8786 795.178 21.0933 795.505 22.324C795.81 23.4713 796.266 24.2656 796.875 24.7069C797.504 25.1427 798.236 25.2497 799.071 25.028ZM796.997 7.38917L796.96 6.99707L798.213 1.37161L801.529 0.490467L801.55 0.819992L798.844 6.89873L796.997 7.38917Z" fill="white"/>
</svg>
